<?xml version="1.0" encoding="UTF-8" standalone="no"?>
<!-- Created with Inkscape (http://www.inkscape.org/) -->

<svg
   version="1.1"
   id="svg2"
   width="500"
   height="500"
   viewBox="0 0 500 500"
   sodipodi:docname="CountryRadio.svg"
   xml:space="preserve"
   inkscape:version="1.2.1 (9c6d41e410, 2022-07-14)"
   xmlns:inkscape="http://www.inkscape.org/namespaces/inkscape"
   xmlns:sodipodi="http://sodipodi.sourceforge.net/DTD/sodipodi-0.dtd"
   xmlns:xlink="http://www.w3.org/1999/xlink"
   xmlns="http://www.w3.org/2000/svg"
   xmlns:svg="http://www.w3.org/2000/svg"><defs
     id="defs6"><linearGradient
       id="linearGradient2125"
       inkscape:swatch="solid"><stop
         style="stop-color:#ffffff;stop-opacity:1;"
         offset="0"
         id="stop2123" /></linearGradient><linearGradient
       inkscape:collect="always"
       id="linearGradient932"><stop
         style="stop-color:#ffffff;stop-opacity:0.49803922;"
         offset="0"
         id="stop1664" /><stop
         style="stop-color:#ffea81;stop-opacity:0.74901961;"
         offset="0.19018404"
         id="stop2862" /><stop
         style="stop-color:#ffd503;stop-opacity:1;"
         offset="1"
         id="stop930" /></linearGradient><radialGradient
       inkscape:collect="always"
       xlink:href="#linearGradient932"
       id="radialGradient936"
       cx="251.77975"
       cy="252.96591"
       fx="251.77975"
       fy="252.96591"
       r="199.70982"
       gradientUnits="userSpaceOnUse"
       gradientTransform="translate(-1.1862396,-4.1518386)" /><linearGradient
       inkscape:collect="always"
       xlink:href="#linearGradient2125"
       id="linearGradient2127"
       x1="3.7255077"
       y1="246.72305"
       x2="493.94335"
       y2="246.72305"
       gradientUnits="userSpaceOnUse" /></defs><sodipodi:namedview
     id="namedview4"
     pagecolor="#ffffff"
     bordercolor="#000000"
     borderopacity="0.25"
     inkscape:showpageshadow="2"
     inkscape:pageopacity="0.0"
     inkscape:pagecheckerboard="0"
     inkscape:deskcolor="#d1d1d1"
     showgrid="false"
     inkscape:zoom="1.686"
     inkscape:cx="249.70344"
     inkscape:cy="250.59312"
     inkscape:window-width="1920"
     inkscape:window-height="1001"
     inkscape:window-x="-9"
     inkscape:window-y="1341"
     inkscape:window-maximized="1"
     inkscape:current-layer="g8" /><g
     inkscape:groupmode="layer"
     inkscape:label="Image"
     id="g8"><circle
       style="display:inline;fill:url(#radialGradient936);fill-opacity:1;stroke:#000000;stroke-width:0.25;stroke-opacity:0.975845"
       id="path903"
       cy="248.81404"
       cx="250.59351"
       r="199.58482"
       inkscape:label="Circlegradient" /><path
       style="fill:url(#linearGradient2127);fill-opacity:1;stroke:#000000;stroke-width:0.25;stroke-opacity:0.975845"
       d="m 93.11981,183.86714 c -2.480932,-0.90461 -4.120634,-3.35061 -6.524318,-4.15184 -2.713132,-0.90438 0.614579,1.55499 -2.965599,-0.59312 -0.479509,-0.2877 -0.70673,-0.89853 -1.186239,-1.18624 -1.298237,-0.77894 -3.538069,-0.87419 -4.744959,-1.77936 -0.353668,-0.26525 -0.197706,-0.98853 -0.59312,-1.18624 -3.163305,-1.58165 -0.790826,0.52722 -2.372479,0 -1.378777,-0.45959 -2.748056,-1.42841 -4.151839,-1.77936 -1.348783,-0.33719 -2.794477,0.45246 -4.151838,0 -0.530503,-0.17683 -0.720958,-0.87605 -1.18624,-1.18624 -1.119982,-0.74665 -5.210826,0 -6.524318,0 -3.610312,0 -8.306317,-0.71121 -11.862396,0 -2.07155,0.41431 -3.934686,1.38006 -5.931198,1.77936 -0.969336,0.19387 -2.081428,-0.44208 -2.965599,0 -0.500163,0.25009 -0.720958,0.87606 -1.18624,1.18624 -0.62182,0.41455 -2.263761,0.35918 -2.965599,0.59312 -0.530502,0.17684 -0.643737,1.05062 -1.186239,1.18624 -0.575411,0.14386 -1.248857,-0.26525 -1.77936,0 -0.395413,0.19771 -0.280518,0.87364 -0.59312,1.18624 -1.105302,1.1053 -3.123113,0.75064 -4.151838,1.77936 -0.504055,0.50406 -0.682185,1.27531 -1.18624,1.77936 -1.016163,1.01617 -2.468672,1.87555 -3.558719,2.9656 -0.197706,0.19771 -0.395413,0.39541 -0.59312,0.59312 -0.593119,0.79083 -1.080361,1.67348 -1.779359,2.37248 -0.312602,0.3126 -0.873638,0.28052 -1.18624,0.59312 -0.576409,0.57641 -0.10402,1.72035 -0.59312,2.37248 -0.265251,0.35367 -0.920988,0.23945 -1.186239,0.59312 -0.375122,0.50016 -0.217998,1.2792 -0.59312,1.77936 -0.265251,0.35367 -0.941015,0.22528 -1.18624,0.59312 -0.219335,0.329 0.176835,0.83257 0,1.18624 -0.673097,1.34619 -1.977592,1.38605 -2.372479,2.9656 -0.0959,0.3836 0.176834,0.83257 0,1.18624 -0.08842,0.17683 -0.504703,-0.17684 -0.59312,0 -0.265251,0.5305 0.265252,1.24885 0,1.77936 -0.191965,0.38393 -1.6199766,2.32807 -1.779359,2.96559 -0.4656758,1.86271 -0.2590813,2.74073 -0.5931198,4.74496 -0.1233716,0.74023 -1.6193784,2.56565 -1.7793595,2.9656 -0.2431308,0.60783 -0.1393127,3.10491 -0.5931198,3.55872 -0.1397997,0.1398 -0.4533201,-0.1398 -0.5931198,0 -0.6989984,0.699 0,1.97707 0,2.9656 0,1.56878 0.3790351,3.82194 0,5.33808 -0.067813,0.27125 -0.525307,0.32187 -0.5931198,0.59312 -0.5732233,2.29289 0,5.33468 0,7.71056 0,2.98425 0.7482517,9.24351 0,11.86239 -0.1536237,0.53769 -0.9785584,0.66704 -1.1862396,1.18624 -0.8090622,2.02266 0.2269746,14.41049 0.5931198,16.60736 0.045966,0.27579 0.5047027,0.32787 0.5931198,0.59312 0.2500813,0.75024 -0.1918036,1.60526 0,2.37248 0.4348316,1.73932 2.074885,2.95939 2.3724792,4.74495 0.3889183,2.33351 0.186145,4.78389 1.1862397,7.11744 0.2808019,0.65521 0.9054376,1.12416 1.1862398,1.77936 0.939821,2.19292 0.713731,4.98618 1.779359,7.11744 0.250081,0.50016 0.898534,0.70673 1.18624,1.18624 2.292862,3.82144 -1.434667,-0.29811 1.779359,3.55872 1.707221,2.04866 1.607014,1.05193 2.372479,2.9656 0.232195,0.58048 0.504703,1.16044 0.59312,1.77936 0.11184,0.78287 -0.353668,1.66514 0,2.37248 2.025208,4.05041 0.565678,-4.88217 1.77936,1.18623 0,6.35472 -0.419399,-0.66507 0.59312,2.37248 0.33347,1.00042 -0.468387,2.62195 0,3.55872 0.08842,0.17684 0.530599,-0.18756 0.593119,0 0.187561,0.56269 -0.265251,1.24886 0,1.77936 0.197707,0.39542 0.873638,0.28052 1.18624,0.59312 0.712841,0.71284 0.142279,2.06392 0.59312,2.9656 0.170372,0.34074 2.341859,0.812 2.965599,1.18624 0.799002,0.4794 2.770414,2.28991 3.558719,2.9656 11.432025,9.79888 -1.974096,-2.03901 3.558719,5.33808 0.355871,0.47449 1.304863,-0.23725 1.779359,0 0.250081,0.12504 0.343039,0.46808 0.59312,0.59312 0.60914,0.30457 1.816111,-0.37091 2.372479,0 1.913258,1.2755 0.337173,1.40387 2.965599,1.77936 3.026711,0.43238 14.84089,1.37965 17.200475,0.59312 3.523952,-1.17465 0.02923,-1.27515 3.558718,-1.77936 1.370037,-0.19572 2.781802,0.19572 4.151839,0 2.022192,-0.28889 4.021736,-0.80435 5.931198,-1.18624 0.775469,-0.1551 2.018811,0.70733 2.372479,0 0.176835,-0.35367 -0.329003,-0.96691 0,-1.18624 1.058662,-0.70578 3.492538,0.41747 4.744959,0 1.319936,-0.43998 2.985604,-2.49911 4.151839,-2.9656 1.765577,-0.70623 3.419291,0.36627 5.338078,-0.59312 1.163176,-0.58159 0.668764,-1.59627 1.18624,-2.37248 0.245224,-0.36784 0.818402,-0.34789 1.186239,-0.59312 1.102926,-0.73528 0.403827,-1.34083 1.77936,-2.37248 0.588656,-0.44149 2.081041,-0.90504 2.372479,-1.77936 0.238129,-0.71439 -0.443071,-1.85438 0.59312,-2.37248 0.530502,-0.26525 1.203948,0.14386 1.779359,0 0.605606,-0.1514 0.942603,-1.53572 1.18624,-1.77936 2.314791,-2.31479 0.318534,0.1373 1.779359,-0.59312 0.964862,-0.48243 1.849312,-2.31164 2.372482,-2.9656 1.59514,-1.99392 1.2517,-0.65858 3.55872,-2.96559 0.33513,-0.33514 0.7444,-1.93065 1.18624,-2.37248 1.10494,-1.10495 3.0195,-1.83326 4.15183,-2.9656 0.1398,-0.1398 -0.1398,-0.45332 0,-0.59312 0.2796,-0.2796 0.80264,0.0959 1.18624,0 3.76886,-0.94222 6.8826,-1.85764 10.67616,-0.59312 0.7716,0.2572 2.31349,-0.43475 2.9656,0 0.36784,0.24522 0.28052,0.87364 0.59312,1.18624 0.2796,0.2796 0.81112,-0.12504 1.18624,0 2.05797,0.68599 3.79961,1.35304 5.9312,1.77936 1.98316,0.39663 19.26731,0.29837 20.75919,0 6.23152,-1.24631 -2.17036,0.27502 2.9656,-1.77936 0.93407,-0.37363 2.04547,0.30671 2.9656,0 0.77333,-0.25778 1.59914,-0.33534 2.37248,-0.59312 0.26525,-0.0884 0.39541,-0.39542 0.59312,-0.59312 0.39541,-0.19771 0.75735,-0.4859 1.18624,-0.59312 0.3836,-0.0959 0.85723,0.21933 1.18624,0 0.36783,-0.24523 0.1977,-0.98854 0.59312,-1.18624 0.5305,-0.26525 1.20395,0.14385 1.77936,0 0.57643,-0.14411 1.71754,-0.96793 2.37248,-1.18624 0.93963,-0.31321 1.95416,-0.25598 2.96559,-0.59312 0.63133,-0.21044 2.53177,0.43383 2.9656,0 0.2796,-0.2796 -0.17683,-0.83257 0,-1.18624 0.17684,-0.35367 0.79083,0 1.18624,0 0.59312,0 1.21668,-0.18756 1.77936,0 0.53051,0.17683 0.79083,0.79083 1.18624,1.18624 1.93971,1.9397 3.8805,1.94025 5.9312,2.9656 0.5305,0.26525 1.21668,-0.18756 1.77936,0 2.02983,0.67661 -0.24157,0.82748 1.18624,1.77936 0.89808,0.59872 4.65751,-0.0874 5.33808,0.59312 0.1398,0.1398 -0.1398,0.45332 0,0.59312 0.5592,0.5592 1.58165,0 2.37248,0 4.03562,0 7.80097,0.59312 11.86239,0.59312 1.8253,0 0.17499,0.38405 1.77936,1.18624 0.24101,0.1205 10.93285,0.16821 11.26928,0 2.33137,-1.16569 5.07674,-0.0664 7.71056,-0.59312 1.00447,-0.2009 1.97026,-0.93741 2.9656,-1.18624 1.83252,-0.45814 4.14578,0.59514 5.93119,0 0.53051,-0.17684 0.66704,-0.97856 1.18624,-1.18624 1.71614,-0.68646 4.11967,0.45288 5.9312,0 2.04462,-0.51116 3.78776,-0.829 5.9312,-1.18624 3.38416,-0.56403 7.23869,0 10.67616,0 0.39541,0 1.0094,-0.35367 1.18624,0 0.17683,0.35367 -0.32901,0.9669 0,1.18624 0.4935,0.329 1.20394,-0.14386 1.77936,0 0.5425,0.13562 0.68607,0.93616 1.18623,1.18624 0.49846,0.24922 2.02778,0.24841 2.37248,0.59312 0.31261,0.3126 0.19771,0.98853 0.59312,1.18624 0.44184,0.22091 8.63499,0.21373 9.48992,0 1.67488,-0.41872 3.03364,-1.53489 4.74496,-1.77936 0.78288,-0.11184 1.63821,0.2937 2.37248,0 0.41046,-0.16419 0.34789,-0.81841 0.59312,-1.18624 0.1977,-0.19771 0.39541,-0.39542 0.59312,-0.59312 0.1977,0 0.45332,0.1398 0.59312,0 0.1398,-0.1398 -0.18756,-0.5306 0,-0.59312 0.56268,-0.18756 1.1922,0.0839 1.77936,0 1.88806,-0.26973 4.54901,-2.76701 6.52432,-1.77936 2.35475,1.17738 3.67536,3.02392 5.93119,4.15184 0.73887,0.36943 12.60248,0.41571 13.64176,0 0.66186,-0.26475 1.14177,-0.86745 1.77936,-1.18624 0.90168,-0.45084 2.06392,-0.14228 2.9656,-0.59312 0.17683,-0.0884 -0.17684,-0.50471 0,-0.59312 1.06515,-0.53258 1.46222,0.77227 2.37248,-0.59312 0.55117,-0.82676 -0.66934,-1.35854 0.59312,-1.77936 0.56268,-0.18756 1.35996,0.4194 1.77936,0 0.3126,-0.3126 0.39541,-0.79083 0.59312,-1.18624 0.59312,0 1.28585,0.329 1.77936,0 0.329,-0.21934 -0.17684,-0.83257 0,-1.18624 0.0884,-0.17684 0.45332,0.1398 0.59312,0 0.13979,-0.1398 -0.1398,-0.45332 0,-0.59312 0.25345,-0.25346 4.86995,-0.23406 5.33807,0 0.17684,0.0884 -0.1398,0.45332 0,0.59312 0.24422,0.24421 5.12528,0.19016 5.9312,0.59312 0.17684,0.0884 -0.1398,0.45332 0,0.59312 0.1398,0.1398 0.41629,-0.0884 0.59312,0 0.90841,0.4542 0.46383,1.05695 1.18624,1.77936 1.09126,1.09125 3.06059,0.6881 4.15184,1.77936 0.3126,0.3126 0.18265,1.02205 0.59312,1.18624 0.73426,0.2937 1.59241,-0.13001 2.37248,0 0.43607,0.0727 0.76684,0.45332 1.18624,0.59312 0.56268,0.18756 1.20395,-0.14386 1.77936,0 1.57513,0.39378 3.09591,0.85643 4.74496,1.18624 0.90287,0.18057 3.3726,-0.51949 4.15183,0 0.36784,0.24522 0.22529,0.94101 0.59312,1.18624 0.48155,0.32102 8.76412,0 9.48992,0 2.37248,0 -0.98853,0.1977 0.59312,-0.59312 0.35367,-0.17684 0.83257,0.17683 1.18624,0 0.1591,-0.0795 0.50332,-2.23778 0.59312,-2.37248 0.50827,-0.76241 2.50567,-0.72631 2.9656,-1.18624 0.1398,-0.1398 -0.1398,-0.45332 0,-0.59312 0.5592,-0.5592 1.63822,0.2937 2.37248,0 0.76784,-0.30714 2.77127,-3.15993 4.15184,-1.77936 0.1398,0.1398 -0.18756,0.5306 0,0.59312 0.72429,0.24143 2.34172,-0.0308 2.9656,0.59312 0.1398,0.1398 -0.1398,0.45332 0,0.59312 0.4194,0.4194 1.24885,-0.26525 1.77936,0 0.55919,0.2796 0.15103,1.33727 0.59312,1.77936 0.2796,0.2796 0.81111,-0.12504 1.18624,0 1.10652,0.36884 1.47751,0.73875 2.37247,1.18624 0.0818,0.0409 9.0622,1.02083 9.48992,0.59312 0.1398,-0.1398 -0.17683,-0.50471 0,-0.59312 0.73985,-0.36993 2.28223,0.45557 2.9656,0 0.46528,-0.31019 0.72096,-0.87606 1.18624,-1.18624 1.76061,-1.17374 4.66404,-0.6632 6.52432,-1.77936 1.39782,-0.83869 0.76594,-1.45805 2.37248,-1.77936 3.58037,-0.71608 -0.15097,1.128 4.15184,-0.59312 0.2596,-0.10384 0.32786,-0.5047 0.59312,-0.59312 0.37512,-0.12504 0.85723,0.21933 1.18624,0 0.36783,-0.24523 0.28051,-0.87364 0.59312,-1.18624 0.55919,-0.5592 1.60526,0.1918 2.37247,0 0.18531,-0.0463 0.70075,-1.07862 1.18624,-0.59312 0.56246,0.56246 0,3.84558 0,4.74496 0,4.19128 -1.03157,1.31536 -1.77935,3.55872 -0.12505,0.37512 0.12504,0.81111 0,1.18624 -0.34669,1.04004 -1.78901,2.09039 -2.37248,2.9656 -1.02441,1.5366 -1.18624,5.12551 -1.18624,7.11743 0,0.3219 -0.31712,3.40016 0,3.55872 0.35366,0.17684 0.85723,-0.21933 1.18624,0 2.16723,1.44482 -0.63596,0.86826 1.18624,1.77936 0.32006,0.16003 2.61496,0.8356 2.96559,1.18624 0.44209,0.44209 0,1.58165 0.59312,1.77936 0.56269,0.18756 1.21668,-0.18756 1.77936,0 0.18756,0.0625 -0.1398,0.45332 0,0.59312 0.9275,0.9275 2.9051,1.87378 4.15184,2.37248 0.98854,0.39541 1.93271,0.92802 2.9656,1.18624 0.0764,0.0191 2.19527,-0.17721 2.37248,0 0.3126,0.3126 0.19771,0.98853 0.59312,1.18624 1.39145,0.69572 3.96878,-0.0915 5.33808,0.59312 0.25008,0.12504 0.32187,0.52531 0.59312,0.59312 2.0322,0.50805 5.02287,0 7.11744,0 0.1977,0 0.45332,0.1398 0.59312,0 0.3126,-0.3126 0.28051,-0.87364 0.59312,-1.18624 0.41939,-0.4194 1.21667,0.18756 1.77936,0 0.5305,-0.17684 0.68607,-0.93616 1.18623,-1.18624 0.17684,-0.0884 0.45333,0.1398 0.59312,0 0.1398,-0.1398 -0.17683,-0.5047 0,-0.59312 0.35367,-0.17684 0.85724,0.21933 1.18624,0 0.36784,-0.24523 0.28052,-0.87364 0.59312,-1.18624 0.47183,-0.47183 2.53945,-0.76008 2.9656,-1.18624 0.1398,-0.1398 -0.17683,-0.5047 0,-0.59312 0.35367,-0.17683 0.86991,0.23725 1.18624,0 0.57028,-0.4277 0.61597,-1.35165 1.18624,-1.77936 0.5207,-0.39052 2.3654,-0.29302 2.9656,-0.59312 0.5592,-0.2796 0.15104,-1.33727 0.59312,-1.77936 0.2796,-0.2796 0.90664,0.2796 1.18624,0 0.1398,-0.1398 -0.1398,-0.45332 0,-0.59312 1.44057,-1.44057 0.87095,0.17638 1.77936,-1.18624 0.3468,-0.5202 0.15103,-1.33727 0.59312,-1.77936 0.1398,-0.1398 0.45332,0.1398 0.59312,0 0.2796,-0.2796 -0.21934,-0.85723 0,-1.18624 0.31019,-0.46528 0.93616,-0.68607 1.18624,-1.18624 0.59312,-1.18624 -0.29656,-0.88968 0,-1.77936 0.23881,-0.71644 1.53038,-5.0891 1.77936,-5.33807 0.3126,-0.31261 0.94101,-0.22529 1.18624,-0.59312 0.84873,-1.2731 -0.87975,-1.04293 0.59312,-1.77936 0.17683,-0.0884 0.54517,0.1918 0.59312,0 0.1918,-0.76722 -0.1551,-1.59701 0,-2.37248 0.34891,-1.74457 1.06611,-0.11637 1.77936,-1.18624 0.329,-0.49351 -0.14385,-1.20395 0,-1.77936 0.0678,-0.27125 0.5047,-0.32787 0.59312,-0.59312 0.12504,-0.37512 -0.0959,-0.80263 0,-1.18624 0.71603,-2.86414 0.28186,0.0294 1.18624,-1.77936 0.26346,-0.52694 -0.41703,-2.75709 0,-2.9656 0.35367,-0.17683 0.90664,0.2796 1.18624,0 0.16558,-0.16558 1.10558,-5.5279 1.18624,-5.9312 0.49068,-2.45341 0.90449,0.0742 2.37248,-2.37248 0.17682,-0.2947 0.67147,-5.07326 1.18624,-5.9312 0.52467,-0.87446 1.4094,-0.66949 1.77935,-1.77935 0.25009,-0.75025 -0.25008,-1.62224 0,-2.37248 0.0884,-0.26526 0.53829,-0.31895 0.59312,-0.59312 0.37344,-1.86717 -0.46275,-4.0802 0,-5.9312 0.36803,-1.47211 0.59312,-1.68253 0.59312,-2.9656 0,-0.98853 -0.36713,-2.04777 0,-2.9656 0.26475,-0.66186 0.86745,-1.14177 1.18624,-1.77936 0.83974,-1.67948 0.33914,-3.56018 0.59312,-5.33808 0.17684,-1.23784 0.54291,-2.4865 1.18624,-3.55872 0.28771,-0.47951 0.93616,-0.68607 1.18624,-1.18624 0.39616,-0.79232 -0.28308,-2.11633 0,-2.9656 0.5105,-1.5315 0.95225,-3.107 1.18624,-4.74495 0.12177,-0.85235 -0.34409,-3.11957 0,-4.15184 0.55991,-1.67972 0.41304,-5.57105 0.59312,-5.9312 0.25008,-0.50016 0.93616,-0.68608 1.18624,-1.18624 0.93918,-1.87837 -0.25092,-10.58488 -1.18624,-12.45552 -0.60989,-1.21979 -2.19482,-3.10408 -3.55872,-3.55872 -0.37512,-0.12504 -0.83257,0.17684 -1.18624,0 -0.17683,-0.0884 0.1398,-0.45332 0,-0.59311 -0.2796,-0.2796 -0.86991,0.23724 -1.18624,0 -0.67103,-0.50328 -1.06009,-1.34781 -1.77936,-1.77936 -0.78953,-0.47373 -2.77399,0.1916 -3.55871,-0.59312 -0.1398,-0.1398 0.17683,-0.50471 0,-0.59312 -0.70734,-0.35367 -1.71448,0.43867 -2.37248,0 -0.36784,-0.24523 -0.22529,-0.94102 -0.59312,-1.18624 -0.65801,-0.43868 -1.62224,0.25008 -2.37248,0 -1.70252,-0.56751 -0.39738,-0.55397 -3.55872,-1.18624 -2.63609,-0.52722 3.95413,1.58165 -2.37248,0 -0.71702,-0.17926 -0.78982,-0.92297 -1.77936,-0.59312 -0.24932,0.0831 -5.89722,3.49076 -5.9312,3.55872 -0.17683,0.35366 0.2796,0.90664 0,1.18624 -2.02924,2.02924 -1.58826,-0.97532 -2.9656,1.77935 -0.17683,0.35367 0.2796,0.90665 0,1.18624 -0.4194,0.4194 -1.35996,-0.41939 -1.77936,0 -0.1398,0.1398 0.1398,0.45332 0,0.59312 -0.34441,0.34441 -11.06196,-0.1929 -11.86239,-0.59312 -0.91923,-0.45961 -2.02345,-1.4653 -2.9656,-1.77935 -0.37512,-0.12505 -0.83257,0.17683 -1.18624,0 -1.98352,-0.99176 -6.21004,-4.91936 -8.30368,-5.33808 -0.20709,-0.0414 -2.46857,0.24851 -2.9656,0 -3.98657,-1.99329 -9.77621,0.29861 -14.23487,-0.59312 -1.41138,-0.28228 -2.74047,-0.90397 -4.15184,-1.18624 -1.1737,-0.23474 -15.89491,-0.43519 -17.20048,0 -0.26525,0.0884 -0.32786,0.5047 -0.59312,0.59312 -0.86862,0.28954 -2.0765,-0.22228 -2.9656,0 -5.0354,1.25885 -12.03183,2.316 -17.20047,0.59312 -0.88968,-0.29656 -0.59312,0.59312 -1.77936,0 -0.50016,-0.25008 -0.72096,-0.87605 -1.18624,-1.18624 -0.1645,-0.10967 -0.45332,0.1398 -0.59312,0 -0.1398,-0.1398 0.18756,-0.5306 0,-0.59312 -0.81878,-0.27293 -2.60101,0.27212 -2.9656,-1.18624 -0.14385,-0.57541 0.22028,-1.22866 0,-1.77936 -0.20768,-0.5192 -0.85072,-0.73888 -1.18624,-1.18624 -0.46402,-0.6187 -0.7928,-2.57217 -1.18624,-2.9656 -0.1398,-0.1398 -0.5047,0.17683 -0.59312,0 -0.17683,-0.35367 0.2796,-0.90664 0,-1.18624 -0.2796,-0.2796 -0.83257,0.17683 -1.18624,0 -0.17683,-0.0884 0.1398,-0.45332 0,-0.59312 -0.50405,-0.50405 -1.1681,-0.81949 -1.77936,-1.18624 -0.83104,-0.49863 -3.01905,-1.59056 -4.15183,-1.77936 -1.1701,-0.19502 -2.38441,0.16776 -3.55872,0 -1.8115,-0.25878 -12.97507,-2.13109 -14.23488,-1.18624 -0.50016,0.37512 -0.218,1.2792 -0.59312,1.77936 -0.62495,0.83328 -2.57898,0.61951 -2.9656,1.77936 -0.12504,0.37512 0.17684,0.83257 0,1.18624 -0.0348,0.0696 -2.73053,1.07416 -2.9656,1.77936 -0.12504,0.37512 0.17684,0.83257 0,1.18624 -0.6252,1.25041 -2.1268,1.8472 -2.9656,2.9656 -0.3295,0.43934 -0.32768,1.49317 -1.18624,1.77936 -0.56268,0.18756 -1.35996,-0.4194 -1.77935,0 -0.24364,0.24363 -0.58064,1.62796 -1.18624,1.77936 -0.76722,0.1918 -1.81328,-0.5592 -2.37248,0 -0.1398,0.1398 0.1398,0.45332 0,0.59312 -0.44182,0.44181 -4.26204,0.1627 -5.33808,0.59312 -0.5192,0.20768 -0.73888,0.85072 -1.18624,1.18624 -1.54274,1.15705 -4.17576,1.3405 -5.9312,1.77936 -2.08504,0.52126 -4.96706,0 -7.11744,0 -6.52432,0 -13.04863,0 -19.57295,0 -2.38578,0 -14.94651,0.53386 -16.01424,0 -0.17683,-0.0884 0.17684,-0.50471 0,-0.59312 -1.66668,-0.83335 -4.73893,0.44634 -6.52431,0 -0.85778,-0.21445 -1.52233,-0.94334 -2.37248,-1.18624 -0.5703,-0.16295 -1.19776,0.11632 -1.77936,0 -0.4335,-0.0867 -0.75274,-0.50642 -1.18624,-0.59312 -3.59994,-0.71999 -10.92209,0 -14.828,0 -1.51576,0 -8.95545,-0.56379 -10.08303,0 -0.17684,0.0884 0.1398,0.45332 0,0.59312 -0.4194,0.4194 -1.18624,0 -1.77936,0 -1.50288,0 -4.60672,-0.66224 -5.9312,0 -0.17684,0.0884 0.18756,0.5306 0,0.59312 -1.31293,0.43764 -2.7818,-0.19572 -4.15184,0 -0.61892,0.0884 -1.17282,0.44148 -1.77936,0.59312 -0.31633,0.0791 -1.56188,-0.21748 -1.77936,0 -0.1398,0.1398 0.17684,0.5047 0,0.59312 -0.70734,0.35366 -1.71447,-0.43868 -2.37248,0 -0.36784,0.24522 -0.22528,0.94101 -0.59312,1.18624 -1.2266,0.81773 -4.91694,-1.01426 -5.9312,0 -0.1398,0.1398 0.17684,0.5047 0,0.59312 -0.33243,0.16621 -13.75516,0.35761 -14.82799,0 -0.4194,-0.1398 -0.7486,-0.5306 -1.18624,-0.59312 -1.66399,-0.23772 -8.11547,-0.4919 -10.08304,0 -1.26974,0.31743 -2.34402,0.88256 -3.55872,1.18624 -0.34023,0.085 -2.66426,-0.30134 -2.9656,0 -0.1398,0.13979 0.17684,0.5047 0,0.59311 -0.97989,0.48995 -4.00318,-0.74177 -4.74495,0 -0.31261,0.31261 -0.28052,0.87364 -0.59312,1.18624 -0.4194,0.4194 -1.18624,0 -1.77936,0 -1.54759,0 -5.68749,0.71498 -7.11744,0 -0.25008,-0.12504 -0.32787,-0.5047 -0.59312,-0.59312 -0.56268,-0.18756 -1.35996,0.4194 -1.77936,0 -0.1398,-0.13979 0.1398,-0.45332 0,-0.59312 -0.2796,-0.27959 -0.90664,0.2796 -1.18624,0 -0.1398,-0.13979 0.1398,-0.45332 0,-0.59311 -0.15052,-0.15053 -2.43263,-1.60171 -2.9656,-1.77936 -0.37512,-0.12504 -0.81112,0.12504 -1.18624,0 -0.59065,-0.19689 -1.18871,-0.98936 -1.77936,-1.18624 -0.56268,-0.18756 -1.28585,0.329 -1.77936,0 -0.46528,-0.31019 -0.65573,-1.00941 -1.18624,-1.18624 -1.81293,-0.60431 -5.19259,0 -7.11743,0 -3.94574,0 -9.88112,-0.75213 -13.64176,0 -0.71619,0.14323 -4.85411,0.94425 -5.33808,1.18624 -0.25008,0.12504 -0.32787,0.5047 -0.59312,0.59312 -1.34734,0.44911 -3.95606,0 -5.33808,0 -1.32237,0 -7.33797,0.48285 -8.30367,0 -1.55883,-0.77942 -0.35959,-0.53938 -1.18624,-1.77936 -0.59828,-0.89741 -1.39953,-0.63987 -1.77936,-1.77936 -0.0399,-0.1197 0.19733,-2.17515 0,-2.37248 -0.64538,-0.64538 -0.77484,1.05249 -1.18624,-0.59312 -0.14386,-0.57541 0.329,-1.28586 0,-1.77936 -0.21934,-0.32901 -0.85724,0.21933 -1.18624,0 -0.462,-0.308 -1.71495,-2.93339 -1.77936,-2.9656 -0.35367,-0.17683 -0.832573,0.17683 -1.186242,0 -5.534912,-2.76746 2.254632,0.31685 -1.779359,-2.37248 -0.329004,-0.21934 -0.832571,0.17683 -1.18624,0 -0.176834,-0.0884 0.1398,-0.45332 0,-0.59312 -0.139799,-0.1398 -0.395413,0 -0.59312,0 -0.790826,-0.79083 -1.581652,-1.58165 -2.372479,-2.37248 z"
       id="path1735"
       inkscape:label="textwhitebackground" /><path
       style="display:inline;fill:#242020;stroke:none"
       d="m 439,327 c 41.651,0 44.134,-46.225 53.14,-78 3.596,-12.685 11.001,-28.883 6.311,-42 -5.821,-16.284 -34.086,-25.33 -43.451,-7 -8.223,-5.813 -9.383,-14.122 -12.811,-23 -4.802,-12.437 -10.561,-24.67 -17.614,-36 C 402.117,104.927 368.441,75.7101 329,59.6034 275.079,37.5836 212.349,38.5819 160,64.7531 116.481,86.5099 89.3828,118.875 65.179,159.941 61.8292,165.625 52.8648,164.426 47,165.156 37.0419,166.396 26.8257,169.873 19,176.329 -0.738911,192.613 0,218.66 0,242 0,257.055 0.0609479,272.215 3.21065,287 7.01542,304.861 18.1853,319.324 36,324.795 c 6.2375,1.915 20.8613,0.731 25.034,5.523 8.6778,9.965 13.3159,25.565 20.9915,36.682 16.6958,24.181 39.4755,44.978 64.9745,59.573 79.873,45.714 182.815,32.612 248,-32.573 16.871,-16.871 39.643,-42.559 44,-67 m -7,-137 c -7.26,1.343 -17.778,3.322 -25,3.231 -4.742,-0.059 -9.052,-2.937 -14,-2.772 -4.269,0.143 -11.888,5.097 -15.57,3.229 -3.098,-1.571 -4.126,-7.864 -5.979,-10.673 -4.494,-6.817 -12.202,-11.797 -20.451,-11.999 -9.098,-0.223 -16.921,3.741 -22.468,10.985 -2.507,3.274 -3.846,11.8 -8.59,12.187 -5.632,0.458 -11.994,-3.59 -17.942,-3.733 -6.527,-0.157 -12.85,3.951 -19,3.661 -12.612,-0.596 -19.061,-5.609 -31,2.884 h -1 c -7.316,-5.204 -16.249,-7.993 -25,-4.521 -3.453,1.37 -7.22,5.394 -11,5.394 -3.787,0 -7.495,-4.016 -11,-5.314 -10.802,-3.997 -21.659,0.104 -29,8.441 -6.229,-2.358 -11.515,-6.333 -18,-8.279 -16.136,-4.84 -28.656,-0.107 -44,4.279 -5.466,-16.052 -18.5682,-27.197 -35,-31 1.54,-8.534 7.932,-16.866 12.6674,-24 C 104.675,120.897 122.904,102.981 144,89.0038 221.861,37.4167 329.298,50.8095 392.075,120 408.669,138.289 428.232,164.846 432,190 M 59,177.3 c 13.3033,-1.244 29.4042,3.532 37.3619,14.7 6.8261,9.579 9.2201,31.019 -2.3773,38.142 -2.1363,1.312 -4.5234,1.697 -6.9846,1.818 -5.5942,0.274 -11.8813,-0.515 -14.8218,-6.003 C 68.2669,218.656 71.7432,205.099 59,206.124 52.1716,206.673 48.8483,212.817 48.1736,219 46.6792,232.695 48,247.222 48,261 c 0,6.608 -0.6377,14.335 3.5131,19.981 3.9944,5.432 12.0364,7.744 16.784,1.794 3.4764,-4.356 1.6944,-10.057 4.0208,-14.771 4.7697,-9.666 20.4771,-11.032 27.2631,-2.899 13.985,16.761 -3.4491,42.34 -20.581,47.149 -6.2932,1.766 -13.4656,2.738 -20,2.738 -5.5324,0 -11.6564,-0.705 -17,-2.151 C 10.9734,304.446 13,265.65 13,240 13,223.824 12.0423,203.038 23.4676,190.093 32.428,179.941 46.3931,178.479 59,177.3 M 363,205 c 16.54,0.139 16.269,17.291 0,18 0,11.115 -2.718,26.287 0.434,36.945 2.547,8.614 15.77,5.884 11.993,19.054 -3.963,13.823 -28.961,11.068 -35.422,0.961 C 336.263,274.105 337,266.615 337,260 v -37 c -16.632,-0.345 -16.836,-17.952 0,-18 0,-4.38 -0.89,-9.97 1.179,-13.985 4.217,-8.182 16.454,-9.227 21.942,-1.827 3.334,4.496 2.878,10.527 2.879,15.812 m 91,48 h 1 c 3.187,-13.348 1.357,-32.14 9.005,-43.956 5.802,-8.963 19.652,-6.091 22.419,3.956 2.031,7.379 -2.979,17.9 -5.003,25 -5.402,18.951 -9.801,38.321 -16.088,57 -1.819,5.402 -3.822,10.877 -8.376,14.606 -7.068,5.787 -25.602,7.476 -29.948,-2.649 -6.388,-14.882 14.413,-11.045 14.618,-22.957 0.326,-18.996 -14.838,-39.117 -17.627,-58 -4.255,0.926 -9.297,-0.532 -12.856,2.438 -14.499,12.098 5.881,43.534 -8.358,56.004 -7.22,6.324 -18.778,2.849 -21.228,-6.443 C 378.178,265.182 381,248.244 381,235 c 0,-6.862 -1.334,-15.363 0.573,-22 3.961,-13.786 20.494,-10.247 24.427,1 6.191,-9.039 27.354,-16.784 36.362,-6.657 8.144,9.156 11.391,33.713 11.638,45.657 M 133,204.3 c 11.594,-1.67 27.477,-0.169 35.211,9.793 5.36,6.906 5.179,14.72 5.959,22.907 1.932,20.288 1.053,46.982 -24.17,50.699 -12.259,1.807 -28.163,0.629 -36.468,-9.739 -5.906,-7.374 -6.487,-18.87 -6.531,-27.96 -0.099,-20.523 1.321,-42.144 25.999,-45.7 m 88,72.7 c -6.578,12.672 -27.717,16.442 -35.995,2.996 C 177.234,267.372 182,242.396 182,228 c 0,-5.788 -1.035,-12.777 2.228,-17.906 5.376,-8.448 19.159,-7.695 22.878,1.91 4.106,10.6 0.876,27.683 0.894,38.996 0.007,4.566 -0.326,12.479 5.107,14.353 8.027,2.767 8.831,-9.474 8.889,-14.353 0.146,-12.225 -6.284,-44.503 11.004,-46.772 7.17,-0.941 13.104,3.92 14.521,10.772 2.829,13.679 0.479,30.041 0.479,44 0,6.983 1.149,15.413 -1.703,21.995 -6.139,14.17 -20.222,4.568 -25.297,-3.995 m 60,-61 c 3.476,-3.364 5.524,-7.695 10.015,-10 3.154,-1.619 6.495,-1.97 9.985,-1.995 27.009,-0.2 21,31.463 21,49.995 0,8.559 2.735,22.884 -3.419,29.786 -6.371,7.146 -19.32,4.535 -22.008,-4.787 -3.4,-11.79 -0.426,-27.75 -0.577,-39.999 -0.056,-4.573 -0.819,-12.654 -7.008,-12.914 C 281.436,225.77 282,236.123 282,241 c -10e-4,11.403 5.023,38.001 -6.043,44.991 -6.8,4.295 -17.313,1.046 -19.523,-6.992 C 252.581,264.988 256,245.544 256,231 c 0,-6.174 -1.315,-14.183 1.228,-19.96 5.474,-12.429 22.471,-7.014 23.772,4.96 m -142.891,6.746 c -4.638,1.923 -3.883,7.167 -4.279,11.254 -0.939,9.701 -2.125,21.449 0.604,30.981 1.181,4.125 5.475,5.985 9.433,4.276 4.026,-1.739 4.083,-6.507 4.129,-10.257 0.119,-9.602 2.249,-22.748 -0.569,-31.956 -1.224,-4.001 -5.395,-5.924 -9.318,-4.298 M 330,290 c 11.645,7.669 21.6,12.563 36,10.816 4.39,-0.533 8.655,-3.772 13,-3.683 4.37,0.089 8.523,3.228 13,3.693 9.181,0.953 15.651,-4.291 23,-8.826 -4.868,13.358 -0.179,23.94 11,32 -6.752,24.687 -27.324,49.483 -46,66.166 C 302.585,459.319 181.532,456.912 109.911,379.999 95.9235,364.978 81.7001,346.677 75,327 c 17.8742,-6.063 31.24,-12.367 39,-31 13.801,3.271 24.537,7.475 39,4.338 6.743,-1.462 15.829,-9.258 22,-9.15 7.044,0.122 15.728,9.235 24,10.383 7.866,1.091 14.635,-4.016 22,-3.547 5.936,0.378 10.669,3.4 17,2.883 4.941,-0.404 9.205,-4.132 14,-4.242 4.742,-0.108 9.1,3.842 14,4.242 9.111,0.744 13.093,-3.77 21,-6.46 4.704,-1.601 9.707,3.973 14,5.445 11.088,3.802 22.042,-1.158 29,-9.892 m -139,49 c 8.013,2.432 1.785,12.998 9.108,15.338 10.009,3.198 7.119,-15.944 1.892,-19.338 13.122,-12.482 -5.288,-29.29 -18.721,-20.821 -2.667,1.681 -3.093,4.939 -3.239,7.821 -0.382,7.537 -2.772,23.263 1.139,29.852 C 188.209,363.697 191,342.926 191,339 m 31,7 h 7 c 0.394,4.334 5.225,13.511 9.971,6.566 2.316,-3.387 0.037,-9.033 -0.844,-12.566 -1.889,-7.567 -4.016,-34.233 -17.899,-25.821 -6.59,3.993 -6.702,21.859 -8.031,28.821 -0.521,2.725 -1.619,6.075 -0.44,8.772 3.616,8.269 9.828,-1.203 10.243,-5.772 m 26.059,-32.258 C 241.892,316.323 244,326.65 244,332 c 0,14.128 0.741,29.753 19.985,21.297 6.978,-3.066 7.012,-10.783 7.015,-17.297 0.005,-13.129 -5.609,-29.51 -22.941,-22.258 m 31.169,0.02 c -3.572,1.492 -3.21,6.055 -3.227,9.238 -0.045,8.551 -1.405,18.558 0.227,26.956 0.605,3.111 3.274,5.633 6.628,4.397 3.402,-1.255 3.123,-5.394 3.143,-8.353 0.062,-8.97 1.292,-19.128 -0.147,-27.981 -0.533,-3.278 -3.188,-5.693 -6.624,-4.257 m 19.787,-0.059 c -7.131,2.486 -7.934,10.789 -8.011,17.297 -0.153,12.829 3.605,29.994 20.992,23.258 6.918,-2.68 7.831,-10.793 7.989,-17.258 0.325,-13.293 -3.713,-29.313 -20.97,-23.297 m 6.815,8.473 c 5.383,0.799 4.953,24.498 -0.791,23.648 -5.209,-0.771 -4.83,-24.483 0.791,-23.648 M 191,330 v -8 c 6.003,1.002 6.003,6.998 0,8 m 63,16 v -24 c 9.281,0.723 9.281,23.277 0,24 m -28,-20 1,11 h -4 z"
       id="path849"
       inkscape:label="Radioborder" /></g></svg>
