<?xml version="1.0" encoding="UTF-8" standalone="no"?>
<!-- Created with Inkscape (http://www.inkscape.org/) -->

<svg
   version="1.1"
   id="svg2"
   width="900"
   height="900"
   viewBox="0 0 900 900"
   sodipodi:docname="Evropa2.svg"
   inkscape:version="1.2.1 (9c6d41e410, 2022-07-14)"
   xmlns:inkscape="http://www.inkscape.org/namespaces/inkscape"
   xmlns:sodipodi="http://sodipodi.sourceforge.net/DTD/sodipodi-0.dtd"
   xmlns="http://www.w3.org/2000/svg"
   xmlns:svg="http://www.w3.org/2000/svg">
  <defs
     id="defs6" />
  <sodipodi:namedview
     id="namedview4"
     pagecolor="#ffffff"
     bordercolor="#000000"
     borderopacity="0.25"
     inkscape:showpageshadow="2"
     inkscape:pageopacity="0.0"
     inkscape:pagecheckerboard="0"
     inkscape:deskcolor="#d1d1d1"
     showgrid="false"
     inkscape:zoom="0.93666667"
     inkscape:cx="424.91103"
     inkscape:cy="466.54804"
     inkscape:window-width="1920"
     inkscape:window-height="1001"
     inkscape:window-x="-9"
     inkscape:window-y="1341"
     inkscape:window-maximized="1"
     inkscape:current-layer="g8" />
  <g
     inkscape:groupmode="layer"
     inkscape:label="Image"
     id="g8">
    <path
       id="path293"
       style="display:inline;fill:#e41937;fill-opacity:1"
       d="m 750.20117,287.88281 -1.12695,7.3086 c -0.61937,4.01982 -1.78883,11.19734 -2.59961,15.95117 -0.81078,4.75383 -1.47461,9.36634 -1.47461,10.25 0,1.44802 3.8401,1.60742 38.89258,1.60742 32.90053,0 38.9786,0.22128 39.44531,1.4375 1.02853,2.68031 -4.29347,22.17413 -6.65039,24.35938 -1.20293,1.11529 -15.68752,8.88124 -32.1875,17.25781 -33.34901,16.93032 -40.747,21.40603 -49.29492,29.82226 -8.67623,8.54257 -11.92056,14.92794 -14.66797,28.87305 -5.70027,28.93307 -5.53434,35.5209 1.07031,42.52148 1.93501,2.05101 3.62016,3.72852 3.74414,3.72852 0.12397,0 2.68362,0.88469 5.6875,1.96484 5.13314,1.84581 8.32404,1.9661 53.08008,2 l 47.62109,0.0352 1.0918,-4.25 c 0.60094,-2.3375 1.37336,-6.275 1.7168,-8.75 0.34344,-2.475 1.48697,-7.94939 2.53906,-12.16602 1.0521,-4.21663 1.91211,-7.92534 1.91211,-8.24023 0,-0.31489 -19.01252,-0.68856 -42.25,-0.83203 L 754.5,440.5 l 0.26758,-3 c 0.14755,-1.65 1.25261,-6.15 2.45508,-10 3.63203,-11.62888 5.93178,-13.31851 44.77734,-32.88867 18.42498,-9.2824 34.98952,-17.98614 36.81055,-19.3418 8.39888,-6.2525 13.19302,-17.43543 17.8164,-41.56836 3.0459,-15.89884 2.84712,-21.85863 -0.97656,-29.40429 -3.20392,-6.32262 -7.93248,-10.46903 -15.31836,-13.43165 -5.74025,-2.30252 -6.49546,-2.34322 -47.98242,-2.66015 z M 576.30078,319.0957 c -0.0756,-0.15424 -0.12262,0.3605 -0.0449,0.51368 0.12966,0.25569 0.29255,0.49244 0.41797,0.75195 -0.0219,-0.0926 -0.0217,-0.18675 -0.0449,-0.2793 -0.10918,-0.32856 -0.17583,-0.67541 -0.32813,-0.98633 z M 71.519531,386.11914 c -0.0063,0.0423 -0.01324,0.0846 -0.01953,0.12695 0.15513,-0.009 0.308332,-0.041 0.462891,-0.0566 -0.147644,-0.0268 -0.295527,-0.0459 -0.44336,-0.0703 z M 0,480.99219 v 14.27734 14.2793 l 9.25,4.6875 c 8.455698,4.28502 29.924822,15.53739 47.140625,24.70703 4.002439,2.13181 7.983854,3.55656 9.5,3.40039 3.38793,-0.34898 21.659987,-1.88018 51.609375,-4.32617 39.29082,-3.20892 160.54446,-13.31458 228.5,-19.04297 12.92499,-1.08953 28.90001,-2.41657 35.5,-2.94922 11.8979,-0.96022 33.62347,-2.7692 90.5,-7.53516 16.22498,-1.35956 43.22502,-3.61076 60,-5.00195 16.77498,-1.39118 43.55002,-3.62349 59.5,-4.96094 15.94998,-1.33744 43.40002,-3.61268 61,-5.05664 17.59998,-1.44397 38.30001,-3.16569 46,-3.82617 l 14,-1.20117 -6,-3.4707 -6,-3.47266 -350.25,-0.25391 z m 866.05469,3.21484 c -0.44837,-0.16135 -7.95713,0.62201 -16.68555,1.74219 -8.72842,1.12017 -21.26915,2.71933 -27.86914,3.55273 -6.59999,0.8334 -18.30001,2.38982 -26,3.45899 -7.69999,1.06917 -16.475,2.22275 -19.5,2.56445 -3.025,0.3417 -11.57501,1.46305 -19,2.49023 -7.42499,1.02719 -19.12501,2.56932 -26,3.42774 -6.87499,0.85842 -20.82501,2.65802 -31,4 -55.62136,7.33589 -88.83842,11.68552 -115,15.05664 -10.17499,1.31112 -29.07501,3.78175 -42,5.49023 -12.92499,1.70849 -32.05001,4.23601 -42.5,5.61719 -10.44999,1.38117 -25.52501,3.34735 -33.5,4.36914 -55.43007,7.10196 -64.71903,8.36505 -66.51953,9.04102 -1.31729,0.49457 -8.18951,11.95343 -19.75,32.93164 C 370.97913,595.64446 363,610.31917 363,610.56055 c 0,0.66657 -0.64248,0.80386 24.1875,-5.16016 12.82154,-3.07966 26.9125,-6.42334 31.3125,-7.42969 4.4,-1.00636 16.55001,-3.9014 27,-6.43359 32.5171,-7.87937 38.66705,-9.35932 50,-12.03711 6.04999,-1.42951 15.50001,-3.68691 21,-5.01562 18.0951,-4.3715 50.69576,-12.19231 68.5,-16.4336 18.3043,-4.36041 34.34903,-8.22704 62,-14.93945 9.07499,-2.203 34.72502,-8.32667 57,-13.60938 22.27498,-5.28269 42.075,-10.02951 44,-10.54883 1.925,-0.5193 8.45001,-2.10273 14.5,-3.51757 18.94823,-4.43118 36.87625,-8.73311 78.74219,-18.89649 18.00273,-4.37034 18.87559,-4.69778 22.18359,-8.29492 1.89405,-2.0596 3.07729,-3.87575 2.62891,-4.03711 z" />
    <path
       id="path295"
       style="display:inline;fill:#005da8;fill-opacity:1"
       d="m 818.66406,294.28906 c -0.21356,10e-4 0.39923,0.16641 0.61133,0.19141 0.19542,0.0231 0.39313,0.017 0.58984,0.0234 1.1e-4,-0.0208 -10e-5,-0.0417 0,-0.0625 -0.40167,-0.0335 -0.79832,-0.15426 -1.20117,-0.15235 z M 440.80469,309.2207 c -7.99476,-0.37033 -10.97613,-0.0645 -17,1.7461 -17.29896,5.19956 -31.6741,17.06157 -39.20899,32.35351 -4.71125,9.56145 -5.21155,11.8953 -12.72461,59.38867 -3.98617,25.19841 10.64722,46.25521 35.62891,51.26954 14.96714,3.0042 35.34613,-3.68802 48.81445,-16.0293 13.13373,-12.03467 17.20633,-20.9184 21.5293,-46.94922 6.85563,-41.28137 6.52894,-38.09935 4.80664,-46.54492 -2.15445,-10.56468 -5.00224,-15.95691 -12.16211,-23.03125 -8.42793,-8.32725 -16.35481,-11.58572 -29.68359,-12.20313 z m -261.13281,0.68164 -13.49805,0.20899 -13.49805,0.20898 0.63867,60.58985 c 0.52065,49.43578 0.91246,61.51364 2.13086,65.60742 1.92847,6.4796 7.61778,12.11645 14.72657,14.5918 4.23627,1.47511 7.77747,1.80794 17.29101,1.62304 13.53094,-0.26298 11.79137,0.84566 16.85742,-10.73242 1.3236,-3.025 15.06834,-33.40003 30.54492,-67.5 15.4766,-34.09997 28.13772,-62.5625 28.13672,-63.25 -0.002,-0.9406 -3.48153,-1.25 -14.05859,-1.25 h -14.05664 l -1.98047,4.75 c -1.08946,2.6125 -2.61028,6.1 -3.38086,7.75 -0.77059,1.65 -3.73537,8.40001 -6.58789,15 -4.98719,11.53906 -9.35824,21.53607 -21.20508,48.5 -3.02059,6.87499 -8.10015,18.46251 -11.28906,25.75 -3.1889,7.28749 -6.15305,13.25 -6.58594,13.25 -2.53388,0 -2.92802,-6.62722 -3.54101,-59.51953 z m 115.51562,0.125 c -6.45774,0.0256 -11.33045,0.16721 -12.94531,0.46485 -1.82513,0.3364 -3.92529,1.61859 -4.77539,2.91601 -1.31433,2.00592 -9.99399,42.23152 -15.48438,71.76172 -0.98889,5.31875 -2.07261,10.54198 -2.41015,11.60547 -0.33754,1.06349 -1.25733,5.48538 -2.04297,9.82813 -1.76015,9.72951 -8.41561,42.25211 -9.13672,44.64648 -0.48493,1.61019 0.62626,1.75 13.91015,1.75 h 14.4375 l 1.1543,-6.25 c 0.63557,-3.4375 2.0147,-10.075 3.06445,-14.75 1.04976,-4.675 2.87439,-12.90327 4.05469,-18.28516 l 2.14649,-9.78515 9.61132,0.28515 9.60938,0.28516 4.34961,10.5 c 2.39243,5.77499 4.61862,11.175 4.94726,12 0.32865,0.825 2.35896,5.32515 4.51172,10 4.2414,9.21041 7.62344,13.4899 12.31055,15.58203 1.85094,0.82618 6.93137,1.35471 13.26367,1.37891 L 356.02734,454 354.40625,450.25 C 353.51517,448.1875 351.53313,443.575 350,440 c -1.53314,-3.575 -5.58311,-12.80001 -8.99805,-20.5 -8.51224,-19.19335 -8.46866,-18.31053 -1.12109,-22.8457 10.99373,-6.78573 17.12561,-16.91207 19.63476,-32.42578 0.79514,-4.91624 2.17556,-12.04181 3.06641,-15.83399 0.89085,-3.79218 1.67002,-10.79785 1.73242,-15.56836 0.10141,-7.74932 -0.15255,-9.04746 -2.38672,-12.1875 -3.07328,-4.31937 -6.34476,-6.90864 -10.92773,-8.64648 -2.7942,-1.05957 -36.43928,-2.04155 -55.8125,-1.96485 z m -192.32812,0.21485 c -40.423847,0.2782 -40.270763,0.25826 -45.562505,5.92578 -3.334241,3.57102 -4.934157,8.29021 -6.726563,19.83203 -0.896837,5.77499 -2.482725,15.00001 -3.523437,20.5 -1.040711,5.49999 -3.07929,16.75001 -4.53125,25 -1.451961,8.24999 -3.556275,19.95001 -4.675781,26 -3.559145,19.23419 -4.583113,28.56313 -3.628906,33.03711 1.059817,4.96914 5.744338,9.8751 10.789062,11.29687 1.995297,0.56235 19.914311,1.02477 41.681641,1.07618 35.547679,0.084 38.218809,-0.0309 38.695309,-1.66016 0.28151,-0.9625 1.23089,-6.0216 2.10938,-11.24219 0.87849,-5.22059 1.85236,-10.5081 2.16406,-11.75 L 130.2168,426 H 96.109375 c -39.092348,0 -35.294016,1.23302 -32.556641,-10.57031 0.853846,-3.68171 1.868178,-9.22259 2.253907,-12.3125 L 66.507812,397.5 92.191406,397.23242 c 23.360254,-0.24262 25.731844,-0.42358 26.210934,-2 C 118.84923,393.76195 123,371.27495 123,370.32422 123,370.14541 111.77612,370 98.058594,370 83.380031,370 72.876896,369.6081 72.53125,369.04883 72.033219,368.243 74.314139,353.22359 76.791016,341 L 77.5,337.5 l 28.67383,-0.26562 28.67383,-0.26563 0.55078,-2.73437 c 0.30299,-1.50413 1.25191,-6.89461 2.10742,-11.98047 0.85552,-5.08588 1.81606,-9.92728 2.13476,-10.75782 0.51149,-1.33295 -3.80378,-1.48085 -36.78124,-1.2539 z m 580.24218,0.0586 c -2.2616,-0.13819 -5.8532,-0.11777 -11.33008,0.0273 -17.78448,0.47121 -22.59005,1.85274 -29.25976,8.40821 -5.69214,5.59463 -7.46068,9.14373 -43.22852,86.76367 -3.54821,7.69999 -7.82254,16.925 -9.49804,20.5 -8.2382,17.57768 -11.10844,23.6469 -11.94336,25.25 -0.84776,1.62776 0.0857,1.74838 13.37304,1.73828 l 14.28516,-0.01 6.68945,-14.74024 6.69141,-14.73828 20.91211,-0.26953 20.91406,-0.26953 0.63867,6.76953 c 0.35162,3.7232 0.64249,10.48203 0.64649,15.01953 L 662,453 h 14.12891 14.1289 l -0.60937,-7.75 c -0.33555,-4.2625 -1.10024,-35.87503 -1.69922,-70.25 -0.59899,-34.37497 -1.27352,-63.07404 -1.49805,-63.77539 -0.15667,-0.48937 -1.088,-0.78563 -3.34961,-0.92383 z m -129.82226,0.20117 c -32.9143,-0.002 -34.29264,0.0743 -36.14063,1.99805 -1.92771,2.00668 -2.53298,4.86876 -22.61328,107 -2.9197,14.84999 -5.56953,28.4625 -5.89062,30.25 l -0.58399,3.25 h 13.97461 C 514.44556,453 516,452.81317 516,451.32031 c 0,-0.92386 1.08873,-6.43636 2.41992,-12.25 1.33118,-5.81363 3.64525,-16.03222 5.14258,-22.70703 l 2.72266,-12.13476 16.10742,-0.49805 c 22.67864,-0.69916 32.86963,-4.13134 43.17578,-14.54688 7.96422,-8.04874 11.07876,-16.35485 17.93945,-47.84179 3.26281,-14.97461 0.0213,-23.04301 -11.50781,-28.64844 -4.36052,-2.12008 -5.56155,-2.18941 -38.7207,-2.19141 z M 316.9375,334 c 9.29453,0 17.61049,0.27357 18.48047,0.60742 2.11598,0.81198 2.0238,4.56566 -0.45508,18.4668 -2.44663,13.72025 -5.23916,18.99205 -11.94727,22.54883 C 318.91556,377.79699 317.34135,378 304.6582,378 c -11.65284,0 -13.78372,-0.22988 -13.32031,-1.4375 0.30343,-0.79071 1.04917,-4.27821 1.6582,-7.75 0.60904,-3.47179 2.23977,-11.71251 3.62305,-18.3125 1.38328,-6.59999 2.71821,-13.0125 2.9668,-14.25 0.4473,-2.2267 0.62711,-2.25 17.35156,-2.25 z m 239.95898,0 c 14.47623,0 18.0892,0.27757 19.07618,1.4668 0.96234,1.15955 0.85655,3.61302 -0.50196,11.70312 -3.02918,18.03929 -6.11137,24.43332 -13.77929,28.58008 -3.71892,2.01117 -5.56845,2.25 -17.42579,2.25 -13.09046,0 -13.26467,-0.0297 -13.26367,-2.25 9.9e-4,-1.81794 5.445,-30.40983 7.52149,-39.5 0.50944,-2.2301 0.67208,-2.25 18.37304,-2.25 z m -121.95898,2.21289 c 7.33284,-0.33733 13.91321,2.52012 17.74023,8.04688 2.52746,3.64998 2.80954,4.86774 2.70508,11.6582 -0.0641,4.17026 -1.11028,13.20704 -2.32422,20.08203 -1.21395,6.87499 -2.78612,16.325 -3.49414,21 -0.70801,4.675 -2.25303,10.3 -3.43359,12.5 -2.96997,5.53459 -9.46284,11.99817 -14.50586,14.43945 -10.54069,5.10267 -21.5257,4.08125 -27.81055,-2.58789 -5.61701,-5.96046 -6.04296,-11.79914 -2.39648,-32.87695 1.3297,-7.68609 2.92499,-17.34961 3.54492,-21.47461 2.28144,-15.18066 9.95828,-25.21636 22.46484,-29.36523 2.53746,-0.84177 5.06549,-1.30943 7.50977,-1.42188 z M 659.6543,338 c 1.09679,0 1.3457,5.53644 1.3457,30 v 30 h -14.5 c -12.55774,0 -14.5,-0.2116 -14.5,-1.58203 0,-1.42958 3.08672,-9.11773 7.99805,-19.91797 2.9494,-6.48588 9.03102,-20.47189 12.15234,-27.94922 C 655.24195,341.14476 657.47774,338 659.6543,338 Z m 145.93554,116.07227 c -0.79565,0.42953 -1.0743,0.69239 -1.63672,1.4375 -0.062,0.15809 -0.35483,0.48799 -0.18554,0.47461 0.26235,-0.0208 0.41561,-0.32557 0.60547,-0.50782 0.23139,-0.22212 0.38939,-0.52519 0.65625,-0.70312 0.0613,-0.0409 0.0828,0.24539 0.12304,0.18359 0.17951,-0.2758 0.30545,-0.58202 0.4375,-0.88476 z" />
  </g>
</svg>
