<?xml version="1.0" encoding="UTF-8" standalone="no"?>
<!-- Created with Inkscape (http://www.inkscape.org/) -->

<svg
   version="1.1"
   id="svg2"
   width="676"
   height="676"
   viewBox="0 0 676 676"
   sodipodi:docname="Fajnradio.svg"
   inkscape:version="1.2.1 (9c6d41e410, 2022-07-14)"
   xmlns:inkscape="http://www.inkscape.org/namespaces/inkscape"
   xmlns:sodipodi="http://sodipodi.sourceforge.net/DTD/sodipodi-0.dtd"
   xmlns="http://www.w3.org/2000/svg"
   xmlns:svg="http://www.w3.org/2000/svg">
  <defs
     id="defs6" />
  <sodipodi:namedview
     id="namedview4"
     pagecolor="#ffffff"
     bordercolor="#000000"
     borderopacity="0.25"
     inkscape:showpageshadow="2"
     inkscape:pageopacity="0.0"
     inkscape:pagecheckerboard="0"
     inkscape:deskcolor="#d1d1d1"
     showgrid="false"
     inkscape:zoom="1.2470414"
     inkscape:cx="319.9573"
     inkscape:cy="339.20285"
     inkscape:window-width="1920"
     inkscape:window-height="1001"
     inkscape:window-x="-9"
     inkscape:window-y="1341"
     inkscape:window-maximized="1"
     inkscape:current-layer="g8" />
  <g
     inkscape:groupmode="layer"
     inkscape:label="Image"
     id="g8">
    <path
       id="path293"
       style="display:inline;fill:#ff6f00;fill-opacity:1"
       inkscape:label="other"
       d="M 345.69336,88.185547 C 317.09355,87.78586 288.44011,92.412799 261.04688,102.15039 206.43394,121.56387 160.40735,159.62287 129.10938,211.25 l -2.27344,3.75 h 6.88476 6.88282 l 5.63476,-8.75 c 13.37104,-20.76354 35.33797,-44.26746 55.72266,-59.62305 59.07878,-44.50341 137.90285,-58.308673 208.53906,-36.52343 24.25056,7.47921 51.87998,21.28512 70.5,35.22851 23.48824,17.58891 47.44201,43.09513 60.08789,63.97852 l 3.41211,5.63281 6.8457,0.0273 6.84375,0.0293 -2.74218,-4.75 C 532.53586,170.57493 495.14627,135.63624 452.95117,114.47461 419.14852,97.521933 382.46454,88.699428 345.69336,88.185547 Z m -3.16406,55.550783 c -10.66312,-0.003 -21.25276,0.55127 -28.0293,1.66406 -34.98826,5.74548 -64.14825,18.45314 -91.12695,39.71289 C 215.3516,191.4343 194,212.5189 194,214.11914 194,214.6038 197.19862,215 201.10742,215 h 7.10742 l 10.14258,-9.64844 c 43.96111,-41.81436 104.98501,-58.86542 163.62696,-45.7207 32.44853,7.2734 63.53414,24.23015 86.70898,47.29883 l 8.19336,8.15625 7.57226,-0.29297 7.57227,-0.29297 -7.75586,-8.42383 C 454.14077,173.34899 414.9444,152.36027 371,145.41797 c -7.0708,-1.11702 -17.80758,-1.67837 -28.4707,-1.68164 z M 357.85156,241 C 350.23301,241 344,241.15302 344,241.33984 c 0,0.18682 2.25,4.75883 5,10.16016 2.75,5.40133 5,10.42334 5,11.16016 0,1.05392 2.90276,1.33984 13.60742,1.33984 12.56325,0 13.55112,-0.13423 12.89453,-1.75 -0.39113,-0.9625 -1.08861,-3.00896 -1.55078,-4.54883 -0.46218,-1.53987 -2.28101,-5.92737 -4.04297,-9.75 L 371.70312,241 Z M 134.31641,460 C 129.79409,460 128,460.36999 128,461.30273 c 0,1.73982 12.16419,20.21662 19.86523,30.17383 39.1686,50.64369 100.77225,86.04177 162.63477,93.45117 4.95,0.59287 10.125,1.26738 11.5,1.5 6.07931,1.0285 47.98212,-0.31802 57,-1.83203 37.97062,-6.37484 68.70992,-18.40833 100.28516,-39.25781 29.45925,-19.45226 54.64737,-45.48181 73.61132,-76.07031 C 555.70361,464.73973 558,460.80223 558,460.51758 558,460.23293 555.12177,460 551.60352,460 h -6.39649 l -6.5293,9.75 c -32.78947,48.96455 -82.9191,84.43257 -139.48437,98.6875 -81.8611,20.62969 -167.42,-4.72405 -227.48828,-67.41016 C 161.64369,490.52747 147.74454,472.65601 142.80273,463.86328 140.64075,460.01657 140.60612,460 134.31641,460 Z m 66.63086,0 C 197.10321,460 194,460.43532 194,460.97461 c 0,0.53603 4.34699,5.50353 9.66016,11.03906 30.86574,32.15771 71.54414,52.91124 114.54101,58.4375 49.21406,6.32536 99.76765,-7.14551 139.68555,-37.2207 C 469.86612,484.20488 491,463.68946 491,461.08594 c 0,-0.67591 -2.55103,-1.08122 -6.75,-1.07422 l -6.75,0.0117 -7.5,7.2832 c -10.15087,9.85626 -16.82799,15.30485 -27.5,22.44141 C 371.38164,537.306 276.49873,527.93884 215.28516,467.31836 L 207.89453,460 Z" />
    <path
       id="path295"
       style="display:inline;fill:#000000"
       inkscape:label="text"
       d="m 234.10547,239 c -8.52436,0 -18.3744,2.9228 -23.13867,6.86523 -5.30839,4.39269 -8.80549,11.65522 -10.13282,21.04102 L 199.6875,275 H 195.34375 191 v 11.5 11.5 h 4.5 4.5 v 33 33 h 13.5 13.5 v -33 -33 h 7 7 V 286.5 275 h -7 c -6.83632,0 -7,-0.0588 -7,-2.54883 0,-4.52841 2.68798,-8.26981 6.75195,-9.39844 2.06162,-0.57254 4.53555,-1.04387 5.49805,-1.04687 1.56489,-0.005 1.75,-1.22231 1.75,-11.50586 V 239 Z m 51.36719,34.75 c -7.16265,-0.0329 -9.10554,0.36243 -14.61719,2.97852 -10.37061,4.92233 -17.17894,13.13916 -20.94336,25.27148 -2.53666,8.17536 -2.73901,24.64965 -0.41016,33.44531 3.60202,13.60395 13.52943,24.77007 25.49219,28.67578 1.37856,0.45008 6.55586,0.70091 11.50586,0.55664 7.76541,-0.22633 9.73085,-0.66166 14.33203,-3.17382 2.93299,-1.60138 6.42049,-4.20513 7.75,-5.78516 L 311,352.8457 V 358.42383 364 H 324.5 338 V 319.5 275 H 324.5 311 v 5.11719 5.11523 l -4.12695,-3.72851 C 300.49469,275.74144 295.12119,273.7944 285.47266,273.75 Z M 461.56641,274 c -8.76175,0 -15.44677,2.26242 -20.91993,7.08008 L 436,285.16992 V 280.08594 275 H 422.5 409 v 44.5 44.5 h 13.44336 13.44336 l 0.30664,-28.42969 c 0.29194,-27.02322 0.40992,-28.56841 2.39844,-31.25 3.29621,-4.4451 8.24107,-7.32031 12.58789,-7.32031 7.84196,0 13.76582,4.33358 15.71875,11.5 0.65447,2.4011 1.0927,14.29297 1.0957,29.75 L 468,364 l 13.25,0.002 h 13.25 l -0.5,-32.77539 -0.5,-32.77734 -3.28711,-6.67188 C 484.36443,279.90437 474.84963,274 461.56641,274 Z m -90.125,1 c -14.11029,0 -13.27169,-0.70783 -10.96094,9.25586 4.14042,17.85326 3.74408,42.23865 -1.00195,61.70703 -2.63915,10.82578 -8.72454,26.29697 -13.01758,33.09766 -1.35385,2.1446 -2.46094,4.37123 -2.46094,4.94726 0,0.69362 4.7936,0.95328 14.19531,0.76953 l 14.19727,-0.27734 3.8125,-8.83398 c 4.24915,-9.84533 9.03094,-27.00502 10.91406,-39.16602 1.86201,-12.02472 1.57369,-38.02272 -0.55469,-50 -0.97736,-5.49996 -1.98151,-10.3375 -2.23047,-10.75 -0.24897,-0.4125 -6.05007,-0.75 -12.89257,-0.75 z m -79.25196,23 c 5.79991,0 11.8254,2.78022 14.57422,6.72656 7.6438,10.97392 4.71662,28.45039 -5.68555,33.95117 -6.10733,3.22965 -11.53712,3.05112 -17.23828,-0.56445 -6.1296,-3.88727 -8.96484,-9.74607 -8.96484,-18.52344 C 274.875,306.87172 281.98998,298 292.18945,298 Z M 265,403.80078 V 417.90039 432 h 4 4 l 0.0234,-5.25 0.0234,-5.25 2.72656,5 c 2.637,4.8357 2.88675,5.00919 7.59375,5.30859 l 4.86719,0.31055 -2.96485,-5.13476 -2.96484,-5.13477 2.9707,-2.9707 c 2.5455,-2.5455 2.88748,-3.4933 2.38086,-6.61524 -1.02124,-6.29312 -3.41741,-7.71342 -13.68359,-8.11328 z m 71,0 V 417.90039 432 l 8.25,-0.004 c 9.8893,-0.004 13.41121,-1.7021 16.1543,-7.78515 2.67579,-5.93393 1.58728,-11.85692 -2.9961,-16.30078 -3.39013,-3.28701 -3.84002,-3.42288 -12.46289,-3.75977 z M 373,404 v 14 14 h 4 4 v -14 -14 h -4 z m 33.20117,0.0156 c -5.04964,-0.0173 -9.20564,1.90318 -12.11328,5.59961 C 392.51251,411.618 392,413.70127 392,418.09959 c 0,5.09461 0.39137,6.2765 3.10156,9.36328 1.70589,1.94289 4.51839,3.9411 6.25,4.44141 3.2034,0.92555 8.93322,0.46231 11.64844,-0.94336 6.73598,-3.48725 9.24523,-14.41846 4.80859,-20.94727 -2.96023,-4.35621 -6.10295,-5.97915 -11.60742,-5.99805 z m -99.36719,0.48438 -4.37304,11.82227 c -2.40527,6.50253 -4.64797,12.69007 -4.98438,13.75 -0.54141,1.70578 -0.0997,1.92773 3.83985,1.92773 3.60971,0 4.54846,-0.37792 4.97265,-2 0.42917,-1.64115 1.3647,-2 5.21094,-2 3.84624,0 4.78177,0.35885 5.21094,2 0.42267,1.61628 1.36389,2 4.90625,2 2.41085,0 4.36354,-0.3375 4.33984,-0.75 -0.0237,-0.4125 -2.21626,-6.60004 -4.87109,-13.75 l -4.82617,-13 h -4.71289 z m -30.9414,6.5 c 2.90573,0 4.18834,1.42389 3.37695,3.75 -0.23982,0.6875 -1.74939,1.25 -3.35351,1.25 -2.44445,2e-5 -2.91602,-0.40476 -2.91602,-2.5 0,-2.09057 0.47337,-2.5 2.89258,-2.5 z m 70.38476,0 c 1.25263,0 3.27763,0.70046 4.5,1.55664 3.125,2.18884 3.125,8.69788 0,10.88672 -1.22237,0.85618 -3.24737,1.55664 -4.5,1.55664 -2.15304,2e-5 -2.27734,-0.38241 -2.27734,-7 0,-6.61759 0.1243,-7 2.27734,-7 z M 406,411 c 5.24903,0 7.82062,7.66763 3.96094,11.81055 -1.12142,1.20371 -2.92142,2.18945 -4,2.18945 C 403.04755,425 400,421.42117 400,418 c 0,-3.43933 3.052,-7 6,-7 z m -94.19531,2.77734 c 0.12254,-0.0826 0.19531,0.006 0.19531,0.3125 0,0.23279 0.41809,1.88215 0.92969,3.66602 C 313.79138,420.76039 313.68655,421 311.5,421 c -2.1699,0 -2.2877,-0.25397 -1.46094,-3.13672 0.58857,-2.05223 1.39801,-3.83815 1.76563,-4.08594 z" />
  </g>
</svg>
