<?xml version="1.0" encoding="UTF-8" standalone="no"?>
<!-- Created with Inkscape (http://www.inkscape.org/) -->

<svg
   version="1.1"
   id="svg2"
   width="307.20001"
   height="307.20001"
   viewBox="0 0 307.20001 307.20001"
   sodipodi:docname="Freeradio.svg"
   inkscape:version="1.2.1 (9c6d41e410, 2022-07-14)"
   xmlns:inkscape="http://www.inkscape.org/namespaces/inkscape"
   xmlns:sodipodi="http://sodipodi.sourceforge.net/DTD/sodipodi-0.dtd"
   xmlns="http://www.w3.org/2000/svg"
   xmlns:svg="http://www.w3.org/2000/svg">
  <defs
     id="defs6" />
  <sodipodi:namedview
     id="namedview4"
     pagecolor="#ffffff"
     bordercolor="#000000"
     borderopacity="0.25"
     inkscape:showpageshadow="2"
     inkscape:pageopacity="0.0"
     inkscape:pagecheckerboard="0"
     inkscape:deskcolor="#d1d1d1"
     showgrid="false"
     inkscape:zoom="7.7616016"
     inkscape:cx="224.30937"
     inkscape:cy="150.61324"
     inkscape:window-width="1920"
     inkscape:window-height="1001"
     inkscape:window-x="-9"
     inkscape:window-y="1341"
     inkscape:window-maximized="1"
     inkscape:current-layer="g8" />
  <g
     inkscape:groupmode="layer"
     inkscape:label="Image"
     id="g8">
    <path
       style="fill:#ffffff;stroke:#000000;stroke-width:0.25;stroke-opacity:0.975845"
       d="m 257.29226,140.43493 c -0.69823,0.29793 -1.04315,0.91431 -1.54607,1.41724 -1.09678,1.09677 0.0737,-0.36817 -0.51536,0.51535 -0.0533,0.0799 -0.21473,0.0429 -0.25768,0.12884 -0.0384,0.0768 0.0515,0.18897 0,0.25768 -0.0929,0.12388 -0.27703,0.14819 -0.38652,0.25768 -0.17588,0.17589 -0.13345,0.64881 -0.25768,0.77304 -0.096,0.096 -0.29048,0.0328 -0.38652,0.12884 -0.12521,0.12521 -0.0306,0.36802 -0.12884,0.51535 -0.0238,0.0357 -0.11842,-0.0417 -0.12883,0 -0.0417,0.16666 0.0543,0.35239 0,0.51536 -0.043,0.12884 -0.30063,0.25768 -0.38652,0.38652 -0.13528,0.20292 -0.14125,0.46955 -0.25768,0.6442 -0.10107,0.1516 -0.29278,0.23027 -0.38652,0.38651 -0.0988,0.1647 -0.1377,0.36539 -0.25768,0.51536 -0.06,0.075 -0.18977,0.0609 -0.25768,0.12884 -0.14822,0.14822 -0.33464,1.36536 -0.38652,1.41724 -0.0607,0.0607 -0.18085,-0.0384 -0.25767,0 -0.0384,0.0192 0,0.0859 0,0.12883 0,0.11938 -0.16574,0.93877 -0.25768,1.03072 -0.0911,0.0911 -0.26429,-0.0407 -0.38652,0 -0.11765,0.0392 -0.26746,0.22791 -0.38652,0.25768 -0.12499,0.0313 -0.26689,-0.0479 -0.38652,0 -0.11278,0.0451 -0.14903,0.20335 -0.25768,0.25768 -0.0968,0.0484 -0.56487,0.0495 -0.64419,0.12884 -0.0304,0.0304 0.0384,0.10963 0,0.12884 -0.30922,0.1546 -0.85034,-0.15461 -1.15956,0 -0.0543,0.0272 -0.0859,0.0859 -0.12884,0.12884 -0.12884,0 -0.26689,-0.0479 -0.38652,0 -0.11278,0.0451 -0.14489,0.21256 -0.25767,0.25767 -0.33631,0.13453 -0.8033,-0.0493 -1.15956,0.12884 -0.0543,0.0272 -0.0693,0.11693 -0.12884,0.12884 -0.30006,0.06 -1.00837,-0.0112 -1.28839,0.12884 -0.10865,0.0543 -0.14903,0.20336 -0.25768,0.25768 -0.22494,0.11247 -0.67418,0.015 -0.90188,0.12884 -0.21369,0.10685 -0.61997,0.15564 -0.77303,0.25768 -0.10107,0.0674 -0.14903,0.20335 -0.25768,0.25768 -0.14882,0.0744 -0.61287,0.11317 -0.90188,0.25768 -0.15365,0.0768 -0.3487,-0.0417 -0.51535,0 -0.14829,0.0371 -0.1783,0.32698 -0.25768,0.38651 -0.22998,0.17248 -0.67768,0.20717 -0.90188,0.38652 -0.12091,0.0967 -0.13676,0.28979 -0.25768,0.38652 -0.10605,0.0848 -0.26505,0.0681 -0.38652,0.12884 -0.29692,0.14846 -0.55902,0.53719 -0.77303,0.6442 -0.23564,0.11782 -0.0922,0.55232 -0.25768,0.77303 -0.25351,0.33802 -0.33519,0.19378 -0.51536,0.6442 -0.0479,0.11963 0.0576,0.27128 0,0.38652 -0.24679,0.49358 -0.53754,0.88395 -0.6442,1.41723 -0.0253,0.12634 0.0253,0.26018 0,0.38652 -0.19337,0.96688 -0.009,-0.30793 -0.38651,0.25768 -0.0715,0.1072 0.0253,0.26018 0,0.38652 -0.0611,0.30526 -0.19566,0.59174 -0.25768,0.90187 -0.008,0.0413 -0.56877,1.17525 -0.6442,1.2884 -0.0337,0.0505 -0.11411,0.0699 -0.12884,0.12884 -0.0417,0.16665 0.0768,0.3617 0,0.51535 -0.0693,0.1385 -0.18843,0.24802 -0.25768,0.38652 -0.19272,0.38544 -0.25768,2.78402 -0.25768,3.22099 0,0.27596 -0.15444,1.05672 0,1.28839 0.0533,0.0799 0.18978,0.0609 0.25768,0.12884 0.24332,0.24332 0.0608,0.2432 0.12884,0.51536 0.0376,0.15022 0.22012,0.23629 0.25768,0.38652 0.0417,0.16665 -0.0768,0.3617 0,0.51535 0.14817,0.29635 0.30787,0.45844 0.38652,0.77304 0.0828,0.33116 0.0461,0.69979 0.12884,1.03071 0.0641,0.25626 0.39628,0.40605 0.51536,0.6442 0.073,0.146 0.07,0.54618 0.12883,0.6442 0.0797,0.13278 0.30686,0.1249 0.38652,0.25768 0.0663,0.11048 -0.0313,0.26152 0,0.38652 0.0584,0.23363 0.52339,0.57168 0.6442,0.77303 0.0699,0.11646 0.0473,0.27787 0.12884,0.38652 0.0676,0.0901 0.60725,0.23921 0.6442,0.25768 0.19206,0.096 0.36352,0.23468 0.51535,0.38652 0.0304,0.0304 -0.0304,0.0985 0,0.12884 0.0978,0.0978 0.50922,0.1227 0.6442,0.25768 0.30808,0.30807 -0.0221,0.23559 0.12884,0.38651 0.0989,0.0989 0.4056,0.074 0.51536,0.12884 0.0384,0.0192 -0.0238,0.0931 0,0.12884 0.10107,0.15161 0.30503,0.22355 0.38652,0.38652 0.0192,0.0384 -0.0304,0.0985 0,0.12884 0.008,0.36278 0.29048,0.0328 0.38651,0.12884 0.15693,0.15692 0.0604,0.28785 0.25768,0.38652 0.12884,0.0429 0.25768,0.0859 0.38652,0.12884 0,0.0429 -0.0304,0.0985 0,0.12884 0.0304,0.0304 0.10963,-0.0384 0.12884,0 0.0838,0.16761 -0.12,0.30357 0.12884,0.38651 0.16799,0.056 0.35698,0.0497 0.51536,0.12884 0.0384,0.0192 -0.0304,0.0985 0,0.12884 0.10949,0.1095 0.26264,0.16477 0.38652,0.25768 0.0972,0.0729 0.13983,0.22822 0.25767,0.25768 0.0246,0.006 0.72652,0.0978 0.77304,0.12884 0.10107,0.0674 0.15661,0.1903 0.25768,0.25768 0.0773,0.0515 0.3221,-0.0644 0.38652,0 0.0304,0.0304 -0.0384,0.10963 0,0.12884 0.0335,0.0167 3.27169,0.21163 3.47866,0.12884 0.11278,-0.0451 0.14088,-0.22431 0.25768,-0.25768 0.71199,-0.20343 2.34629,0.11525 3.09215,-0.25768 0.0159,-0.008 1.53494,-0.10658 1.54607,-0.12884 0.0384,-0.0768 -0.0715,-0.21003 0,-0.25768 0.1072,-0.0715 0.26018,0.0253 0.38652,0 0.32116,-0.0642 0.59893,-0.18194 0.90187,-0.25768 0.78537,-0.19634 -0.34027,-0.0443 0.51536,-0.38652 0.14534,-0.16297 0.35239,0.0543 0.51536,0 0.24926,-0.0831 0.55333,-0.33159 0.77303,-0.38651 0.16666,-0.0417 0.39389,0.12147 0.51536,0 0.0679,-0.0679 0.052,-0.20006 0.12884,-0.25768 0.21729,-0.16297 0.54704,-0.10701 0.77304,-0.25768 0.1516,-0.10107 0.23027,-0.29277 0.38651,-0.38652 0.0737,-0.0442 0.17179,0 0.25768,0 0.0859,-0.0429 0.17778,-0.0756 0.25768,-0.12884 0.12884,-0.0859 0.30063,-0.12884 0.38652,-0.25768 0.0476,-0.0715 -0.0715,-0.21003 0,-0.25768 0.1072,-0.0715 0.27128,0.0576 0.38652,0 0.0859,-0.0429 0.052,-0.20006 0.12884,-0.25767 0.10864,-0.0815 0.27006,-0.059 0.38652,-0.12884 0.20142,-0.12086 0.43809,-0.37796 0.64419,-0.51536 0.38962,-0.25975 0.54251,-0.87206 0.90188,-1.15956 0.10605,-0.0848 0.29049,-0.0328 0.38652,-0.12884 0.096,-0.096 0.0681,-0.26504 0.12884,-0.38651 0.14136,-0.28273 0.57417,-0.37905 0.77303,-0.6442 0.0576,-0.0768 0.0859,-0.17179 0.12884,-0.25768 0.0859,-0.12884 0.16095,-0.2656 0.25768,-0.38652 0.3465,-0.43312 0.2719,-0.14306 0.77304,-0.64419 0.27291,-0.27292 0.53304,-0.71747 0.90187,-0.90188 0.12147,-0.0607 0.27787,-0.0473 0.38652,-0.12884 0.0768,-0.0576 0.0609,-0.18977 0.12884,-0.25768 0.17707,-0.17707 0.49395,-0.18618 0.6442,-0.38652 0.0815,-0.10864 0.0328,-0.29048 0.12884,-0.38651 0.0607,-0.0607 0.17435,0.0208 0.25768,0 0.86782,-0.21696 0.002,-0.002 0.25767,-0.25768 0.0747,-0.0747 0.44069,-0.18301 0.51536,-0.25768 0.26657,-0.26658 -0.40736,0.0104 0.12884,-0.25768 0.0384,-0.0192 0.0985,0.0304 0.12884,0 0.0304,-0.0304 0,-0.0859 0,-0.12884 0,-0.0859 -0.0607,-0.19694 0,-0.25768 0.0607,-0.0607 0.18085,0.0384 0.25768,0 0.0384,-0.0192 -0.0304,-0.0985 0,-0.12884 0.0644,-0.0644 0.19326,-0.0644 0.25768,-0.12884 0.0304,-0.0304 -0.0407,-0.11526 0,-0.12884 0.12223,-0.0407 0.27128,0.0576 0.38652,0 0.0859,-0.0429 0.0609,-0.18977 0.12884,-0.25768 0.17907,-0.17907 0.57239,-0.28619 0.77303,-0.38651 0.1385,-0.0693 0.27703,-0.14819 0.38652,-0.25768 0.0304,-0.0304 -0.0384,-0.10964 0,-0.12884 0.63465,-0.31733 -0.23262,0.74797 0.77304,-0.25768 0.0607,-0.0607 -0.0384,-0.18086 0,-0.25768 0.0384,-0.0768 0.17619,0.0272 0.25768,0 0.1822,-0.0607 0.35555,-0.15114 0.51535,-0.25768 0.50112,-0.33408 0.9142,-1.03688 1.41724,-1.28839 0.12147,-0.0607 0.27787,-0.0474 0.38651,-0.12884 0.15544,-0.11658 0.16586,-0.50646 0.25768,-0.6442 0.19043,-0.28563 0.41023,-0.28139 0.51536,-0.38652 0.0484,-0.0484 0.33193,-0.58961 0.38652,-0.64419 0.26657,-0.26658 -0.0104,0.40736 0.25768,-0.12884 0.15866,-0.31733 -0.37399,0.1163 0.12884,-0.38652 0.0679,-0.0679 0.20827,-0.0465 0.25768,-0.12884 0.0911,-0.15184 0.0631,-0.35095 0.12883,-0.51536 0.0851,-0.21275 0.41548,-0.23669 0.51536,-0.38652 0.0476,-0.0715 -0.0476,-0.18621 0,-0.25768 0.0533,-0.0799 0.18978,-0.0609 0.25768,-0.12884 0.62367,-0.62366 -0.27939,0.097 0.12884,-0.51535 0.008,-0.36278 0.29049,-0.0328 0.38652,-0.12884 0.086,-0.086 0.19713,-0.56347 0.25768,-0.6442 0.0483,-0.0644 0.4877,-0.2162 0.51536,-0.25768 0.0982,-0.14733 0.004,-0.39015 0.12883,-0.51536 0.0679,-0.0679 0.20441,-0.0489 0.25768,-0.12883 0.18437,-0.27655 -0.1911,-0.22655 0.12884,-0.38652 0.0384,-0.0192 0.0985,0.0304 0.12884,0 0.10369,-0.10369 0.0479,-0.65165 0.12884,-0.77304 0.0533,-0.0799 0.21473,-0.0429 0.25768,-0.12884 0.0496,-0.0992 0.12884,-1.57948 0.12884,-1.80375 0,-0.76575 0.10986,-1.60301 -0.12884,-2.31911 -0.0643,-0.19282 0.0494,-0.44662 0,-0.6442 -0.0876,-0.3503 -0.33352,-0.65976 -0.38652,-1.03071 -0.0243,-0.17006 0.0472,-0.35018 0,-0.51536 0.14314,-0.34879 -0.31861,-0.31164 -0.38652,-0.51536 -0.0272,-0.0815 0.0208,-0.17435 0,-0.25767 -0.0466,-0.18633 -0.22001,-0.32703 -0.25767,-0.51536 -0.0253,-0.12634 0.0576,-0.27128 0,-0.38652 -0.0787,-0.15743 -0.38056,-0.099 -0.51536,-0.77304 -0.0342,-0.17112 -0.0483,-1.03867 -0.12884,-1.15955 -0.0533,-0.0799 -0.18978,-0.0609 -0.25768,-0.12884 -0.12147,-0.12147 0.0417,-0.3487 0,-0.51536 -0.0298,-0.11906 -0.21846,-0.26887 -0.25768,-0.38652 -0.048,-0.14395 -0.0198,-0.79281 -0.12884,-0.90187 -0.0607,-0.0607 -0.18085,0.0384 -0.25768,0 -0.0251,-0.0126 -0.10088,-0.22973 -0.12884,-0.25768 -0.0304,-0.0304 -0.0904,0.0192 -0.12884,0 -0.25768,-0.12884 -0.38651,-0.51536 -0.64419,-0.6442 -0.0384,-0.0192 -0.0985,0.0304 -0.12884,0 -0.0304,-0.0304 0.0304,-0.0985 0,-0.12884 -0.17708,-0.17707 -0.46713,-0.20944 -0.6442,-0.38652 -0.0304,-0.0304 0.0384,-0.10963 0,-0.12883 -0.0542,-0.0271 -0.47481,-0.0477 -0.51536,-0.12884 -0.0384,-0.0768 0.0607,-0.19695 0,-0.25768 -0.12521,-0.12521 -0.39015,-0.004 -0.51535,-0.12884 -0.0304,-0.0304 0.0192,-0.0904 0,-0.12884 -0.096,-0.19206 -0.34358,-0.25768 -0.51536,-0.38652 -0.13985,-0.10489 -0.18357,-0.3124 -0.25768,-0.38652 -0.0911,-0.0911 -0.27932,0.0715 -0.38652,0 -0.0799,-0.0533 -0.0489,-0.20441 -0.12884,-0.25768 -0.14733,-0.0982 -0.35698,-0.0497 -0.51536,-0.12884 -0.2946,-0.1473 -0.47193,-0.3648 -0.77303,-0.51535 -0.0768,-0.0384 -0.19695,0.0607 -0.25768,0 -0.0304,-0.0304 0.0384,-0.10964 0,-0.12884 -0.28287,-0.14144 -0.75089,0.0111 -1.03072,-0.12884 -0.0543,-0.0272 -0.0745,-0.10168 -0.12884,-0.12884 -0.25767,-0.12884 0,0.25768 -0.38651,0 -0.0799,-0.0533 -0.0609,-0.18978 -0.12884,-0.25768 -0.0429,-0.0429 -0.48936,0.009 -0.51536,0 -0.0576,-0.0192 -0.0712,-0.10963 -0.12884,-0.12884 -0.27819,-0.0927 -0.34394,0.0213 -0.6442,-0.12884 -0.11263,-0.0563 -0.40656,0.0272 -0.51535,0 -0.0932,-0.0233 -0.16352,-0.11001 -0.25768,-0.12884 -0.16845,-0.0337 -0.37243,0.0953 -0.51536,0 -0.10107,-0.0674 -0.14903,-0.20335 -0.25768,-0.25768 -0.10937,-0.0547 -1.98817,-0.0505 -2.19027,0 -0.21621,0.054 -0.426,0.21404 -0.6442,0.25768 -0.12633,0.0253 -0.26018,-0.0253 -0.38651,0 -0.22794,0.0456 -0.44906,0.32147 -0.6442,0.38652 -0.12223,0.0407 -0.26153,-0.0313 -0.38652,0 -0.18633,0.0466 -0.32903,0.2111 -0.51536,0.25768 -0.2264,0.0566 -1.18587,0.0776 -1.28839,0.12884 -0.10865,0.0543 -0.15661,0.1903 -0.25768,0.25768 -0.0357,0.0238 -0.0985,-0.0304 -0.12884,0 -0.0304,0.0304 0.0384,0.10963 0,0.12884 -0.10163,0.11523 -0.27128,-0.0576 -0.38652,0 -0.4415,0.22074 -0.58419,0.17013 -1.15955,0.51535 z"
       id="path927" />
    <path
       style="fill:#ffffff;stroke:#000000;stroke-width:0.25;stroke-opacity:0.975845"
       d="m 29.246541,170.96987 c 1.411413,0.0793 2.856918,-0.17004 4.2517,0.12884 0.907031,0.19436 0.799037,0.31914 1.674912,0.38652 2.208675,0.16989 4.373164,-0.25768 6.570809,-0.25768 2.089016,0 4.229085,0.12259 6.31313,0 0.303153,-0.0178 0.59897,-0.10721 0.901875,-0.12884 1.398277,-0.0999 2.850233,0 4.2517,0 3.006253,0 6.012505,0 9.018757,0 1.760805,0 3.52161,0 5.282415,0 0.607117,0 1.465459,-0.13244 2.061431,0 0.187488,0.0417 0.327868,0.21601 0.515357,0.25768 0.96496,0.21443 2.54522,-0.10623 3.607503,0 0.135135,0.0135 0.251384,0.11532 0.386518,0.12884 1.912684,0.19126 3.879068,-0.12792 5.797773,0 1.501558,0.1001 3.004517,0.17847 4.509378,0.25767 1.1507,0.0606 2.326193,0 3.478664,0 2.405002,0 4.810004,0 7.215005,0 1.190222,0 2.840882,-0.16473 3.994021,0 0.350587,0.0501 0.680129,0.2076 1.030711,0.25768 0.81593,0.11656 1.75288,0 2.57679,0 2.27616,0 4.55233,0 6.82849,0 0.66454,0 1.53006,-0.13204 2.19027,0 0.45986,0.092 0.81658,0.30789 1.28839,0.38652 0.12709,0.0212 0.26429,-0.0407 0.38652,0 0.41566,0.13855 0.2795,0.29535 0.6442,0.38652 0.0833,0.0208 0.17619,-0.0272 0.25768,0 0.0576,0.0192 0.0745,0.10168 0.12884,0.12884 0.0384,0.0192 0.0985,-0.0304 0.12884,0 0.0304,0.0304 -0.0407,0.11526 0,0.12884 0.12222,0.0407 0.27931,-0.0715 0.38651,0 0,0.18436 -0.0607,0.29173 0.12884,0.38652 0.14093,0.0705 0.3824,0.12471 0.51536,0.25768 0.13297,0.13296 0.18722,0.37442 0.25768,0.51535 0.0815,0.16297 0.28545,0.23492 0.38652,0.38652 0.098,0.14702 0.17386,0.47657 0.25768,0.6442 0.14828,0.29657 0.15113,-0.0562 0.38652,0.25768 0.2474,0.32987 0.13911,0.82968 0.38651,1.15955 0.0576,0.0768 0.21474,0.0429 0.25768,0.12884 0.0376,0.0751 0.11903,0.98164 0.12884,1.03072 0.0119,0.0596 0.10168,0.0745 0.12884,0.12884 0.0979,0.19586 0.0859,0.42946 0.12884,0.64419 0.14342,0.71708 -0.21366,3.43786 0,3.86518 0.0429,0.0859 0.18977,0.0609 0.25768,0.12884 0.006,0.006 0,3.39081 0,3.60751 0,1.19143 0.11626,2.4731 -0.38652,3.47866 -0.059,0.11791 0.0874,0.42794 0,0.51536 -0.0679,0.0679 -0.18977,0.0609 -0.25768,0.12884 -0.13143,0.13143 0.0678,0.56966 0,0.77303 -0.13117,0.39353 -0.23953,1.45443 -0.38652,1.67491 -0.0674,0.10107 -0.20335,0.14904 -0.25767,0.25768 -0.0384,0.0768 0.0272,0.1762 0,0.25768 -0.0192,0.0576 -0.10168,0.0745 -0.12884,0.12884 -0.11234,0.22466 -0.0317,0.54709 -0.25768,0.77304 -0.0679,0.0679 -0.18978,0.0609 -0.25768,0.12884 -0.096,0.096 -0.0328,0.29048 -0.12884,0.38652 -0.0304,0.0304 -0.0985,-0.0304 -0.12884,0 -0.0654,0.0654 -0.33065,0.58832 -0.38652,0.64419 -0.0304,0.0304 -0.0985,-0.0304 -0.12884,0 -0.0304,0.0304 0.0304,0.0985 0,0.12884 -0.18554,0.18555 -0.48056,0.2699 -0.6442,0.51536 -0.10653,0.1598 -0.19694,0.33315 -0.25767,0.51536 -0.0272,0.0815 0.0768,0.21926 0,0.25768 -0.0768,0.0384 -0.18086,-0.0384 -0.25768,0 -0.0411,0.0206 0,0.58937 0,0.64419 0,1.04546 0.66926,1.38867 0.90187,2.31911 0.0718,0.28716 0.0943,2.26735 0.12884,2.31911 0.0674,0.10107 0.20336,0.14903 0.25768,0.25768 0.15942,0.31883 -0.11192,0.66957 0.12884,1.03071 0.0238,0.0357 0.10963,-0.0384 0.12884,0 0.0549,0.10977 0.0299,0.41646 0.12884,0.51536 0.0679,0.0679 0.20006,0.052 0.25768,0.12884 0.11524,0.15365 0.17178,0.34357 0.25768,0.51536 0.0607,0.12147 0.0959,0.25476 0.12884,0.38652 0.0104,0.0417 -0.0384,0.10963 0,0.12884 0.1341,0.067 0.32727,-0.10815 0.38651,0.12884 0.086,0.34393 0.0177,1.56377 0.25768,1.80375 0.41133,0.41133 0.25768,-0.3351 0.25768,0.64419 0,1.24938 0.13571,0.81908 -0.77303,1.54608 -0.73723,0.58977 0.37669,-0.0734 -0.77304,0.38652 -0.0564,0.0225 -0.0712,0.10963 -0.12884,0.12883 -0.11596,0.0387 -0.27056,-0.0386 -0.38652,0 -0.91961,0.30654 -2.11482,0.12884 -3.09214,0.12884 -0.21474,0 -0.44483,-0.0797 -0.6442,0 -0.11278,0.0451 -0.1449,0.21257 -0.25768,0.25768 -0.34385,0.13754 -1.05605,0 -1.41723,0 -0.58597,0 -1.09828,0.0327 -1.67491,0.12884 -0.37608,0.0627 -0.78349,-0.0627 -1.15956,0 -0.0947,0.0158 -0.16657,0.0985 -0.25768,0.12884 -0.34203,0.11401 -0.8044,-0.071 -1.15955,0 -0.0942,0.0188 -0.16452,0.10555 -0.25768,0.12884 -0.29171,0.0729 -1.98892,0.0671 -2.19027,0 -0.0576,-0.0192 -0.0712,-0.10963 -0.12884,-0.12884 -0.21473,-0.0716 -0.42946,0.10737 -0.6442,0 -0.0859,-0.043 -0.0429,-0.21473 -0.12884,-0.25768 -0.32161,-0.1608 -0.78535,0.0583 -1.15955,-0.12884 -1.18304,-0.59152 0.88342,0.0957 -0.6442,-0.51535 -0.0798,-0.0319 -0.18085,0.0384 -0.25768,0 -0.58651,-0.58652 0.0534,-0.0681 -0.515354,-0.25768 -0.206143,-0.0687 -0.309215,-0.44665 -0.515358,-0.51536 -0.08149,-0.0272 -0.17435,0.0208 -0.257679,0 -0.366758,-0.0917 -0.691702,-0.53119 -1.030715,-0.6442 -0.884471,-0.29482 0.60012,0.49332 -0.644197,-0.12884 -0.217293,-0.10864 -0.313217,-0.38059 -0.515357,-0.51535 -0.779511,-0.51968 -0.05158,0.18678 -0.644197,-0.25768 -0.145765,-0.10933 -0.223548,-0.30504 -0.386518,-0.38652 -0.10063,-0.0503 -0.531621,-0.1451 -0.644197,-0.25768 -0.109493,-0.10949 -0.148187,-0.27703 -0.257679,-0.38652 -0.03037,-0.0304 -0.09311,0.0238 -0.128839,0 -0.228807,-0.15254 -0.424204,-0.35036 -0.644197,-0.51536 -0.09718,-0.0729 -0.144896,-0.21256 -0.257679,-0.25767 -0.164408,-0.0658 -0.377087,-0.0182 -0.515358,-0.12884 -0.106048,-0.0848 -0.03281,-0.29049 -0.128839,-0.38652 -0.09603,-0.096 -0.268603,-0.0615 -0.386518,-0.12884 -0.134974,-0.0771 -1.029329,-0.61026 -1.159555,-0.77304 -0.08484,-0.10605 -0.04735,-0.27787 -0.128839,-0.38652 -0.106734,-0.14231 -0.55183,-0.16531 -0.644197,-0.25767 -0.09603,-0.096 -0.03281,-0.29049 -0.128839,-0.38652 -0.09603,-0.096 -0.290487,-0.0328 -0.386519,-0.12884 -0.09603,-0.096 -0.05897,-0.27007 -0.128839,-0.38652 -0.323278,-0.5388 -0.176465,-0.0123 -0.644197,-0.38652 -0.120914,-0.0967 -0.148186,-0.27702 -0.257679,-0.38652 -0.109492,-0.10949 -0.289786,-0.13676 -0.386518,-0.25768 -0.08484,-0.10604 -0.03281,-0.29048 -0.128839,-0.38651 -0.09603,-0.096 -0.290487,-0.0328 -0.386518,-0.12884 -0.09603,-0.096 -0.04735,-0.27787 -0.12884,-0.38652 -0.08224,-0.10966 -0.586467,-0.2115 -0.644197,-0.25768 -0.120914,-0.0967 -0.140111,-0.28575 -0.257678,-0.38652 -0.464724,-0.39833 -1.050628,-0.47577 -1.546073,-0.77303 -0.269244,-0.16155 -0.50646,-0.46648 -0.773036,-0.6442 -0.159806,-0.10654 -0.379549,-0.12187 -0.515358,-0.25768 -0.0679,-0.0679 -0.06094,-0.18977 -0.128839,-0.25768 -0.623668,-0.62367 0.09699,0.27939 -0.515358,-0.12884 -0.0799,-0.0533 -0.05385,-0.19769 -0.128839,-0.25768 -0.149976,-0.11998 -0.365382,-0.1377 -0.515358,-0.25768 -0.07499,-0.06 -0.06094,-0.18977 -0.128839,-0.25767 -0.02363,-0.0236 -0.642666,-0.51485 -0.644197,-0.51536 -0.08149,-0.0272 -0.177929,0.0319 -0.257679,0 -1.113698,-0.44548 0.08416,-0.0357 -0.515358,-0.51536 -0.456691,-0.36535 -1.17251,-0.60043 -1.674912,-0.90188 -0.151575,-0.0909 -0.234942,-0.29557 -0.386518,-0.38651 -0.116455,-0.0699 -0.277871,-0.0474 -0.386518,-0.12884 -0.07682,-0.0576 -0.04894,-0.20441 -0.128839,-0.25768 -0.173068,-0.11538 -1.151702,-0.50751 -1.288394,-0.6442 -0.0679,-0.0679 -0.06094,-0.18977 -0.12884,-0.25768 -0.192558,-0.19256 -1.135299,-0.36226 -1.159554,-0.38652 -0.0679,-0.0679 -0.04894,-0.20441 -0.128839,-0.25767 -0.249833,-0.16656 -1.439117,0.0109 -1.674912,0.12883 -0.3064,0.1532 0.05456,0.20969 -0.12884,0.51536 -0.07967,0.13278 -0.277026,0.14819 -0.386518,0.25768 -0.277061,0.11313 -0.209445,0.46713 -0.386518,0.6442 -0.06791,0.0679 -0.20006,0.052 -0.257679,0.12884 -0.226799,0.3024 -0.191697,0.57197 -0.257679,0.90187 -0.171786,0.85893 -0.04295,-0.30062 -0.386518,0.38652 -0.05762,0.11524 0.03125,0.26153 0,0.38652 -0.02946,0.11784 -0.219266,0.14244 -0.257679,0.25768 -0.02716,0.0815 0.03841,0.18085 0,0.25768 -0.02735,0.0547 -1.10004,0.36006 -1.159554,0.38652 -0.228836,0.1017 -0.408855,0.30093 -0.644197,0.38651 -0.245505,0.0893 -0.521855,0.0571 -0.773036,0.12884 -0.0584,0.0167 -0.07122,0.10964 -0.12884,0.12884 -0.298591,0.0995 -0.730933,-0.0749 -1.030715,0 -0.186328,0.0466 -0.337032,0.18635 -0.515358,0.25768 -0.354501,0.1418 -0.905891,-0.0765 -1.288393,0 -0.09417,0.0188 -0.162955,0.11305 -0.257679,0.12884 -0.418362,0.0697 -0.868302,-0.06 -1.288394,0 -1.402837,0.20041 -2.830257,0.12884 -4.2517,0.12884 -1.846698,0 -3.693396,0 -5.540094,0 -0.977053,0 -1.993487,0.10776 -2.963305,0 -0.519271,-0.0577 -1.025753,-0.21038 -1.546073,-0.25768 -0.427701,-0.0389 -0.859881,0.0286 -1.288394,0 -0.601712,-0.0401 -1.207938,-0.19148 -1.803751,-0.25768 -0.62162,-0.0691 -1.307427,0 -1.932591,0 -0.422805,0 -1.718917,-0.137 -2.06143,0 -0.112783,0.0451 -0.156609,0.1903 -0.257679,0.25768 -0.151203,0.1008 -0.496778,0.0551 -0.644197,0.12884 -0.03841,0.0192 0.01921,0.0904 0,0.12884 -0.07364,0.14727 -0.273646,0.53132 -0.386518,0.6442 -0.06791,0.0679 -0.189775,0.0609 -0.257679,0.12884 -0.541335,0.54133 -0.386518,4.07782 -0.386518,5.02473 0,0.71474 0.157655,2.54035 0,3.09215 -0.05276,0.18467 -0.196944,0.33315 -0.257679,0.51535 -0.125186,0.37556 -0.05111,0.89974 -0.128839,1.2884 -0.162718,0.81359 -0.02625,0.0263 -0.257679,0.25768 -0.03037,0.0304 0.02382,0.0931 0,0.12884 -0.202777,0.30416 -0.708107,0.86941 -1.030715,1.03071 -0.15365,0.0768 -0.346908,-0.0337 -0.515358,0 -0.339209,0.0678 -0.691506,0.18984 -1.030715,0.25768 -0.150313,0.0301 -0.801667,-0.0401 -0.901876,0 -0.08916,0.0357 -0.04894,0.20441 -0.128839,0.25768 -0.20988,0.13992 -0.894731,0 -1.159555,0 -0.868297,0 -1.853496,0.14202 -2.705627,0 -0.09472,-0.0158 -0.163512,-0.11001 -0.257679,-0.12884 -0.336899,-0.0674 -0.687143,0 -1.030715,0 -0.278463,0 -0.907528,0.12601 -1.159554,0 -0.03841,-0.0192 0.03841,-0.10963 0,-0.12884 -0.206143,-0.10307 -0.566893,0.10307 -0.773036,0 -0.222099,-0.11105 -0.415581,-0.43915 -0.644197,-0.51536 -0.557826,-0.18594 0.04735,0.2463 -0.515358,-0.12884 -0.397248,-0.26483 0.275815,0.0181 -0.257679,-0.51535 -0.04001,-0.04 -0.471219,-0.0811 -0.515357,-0.25768 -0.09122,-0.36488 -0.04455,-0.67551 -0.257679,-1.03072 -0.441533,-0.73589 -0.121077,0.28485 -0.386518,-0.64419 -0.34857,-1.22 0.07447,0.26358 -0.12884,-1.15956 -0.038,-0.26601 -0.323075,-0.67982 -0.386518,-0.90187 -0.04295,-0.15032 0.02863,-0.47242 0,-0.6442 -0.05692,-0.34154 -0.06094,-0.6912 -0.128839,-1.03072 -0.01191,-0.0596 -0.116928,-0.0693 -0.12884,-0.12884 -0.140677,-0.70338 0.118054,-1.48194 0,-2.19027 -0.170306,-1.02184 -0.128839,-2.05061 -0.128839,-3.09214 0,-0.33797 -0.143515,-1.00136 0,-1.28839 0.02716,-0.0543 0.109633,-0.0712 0.128839,-0.12884 0.05432,-0.16297 -0.12147,-0.39389 0,-0.51536 0.06074,-0.0607 0.180854,0.0384 0.257679,0 0.105029,-0.0525 -0.09086,-0.55334 0,-0.6442 0.03037,-0.0304 0.09847,0.0304 0.12884,0 0.08742,-0.0874 -0.05896,-0.39744 0,-0.51536 0.14633,-0.29266 0.257678,-0.80571 0.257678,-1.15955 0,-0.12884 -0.115237,-0.3289 0,-0.38652 0.07682,-0.0384 0.210034,0.0715 0.257679,0 0.07546,-0.11319 0.0647,-2.77144 0.12884,-3.09214 0.193525,-0.96763 0.128839,-1.9647 0.128839,-2.96331 0,-1.41723 0,-2.83447 0,-4.2517 0,-0.62558 -0.07743,-1.31316 0,-1.93259 0.01685,-0.13476 0.109633,-0.25208 0.128839,-0.38652 0.02977,-0.2084 -0.10461,-0.95033 0,-1.15955 0.04295,-0.0859 0.204411,-0.0489 0.257679,-0.12884 0.119112,-0.17867 -0.05208,-0.43588 0,-0.6442 0.01473,-0.0589 0.114109,-0.0699 0.128839,-0.12884 0.06063,-0.24252 -0.06063,-0.53051 0,-0.77304 0.291638,-1.16655 0.12884,-2.52779 0.12884,-3.73634 0,-1.1199 0.160395,-2.30464 -0.257679,-3.34982 z"
       id="path862" />
    <path
       style="fill:#fafb00;fill-opacity:1;stroke:#000000;stroke-width:0.25;stroke-opacity:0.975845"
       d="m 213.22919,119.30528 c -0.99015,-0.13142 -1.29889,0.42528 -2.06143,0.90187 -0.16287,0.10179 -0.35555,0.15114 -0.51536,0.25768 -0.24446,0.16297 -0.49249,0.55068 -0.77303,0.6442 -0.9183,0.3061 0.81792,-0.71007 -0.6442,0.38652 -0.0344,0.0258 -0.0985,-0.0304 -0.12884,0 -0.49784,0.49784 0.43441,0.0405 -0.51536,0.51535 -0.17178,0.0859 -0.33703,0.18635 -0.51535,0.25768 -0.78581,0.31432 0.44411,-0.52415 -0.6442,0.12884 -0.10416,0.0625 -0.15352,0.19518 -0.25768,0.25768 -0.11646,0.0699 -0.27006,0.059 -0.38652,0.12884 -0.10416,0.0625 -0.15661,0.1903 -0.25768,0.25768 -0.31961,0.21307 -0.70133,0.31772 -1.03071,0.51536 -0.15158,0.0909 -0.23494,0.29557 -0.38652,0.38651 -0.11646,0.0699 -0.26505,0.0681 -0.38652,0.12884 -0.26483,0.13242 -0.0203,0.27796 -0.25768,0.51536 -0.096,0.096 -0.27787,0.0474 -0.38652,0.12884 -0.23279,0.17459 -0.69053,1.07705 -0.90187,1.28839 -0.0679,0.0679 -0.20006,0.052 -0.25768,0.12884 -0.34806,0.13394 -0.007,0.46199 -0.12884,0.6442 -0.0533,0.0799 -0.21473,0.043 -0.25768,0.12884 -0.0576,0.11524 0.0354,0.26264 0,0.38652 -0.62475,2.18662 0.13112,-1.42635 -0.51536,1.15955 -0.30215,1.20861 -0.20111,4.7199 0,5.92661 0.0756,0.45383 -0.16941,1.12255 0,1.54608 0.0575,0.14377 0.21514,0.23763 0.25768,0.38651 0.17179,0.60126 -0.0859,0.34358 0,0.77304 0.0775,0.38734 0.20199,0.76974 0.25768,1.15956 0.0425,0.2976 -0.0494,0.60534 0,0.90187 0.0223,0.13396 0.10963,0.25208 0.12884,0.38652 0.0243,0.17006 -0.0543,0.35239 0,0.51536 0.0384,0.11523 0.1903,0.15661 0.25768,0.25768 0.0947,0.14211 0.0493,0.48503 0.12884,0.64419 0.17178,0.34357 0.31177,0.70498 0.51536,1.03072 0.0509,0.0814 0.18977,0.0609 0.25768,0.12884 0.20371,0.20371 0.20654,0.54807 0.38651,0.77303 0.06,0.075 0.20006,0.052 0.25768,0.12884 0.20775,0.277 0.3233,0.61379 0.51536,0.90188 0.0674,0.10107 0.21257,0.14489 0.25768,0.25768 0.0478,0.11962 -0.0576,0.27128 0,0.38652 0.0859,0.17178 0.41654,0.093 0.51536,0.25767 0.0911,0.15184 0.0497,0.35698 0.12884,0.51536 0.0543,0.10865 0.19518,0.15352 0.25767,0.25768 0.1489,0.24816 0.21354,0.67124 0.38652,0.90188 0.0576,0.0768 0.18978,0.0609 0.25768,0.12884 0.23049,0.23048 0.18239,0.64671 0.38652,0.90187 0.11382,0.14228 0.29277,0.23028 0.38652,0.38652 0.0442,0.0736 0,0.17179 0,0.25768 0.0429,0.0859 0.0756,0.17777 0.12884,0.25768 0.25768,0.38652 0,-0.25768 0.38652,0.38652 0.18609,0.31015 0.0491,0.38346 0.25767,0.64419 0.43615,0.54518 0.85339,1.06257 1.15956,1.67491 0.23692,0.47385 0.92607,0.59057 1.15955,0.90188 0.0815,0.10865 0.0859,0.25768 0.12884,0.38652 0.0859,0.17178 0.13473,0.36781 0.25768,0.51536 0.0991,0.11895 0.25768,0.17178 0.38652,0.25768 0.0859,0.17178 0.13472,0.36781 0.25768,0.51535 0.0991,0.11896 0.30062,0.12884 0.38652,0.25768 0.0982,0.14733 0.041,0.36162 0.12884,0.51536 0.0314,0.28139 0.39036,0.30704 0.51535,0.51536 0.0988,0.16469 0.12187,0.37955 0.25768,0.51535 0.096,0.096 0.27007,0.059 0.38652,0.12884 0.52532,0.31519 -0.0113,0.22287 0.51536,0.6442 0.25157,0.20126 0.42488,0.0384 0.64419,0.25768 0.0679,0.0679 0.0609,0.18977 0.12884,0.25768 0.51359,0.51358 -0.0115,-0.43316 0.6442,0.38652 0.0848,0.10604 0.0228,0.30168 0.12884,0.38651 0.13827,0.11062 0.35095,0.0631 0.51536,0.12884 0.19937,0.0797 0.33122,0.27604 0.51536,0.38652 0.16104,0.0966 0.70861,0.3221 0.77303,0.38652 0.096,0.096 0.0202,0.30503 0.12884,0.38652 0.10307,0.0773 0.26153,-0.0313 0.38652,0 0.0784,0.0196 1.28839,0.77303 1.28839,0.77303 0.096,0.096 0.0328,0.29049 0.12884,0.38652 0.0607,0.0607 0.17346,-0.0168 0.25768,0 0.13317,0.0266 0.27787,0.0474 0.38652,0.12884 0.0768,0.0576 0.0609,0.18978 0.12884,0.25768 0.32102,0.32102 0.68655,0.28591 1.03071,0.51536 0.55722,0.37148 0.1829,0.39128 0.77304,0.6442 0.16276,0.0697 0.36162,0.041 0.51536,0.12883 0.3553,0.3553 0.35449,0.40504 0.77303,0.6442 0.40917,0.23381 0.89188,0.28878 1.2884,0.51536 0.18077,0.1033 1.10253,0.64913 1.28839,0.77304 0.10107,0.0674 0.15352,0.19518 0.25768,0.25767 0.22113,0.13268 1.02813,0.34315 1.2884,0.38652 0.16944,0.0282 0.35018,-0.0472 0.51535,0 1.05957,0.30274 -0.17167,0.1657 0.6442,0.51536 0.20128,0.0863 0.43915,0.0519 0.6442,0.12884 0.14498,0.0544 0.24802,0.18843 0.38651,0.25768 0.27965,0.13982 0.62223,0.11785 0.90188,0.25768 0.0384,0.0192 -0.0407,0.11526 0,0.12884 0.16297,0.0543 0.39389,-0.12147 0.51536,0 0.0679,0.0679 0.0429,0.21473 0.12884,0.25768 0.11523,0.0576 0.26152,-0.0313 0.38652,0 0.0589,0.0147 0.0859,0.0859 0.12883,0.12883 0.0859,0.0429 0.16452,0.10555 0.25768,0.12884 0.16666,0.0417 0.34691,-0.0337 0.51536,0 0.38609,0.0772 0.59841,0.60267 1.03072,0.38652 0.0859,-0.0429 0.0429,-0.21473 0.12884,-0.25768 0.14429,-0.0721 0.37915,-0.0607 0.51535,-0.12884 0.19111,-0.0956 0.34512,-0.49465 0.38652,-0.51535 0.0768,-0.0384 0.18086,0.0384 0.25768,0 0.12514,-0.0626 0.1343,-0.78397 0.25768,-1.03072 0.0987,-0.19733 0.22959,-0.10075 0.38652,-0.25768 0.12147,-0.12147 -0.0417,-0.3487 0,-0.51535 0.0147,-0.0589 0.10167,-0.0745 0.12884,-0.12884 0.0576,-0.11524 -0.0408,-0.26429 0,-0.38652 0.078,-0.23386 0.18018,-0.33422 0.25768,-0.6442 0.0208,-0.0833 -0.0607,-0.19694 0,-0.25768 0.0679,-0.0679 0.20441,-0.0489 0.25767,-0.12884 0.0477,-0.0715 -0.0272,-0.17619 0,-0.25768 0.0192,-0.0576 0.10168,-0.0745 0.12884,-0.12884 0.0852,-0.17031 -0.0604,-0.46286 0,-0.64419 0.056,-0.16799 0.0728,-0.34737 0.12884,-0.51536 0.0192,-0.0576 0.10964,-0.0712 0.12884,-0.12884 0.0716,-0.21473 -0.10736,-0.42946 0,-0.6442 0.0429,-0.0859 0.21473,-0.0429 0.25768,-0.12884 0.0576,-0.11523 -0.0253,-0.26018 0,-0.38651 0.10486,-0.52431 0.44897,-0.92917 0.6442,-1.41724 0.12776,-0.31941 0.11384,-0.88687 0.38652,-1.15955 0.0679,-0.0679 0.18977,-0.0609 0.25768,-0.12884 0.16817,-0.16817 0.17891,-0.88275 0.38651,-1.15956 0.10933,-0.14576 0.30504,-0.22354 0.38652,-0.38651 0.0607,-0.12148 0.0328,-0.29049 0.12884,-0.38652 0.096,-0.096 0.27352,-0.0535 0.38652,-0.12884 0.0357,-0.0238 -0.0136,-0.0881 0,-0.12884 0.0619,-0.18574 0.21846,-0.40332 0.38652,-0.51536 0.14733,-0.0982 0.36802,-0.0306 0.51535,-0.12884 0.0799,-0.0533 0.0609,-0.18977 0.12884,-0.25768 0.0679,-0.0679 0.18978,-0.0609 0.25768,-0.12884 0.2921,-0.29209 -0.0769,-0.28367 0.38652,-0.51535 0.0768,-0.0384 0.18085,0.0384 0.25768,0 0.0384,-0.0192 0,-0.0859 0,-0.12884 0.0859,-0.0429 0.16351,-0.11001 0.25768,-0.12884 0.29049,-0.0581 0.41443,0.10092 0.6442,-0.12884 0.0679,-0.0679 0.0609,-0.18978 0.12883,-0.25768 0.28333,-0.28333 0.94959,-0.27358 1.2884,-0.38652 0.23757,-0.0792 0.40663,-0.30733 0.6442,-0.38652 0.1717,-0.0572 0.46534,0.0298 0.64419,0 0.17179,-0.0429 0.34357,-0.0859 0.51536,-0.12884 0.043,-0.0429 0.0712,-0.10963 0.12884,-0.12884 0.12223,-0.0407 0.29541,0.0911 0.38652,0 0.0679,-0.0679 0.0397,-0.22201 0.12884,-0.25767 0.1595,-0.0638 0.3469,0.0337 0.51535,0 0.0596,-0.0119 0.0699,-0.11411 0.12884,-0.12884 0.33021,-0.0826 0.70052,-0.0463 1.03072,-0.12884 0.29128,-0.0728 0.62145,-0.44525 0.90188,-0.51536 0.26942,-0.0674 0.76631,0.003 1.03071,-0.12884 0.0384,-0.0192 -0.0304,-0.0985 0,-0.12884 0.0607,-0.0607 0.18085,0.0384 0.25768,0 0.22398,-0.11199 0.43583,-0.24761 0.6442,-0.38652 0.43536,-0.29024 0.45444,-0.58328 0.77303,-0.90187 0.10949,-0.1095 0.27703,-0.14819 0.38652,-0.25768 0.10515,-0.10515 0.1641,-0.64827 0.25768,-0.77304 0.0576,-0.0768 0.18977,-0.0609 0.25768,-0.12884 0.23718,-0.23718 0.43466,-0.51111 0.64419,-0.77303 0.3806,-0.47575 0.59604,-1.1114 1.03072,-1.54608 0.10949,-0.10949 0.28979,-0.13676 0.38652,-0.25768 0.024,-0.03 0.16369,-0.58153 0.25768,-0.64419 0.0715,-0.0477 0.18085,0.0384 0.25768,0 0.0384,-0.0192 -0.0104,-0.0872 0,-0.12884 0.0466,-0.18633 0.21109,-0.32903 0.25767,-0.51536 0.0313,-0.12499 -0.0312,-0.26153 0,-0.38652 0.0593,-0.23732 0.44319,-0.35549 0.51536,-0.64419 0.0208,-0.0833 0,-0.17179 0,-0.25768 0.0859,-0.12884 0.20017,-0.24275 0.25768,-0.38652 0.0479,-0.11963 -0.0576,-0.27128 0,-0.38652 0.31131,-0.62262 0.8341,-1.68835 0.6442,-2.44795 -0.0329,-0.13175 -0.10221,-0.25335 -0.12884,-0.38652 -0.0169,-0.0842 0.0476,-0.18621 0,-0.25768 -0.0533,-0.0799 -0.20006,-0.052 -0.25768,-0.12883 -0.17677,-0.23569 -0.20975,-0.66619 -0.38652,-0.90188 -0.13542,-0.18056 -0.39066,-0.19947 -0.51536,-0.38652 -0.40823,-0.61234 0.49483,0.10831 -0.12884,-0.51536 -0.23941,-0.23941 -0.66246,-0.40478 -0.90187,-0.64419 -0.10949,-0.1095 -0.13677,-0.28979 -0.25768,-0.38652 -0.10605,-0.0848 -0.27006,-0.059 -0.38652,-0.12884 -0.28361,-0.17017 -0.46592,-0.67067 -0.77303,-0.77304 -0.0815,-0.0272 -0.17179,0 -0.25768,0 -0.12884,-0.12884 -0.22832,-0.29612 -0.38652,-0.38652 -0.32631,-0.18646 -0.82349,-0.18488 -1.15956,-0.38651 -0.10416,-0.0625 -0.15351,-0.19519 -0.25767,-0.25768 -0.042,-0.0252 -0.57309,-0.16287 -0.6442,-0.25768 -0.0815,-0.10865 -0.0328,-0.29049 -0.12884,-0.38652 -0.096,-0.096 -0.27135,-0.0569 -0.38652,-0.12884 -0.33576,-0.20985 -0.56235,-0.56932 -0.90187,-0.77303 -0.30469,-0.18282 -0.60888,-0.29561 -0.90188,-0.51536 -0.21999,-0.165 -0.44975,-0.32091 -0.6442,-0.51536 -0.0679,-0.0679 -0.0489,-0.20441 -0.12884,-0.25768 -0.0715,-0.0476 -0.18896,0.0515 -0.25768,0 -0.12387,-0.0929 -0.14818,-0.27702 -0.25767,-0.38652 -0.0679,-0.0679 -0.18978,-0.0609 -0.25768,-0.12884 -0.0304,-0.0304 0.0357,-0.10501 0,-0.12884 -0.113,-0.0753 -0.27136,-0.0569 -0.38652,-0.12884 -0.23319,-0.14574 -0.42043,-0.35552 -0.6442,-0.51535 -0.0781,-0.0558 -0.18977,-0.0609 -0.25768,-0.12884 -0.0679,-0.0679 -0.0609,-0.18978 -0.12884,-0.25768 -0.13581,-0.13581 -0.35555,-0.15114 -0.51535,-0.25768 -0.19357,-0.12904 -0.30902,-0.41219 -0.51536,-0.51536 -0.0384,-0.0192 -0.0985,0.0304 -0.12884,0 -0.65842,-0.65842 0.54022,0.1797 -0.38652,-0.51535 -0.0768,-0.0576 -0.18977,-0.0609 -0.25768,-0.12884 -0.0679,-0.0679 -0.0429,-0.21474 -0.12884,-0.25768 -0.11523,-0.0576 -0.26689,0.0478 -0.38652,0 -0.22556,-0.0902 -0.321,-0.3696 -0.51535,-0.51536 -0.0768,-0.0576 -0.18978,-0.0609 -0.25768,-0.12884 -0.0679,-0.0679 -0.052,-0.20006 -0.12884,-0.25768 -0.34409,-0.25807 -0.55986,-0.14367 -0.90188,-0.25768 -0.33773,-0.11257 0.0807,-0.17699 -0.12884,-0.38652 -0.0178,-0.0178 -0.95328,-0.23181 -1.15955,-0.38651 -1.00661,-0.75496 0.58752,0.22934 -0.6442,-0.38652 -0.21353,-0.10677 -0.2405,-0.36934 -0.38652,-0.51536 -0.43931,-0.43931 -1.15417,-0.64151 -1.67491,-0.90188 -0.0543,-0.0272 -0.0859,-0.0859 -0.12884,-0.12883 -0.0429,-0.0859 -0.0429,-0.21474 -0.12884,-0.25768 -0.11523,-0.0576 -0.26152,0.0312 -0.38652,0 -0.11784,-0.0295 -0.14903,-0.20336 -0.25767,-0.25768 -0.8085,-0.40425 0.0769,0.15081 -0.90188,-0.12884 -0.14889,-0.0425 -0.24419,-0.19668 -0.38652,-0.25768 -0.27645,-0.11848 -0.85314,-0.32524 -1.15955,-0.38652 -0.12634,-0.0253 -0.2669,0.0478 -0.38652,0 -0.11278,-0.0451 -0.1449,-0.21256 -0.25768,-0.25768 -0.17281,-0.0691 -0.83044,-0.0888 -1.03071,-0.12884 -0.0798,-0.0159 -0.74614,-0.24154 -0.77304,-0.25768 -0.10416,-0.0625 -0.14133,-0.22277 -0.25768,-0.25767 -0.5856,-0.17568 -1.32281,-0.17057 -1.93259,-0.25768 -0.59019,-0.0843 -1.0833,-0.44141 -1.67491,-0.51536 -0.17046,-0.0213 -0.3453,0.0243 -0.51536,0 -0.13444,-0.0192 -0.25768,-0.0859 -0.38652,-0.12884 -0.17178,-0.043 -0.33965,-0.10688 -0.51536,-0.12884 -0.17046,-0.0213 -0.3487,0.0417 -0.51535,0 -0.18633,-0.0466 -0.33315,-0.19694 -0.51536,-0.25768 -0.38585,-0.12861 -0.88487,-0.0616 -1.28839,-0.12884 -0.13397,-0.0223 -0.25208,-0.10963 -0.38652,-0.12884 -0.34012,-0.0486 -0.69382,0.0674 -1.03072,0 -0.23444,-0.0469 -0.0751,-0.12884 -0.51536,-0.12884 -0.25767,0 -0.52858,0.0815 -0.77303,0 -0.11524,-0.0384 -0.14903,-0.20335 -0.25768,-0.25768 -0.15365,-0.0768 -0.35239,0.0543 -0.51536,0 -0.0576,-0.0192 -0.0699,-0.1141 -0.12884,-0.12883 -0.63346,-0.15837 -1.52348,0.005 -2.19027,-0.12884 -0.31915,-0.0638 -0.73601,-0.31285 -1.03071,-0.38652 -0.60825,-0.15206 -1.68752,0 -2.31911,0 -0.0859,0 -0.20614,-0.0687 -0.25768,0 -0.11524,0.15365 -0.17179,0.34357 -0.25768,0.51536 z"
       id="path1115" />
    <path
       style="fill:#fafb00;fill-opacity:1;stroke:#000000;stroke-width:0.25;stroke-opacity:0.975845"
       d="m 156.28218,172.00059 c -2.61973,0 -5.23947,0 -7.8592,0 -0.62866,0 -1.30843,0.0624 -1.93259,0 -0.2179,-0.0218 -0.42586,-0.11205 -0.6442,-0.12884 -0.6423,-0.0494 -1.29716,0.1059 -1.93259,0 -0.22813,-0.038 -0.41742,-0.21233 -0.6442,-0.25768 -0.21056,-0.0421 -0.43078,0.0237 -0.64419,0 -0.17599,-0.0196 -0.33966,-0.10688 -0.51536,-0.12884 -1.60609,-0.20076 -3.28333,0.1466 -4.8959,0 -2.47251,-0.22478 -4.98284,-0.12884 -7.47268,-0.12884 -0.68883,0 -3.03796,-0.16273 -3.60751,0 -0.51967,0.14848 -0.41599,0.31711 -0.90187,0.38652 -0.18891,0.027 -0.86113,-0.0408 -1.03072,0.12884 -0.0304,0.0304 0.0384,0.10963 0,0.12884 -0.15365,0.0768 -0.39388,-0.12147 -0.51536,0 -0.096,0.096 -0.0474,0.27787 -0.12883,0.38651 -0.1063,0.14173 -0.73569,0.2278 -0.77304,0.25768 -0.10605,0.0848 -0.0202,0.30504 -0.12884,0.38652 -0.10307,0.0773 -0.26018,-0.0253 -0.38652,0 -0.47053,0.0941 -0.7722,0.54736 -1.15955,0.6442 -0.33222,0.0831 -0.73062,0.0576 -1.03072,0.25768 -0.38306,0.25537 -0.21962,0.60613 -0.51536,0.90187 -0.096,0.096 -0.30168,0.0228 -0.38651,0.12884 -0.11062,0.13827 -0.0496,0.35698 -0.12884,0.51536 -0.14816,0.2963 -0.49465,0.47393 -0.6442,0.77304 -0.13349,0.26698 -0.14411,1.37572 -0.25768,1.54607 -0.0674,0.10107 -0.20335,0.14903 -0.25768,0.25768 -0.0644,0.12884 0.0322,0.25768 0,0.38652 -0.0792,0.3169 -0.18151,0.59722 -0.25768,0.90187 -0.0208,0.0833 0,0.17179 0,0.25768 0,0.12884 0.0313,0.26153 0,0.38652 -0.0147,0.0589 -0.10963,0.0712 -0.12884,0.12884 -0.1204,0.36122 0.16928,0.94983 0,1.28839 -0.0429,0.0859 -0.18977,0.0609 -0.25767,0.12884 -0.17732,0.17731 0.12883,2.25773 0.12883,2.57679 0,1.09514 -0.13181,2.30721 0.12884,3.34982 0.0959,0.3836 0,0.89686 0,1.2884 0,1.2025 0,2.405 0,3.6075 0,0.26172 0.0853,3.17744 0.12884,3.22098 0.0679,0.0679 0.21474,0.0429 0.25768,0.12884 0.0891,0.17822 -0.0511,0.56862 0,0.77304 0.14371,0.57483 0.17117,1.19821 0.25768,1.80375 0.0281,0.19633 8.3e-4,3.09132 0,3.09215 -0.0679,0.0679 -0.21473,0.0429 -0.25768,0.12884 -0.0529,0.10573 -0.2444,3.50521 -0.12884,3.73634 0.0995,0.19909 0.82348,0.63487 1.03072,0.77304 0.67546,0.4503 -0.55831,-0.30063 0.12884,0.38651 0.0607,0.0607 0.17619,-0.0272 0.25768,0 0.26405,0.088 0.2677,0.48579 0.38651,0.6442 0.008,0.36278 0.29049,0.0328 0.38652,0.12884 0.0728,0.0728 0.1617,0.41938 0.25768,0.51536 0.17009,0.17009 0.3064,0.14615 0.38652,0.38652 0.0272,0.0815 -0.0272,0.17619 0,0.25767 0.0679,0.20372 0.36352,0.23468 0.51536,0.38652 0.12101,0.12102 0.18214,0.44723 0.38652,0.51536 0.18661,0.0622 0.46168,0.0376 0.64419,0.12884 0.41631,0.20815 0.80763,0.44668 1.2884,0.51536 0.4224,0.0603 1.15077,0.0159 1.54607,0.12884 0.14889,0.0425 0.23468,0.22731 0.38652,0.25767 0.29478,0.059 0.60191,-0.02 0.90187,0 0.34548,0.023 0.68507,0.10851 1.03072,0.12884 1.3594,0.08 2.76892,-0.15043 4.12286,0 0.68778,0.0764 1.36933,0.20001 2.06143,0.25768 0.55238,0.046 1.25725,-0.12144 1.80375,0 0.22577,0.0502 0.41983,0.20159 0.6442,0.25768 1.04307,0.26077 2.27928,0.33299 3.34982,0.38652 0.47182,0.0236 0.94742,-0.0495 1.41723,0 0.3522,0.0371 0.68013,0.2076 1.03072,0.25768 2.405,0.34357 0,-0.11453 1.03071,0 0.60364,0.0671 1.19758,0.21979 1.80376,0.25768 1.23271,0.077 2.50876,-0.1364 3.73634,0 0.17599,0.0196 0.33937,0.10928 0.51536,0.12884 1.48811,0.16534 3.25767,0 4.76705,0 0.47241,0 0.94897,-0.0624 1.41724,0 0.19037,0.0254 0.32787,0.21601 0.51535,0.25768 0.68251,0.15166 1.62423,0 2.31911,0 0.77304,0 1.54608,0 2.31911,0 0.12884,0 0.29542,-0.0911 0.38652,0 0.11275,0.11275 0.0809,0.5004 0.12884,0.64419 0.0761,0.22822 0.47314,0.69081 0.51536,0.90188 0.0335,0.16748 0.0414,0.98476 0.12884,1.15955 0.19445,0.38891 0.53177,0.70985 0.64419,1.15956 0.0859,0.34357 -0.16297,0.25511 0.12884,0.64419 0.23539,0.31385 0.23823,-0.0389 0.38652,0.25768 0.15117,0.30233 0.41427,0.85631 0.51536,1.15956 0.10857,0.3257 0.15364,0.86846 0.38652,1.15955 0.0967,0.12092 0.28978,0.13677 0.38652,0.25768 0.20125,0.25158 0.0384,0.42489 0.25767,0.6442 0.0679,0.0679 0.18978,0.0609 0.25768,0.12884 0.157,0.15699 0.22953,0.4872 0.38652,0.64419 0.10949,0.1095 0.27703,0.14819 0.38652,0.25768 0.0679,0.0679 0.052,0.20006 0.12884,0.25768 0.10865,0.0815 0.27787,0.0474 0.38652,0.12884 0.15365,0.11524 0.0859,0.42947 0.25768,0.51536 0.11523,0.0576 0.26152,-0.0313 0.38651,0 0.24295,0.0607 0.41403,0.28787 0.6442,0.38652 0.30594,0.13111 0.61254,0.16123 0.90188,0.25768 0.17285,0.0576 0.22354,0.30503 0.38651,0.38651 0.12884,0.0644 0.25768,-0.0322 0.38652,0 0.3346,0.0837 0.69048,0.20908 1.03072,0.25768 0.49398,0.0706 1.06313,-0.12073 1.54607,0 0.13175,0.0329 0.25207,0.10964 0.38652,0.12884 1.1514,0.16449 2.78043,0 3.99402,0 0.29137,0 0.89196,-0.10703 1.15955,0 0.11279,0.0451 0.14089,0.22431 0.25768,0.25768 0.20647,0.059 0.42947,0 0.6442,0 1.01427,0 2.08403,-0.11201 3.09215,0 0.47675,0.053 0.94919,0.19082 1.41723,0.25768 0.37691,0.0538 0.78175,-0.0472 1.15955,0 0.17571,0.022 0.33966,0.10688 0.51536,0.12884 0.44045,0.055 0.98737,-0.10747 1.41723,0 0.18633,0.0466 0.32903,0.2111 0.51536,0.25768 0.16666,0.0417 0.3453,-0.0243 0.51536,0 0.13444,0.0192 0.25256,0.10651 0.38652,0.12884 0.91999,0.15333 1.91066,-0.13198 2.83446,0 0.64029,0.0915 1.26472,0.21593 1.93259,0.25768 0.34291,0.0214 0.69016,-0.0454 1.03072,0 0.30991,0.0413 0.59236,0.21346 0.90188,0.25767 0.16283,0.0233 1.45557,-0.0199 1.67491,0 0.21808,0.0198 0.42577,0.11324 0.64419,0.12884 1.22969,0.0878 2.50151,0 3.73635,0 0.65404,0 2.62099,0.15 3.22098,0 0.12884,-0.0429 0.25768,-0.0859 0.38652,-0.12884 0.0429,-0.0429 0.0712,-0.10963 0.12884,-0.12883 0.88447,-0.29483 -0.60012,0.49331 0.6442,-0.12884 0.62264,-0.31132 0.90263,-0.42972 1.54607,-0.6442 1.32637,-0.44212 -0.28683,0.13467 1.03071,-0.12884 0.81457,0.80347 0.58457,-0.30719 0.90188,-0.38652 0.50138,-0.12534 1.04998,0.0365 1.54607,-0.12884 0.29775,-0.0992 -0.058,-0.22867 0.25768,-0.38652 0.0903,-0.0452 1.13524,-0.33788 1.15956,-0.38651 0.0384,-0.0768 -0.0272,-0.1762 0,-0.25768 0.0343,-0.10302 0.57947,-0.77244 0.64419,-0.90188 0.0768,-0.15365 -0.0417,-0.3487 0,-0.51536 0.0147,-0.0589 0.10168,-0.0745 0.12884,-0.12884 0.24759,-0.49518 0.50792,-1.1298 0.6442,-1.67491 0.0604,-0.24164 0.055,-1.06677 0.12884,-1.28839 0.049,-0.1469 0.20871,-0.23962 0.25768,-0.38652 0.1598,-0.47942 0,-2.57233 0,-3.22098 0,-0.80022 0.1569,-1.79227 0,-2.57679 -0.0138,-0.0688 -0.11713,-0.85504 -0.12884,-0.90188 -0.0147,-0.0589 -0.10964,-0.0712 -0.12884,-0.12884 -0.10272,-0.30814 0.0352,-0.8314 -0.12884,-1.15955 -0.0543,-0.10865 -0.19518,-0.15352 -0.25768,-0.25768 -0.27809,-0.46349 -0.17406,-1.17318 -0.25768,-1.67491 -0.0158,-0.0947 -0.11305,-0.16296 -0.12884,-0.25768 -0.0547,-0.32796 0.12302,-0.852 0,-1.15956 -0.0713,-0.17832 -0.20491,-0.33068 -0.25768,-0.51535 -0.12326,-0.43141 0.0739,-0.97393 0,-1.41724 -0.0158,-0.0947 -0.10555,-0.16451 -0.12884,-0.25768 -0.0891,-0.3562 0.0517,-0.79794 0,-1.15955 -0.0192,-0.13444 -0.1022,-0.25335 -0.12884,-0.38652 -0.16199,-0.80999 0,-2.1007 0,-2.9633 0,-2.23322 0,-4.46644 0,-6.69965 0,-0.94585 0.1343,-2.02325 0,-2.96331 -0.0795,-0.55677 -0.44501,-0.87819 -0.51535,-1.15955 -0.0893,-0.3572 -0.0235,-0.64048 -0.25768,-1.03072 -0.0625,-0.10416 -0.19518,-0.15352 -0.25768,-0.25768 -0.1651,-0.27517 -0.11068,-0.4603 -0.38652,-0.64419 -0.0799,-0.0533 -0.18977,-0.0609 -0.25768,-0.12884 -0.15205,-0.15206 -0.14945,-0.56518 -0.38652,-0.6442 -0.0815,-0.0272 -0.19694,0.0607 -0.25767,0 -0.0607,-0.0607 0.0272,-0.17619 0,-0.25768 -0.10458,-0.31374 -0.4285,-0.20375 -0.6442,-0.25768 -0.14829,-0.0371 -0.1783,-0.32698 -0.25768,-0.38652 -0.10865,-0.0815 -0.26505,-0.0681 -0.38652,-0.12884 -0.0543,-0.0272 -0.0712,-0.10963 -0.12884,-0.12883 -0.1356,-0.0452 -0.8278,-0.0795 -0.90187,-0.12884 -0.10107,-0.0674 -0.14904,-0.20336 -0.25768,-0.25768 -0.0768,-0.0384 -0.17346,0.0168 -0.25768,0 -0.48025,-0.096 -0.95836,-0.2718 -1.41723,-0.38652 -0.125,-0.0313 -0.29542,0.0911 -0.38652,0 -0.0679,-0.0679 -0.0429,-0.21473 -0.12884,-0.25768 -0.17799,-0.089 -1.39829,-0.0735 -1.67491,-0.12884 -0.33947,-0.0679 -0.6915,-0.18984 -1.03072,-0.25768 -0.3855,-0.0771 -0.8998,0 -1.28839,0 -0.98777,0 -1.97554,0 -2.96331,0 -1.26104,0 -2.48407,0.004 -3.73634,0.12884 -0.1282,0.0128 -0.26264,-0.0354 -0.38652,0 -0.18467,0.0528 -0.32787,0.21602 -0.51536,0.25768 -0.12424,0.0276 -0.98286,-0.0221 -1.15955,0 -0.17571,0.022 -0.34007,0.1038 -0.51536,0.12884 -0.67339,0.0962 -1.38635,-0.0844 -2.06143,0 -0.17571,0.022 -0.34006,0.1038 -0.51536,0.12884 -0.65717,0.0939 -1.3956,0 -2.06143,0 -1.28839,0 -2.57679,0 -3.86518,0 -1.37429,0 -2.74857,0 -4.12286,0 -0.50767,0 -1.18482,0.12252 -1.67491,0 -0.18633,-0.0466 -0.33069,-0.20492 -0.51536,-0.25768 -0.56475,-0.16136 -1.46731,0 -2.06143,0 -0.82096,0 -1.65376,-0.0988 -2.44795,-0.25768 -0.29479,-0.059 -0.60309,0.0332 -0.90187,0 -0.17179,-0.0429 -0.34358,-0.0859 -0.51536,-0.12884 -0.0429,-0.0859 -0.0397,-0.22201 -0.12884,-0.25768 -0.19937,-0.0797 -0.49236,0.15184 -0.6442,0 -0.0304,-0.0304 0,-0.0859 0,-0.12884 -0.0429,-0.0429 -0.0783,-0.0951 -0.12884,-0.12884 -0.11297,-0.0753 -0.44561,-0.0823 -0.51535,-0.12884 -0.36278,-0.008 -0.0328,-0.29048 -0.12884,-0.38651 -0.0679,-0.0679 -0.17179,-0.0859 -0.25768,-0.12884 -0.0429,-0.12884 -0.0474,-0.27787 -0.12884,-0.38652 -0.0576,-0.0768 -0.18086,-0.0712 -0.25768,-0.12884 -0.0228,-0.0171 -0.63196,-0.72409 -0.6442,-0.77304 -0.0313,-0.12499 0.0479,-0.26689 0,-0.38651 -0.0451,-0.11279 -0.19518,-0.15352 -0.25768,-0.25768 -0.069,-0.11495 -0.16368,-0.67905 -0.25768,-0.77304 -0.0304,-0.0304 -0.11525,0.0407 -0.12883,0 -0.0408,-0.12223 0.0478,-0.26689 0,-0.38652 -0.0451,-0.11278 -0.19519,-0.15352 -0.25768,-0.25768 -0.39094,-0.65156 0.21666,-0.14789 -0.38652,-0.90187 -0.06,-0.075 -0.18978,-0.0609 -0.25768,-0.12884 -0.0679,-0.0679 -0.0609,-0.18978 -0.12884,-0.25768 -0.15184,-0.15184 -0.36352,-0.23468 -0.51536,-0.38652 -0.22015,-0.22016 -0.44905,-0.64169 -0.64419,-0.90187 -0.0815,-0.10865 -0.0328,-0.29049 -0.12884,-0.38652 -0.0679,-0.0679 -0.21474,-0.0429 -0.25768,-0.12884 -0.0576,-0.11524 0.0773,-0.28345 0,-0.38652 -0.35611,-0.4748 -0.32986,0.11332 -0.51536,-0.25768 -0.23448,-0.46897 -0.58809,-1.08526 -1.03072,-1.41723 -0.0344,-0.0258 -0.0985,0.0304 -0.12883,0 -0.0679,-0.0679 -0.0609,-0.18978 -0.12884,-0.25768 -0.0304,-0.0304 -0.0881,0.0136 -0.12884,0 -0.43754,-0.14585 -0.87351,-0.47824 -1.2884,-0.6442 -0.32578,-0.0814 -0.59382,-0.13445 -0.90187,-0.25768 -0.56076,-0.2243 -0.0553,0.0182 -0.25768,-0.38652 -0.035,-0.07 -0.42679,0.0443 -0.51536,0 -0.25532,-0.12766 -0.22265,-0.0313 -0.51536,-0.12883 -0.18365,-0.0612 -0.18552,-0.18553 -0.25768,-0.25768 -0.1399,-0.13991 -1.28448,0.12805 -1.28839,0.12884 z"
       id="path1113" />
    <path
       style="display:inline;fill:#000000;stroke-width:0.32"
       d="m 169.28001,226.0124 c -5.28193,-0.92729 -9.10927,-4.9065 -10.03455,-10.43275 l -0.37735,-2.25377 -29.62487,-0.0229 c -20.11728,-0.0156 -29.769035,-0.13054 -30.074056,-0.35823 -0.24705,-0.18442 -1.457181,-1.13373 -2.689181,-2.1096 -6.97248,-5.52286 -20.362196,-15.9551 -20.478279,-15.9551 -0.07471,0 -0.177661,1.188 -0.228781,2.64 l -0.09294,2.64 -15.44,0.0831 -15.440001,0.0831 v 6.39693 6.39693 l -0.88,0.0448 c -3.980297,0.20253 -16.996957,0.12684 -17.442202,-0.10142 -0.529238,-0.27133 -0.557382,-1.57744 -0.48,-22.27579 l 0.0822,-21.98756 42.560001,-0.0926 c 23.408001,-0.051 43.154859,-0.009 43.881899,0.0939 0.72704,0.10259 2.16704,0.69612 3.2,1.31897 1.44338,0.87033 1.98921,1.05295 2.3581,0.78897 0.264,-0.18893 1.2,-0.74078 2.08,-1.22635 l 1.6,-0.88285 h 19.04 19.04001 l 2.00066,1.08494 c 3.72061,2.01764 6.01472,5.42967 6.42998,9.56332 0.19153,1.90649 0.28872,2.14135 0.85276,2.06064 0.35013,-0.0501 4.5966,-0.0809 9.4366,-0.0685 l 8.8,0.0226 1.66195,-1.88958 1.66195,-1.88958 -1.82195,-0.21272 c -8.09577,-0.94519 -12.85482,-3.97891 -12.84966,-8.19116 9.6e-4,-0.792 0.26378,-2.016 0.58403,-2.72 1.47756,-3.24812 6.69709,-7.3911 12.52368,-9.94059 4.21576,-1.84466 11.12873,-4.04537 14.61402,-4.6523 1.11428,-0.19405 2.02598,-0.40963 2.02598,-0.47907 0,-0.0694 -0.66376,-1.02665 -1.47501,-2.12715 -3.02114,-4.09828 -5.08217,-9.15238 -5.53268,-13.56731 -0.26074,-2.55524 0.0401,-5.97761 0.58534,-6.65839 0.14764,-0.18436 0.36392,-0.78227 0.48061,-1.32869 0.24936,-1.16768 0.83241,-0.60661 -8.22617,-7.91599 -5.96474,-4.81295 -7.28889,-5.97052 -6.82971,-5.97052 0.34664,0 3.02878,1.37427 9.47762,4.8561 3.432,1.853 6.68989,3.60075 7.23975,3.8839 0.99454,0.51213 1.00707,0.50822 2.4,-0.74875 1.89037,-1.70584 5.05437,-3.33032 8.13467,-4.17655 2.72632,-0.74898 8.65871,-0.99768 11.78784,-0.49418 1.52259,0.24499 1.55799,0.23243 1.39387,-0.49457 -2.07349,-9.18514 -2.64431,-13.89991 -2.35672,-19.465947 0.29729,-5.753734 1.46206,-9.369072 3.78207,-11.739159 2.42597,-2.478342 5.23626,-2.51046 8.7399,-0.09989 1.57516,1.083741 4.50666,4.431188 5.81408,6.63905 0.44294,0.748 0.89967,1.356352 1.01494,1.351898 0.11528,-0.0044 0.69068,-1.264458 1.27866,-2.8 1.79789,-4.69522 4.11818,-8.60771 6.61094,-11.14739 2.80108,-2.853811 4.64111,-3.767645 7.21184,-3.581693 3.57589,0.258656 6.24226,3.104109 7.93784,8.470938 1.57533,4.986273 1.81146,6.932932 1.79843,14.826247 -0.01,5.963096 -0.13487,7.914656 -0.72779,11.359996 -1.28747,7.48115 -3.58748,14.8099 -6.07584,19.36 -1.05574,1.93048 -3.298,5.25393 -3.63426,5.38667 -0.53386,0.21074 -0.2537,1.21731 0.63517,2.28202 l 0.90539,1.08451 1.25461,-0.49826 c 6.51604,-2.58782 14.47425,0.27999 18.17753,6.55042 0.59942,1.01496 1.41245,3.03096 1.80672,4.48 0.65325,2.40088 0.68333,2.84759 0.33895,5.03465 -0.88134,5.59717 -4.68388,10.42018 -9.70859,12.31404 -0.836,0.3151 -1.51602,0.66134 -1.51116,0.76943 0.008,0.18776 4.45102,3.65315 6.40547,4.99653 0.51212,0.352 1.00143,0.8188 1.08735,1.03734 0.16614,0.4226 -10.83563,7.92054 -11.62383,7.9219 -0.28978,6.4e-4 -0.86821,-1.42327 -1.67823,-4.13081 -0.67983,-2.27235 -1.2958,-4.1913 -1.36882,-4.26432 -0.073,-0.073 -0.74165,0.52781 -1.48585,1.33517 -6.11351,6.63238 -17.56166,6.0704 -22.85639,-1.12199 -0.7967,-1.08224 -1.44854,-2.09586 -1.44854,-2.2525 0,-0.79065 -0.65294,-0.11231 -1.15349,1.19835 -1.8706,4.89811 -9.12239,12.98563 -16.8109,18.74829 l -3.4044,2.55164 -0.14326,5.48847 c -0.0982,3.76022 -0.29432,5.90281 -0.62298,6.80435 -0.44653,1.22485 -0.43909,1.34127 0.10765,1.68271 0.54632,0.34118 0.58738,0.97196 0.58738,9.02515 0,5.35645 -0.12633,8.89437 -0.33126,9.27728 -0.32286,0.60327 -0.88087,0.61786 -22,0.57539 -11.91781,-0.024 -22.02874,-0.10678 -22.46874,-0.18403 z m 39.6108,-9.00659 c 0.0539,-2.15844 -0.0428,-3.79518 -0.2382,-4.03062 -0.30293,-0.365 -8.86531,-0.49387 -32.8926,-0.49504 l -2.96,-1.4e-4 v -2.24 -2.24 l 2.32,-0.003 c 10.39399,-0.0147 28.93823,-0.41553 29.52372,-0.63813 1.224,-0.46537 3.10589,-2.32517 3.71948,-3.67584 0.41619,-0.91612 0.58475,-2.06779 0.58977,-4.02941 0.004,-1.51067 -0.0728,-2.82647 -0.17032,-2.92401 -0.0975,-0.0975 -1.64429,0.54509 -3.43725,1.42807 -1.79294,0.88298 -4.98914,2.1838 -7.10265,2.89073 -3.34572,1.11906 -4.31468,1.30463 -7.49139,1.43467 -4.15878,0.17025 -5.19286,-0.0545 -7.70057,-1.67349 l -1.74921,-1.12929 h -4.21079 -4.21079 l -0.16395,-0.88 c -0.0902,-0.484 -0.0718,-1.528 0.0409,-2.32 l 0.20482,-1.44 3.51912,-0.0488 c 1.93551,-0.0268 3.67031,-0.0628 3.85509,-0.08 0.18479,-0.0172 0.51112,-0.8592 0.72518,-1.8712 0.21406,-1.012 0.81565,-2.704 1.33686,-3.76 0.5212,-1.056 0.95087,-2.1 0.95481,-2.32 0.01,-0.53605 -12.32305,-0.56644 -14.09769,-0.0348 -1.60824,0.48184 -3.36258,1.96042 -4.14442,3.49295 -0.52842,1.0358 -0.63071,1.88751 -0.63071,5.25163 v 4.01532 l -18.64001,-0.0826 -18.64,-0.0826 v -2.24 -2.24 l 15.68,-0.16 c 17.40117,-0.17757 16.64076,-0.0808 18.65505,-2.37491 1.39476,-1.58854 1.66139,-2.90213 1.66139,-8.18509 0,-5.38291 -0.22714,-6.44663 -1.75855,-8.23575 -2.05646,-2.40251 -1.62512,-2.35656 -21.16666,-2.25464 l -17.32877,0.0904 -1.3894,1.00666 c -0.76418,0.55367 -1.71017,1.63367 -2.10222,2.4 -0.69924,1.3668 -0.71298,1.62261 -0.72182,13.43426 -0.01,13.26132 0.002,13.35366 1.96597,15.20068 2.09476,1.97004 0.89745,1.86459 23.14501,2.0384 l 20.48001,0.16 0.16,4.21369 c 0.15361,4.04567 0.19827,4.26798 1.12,5.57543 0.528,0.74896 1.5967,1.69789 2.3749,2.10873 l 1.41491,0.74699 19.70509,-0.0824 19.7051,-0.0824 z m -81.7855,-32.60239 0.0947,-2.16341 h 13.76 13.76001 v 2.08 2.08 l -13.8547,0.0834 -13.8547,0.0834 z m -87.498544,17.11659 0.08676,-6.32 h 15.129236 c 11.340515,0 15.225398,-0.0962 15.513235,-0.384 0.41744,-0.41744 0.505088,-3.52158 0.176647,-6.256 l -0.201792,-1.68 H 54.988568 39.66628 l -0.328013,-0.72 c -0.316323,-0.69435 -0.455738,-0.71617 -3.913139,-0.6123 -1.971818,0.0592 -3.657127,0.17904 -3.745127,0.26625 -0.088,0.0872 -0.20305,5.11909 -0.255666,11.18198 l -0.09567,11.02342 4.095664,-0.0897 4.095667,-0.0897 z m 75.903344,6.08 c -0.005,-0.22 -0.68407,-0.904 -1.50806,-1.52 -0.824,-0.616 -4.23954,-3.28 -7.59011,-5.92 l -6.09194,-4.8 5.6,-0.16522 c 6.19978,-0.18291 7.34702,-0.50607 9.07123,-2.55517 1.3415,-1.59429 1.54576,-2.87511 1.43279,-8.98437 -0.0996,-5.38621 -0.13794,-5.67481 -0.90402,-6.80519 -0.44,-0.64924 -1.36365,-1.5741 -2.05256,-2.05525 l -1.25256,-0.8748 -40.427441,-0.0848 -40.427438,-0.0848 v 5.29486 c 0,4.41953 0.07963,5.32542 0.481676,5.4797 0.264922,0.10166 2.100923,0.0611 4.080001,-0.09 l 3.598323,-0.27488 0.100275,-1.04 0.100276,-1.04 h 34.233745 34.233743 l -0.094,2.32 -0.094,2.32 -16.399997,0.0829 c -9.02,0.0456 -16.400001,0.19494 -16.400001,0.33186 0,0.25259 11.491706,9.47396 22.400001,17.9746 l 3.679997,2.86775 7.12,0.0115 c 5.49389,0.009 7.11774,-0.0799 7.11011,-0.38856 z m 78.34339,-6.81716 c 1.35658,-0.27344 3.24648,-0.88512 4.19979,-1.35929 0.9533,-0.47416 1.97825,-0.82062 2.27766,-0.76989 1.086,0.18398 8.42565,-3.43567 8.94883,-4.41323 0.18851,-0.35224 0.49173,-0.64043 0.67383,-0.64043 0.1821,0 0.93303,-0.39997 1.66874,-0.88883 0.73571,-0.48886 1.84166,-1.11967 2.45766,-1.40182 3.45893,-1.58428 12.52321,-10.08571 15.70221,-14.72718 1.84652,-2.69599 3.81702,-6.41723 3.81753,-7.20932 1.4e-4,-0.21292 -0.91048,-0.66844 -2.0236,-1.01225 -1.11313,-0.3438 -2.53727,-0.83962 -3.16476,-1.1018 -1.26922,-0.53031 -0.94208,-0.65991 -4.48681,1.77755 -3.64332,2.50525 -10.94251,5.42727 -16.88457,6.75925 -2.92604,0.65591 -7.9866,1.39575 -11.25685,1.64573 l -2.77685,0.21226 -1.70315,1.83642 c -0.93674,1.01002 -2.3498,2.76196 -3.14014,3.8932 -0.79035,1.13123 -1.82839,2.43299 -2.30676,2.89281 -1.03092,0.99091 -2.95057,4.70053 -3.50486,6.77296 -0.30525,1.14129 -0.30797,1.6562 -0.0122,2.30532 0.20945,0.4597 0.38082,1.16743 0.38082,1.57274 0,0.40531 0.42914,1.32935 0.95365,2.05341 1.59517,2.20206 5.10973,2.82434 10.17984,1.80239 z m 0.90165,-26.57083 c 6.32614,-5.28164 15.23826,-10.80481 20.25827,-12.5548 0.54263,-0.18916 0.98659,-0.46957 0.98659,-0.62315 0,-0.15357 -0.96166,-1.04984 -2.13702,-1.99172 -1.17535,-0.94187 -3.18455,-2.70756 -4.46489,-3.92375 l -2.32788,-2.21125 -1.69511,0.34799 c -0.9323,0.19139 -2.8471,0.57031 -4.2551,0.84203 -5.72925,1.10567 -14.39009,4.62169 -18.04637,7.32624 -2.05313,1.51871 -4.32774,3.93922 -5.12305,5.45166 -2.25113,4.281 1.43529,7.79026 9.40692,8.95486 4.77,0.69686 4.57335,0.73987 7.39764,-1.61811 z m 5.17595,1.62574 c 9.24972,-1.22203 17.40542,-3.94857 23.34891,-7.80582 1.1,-0.71389 2,-1.49965 2,-1.74613 0,-0.24649 -0.468,-0.6414 -1.04,-0.87757 -0.572,-0.23618 -2.16841,-1.06804 -3.54758,-1.84857 l -2.50758,-1.41916 -1.81242,0.57058 c -2.70036,0.85011 -9.54396,4.34273 -12.92097,6.5942 -4.00136,2.66773 -8.25145,6.06018 -8.25145,6.58637 0,0.53558 0.29464,0.53222 4.73109,-0.0539 z m 54.05314,-1.11909 c 3.33633,-1.53057 6.10749,-4.93393 6.65752,-8.17634 0.4046,-2.38512 0.16285,-2.24154 3.75733,-2.2315 2.901,0.008 3.4928,-0.0901 5.1107,-0.84844 2.58216,-1.21026 4.86204,-3.45659 6.06373,-5.97451 0.85483,-1.79114 0.99889,-2.4571 1.00987,-4.66852 0.0269,-5.41459 -2.28568,-9.34962 -6.82338,-11.61056 -1.58249,-0.78848 -2.09889,-0.87693 -5.12,-0.87693 -3.05436,0 -3.53281,0.0842 -5.25977,0.92558 -3.42394,1.66817 -6.44762,5.66852 -6.82671,9.03179 -0.0871,0.773 -0.25506,1.46519 -0.37319,1.5382 -0.11813,0.073 -0.84674,-0.009 -1.61912,-0.18279 -0.92881,-0.20869 -2.10418,-0.20657 -3.47117,0.006 -9.72539,1.51411 -13.8019,13.38286 -7.01017,20.41009 1.57295,1.62749 4.54607,3.26387 6.58003,3.62161 2.34775,0.41293 5.11769,0.0484 7.32433,-0.96392 z m -5.24307,-1.58057 c -2.47642,-1.12433 -3.81725,-4.24346 -2.83487,-6.59465 1.73858,-4.16101 6.32549,-5.25012 9.19335,-2.18286 2.13706,2.28565 2.07822,5.4176 -0.14508,7.72255 -1.64297,1.70331 -3.93005,2.09163 -6.2134,1.05496 z m 16.37884,-11.67165 c -2.09173,-0.93366 -3.36,-3.00455 -3.36,-5.48636 0,-1.18423 0.19403,-1.63301 1.17595,-2.71988 1.55431,-1.72044 2.6019,-2.22021 4.65388,-2.22021 4.64749,0 6.93472,5.33094 3.85669,8.98897 -1.50028,1.78299 -4.18555,2.39312 -6.32652,1.43748 z m -32.31798,1.09566 c -1.02422,-1.06905 -1.90706,-1.23962 -2.21828,-0.42859 -0.25387,0.66158 0.1823,1.12009 1.51036,1.58771 1.4841,0.52257 1.80916,-0.01 0.70792,-1.15912 z m 1.583,-2.43481 c 0.37551,-2.00163 1.82702,-4.62703 3.64203,-6.58745 2.76064,-2.98183 5.50386,-4.32332 9.5907,-4.69006 l 2.33775,-0.20979 0.76369,-1.88221 c 0.42002,-1.03522 1.42003,-2.72741 2.22224,-3.76043 0.80221,-1.03302 1.45378,-2.05802 1.44792,-2.27778 -0.0225,-0.84418 -1.25231,-1.91847 -1.99065,-1.7389 -0.39529,0.0961 -1.2947,0.32512 -1.9987,0.50884 -0.98342,0.25664 -1.66549,0.22375 -2.94371,-0.14194 -0.91505,-0.26179 -1.75155,-0.61809 -1.85889,-0.79178 -0.3647,-0.5901 -0.95574,-0.31462 -1.55817,0.72623 -0.33042,0.57089 -0.84866,1.46997 -1.15165,1.99797 -0.30298,0.528 -2.7795,4.56 -5.50336,8.96 -2.72386,4.40001 -5.15761,8.33174 -5.40835,8.73719 -0.42641,0.68953 -0.38382,0.79636 0.65883,1.65272 0.61308,0.50354 1.20875,0.8574 1.32372,0.78635 0.11496,-0.071 0.30693,-0.65108 0.4266,-1.28896 z m -15.00344,-3.88729 c 0.18455,-0.308 0.66248,-1.09928 1.06208,-1.75838 l 0.72653,-1.19838 -0.7451,-0.27763 c -0.4098,-0.1527 -2.08425,-0.35176 -3.72099,-0.44235 -2.34043,-0.12955 -2.95543,-0.0759 -2.88,0.25101 0.11081,0.4804 4.41573,3.98127 4.89892,3.98394 0.17767,9.6e-4 0.47402,-0.25021 0.65856,-0.55821 z m 2.7654,-4.80001 c 0.41646,-0.47969 4.73951,-7.48909 6.75959,-10.96 0.35852,-0.616 1.4892,-2.40529 2.51264,-3.9762 1.02343,-1.57091 1.86079,-2.99466 1.86079,-3.16389 0,-0.16923 -0.62711,-1.25994 -1.39358,-2.4238 -0.76646,-1.16386 -2.07194,-3.53943 -2.90105,-5.27905 -1.68728,-3.54019 -1.58177,-3.52363 -3.36197,-0.52746 -3.75016,6.3117 -9.33848,15.53277 -11.83935,19.53566 -1.59261,2.54911 -2.89754,4.88343 -2.89985,5.18737 -0.008,1.03232 1.27157,1.44802 4.6358,1.50627 1.76,0.0305 3.776,0.17512 4.48,0.32145 0.704,0.14633 1.36568,0.28261 1.4704,0.30285 0.10472,0.0202 0.40918,-0.2152 0.67658,-0.5232 z m 29.43784,-13.77681 c 0.26973,-0.26973 -0.0394,-0.79421 -1.20981,-2.05274 -1.76473,-1.89757 -2.28368,-2.16155 -2.5833,-1.3141 -0.1135,0.32101 -0.55304,1.0525 -0.97676,1.62554 -0.82478,1.11543 -0.75197,1.55036 0.33779,2.01768 0.89252,0.38273 3.96453,0.19116 4.43208,-0.27638 z m -46.0045,-2.06603 c 0.63371,-1.09844 2.0321,-3.36516 3.10752,-5.03716 2.84723,-4.42668 5.40955,-8.66824 5.48582,-9.08098 0.0948,-0.51295 -1.19564,-0.26725 -3.55403,0.6767 -2.60985,1.04459 -5.18918,3.38809 -6.36548,5.78346 -0.81433,1.65827 -0.89415,2.13507 -0.89415,5.34082 0,3.5385 0.22278,4.83674 0.77179,4.49744 0.16297,-0.10073 0.81481,-1.08185 1.44853,-2.18028 z m 50.70645,-2.11521 c 6.06857,-7.66218 10.23242,-24.9203 9.31348,-38.601947 -0.63177,-9.406016 -3.03683,-15.418816 -6.86239,-17.156439 -1.69792,-0.771219 -2.25248,-0.748809 -4.22762,0.170832 -3.3732,1.570589 -6.62423,5.941274 -9.30309,12.507053 -2.11261,5.177937 -2.11812,5.224913 -0.9096,7.747674 3.61216,7.540247 6.21726,21.427957 5.35943,28.570877 l -0.28823,2.4 2.75562,2.7978 c 1.5156,1.53879 2.85153,2.79879 2.96874,2.8 0.11721,10e-4 0.65436,-0.55492 1.19366,-1.23585 z m -20.27958,-4.35902 c 0.96404,-1.49439 1.75281,-2.83969 1.75281,-2.98954 0,-0.2872 -3.92779,-2.17086 -6.44517,-3.09092 -2.55663,-0.93441 -2.67469,-0.68554 -1.13732,2.39753 1.38234,2.77219 3.59627,6.4 3.9057,6.4 0.0941,0 0.95993,-1.22268 1.92398,-2.71707 z M 248.43832,127.28 c 0.30952,-1.15499 0.23091,-6.90126 -0.13474,-9.84839 -0.89762,-7.23482 -4.35197,-19.005674 -5.58357,-19.02626 -0.51732,-0.0086 -1.98752,8.19168 -2.41142,13.45012 -0.41586,5.15871 -0.19531,10.82724 0.44251,11.37314 0.95323,0.81585 6.81086,4.70671 7.13159,4.73706 0.19947,0.0189 0.4495,-0.28967 0.55563,-0.68567 z m -9.56738,-11.16827 c 0.11344,-6.18341 0.82176,-11.92296 2.12946,-17.255157 0.68422,-2.789898 0.68873,-2.918247 0.14296,-4.062749 -1.71642,-3.59937 -6.08832,-8.496461 -8.35443,-9.358032 -3.33572,-1.268237 -5.95306,0.442032 -7.48335,4.889891 -1.80125,5.235418 -1.64441,13.250087 0.43828,22.397097 1.18735,5.21478 0.99439,4.98575 5.46033,6.48065 2.1097,0.70619 4.62782,1.65728 5.59582,2.11354 0.968,0.45626 1.80572,0.79287 1.8616,0.74803 0.0559,-0.0448 0.15008,-2.72382 0.20933,-5.95327 z M 35.940702,224.64883 c -1.537443,-0.13113 -2.180371,-0.35355 -2.88,-0.99631 -0.495386,-0.45511 -2.086928,-1.73174 -3.53676,-2.83693 -1.449832,-1.1052 -2.551394,-2.14644 -2.447915,-2.31387 0.105968,-0.17146 2.02604,-0.28458 4.396059,-0.25899 5.284402,0.0571 5.086453,0.0732 4.92851,-0.40272 -0.09571,-0.28844 -1.553488,-0.44463 -5.226665,-0.56 l -5.09393,-0.16 v -1.12 -1.12 l 5.832809,-0.0872 c 5.490663,-0.0821 5.870772,-0.0492 6.480001,0.56 0.504006,0.504 0.64719,1.06683 0.64719,2.54396 0,1.68117 -0.09855,1.9743 -0.866985,2.57875 -0.567088,0.44607 -1.2253,0.6511 -1.902839,0.59273 -1.639328,-0.14124 -1.567283,0.22072 0.321683,1.61618 2.746628,2.02906 2.674048,2.24802 -0.651158,1.96439 z m 19.415402,0.0445 c -0.189856,-0.0641 -0.316102,-2.07697 -0.316102,-5.04 V 214.72 h 5.688797 c 7.485357,0 7.111203,-0.25932 7.111203,4.92855 0,3.33868 -0.08453,4.00873 -0.56,4.43885 -0.454899,0.41152 -1.596723,0.52593 -6.083898,0.6096 -3.038141,0.0566 -5.666141,0.055 -5.84,-0.004 z m 9.923898,-5.02349 v -2.41015 l -3.76,0.0901 -3.76,0.0902 -0.09402,2.32 -0.09402,2.32 h 3.85402 3.854019 z m 4.72,5.06866 c -0.502966,-0.13062 -0.56,-0.65016 -0.56,-5.10128 v -4.95586 l 1.2,0.0993 1.2,0.0993 0.08834,4.88 c 0.05268,2.91031 -0.03363,4.88 -0.21383,4.88 -0.166189,0 -0.493939,0.0549 -0.728333,0.12196 -0.234397,0.0671 -0.678173,0.0565 -0.986173,-0.0234 z m 26.080001,-0.006 c -0.700499,-0.13361 -0.72,-0.24463 -0.72,-4.09878 v -3.96146 l 1.070205,-0.81629 c 0.588614,-0.44895 1.164614,-0.81628 1.28,-0.81628 0.115389,0 0.209795,2.16 0.209795,4.8 0,2.64 -0.06022,4.8 -0.133827,4.8 -0.07361,0 -0.325606,0.0518 -0.56,0.11507 -0.234397,0.0633 -0.750173,0.0533 -1.146173,-0.0223 z m 49.439997,0.007 c -0.49776,-0.13006 -0.56,-0.61713 -0.56,-4.38252 0,-5.88285 -0.2868,-5.63687 6.57247,-5.63687 6.87186,0 6.54754,-0.27623 6.54754,5.57653 0,4.64833 -0.0315,4.72404 -1.82985,4.40046 -0.67639,-0.1217 -0.71411,-0.29578 -0.8,-3.69236 l -0.0902,-3.56463 -1.2,-0.0993 -1.20001,-0.0993 v 3.71772 3.71772 l -1.36,-0.0984 -1.36,-0.0984 -0.0905,-3.6 -0.0905,-3.6 h -1.10952 c -0.65873,0 -1.12136,0.16251 -1.13867,0.4 -0.016,0.22 -0.005,1.79296 0.0248,3.49547 0.0489,2.80421 -0.007,3.12788 -0.58981,3.44 -0.66873,0.35789 -0.79572,0.36701 -1.72584,0.12394 z M 41.142478,224.02483 c -0.738509,-0.81605 -1.003337,-2.97565 -0.510739,-4.1649 0.53496,-1.2915 1.627949,-1.57444 6.235107,-1.61406 2.104765,-0.0181 3.883184,-0.0892 3.952042,-0.1581 0.06886,-0.0689 0.03027,-0.27878 -0.08573,-0.46649 -0.134685,-0.21791 -2.000592,-0.34127 -5.162087,-0.34127 -5.362313,0 -5.545577,-0.063 -5.119484,-1.76072 l 0.200604,-0.79928 h 5.682705 c 7.478365,0 7.105104,-0.25892 7.105104,4.92855 0,5.25527 0.341209,4.99145 -6.4556,4.99145 -4.807681,0 -5.335508,-0.0556 -5.841924,-0.61516 z m 9.737524,-2.42482 c 0,-0.4 -0.64,-0.48 -3.84,-0.48 -3.200001,0 -3.840001,0.08 -3.840001,0.48 0,0.4 0.64,0.48 3.840001,0.48 3.2,0 3.84,-0.08 3.84,-0.48 z m 23.169597,2.36591 c -0.524931,-0.58046 -0.609597,-1.18441 -0.609597,-4.34841 0,-5.02186 -0.167475,-4.8975 6.59545,-4.8975 6.591085,0 6.364551,-0.18048 6.364551,5.0704 0,5.09131 0.321757,4.8496 -6.4556,4.8496 -4.968033,0 -5.321793,-0.0405 -5.894804,-0.67409 z m 9.724423,-4.20591 -0.09402,-2.32 -3.76,-0.0902 -3.760001,-0.0901 v 2.41015 2.41016 h 3.85402 3.854019 z m 16.564128,4.16879 c -0.378908,-0.54096 -0.498147,-1.56946 -0.498147,-4.29677 0,-3.49241 0.02192,-3.6028 0.843157,-4.2488 0.7693,-0.60513 1.27072,-0.66322 5.72455,-0.66322 6.25405,0 6.28069,0.0162 6.48625,3.93252 0.0794,1.51242 0.049,3.2577 -0.0674,3.87838 -0.38344,2.04396 -0.58702,2.1091 -6.59128,2.1091 -5.21641,0 -5.41584,-0.0241 -5.89714,-0.71121 z m 9.67587,-4.16879 -0.094,-2.32 h -3.68 -3.68 l -0.0973,1.88417 c -0.0535,1.03629 -0.022,2.08029 0.0699,2.32 0.1278,0.33304 1.04084,0.43583 3.87131,0.43583 h 3.70406 z M 115.2,224.394 c 0,-0.1353 1.44,-1.6806 3.2,-3.43399 1.76,-1.7534 3.2,-3.29383 3.2,-3.42317 0,-0.12935 -1.548,-0.27605 -3.44,-0.32601 l -3.44,-0.0908 v -1.12 -1.12 l 6.66886,-0.0866 c 4.13029,-0.0536 6.62743,0.0296 6.56,0.21853 -0.0599,0.16782 -2.17068,2.40278 -4.69068,4.96658 l -4.58182,4.66147 h -1.73818 c -0.956,0 -1.73818,-0.1107 -1.73818,-0.24601 z m 15.43157,-4.61518 0.0884,-4.89881 h 6.4 6.4 v 1.12 1.12 l -5.12,0.16 c -6.38744,0.1996 -6.83484,0.73648 -0.8,0.96 l 4.32,0.16 v 1.28 1.28 l -4.32,0.16 -4.32,0.16 v 1.6 1.6 l -1.36843,0.0988 -1.36844,0.0988 z"
       id="path295" />
    <path
       id="path934"
       style="fill:#000000;stroke-width:0.32"
       d="m 311.98242,101.99023 c 8.6e-4,0.003 7.7e-4,0.005 0.002,0.008 0.0184,0.0638 0.0392,0.14426 0.0664,0.21679 -0.0125,-0.073 -0.026,-0.14801 -0.0391,-0.2207 -0.0102,-0.001 -0.0173,-0.003 -0.0293,-0.004 z m -141.74804,79.56446 c 0.57469,1.66208 0.93993,3.37327 1.21874,5.10351 l 14.36915,-0.0742 c 19.54142,-0.10192 19.10955,-0.14856 21.16601,2.25391 1.53141,1.78912 1.75977,2.85346 1.75977,8.23633 0,5.28294 -0.26739,6.59701 -1.66211,8.18555 -0.53879,0.61363 -0.89712,1.04856 -1.43946,1.37109 0.29233,-7e-4 0.58471,-0.003 0.87696,-0.004 1.28027,-0.003 2.45968,0.0956 3.55859,0.26367 0.0472,-1.8682 0.16746,-2.90995 0.58008,-3.71874 0.63811,-1.2508 1.92439,-2.43346 3.25,-3.09961 10e-4,-0.7376 0.002,-1.47515 0.006,-2.21289 0.006,-1.05111 0.0155,-2.10354 0.0449,-3.1543 0.014,-0.43322 0.0344,-0.86589 0.0547,-1.29883 -0.0649,-0.31489 -0.1304,-0.55709 -0.19531,-1.20313 -0.41526,-4.13363 -2.71104,-7.54685 -6.43165,-9.56445 l -2,-1.08398 h -19.03906 z m -4.67774,4.29687 c -0.0558,-0.0725 -0.10529,0.14892 -0.15039,0.22852 -0.0253,0.0446 -0.0421,0.0936 -0.0664,0.13867 0.0297,-0.0353 0.0625,-0.0679 0.0918,-0.10352 0.0618,-0.0751 0.1843,-0.18657 0.125,-0.26367 z m 69.56445,3.03125 c 0.0115,0.0288 0.0237,0.0572 0.0352,0.0859 -0.001,-0.0272 0.003,-0.0526 -0.004,-0.082 -0.009,-0.001 -0.0225,-0.003 -0.0313,-0.004 z m -56.8457,6.11133 c 0.6608,1.04585 1.15982,2.19752 1.54492,3.54688 0.0718,0.25148 0.12387,0.49387 0.16602,0.73437 l 6.42969,-0.0371 13.85546,-0.084 v -2.08008 -2.08008 h -13.75976 z m -75.2793,36.86328 c 0.0292,0.12821 0.0369,0.25903 0.0703,0.38672 0.0598,0.0973 0.0969,0.0707 0.15625,0.11133 l 0.006,-0.13672 c -0.051,-0.10437 -0.0229,-0.14951 -0.23243,-0.36133 z m 39.28711,0.89844 c -0.002,0.10348 5e-4,0.27156 0.002,0.46289 0.0146,-0.12408 0.0458,-0.2471 0.0625,-0.37109 -0.024,-0.0311 -0.039,-0.0607 -0.0645,-0.0918 z m -58.677731,4.29883 c 0.0023,0.011 0.0035,0.0222 0.0059,0.0332 0.02673,0.12595 0.04288,0.2569 0.0918,0.375 0.0018,-2.8e-4 0.004,-0.002 0.0059,-0.002 0.01107,-0.0162 -0.02981,-0.18359 -0.04492,-0.27539 -0.01551,-0.0471 -0.04207,-0.0846 -0.05859,-0.13086 z" />
  </g>
</svg>
