<?xml version="1.0" encoding="UTF-8" standalone="no"?>
<!-- Created with Inkscape (http://www.inkscape.org/) -->

<svg
   version="1.1"
   id="svg2"
   width="375"
   height="375"
   viewBox="0 0 375 375"
   sodipodi:docname="Frekvence1.svg"
   inkscape:version="1.2.1 (9c6d41e410, 2022-07-14)"
   xmlns:inkscape="http://www.inkscape.org/namespaces/inkscape"
   xmlns:sodipodi="http://sodipodi.sourceforge.net/DTD/sodipodi-0.dtd"
   xmlns="http://www.w3.org/2000/svg"
   xmlns:svg="http://www.w3.org/2000/svg">
  <defs
     id="defs6" />
  <sodipodi:namedview
     id="namedview4"
     pagecolor="#ffffff"
     bordercolor="#000000"
     borderopacity="0.25"
     inkscape:showpageshadow="2"
     inkscape:pageopacity="0.0"
     inkscape:pagecheckerboard="0"
     inkscape:deskcolor="#d1d1d1"
     showgrid="false"
     inkscape:zoom="2.248"
     inkscape:cx="177.4911"
     inkscape:cy="187.94484"
     inkscape:window-width="1920"
     inkscape:window-height="1001"
     inkscape:window-x="-9"
     inkscape:window-y="1341"
     inkscape:window-maximized="1"
     inkscape:current-layer="g8" />
  <g
     inkscape:groupmode="layer"
     inkscape:label="Image"
     id="g8">
    <path
       id="path295"
       style="display:inline;fill:#006bb7;fill-opacity:1"
       inkscape:label="text"
       d="m 211.65625,132.0918 c -2.75661,0.0262 -6.31124,1.18531 -11.73047,3.48632 -13.08577,5.55633 -16.48373,10.71396 -11.95312,18.14454 2.21709,3.63625 5.41321,4.80231 10.5332,3.84179 L 202,156.91016 v 20.07617 c 0,21.57925 0.66456,25.26406 5.11719,28.38281 2.64554,1.85303 7.09521,2.1227 9.9375,0.60156 C 221.66156,203.50519 222,200.97589 222,168.94922 v -30.14844 l -3.40039,-3.40039 c -2.22824,-2.22824 -4.18675,-3.33484 -6.94336,-3.30859 z m -47.9668,14.02148 c -0.003,0.002 -0.005,0.004 -0.008,0.006 4.7e-4,6.3e-4 9.5e-4,0.003 0.002,0.004 0.002,-0.003 0.004,-0.006 0.006,-0.01 z m -2.11133,1.39258 c -0.18061,0.0978 -0.35073,0.20572 -0.44921,0.36719 -0.0139,0.0228 0.0559,-0.008 0.0762,-0.0254 0.1285,-0.10937 0.2485,-0.22776 0.37304,-0.3418 z M 43.800781,224 40.400391,227.40039 37,230.80078 v 23.93164 c 0,13.1633 0.299349,24.2349 0.666016,24.60156 0.366662,0.36667 1.925869,0.66602 3.464843,0.66602 4.156922,0 5.004844,-2.61529 4.791016,-14.78711 L 45.734375,254.5 53.117188,254 c 7.301013,-0.49444 7.386699,-0.53332 7.71875,-3.45117 C 61.302932,246.44515 58.88288,245 51.546875,245 H 45.476562 L 45.988281,239.25 46.5,233.5 56.789062,233 c 7.65154,-0.37181 10.531568,-0.88456 11.234376,-2 1.357784,-2.15497 1.195058,-3.63701 -0.595704,-5.42773 C 66.189154,224.33368 63.52073,224 54.828125,224 Z m 88.328129,0 c -0.80919,0 -2.29498,0.74405 -3.30079,1.6543 -1.67647,1.51722 -1.82812,3.68777 -1.82812,26.0664 0,15.37533 0.3947,25.14921 1.06641,26.4043 0.78963,1.47545 1.89277,1.91195 4.25,1.68359 L 135.5,279.5 l 0.28906,-7.63086 c 0.22398,-5.89522 0.70961,-8.01102 2.13477,-9.30078 1.76181,-1.59441 2.06928,-1.25131 6.8125,7.63086 4.77166,8.93549 5.10012,9.30078 8.36523,9.30078 5.07075,0 4.86181,-2.83593 -1.04492,-14.2207 l -5.07422,-9.7793 5.0293,-4.5 c 5.08347,-4.54943 5.97348,-6.61636 3.78906,-8.80078 -2.3538,-2.3538 -5.73472,-1.15858 -12.16992,4.30078 -3.56569,3.025 -6.74104,5.5 -7.05664,5.5 C 136.25862,252 136,246.23918 136,239.19922 136,226.27102 135.42154,224 132.12891,224 Z m -25.30274,16.12109 c -1.59947,-0.0538 -3.22266,0.4536 -5.81836,1.49219 -5.020249,2.00872 -7.779621,5.78606 -9.205076,12.60547 -1.69349,8.10171 -0.334353,16.10768 3.470704,20.44141 1.714068,1.95219 4.041815,3.92319 5.171872,4.38086 3.33946,1.35243 10.43469,1.07219 13.54297,-0.53516 6.06384,-3.13573 8.0057,-9.64076 3.49219,-11.69727 -2.2133,-1.00845 -2.87096,-0.80871 -5.43359,1.64649 -3.58974,3.43915 -7.72113,3.66478 -10.23633,0.55859 C 98.319665,264.70265 99.267555,264 108.56641,264 119.81884,264 121,263.32115 121,256.85156 121,250.01344 117.91372,244.62075 112.5,242 c -2.49925,-1.20987 -4.07436,-1.82514 -5.67383,-1.87891 z m 205.3418,0.0859 c -1.24619,-0.0982 -2.4311,0.15387 -4.25781,0.70117 -7.45587,2.23383 -11.9192,9.65227 -11.9043,19.78516 0.0122,8.31054 4.0282,16.07187 9.49414,18.34766 6.84046,2.84805 16.89535,-0.53489 18.94922,-6.375 1.80921,-5.14446 -3.65997,-9.0585 -6.66406,-4.76954 -3.44457,4.91782 -10.44211,4.24225 -11.87891,-1.14648 L 305.17383,264 h 8.68945 c 10.64421,0 13.14808,-1.2994 13.11328,-6.80664 -0.0133,-2.10079 -1.19906,-5.83791 -2.75,-8.66602 -2.19509,-4.00266 -3.64563,-5.35011 -7.43945,-6.91796 -2.06658,-0.85408 -3.37295,-1.30416 -4.61914,-1.40235 z m -32.24609,0.10352 c -2.53376,-0.13667 -5.17706,0.48167 -7.84766,1.87695 -6.39461,3.34094 -8.07531,7.15044 -8.07031,18.29688 0.004,10.24606 1.5852,14.07593 7.23632,17.52148 6.79453,4.14268 16.4754,1.69205 20.5625,-5.20508 1.48875,-2.51231 1.46947,-2.84138 -0.25781,-4.75 -2.49607,-2.75814 -4.99146,-2.58267 -7.24414,0.50977 -2.08961,2.86853 -7.15969,3.63148 -9.76562,1.46875 -2.26277,-1.87793 -2.17127,-16.67031 0.11914,-19.20118 2.31168,-2.55439 5.98784,-2.27778 8.9375,0.67188 5.0589,5.0589 11.85426,1.25274 7.69922,-4.3125 -3.22771,-4.32316 -7.14625,-6.64917 -11.36914,-6.87695 z m -72.96094,0.20898 c -2.85584,-0.0622 -5.6583,0.61349 -7.57422,2.04297 -5.76342,4.30012 -6.86335,6.86603 -7.1836,16.75781 -0.34448,10.64143 1.12812,14.69103 6.69532,18.41016 6.74874,4.50843 17.10608,2.07847 21.04297,-4.93555 1.35993,-2.42296 1.32664,-2.84194 -0.37891,-4.72656 -2.53555,-2.80175 -5.00794,-2.60084 -7.33789,0.59766 C 208.83234,273.32294 201,271.72562 201,266.37695 201,264.05013 201.19114,264 209.97656,264 c 8.48682,0 9.06664,-0.1373 10.625,-2.51562 3.08636,-4.71038 0.08,-14.43881 -5.74414,-18.58594 -2.13124,-1.51758 -5.04068,-2.31675 -7.89648,-2.37891 z M 184.02344,241 c -3.56759,0 -3.65221,0.13714 -7.11524,11.38672 -1.97475,6.41506 -2.9862,8.52116 -3.41406,7.11328 -0.33429,-1.1 -1.8195,-5.6 -3.30078,-10 -2.68084,-7.96316 -2.70946,-8 -6.19336,-8 -3.02849,0 -3.54066,0.35131 -3.80273,2.60938 -0.28491,2.45476 7.69131,29.94436 9.86914,34.01367 1.15656,2.16101 6.13199,2.5661 7.70117,0.62695 0.55633,-0.6875 3.26173,-8.67504 6.01367,-17.75 5.4343,-17.92058 5.45949,-20 0.24219,-20 z M 242.5,241 c -7.42349,0 -7.82169,0.12247 -11.09961,3.40039 L 228,247.80078 v 14.89844 c 0,10.25552 0.37327,15.27561 1.19922,16.10156 1.59248,1.59248 5.28399,1.52687 6.64844,-0.11719 0.63547,-0.76569 1.20799,-6.93325 1.37109,-14.75 L 237.5,250.5 l 5.25,-0.30273 5.25,-0.30274 v 13.85352 c 0,9.44061 0.38139,14.2349 1.19922,15.05273 1.73846,1.73846 6.47624,1.48599 7.19336,-0.38281 C 256.72643,277.54799 257,270.30334 257,262.31836 v -14.51758 l -3.40039,-3.40039 C 250.32169,241.12247 249.92349,241 242.5,241 Z m -165.517578,0.15234 c -1.079969,-0.0189 -2.320212,0.002 -3.759766,0.0566 L 65.5,241.5 65.226562,259.36914 c -0.188783,12.33165 0.08218,18.29706 0.873047,19.25 1.410529,1.69959 5.083323,1.7995 6.701172,0.18164 C 73.618168,277.98339 74,273.20074 74,263.80078 V 250 h 2.5 c 1.999992,0 2.5,0.5 2.5,2.5 0,3.63987 3.359324,6.67186 6.226562,5.61914 4.498754,-1.65174 3.236254,-12.27509 -1.855468,-15.61133 -1.357446,-0.88943 -3.148766,-1.29871 -6.388672,-1.35547 z m 233.765628,8.29493 c 1.28526,-0.0831 2.62444,0.22317 3.7832,0.98242 1.35738,0.88939 2.46875,2.28143 2.46875,3.09375 0,1.13761 -1.37212,1.47656 -5.96875,1.47656 -5.72729,0 -5.93481,-0.0893 -5.1543,-2.19922 0.73889,-1.9974 2.72898,-3.215 4.8711,-3.35351 z m -104.29102,0.0684 C 209.67936,249.3612 213,251.47024 213,254.43359 213,254.74475 210.3,255 207,255 c -6.66607,0 -7.98406,-1.65444 -3.60547,-4.52344 0.92565,-0.6065 1.98839,-0.90948 3.0625,-0.96094 z m -101.05664,0.11719 C 108.52646,249.38218 112,250.85023 112,253.52344 112,254.66193 110.62504,255 106,255 c -6.363966,0 -6.54877,-0.10837 -5.02734,-2.95117 0.80109,-1.49685 2.55209,-2.26573 4.42773,-2.41602 z" />
    <path
       id="path297"
       style="display:inline;fill:#fdb827;fill-opacity:1"
       inkscape:label="logo"
       d="m 263.70312,96.03125 c -6.51514,-0.0084 -13.23997,0.302237 -16.7871,0.935547 C 243.93679,97.498705 236.77495,98.669234 231,99.566406 192.86476,105.4909 158.55682,120.7514 146.00586,137.375 c -14.15819,18.75235 -11.20782,39.29984 8.49414,59.16016 12.46928,12.56944 28.7815,21.55219 45.46484,25.03515 9.80069,2.04611 31.4581,1.23332 41.02344,-1.53906 28.0138,-8.11936 57.65757,-34.47837 71.6875,-63.74414 14.16062,-29.5383 5.95611,-50.07134 -22.67578,-56.751954 -3.575,-0.834142 -8.41828,-1.970459 -10.76367,-2.52539 -2.71091,-0.64142 -9.01802,-0.970078 -15.53321,-0.978516 z m -6.2871,7.08398 c 4.49823,-0.0582 8.60759,0.20404 12.125,0.81446 27.03074,4.69097 34.28172,24.47355 20.03125,54.65625 -13.57255,28.74678 -38.04956,51.57057 -60.3711,56.29297 C 203.42558,220.33202 176.19202,206.15897 164.10352,181 160.67031,173.85478 160.5,173.00332 160.5,163 c 0,-9.47149 0.27343,-11.05674 2.79492,-16.19141 7.2076,-14.6773 23.51376,-26.49295 48.63281,-35.23632 14.99993,-5.22115 31.99349,-8.28233 45.48829,-8.45704 z m -58.44336,36.03907 c -0.0333,0.0152 -0.0688,0.0412 -0.0781,0.0644 -0.1219,0.30484 -0.23722,0.62214 -0.26562,0.94922 -3.4e-4,0.004 3.3e-4,0.008 0,0.0117 0.0437,-0.0835 0.0935,-0.16224 0.13671,-0.2461 0.089,-0.25776 0.21908,-0.50507 0.26758,-0.77343 0.004,-0.0246 -0.0272,-0.0206 -0.0605,-0.006 z m 7.89843,52.9414 c -0.0749,0.17009 -0.15629,0.33338 -0.21289,0.52344 -0.0485,0.16291 0.13712,-0.31099 0.19532,-0.4707 0.005,-0.0128 0.0127,-0.0392 0.0176,-0.0527 z" />
  </g>
</svg>
