<?xml version="1.0" encoding="UTF-8" standalone="no"?>
<!-- Created with Inkscape (http://www.inkscape.org/) -->

<svg
   version="1.1"
   id="svg2"
   width="245"
   height="245"
   viewBox="0 0 245 245"
   sodipodi:docname="Impuls.svg"
   inkscape:version="1.2.1 (9c6d41e410, 2022-07-14)"
   xmlns:inkscape="http://www.inkscape.org/namespaces/inkscape"
   xmlns:sodipodi="http://sodipodi.sourceforge.net/DTD/sodipodi-0.dtd"
   xmlns="http://www.w3.org/2000/svg"
   xmlns:svg="http://www.w3.org/2000/svg">
  <defs
     id="defs6" />
  <sodipodi:namedview
     id="namedview4"
     pagecolor="#ffffff"
     bordercolor="#000000"
     borderopacity="0.25"
     inkscape:showpageshadow="2"
     inkscape:pageopacity="0.0"
     inkscape:pagecheckerboard="0"
     inkscape:deskcolor="#d1d1d1"
     showgrid="false"
     inkscape:zoom="2.4330246"
     inkscape:cx="-5.7541548"
     inkscape:cy="110.76748"
     inkscape:window-width="1920"
     inkscape:window-height="1001"
     inkscape:window-x="-9"
     inkscape:window-y="1341"
     inkscape:window-maximized="1"
     inkscape:current-layer="g8" />
  <g
     inkscape:groupmode="layer"
     inkscape:label="Image"
     id="g8"
     transform="matrix(1.5674273,0,0,1.5674273,-67.614328,-67.912982)">
    <path
       style="fill:#ffffff;stroke:#000000;stroke-width:0.25;stroke-opacity:0.975845"
       d="m 87.915184,107.09668 c 15.984576,-1.08986 16.638496,-0.36329 16.638496,-0.36329 l 2.25237,3.99615 2.83363,-4.21412 9.30012,-0.58126 10.31732,0.0727 7.55634,1.67112 1.88909,-1.16252 3.34223,-0.29063 h 2.17972 l 1.23517,1.23517 2.17971,-0.0726 2.90629,-0.87189 9.08215,-0.43594 c 0,0 -0.79923,-0.21797 1.30783,0.29063 2.10705,0.5086 2.83363,1.38048 2.83363,1.38048 l 1.0172,3.70552 0.65391,6.39383 2.25237,1.23517 3.19692,-0.36328 1.45314,-1.59846 -0.87188,-2.543 -0.36329,-2.83363 3.12426,-5.23132 2.543,-0.29063 2.97895,-0.58125 3.99614,0.14531 2.17972,1.30783 1.74377,2.0344 -0.21797,3.26957 0.21797,3.5602 1.0172,2.97895 -0.43594,3.0516 -1.88909,2.0344 -1.5258,1.59846 -3.63286,0.72657 -22.66904,-0.58126 -1.96174,-2.17971 -1.81643,-0.21797 -7.12041,3.77817 -4.50474,-0.5086 -5.52195,-4.43209 -0.65391,-3.63286 -9.80872,3.5602 -0.58126,3.12426 -6.97509,0.58126 h -18.67289 l -4.068803,-0.58126 -1.525801,-2.17971 -2.470344,2.90628 -4.795374,-0.29062 -1.307829,-4.86803 v -7.26572 l 0.217972,-4.28678 z"
       id="path581"
       inkscape:label="text backround" />
    <path
       style="display:inline;fill:#fdb827;stroke:#000000;stroke-width:0.25;stroke-opacity:0.975845"
       d="m 67.498517,95.253559 -1.380486,3.269573 0.944543,4.068798 v 2.17972 l -4.868031,-0.0727 -3.778173,0.29063 -0.435943,3.34223 2.83363,1.45314 c 0,0 4.795374,1.88909 4.722716,2.17972 -0.07266,0.29063 -2.906287,6.03055 -2.906287,6.03055 l -7.992289,5.95788 -2.906287,3.26958 0.871886,2.543 2.83363,-0.29063 14.604092,-1.38049 11.261863,1.30783 0.726572,-2.68831 -2.906287,-2.97895 -5.66726,-3.41489 -0.435943,-3.77817 3.051601,-5.37663 7.411032,-6.68446 -0.653914,-1.96174 -2.107059,-0.21798 -2.543001,0.21798 -2.688315,-0.94455 1.5258,-3.705513 -1.671115,-2.543001 -3.269573,-1.307829 -2.325029,0.145314 z"
       id="path583"
       inkscape:label="I background" />
    <path
       id="path293"
       style="display:inline;fill:#000000"
       d="m 71.583984,93 c -4.512855,0 -7.020475,2.922808 -6.302734,7.3457 l 0.550781,3.38868 -4.310547,-0.48438 c -3.775492,-0.42556 -4.397121,-0.21475 -5.005859,1.70312 -0.717366,2.26026 1.701163,6.03204 3.888672,6.0625 0.602242,0.008 1.700101,0.3986 2.439453,0.86719 2.044704,1.2959 -1.123323,6.7008 -5.111328,8.72071 -1.778162,0.9005 -4.019936,2.32795 -4.982422,3.17187 -2.024702,1.77528 -2.330365,5.8072 -0.5,6.5957 0.687486,0.29615 2.375014,0.3175 3.75,0.0449 6.279142,-1.24295 16.851747,-1.55115 20.326172,-0.5918 C 81.105468,131.14426 83,130.45698 83,127.40625 c 0,-2.2011 -0.847272,-2.96997 -8.841797,-8.03906 -0.18799,-0.1192 0.262024,-1.89325 1,-3.94141 0.82963,-2.30252 2.745376,-4.65314 5.017578,-6.1582 2.021191,-1.33879 3.939869,-3.12957 4.265625,-3.97852 0.868143,-2.26238 -1.457923,-4.51879 -4.130859,-4.00781 C 78.342779,101.65741 78,101.30935 78,98.933594 78,95.226435 75.593369,93 71.583984,93 Z m 0.330078,2.208984 c 2.765507,0.0011 4.834444,2.379224 3.46875,4.560547 -1.44203,2.303289 -6.928085,2.860899 -7.724609,0.785159 -0.920999,-2.400124 0.312969,-4.50965 3.037109,-5.193362 0.415596,-0.104308 0.823687,-0.152507 1.21875,-0.152344 z m 9.650391,7.957036 c 1.268139,0.0924 -0.09952,2.21771 -2.974609,3.91406 -2.133959,1.25909 -4.004622,3.4986 -5,5.98633 -2.328039,5.81827 -2.028135,7.78451 1.484375,9.73047 8.234097,4.56164 7.910186,5.89771 -0.984375,4.06054 -4.673328,-0.96527 -7.358757,-0.99961 -11.355469,-0.14648 -2.879057,0.61456 -5.975946,1.41177 -6.882813,1.77148 -0.906854,0.35972 -1.905068,0.23802 -2.21875,-0.26953 -0.617898,-0.9998 2.2453,-3.83731 6.603516,-6.54297 C 62.767894,120.09828 67,113.44669 67,111.03906 67,110.46715 66.345982,110 65.546875,110 63.160265,110 59,107.76721 59,106.48633 c 0,-0.82395 1.502016,-1.04897 4.857422,-0.72656 4.447533,0.42736 12.068378,-0.64261 16.394531,-2.30274 0.587281,-0.22536 1.01985,-0.31234 1.3125,-0.29101 z M 179.80859,104.5 c -4.26543,0 -5.34372,0.4196 -7.49609,2.92188 -2.08092,2.41908 -2.40709,3.58127 -1.90039,6.75 C 170.98513,117.75519 170.86326,118 168.51172,118 166.14069,118 166,117.69905 166,112.62305 c 0,-3.08316 -0.53333,-5.82043 -1.25,-6.41407 -1.57558,-1.30495 -15.85041,-1.36611 -17.41016,-0.0742 -0.7506,0.62168 -1.39156,0.59145 -1.81054,-0.0859 -0.82657,-1.33746 -7.21049,-1.37463 -8.03125,-0.0469 -0.4062,0.65723 -1.2452,0.66739 -2.4375,0.0293 -1.00043,-0.53542 -7.27198,-0.95017 -13.93555,-0.92187 -10.23985,0.0435 -12.26072,0.30988 -13.05273,1.7207 -0.87122,1.55161 -0.98515,1.54835 -1.59766,-0.041 -0.55415,-1.43818 -2.03509,-1.69858 -9.316407,-1.64648 -4.762001,0.0341 -9.220717,0.52067 -9.908203,1.08203 -1.675,1.36769 -1.718056,17.90889 -0.05078,19.57617 1.478121,1.47815 6.446699,1.57975 7.330078,0.15039 0.412408,-0.66731 1.071692,-0.70483 1.810547,-0.10351 0.63852,0.51968 7.829375,0.9434 15.980465,0.9414 14.40624,-0.004 14.84903,-0.0661 15.84766,-2.25781 0.57293,-1.25743 2.55699,-2.72484 4.48437,-3.31641 3.20495,-0.98362 3.52442,-0.88036 4.39454,1.40821 0.51595,1.35743 2.40362,3.10413 4.19531,3.88281 4.40247,1.91341 6.66852,1.83362 11.02343,-0.38672 3.17463,-1.61851 3.85277,-1.68109 4.875,-0.44922 0.87016,1.04848 3.61762,1.4335 10.27344,1.4375 4.99697,0.003 11.09021,0.0325 13.53906,0.0645 3.66672,0.0479 4.87398,-0.43133 6.83985,-2.7168 1.84396,-2.14366 2.24731,-3.47883 1.77344,-5.86524 -0.33743,-1.69917 -0.58985,-4.69576 -0.56055,-6.6582 0.0759,-5.08093 -2.83298,-7.43164 -9.19727,-7.43164 z m 0.63477,1.91992 c 2.7777,0.003 5.41486,1.04822 6.21484,3.13281 1.00537,2.61995 -1.23411,4.01288 -4.03906,2.51172 -1.33188,-0.7128 -3.02974,-1.09345 -3.77148,-0.84375 -0.74173,0.24971 0.74477,1.38343 3.30273,2.51758 5.39897,2.39381 6.79203,5.17513 4.41016,8.81055 -1.34323,2.05003 -2.40893,2.45117 -6.51172,2.45117 -6.59932,0 -10.0011,-3.13443 -6.5293,-6.01562 1.24193,-1.03071 1.87323,-0.94059 3.46289,0.49804 1.24926,1.13056 2.58195,1.49559 3.73047,1.01953 1.42655,-0.5913 0.83424,-1.14225 -2.93164,-2.73242 -5.328,-2.24983 -6.6708,-4.76437 -4.39844,-8.23242 1.36444,-2.08238 4.28285,-3.12018 7.06055,-3.11719 z M 158,106.86719 l 2.75,0.3164 c 2.63551,0.30325 2.76156,0.57676 3.04688,6.56641 l 0.29882,6.25 h 3.52149 c 3.08015,0 3.48261,0.28209 3.20312,2.25 -0.28136,1.9811 -0.98187,2.28443 -5.85937,2.54297 -3.04684,0.1615 -5.85934,-0.0254 -6.25,-0.41602 C 158.32027,123.98629 158,119.88731 158,115.26758 Z m -31.01172,0.0527 c 3.06535,-0.0169 6.29714,0.50808 7.375,1.58594 4.38254,4.3824 2.14008,10.07053 -4.38086,11.11328 C 126.63701,120.15417 126,120.6345 126,122.62695 126,124.46234 125.45892,125 123.60742,125 c -1.31616,0 -2.66616,-0.71204 -3,-1.58203 -0.78672,-2.05017 -0.78672,-12.78577 0,-14.83594 0.41678,-1.08612 3.31551,-1.6452 6.38086,-1.66211 z M 113.5918,107 H 117 v 9.07031 c 0,8.83336 -0.0586,9.06123 -2.25,8.75 -1.82886,-0.25974 -2.31774,-1.06901 -2.61523,-4.32031 l -0.36719,-4 -1.16211,4 c -0.83618,2.87813 -1.76842,4.08794 -3.32617,4.3125 -1.79317,0.25849 -2.29833,-0.34256 -2.93555,-3.5 l -0.76758,-3.8125 -0.53906,3.5 c -0.40979,2.66777 -1.07262,3.57629 -2.79102,3.82031 -2.957969,0.42004 -3.399672,-1.01784 -3.042965,-9.91406 L 97.5,107.5 h 3.5 c 3.30806,0 3.58431,0.26658 5.03516,4.85156 l 1.53515,4.85156 1.30664,-5.10156 C 110.12793,107.22061 110.33121,107 113.5918,107 Z m 28.55859,0.0937 c 1.83128,-0.12063 1.84961,0.55922 1.84961,5.7168 0,3.71181 0.49753,6.35688 1.32422,7.04297 2.27653,1.88921 3.67578,-0.82069 3.67578,-7.11914 0,-5.80978 0.0265,-5.86416 2.75,-5.55079 2.66074,0.30615 2.75981,0.5338 3.04492,7.02149 0.24878,5.66088 -0.0238,7.02377 -1.75,8.75 -2.44507,2.44507 -9.62668,2.80274 -12.60351,0.62695 -1.61598,-1.18107 -1.94141,-2.64674 -1.94141,-8.75 0,-7.25425 0.0288,-7.33534 2.75,-7.64844 0.34087,-0.0392 0.63878,-0.0726 0.90039,-0.0898 z M 91,107.5 c 2.470562,0 2.5,0.10014 2.5,8.5 0,8.05834 -0.116569,8.5168 -2.253906,8.82031 -2.958024,0.42004 -3.399676,-1.01784 -3.042969,-9.91406 C 88.489984,107.75207 88.585122,107.5 91,107.5 Z m 37.58398,4.5 C 126.90362,112 126,112.54929 126,113.57031 c 0,1.04234 0.72967,1.46221 2.17188,1.25 C 131.37324,114.34923 131.7167,112 128.58398,112 Z m -2.0957,22 c -0.21814,0.007 -0.52972,0.0557 -0.9375,0.13477 -1.03691,0.20094 -2.07187,0.92773 -2.30078,1.61523 -0.59396,1.78389 1.2595,1.54589 2.8457,-0.36523 0.8699,-1.04816 1.04699,-1.4052 0.39258,-1.38477 z m 11,0 c -0.21814,0.007 -0.52972,0.0557 -0.9375,0.13477 -1.03691,0.20094 -2.07187,0.92773 -2.30078,1.61523 -0.59396,1.78389 1.2595,1.54589 2.8457,-0.36523 0.8699,-1.04816 1.04699,-1.4052 0.39258,-1.38477 z m 11,0 c -0.21814,0.007 -0.52972,0.0557 -0.9375,0.13477 -1.03691,0.20094 -2.07187,0.92773 -2.30078,1.61523 -0.59396,1.78389 1.2595,1.54589 2.8457,-0.36523 0.8699,-1.04816 1.04699,-1.4052 0.39258,-1.38477 z m 10.97266,0.0469 c -0.3439,0.0159 -0.96155,0.20852 -1.87891,0.56054 -0.86999,0.33384 -1.58203,1.00884 -1.58203,1.5 0,1.38323 1.62035,1.05496 3,-0.60742 0.84456,-1.01763 1.0341,-1.47957 0.46094,-1.45312 z m 17.38476,0.21093 c -0.61545,0.0879 -1.30815,0.62758 -1.61718,1.55469 -0.21771,0.65312 0.31666,1.1875 1.1875,1.1875 0.87069,0 1.58398,-0.71329 1.58398,-1.58398 0,-0.88297 -0.53885,-1.24613 -1.1543,-1.15821 z M 171.5,135 c -0.825,0 -1.5,0.8376 -1.5,1.86133 0,1.42797 -0.56207,1.75405 -2.41211,1.40039 -2.93104,-0.5603 -5.06696,2.69571 -4.1543,6.33203 0.52569,2.09452 1.18663,2.40625 5.08594,2.40625 H 173 v -6 c 0,-4.66667 -0.33333,-6 -1.5,-6 z m -63.12109,0.5 c -0.30464,0.0817 -0.60703,0.17176 -0.89453,0.30078 -0.0586,0.0266 -0.11964,0.0511 -0.17969,0.0762 v 0.002 c -0.0108,0.0187 -0.0219,0.0376 -0.0352,0.0566 -0.057,0.0822 -0.13676,0.14405 -0.19726,0.22265 -0.0862,0.0829 -0.14875,0.18305 -0.21485,0.28125 -0.0886,0.12133 -0.15456,0.25739 -0.22656,0.38867 -0.074,0.13719 -0.14784,0.27464 -0.2207,0.41211 l -0.21094,4.00977 c -0.27266,5.22739 -0.11364,5.75 1.75,5.75 1.38323,0 2.05078,-0.65044 2.05078,-2 0,-2.62235 3.02518,-2.62235 3.71094,0 0.28766,1.1 1.12526,2 1.86328,2 0.56273,0 0.87032,-0.61478 1.02539,-1.83203 -0.0215,-0.11681 -0.0428,-0.23328 -0.0664,-0.34961 -0.0397,-0.21446 -0.0831,-0.42959 -0.10742,-0.64648 -0.004,-0.01 -0.008,-0.0195 -0.0117,-0.0293 -0.061,-0.16829 -0.12817,-0.33471 -0.16797,-0.50977 -0.0397,-0.16198 -0.073,-0.32523 -0.082,-0.49219 -0.0138,-0.16822 -0.0154,-0.33719 -0.0234,-0.50585 -0.01,-0.19022 -0.0244,-0.37971 -0.0234,-0.57032 -0.003,-0.19298 -0.009,-0.38735 0.002,-0.58007 0.0173,-0.15892 0.0375,-0.31802 0.0996,-0.4668 0.024,-0.0652 0.0591,-0.1253 0.0898,-0.1875 0.005,-0.0182 0.0103,-0.0374 0.0176,-0.0566 0.0615,-0.16214 0.11594,-0.32825 0.17774,-0.49024 0.0109,-0.0267 0.0172,-0.055 0.0273,-0.082 -0.0104,-0.0968 -0.0175,-0.19384 -0.0234,-0.29101 -0.0106,-0.19631 -0.008,-0.39392 -0.0254,-0.58985 -0.0136,-0.21982 -0.0578,-0.43531 -0.10351,-0.65039 -0.0259,-0.0671 -0.0487,-0.13534 -0.0781,-0.20117 -0.0326,-0.0731 -0.0487,-0.1397 -0.0527,-0.19922 -0.0422,-0.0731 -0.0906,-0.12376 -0.13086,-0.20312 -0.0297,-0.0582 -0.12956,-0.21868 -0.0352,-0.0723 0.011,0.0139 0.0436,0.0554 0.0332,0.041 -0.082,-0.11366 -0.16564,-0.22505 -0.24414,-0.33985 -0.0983,-0.13021 -0.21055,-0.28383 -0.28125,-0.41211 -0.007,-0.0126 -0.0345,-0.0461 -0.0234,-0.0371 0.0193,0.0157 0.0327,0.0376 0.0488,0.0566 -0.0991,-0.11944 -0.19535,-0.24603 -0.28515,-0.36718 -0.10463,-0.11558 -0.20512,-0.23225 -0.3086,-0.34766 -0.14821,-0.14269 -0.29653,-0.28767 -0.44726,-0.42773 -0.0755,-0.0759 -0.16865,-0.17213 -0.24414,-0.24805 -0.14081,-0.0762 -0.28154,-0.15197 -0.41992,-0.23242 -0.13487,-0.0719 -0.27588,-0.12985 -0.41993,-0.17969 H 111.5 Z M 112,138 c 1.1,0 2,0.40143 2,0.89258 0,1.12404 -2.60123,2.17221 -3.40234,1.37109 C 109.39389,139.05991 110.05081,138 112,138 Z m 46.36328,0.0625 c -0.82818,-0.0412 -1.80466,0.0833 -2.93555,0.36719 -3.62119,0.90889 -2.9588,2.62614 0.72852,1.88867 2.25575,-0.45115 2.95023,-0.30106 2.43945,0.52539 -0.39298,0.63586 -1.53301,1.15625 -2.5332,1.15625 -2.29192,0 -4.70719,2.76322 -3.4707,3.9707 0.49919,0.48747 2.4832,1.04265 4.4082,1.23242 4.74272,0.4679 5,0.25109 5,-4.19531 0,-3.21543 -1.15218,-4.82182 -3.63672,-4.94531 z m -33.76367,0.10938 c -1.94309,-0.0649 -4.01502,0.53724 -4.37109,1.62109 -0.30805,0.93766 0.29092,1.11519 2.17382,0.64258 1.47804,-0.37097 2.59766,-0.22929 2.59766,0.33007 0,0.54088 -1.35,1.25399 -3,1.58399 -2.14815,0.42963 -3,1.175 -3,2.625 0,1.76333 0.64609,2.02539 5,2.02539 h 5 v -3.37695 c 0,-1.85765 -0.64771,-3.91519 -1.43945,-4.57227 -0.67499,-0.5602 -1.79509,-0.8401 -2.96094,-0.8789 z m 11,0 c -1.94309,-0.0649 -4.01502,0.53724 -4.37109,1.62109 -0.30805,0.93766 0.29092,1.11519 2.17382,0.64258 1.47804,-0.37097 2.59766,-0.22929 2.59766,0.33007 0,0.54088 -1.35,1.25399 -3,1.58399 -2.14815,0.42963 -3,1.175 -3,2.625 0,1.76333 0.64609,2.02539 5,2.02539 h 5 v -3.37695 c 0,-1.85765 -0.64771,-3.91519 -1.43945,-4.57227 -0.67499,-0.5602 -1.79509,-0.8401 -2.96094,-0.8789 z m 11,0 c -1.94309,-0.0649 -4.01502,0.53724 -4.37109,1.62109 -0.30805,0.93766 0.29092,1.11519 2.17382,0.64258 1.47804,-0.37097 2.59766,-0.22929 2.59766,0.33007 0,0.54088 -1.35,1.25399 -3,1.58399 -2.14815,0.42963 -3,1.175 -3,2.625 0,1.76333 0.64609,2.02539 5,2.02539 h 5 v -3.37695 c 0,-1.85765 -0.64771,-3.91519 -1.43945,-4.57227 -0.67499,-0.5602 -1.79509,-0.8401 -2.96094,-0.8789 z m 30.16211,0 c -0.64691,0.0947 -1.3485,1.67318 -1.56836,4.65624 -0.23894,3.2421 0.0397,4.17188 1.25,4.17188 1.18345,0 1.55664,-1.10152 1.55664,-4.58398 0,-2.95101 -0.59137,-4.33886 -1.23828,-4.24414 z m 7.52734,0.004 c -0.88042,0.0364 -1.69983,0.22011 -2.19336,0.5293 -1.72259,1.07917 -2.59007,4.56602 -1.70703,6.86719 0.73004,1.90234 7.00733,1.85997 8.59961,-0.0586 1.92049,-2.31405 0.41015,-6.37638 -2.6582,-7.14648 -0.36294,-0.0911 -0.75388,-0.1493 -1.15039,-0.17774 -0.29739,-0.0213 -0.59715,-0.0258 -0.89063,-0.0137 z m 0.21094,2.39063 c 0.55638,0 1.11352,0.72757 1.32031,2.18359 0.21988,1.54817 -0.19249,2.25 -1.32031,2.25 -1.12782,0 -1.54019,-0.70183 -1.32031,-2.25 0.20679,-1.45602 0.76393,-2.18359 1.32031,-2.18359 z M 168.5,141 c 0.83333,0 1.5,0.88889 1.5,2 0,1.11111 -0.66667,2 -1.5,2 -0.83333,0 -1.5,-0.88889 -1.5,-2 0,-1.11111 0.66667,-2 1.5,-2 z m -44.37695,2.50391 c 0.5479,-0.006 0.87695,0.35828 0.87695,1.02734 0,1.61739 -1.56293,1.98615 -2.43555,0.57422 -0.3043,-0.49236 0.11957,-1.15338 0.94141,-1.46875 0.22691,-0.0871 0.43455,-0.13072 0.61719,-0.13281 z M 134.44141,144 c 0.85746,0 1.55859,0.45 1.55859,1 0,1.29391 -1.70032,1.29391 -2.5,0 -0.33992,-0.55 0.0839,-1 0.94141,-1 z M 146,144 c 1.16492,0 1.83992,0.45 1.5,1 -0.79194,1.28138 -2.20806,1.28138 -3,0 -0.33992,-0.55 0.33508,-1 1.5,-1 z m 11.55859,0 c 0.85748,0 1.28133,0.45 0.94141,1 -0.79968,1.29391 -2.5,1.29391 -2.5,0 0,-0.55 0.70113,-1 1.55859,-1 z"
       inkscape:label="text" />
  </g>
</svg>
