<?xml version="1.0" encoding="UTF-8" standalone="no"?>
<!-- Created with Inkscape (http://www.inkscape.org/) -->

<svg
   version="1.1"
   id="svg2"
   width="245"
   height="245"
   viewBox="0 0 245 245"
   sodipodi:docname="Impuls.svg"
   inkscape:version="1.2.1 (9c6d41e410, 2022-07-14)"
   xml:space="preserve"
   xmlns:inkscape="http://www.inkscape.org/namespaces/inkscape"
   xmlns:sodipodi="http://sodipodi.sourceforge.net/DTD/sodipodi-0.dtd"
   xmlns="http://www.w3.org/2000/svg"
   xmlns:svg="http://www.w3.org/2000/svg"><defs
     id="defs6" /><sodipodi:namedview
     id="namedview4"
     pagecolor="#ffffff"
     bordercolor="#000000"
     borderopacity="0.25"
     inkscape:showpageshadow="2"
     inkscape:pageopacity="0.0"
     inkscape:pagecheckerboard="0"
     inkscape:deskcolor="#d1d1d1"
     showgrid="false"
     inkscape:zoom="2.4330246"
     inkscape:cx="73.159967"
     inkscape:cy="95.149059"
     inkscape:window-width="1920"
     inkscape:window-height="1001"
     inkscape:window-x="-9"
     inkscape:window-y="1341"
     inkscape:window-maximized="1"
     inkscape:current-layer="g8" /><g
     inkscape:groupmode="layer"
     inkscape:label="Image"
     id="g8"
     transform="matrix(1.5674273,0,0,1.5674273,-67.614328,-67.912982)"><path
       style="fill:#ffbc00;stroke:#000000;stroke-width:0.159497;stroke-opacity:0.975845;fill-opacity:1"
       d="m 47.332661,135.23584 6.948834,-1.83553 7.211055,-1.17999 h 5.113293 l 5.506623,1.31109 3.802193,0.39334 2.687757,-0.85222 0.196665,-2.81887 -2.491092,-2.35998 -3.605527,-1.76999 -2.753312,-1.76998 -0.196665,-4.58886 1.966652,-4.45774 1.704431,-2.49109 3.736637,-2.22887 3.605527,-3.73664 -0.917771,-2.22887 -5.178848,0.0656 -2.163316,-0.45889 0.52444,-2.55665 -0.52444,-4.654404 -2.163316,-1.048881 -3.408863,-0.52444 -3.802192,0.91777 -1.245546,2.753312 -0.327775,3.474413 1.311101,3.8022 -8.391046,-0.52444 -3.146642,1.57332 1.507766,4.65441 8.522156,2.09776 -5.834399,10.35769 -10.029921,6.16218 z"
       id="path358"
       inkscape:label="yellowback" /><path
       style="fill:#ffffff;stroke:#000000;stroke-width:0.159497;stroke-opacity:0.975845"
       d="m 85.55125,109.40716 -0.26222,19.86317 6.555504,1.63888 2.556647,-3.08109 4.523298,3.2122 6.424391,-1.3111 12.78324,0.19667 2.42553,-1.04888 3.40887,1.70443 4.19552,-0.78667 2.09776,-4.58885 9.70214,-3.60552 4.06442,8.4566 12.12768,0.7211 4.85108,-3.80219 3.14664,4.06441 17.43764,-1.83554 9.83325,1.76998 6.62106,-6.09661 -2.75331,-8.4566 1.44221,-5.30996 -9.30882,-4.12997 -9.30881,4.71996 0.45889,6.16218 0.85221,3.73664 -8.78438,1.63887 -0.7211,-14.94655 -9.11215,1.17999 -6.03106,-1.04888 -3.80219,3.47442 -3.27776,-3.73664 -9.30882,2.29443 -6.16217,-2.88442 -12.78323,2.55665 -4.45774,-1.96666 -5.44107,0.85222 -1.63888,4.85107 -4.39219,-5.2444 -3.40886,-0.45889 -3.933303,0.85222 -2.491092,1.11444 -3.736637,-1.96666 -3.015532,0.45889 z"
       id="path360"
       inkscape:label="whiteback" /><path
       style="fill:#000000;stroke-width:0.127768"
       d="m 106.87656,154.3006 c -0.60011,-0.27987 -0.95329,-0.73776 -1.1171,-1.44834 -0.16757,-0.72683 -0.17478,-9.76664 -0.009,-10.78145 0.15236,-0.93053 0.4145,-1.31509 1.15826,-1.69925 0.56042,-0.28945 0.61514,-0.29259 4.40053,-0.25278 3.68742,0.0387 3.86194,0.0518 4.59321,0.34374 0.95872,0.38273 1.87535,1.22986 2.23477,2.06536 0.37586,0.87371 0.38031,2.17924 0.0103,3.01574 -0.3644,0.82377 -0.69746,1.15878 -1.56378,1.57291 -0.718,0.34323 -0.82018,0.51152 -0.31057,0.51152 0.50709,0 1.30825,0.50158 1.58166,0.99022 0.27544,0.49229 0.67379,2.85303 0.67285,3.98762 -0.002,1.57059 -1.72576,2.38121 -3.38783,1.59251 -0.75314,-0.35739 -0.95197,-0.77826 -1.20817,-2.55741 -0.32138,-2.23171 -0.59587,-2.47752 -2.76822,-2.479 l -1.04016,-8.4e-4 -0.0472,1.88458 c -0.0397,1.58704 -0.0885,1.96528 -0.30881,2.39566 -0.48523,0.94784 -1.83856,1.34997 -2.89117,0.85909 z m 6.64796,-8.25875 c 0.49701,-0.25702 0.70958,-0.72211 0.62346,-1.36411 -0.12888,-0.96091 -0.35284,-1.06818 -2.33044,-1.11624 l -1.72169,-0.0418 v 1.35147 1.35147 h 1.53957 c 1.07734,0 1.64451,-0.0543 1.8891,-0.18075 z m 8.67542,8.35481 c -1.21675,-0.30723 -2.1414,-1.10429 -2.40145,-2.07004 -0.23958,-0.88971 -0.10125,-1.92921 0.34034,-2.55751 0.6843,-0.97364 1.95155,-1.41475 5.01668,-1.74625 1.42876,-0.15452 1.80579,-0.35348 1.80579,-0.95292 0,-0.53644 -0.33422,-0.84884 -1.05043,-0.98184 -0.73183,-0.13589 -1.63358,0.0703 -2.24539,0.51353 -0.80988,0.58668 -1.27395,0.77961 -1.90577,0.79229 -0.50328,0.0101 -0.64463,-0.0441 -0.90561,-0.34755 -0.26288,-0.30562 -0.30004,-0.45532 -0.24784,-0.99853 0.052,-0.54086 0.13865,-0.71108 0.56427,-1.1081 0.62416,-0.5822 1.59936,-0.95573 2.99368,-1.14664 1.68547,-0.23078 4.09371,0.0605 5.19547,0.62833 0.56742,0.29246 1.24381,0.97254 1.41236,1.42006 0.0667,0.1769 0.14203,2.00104 0.16755,4.05365 l 0.0464,3.73202 -0.31942,0.31616 c -0.4772,0.47235 -1.38424,0.6758 -2.14012,0.48006 -0.6621,-0.17148 -1.30963,-0.7527 -1.30963,-1.17554 0,-0.34862 -0.14587,-0.31808 -0.56366,0.118 -0.59811,0.62429 -1.74694,1.05798 -2.93608,1.10838 -0.56982,0.0241 -1.25254,-0.0108 -1.51715,-0.0776 z m 3.86204,-2.35804 c 0.64783,-0.33501 0.89932,-0.78442 0.89932,-1.6071 v -0.73959 l -0.35137,0.17474 c -0.19324,0.0961 -0.74778,0.23788 -1.23231,0.31504 -1.06307,0.1693 -1.32865,0.29906 -1.49214,0.72907 -0.16094,0.42333 -0.0567,0.73536 0.35358,1.05806 0.39716,0.31241 1.28779,0.3465 1.82292,0.0698 z m 8.37378,2.31751 c -1.34241,-0.34895 -1.97164,-0.91666 -2.3114,-2.08538 -0.36339,-1.25005 0.033,-2.53825 0.9724,-3.1599 0.70639,-0.46747 2.00597,-0.81972 3.60741,-0.97781 1.74513,-0.17227 2.21527,-0.30671 2.47873,-0.7088 0.277,-0.42276 0.0405,-0.99149 -0.50662,-1.2181 -0.9353,-0.38741 -1.90235,-0.15882 -3.28226,0.77584 -0.44322,0.3002 -0.71595,0.38956 -1.19026,0.38998 -0.76148,8.4e-4 -1.02943,-0.13635 -1.23444,-0.63128 -0.19737,-0.47649 -0.086,-1.14465 0.26534,-1.59125 0.84425,-1.07329 3.31584,-1.64572 5.86464,-1.35827 2.18566,0.2465 3.63923,0.96736 3.94088,1.95436 0.0695,0.22725 0.15381,2.09306 0.18748,4.14623 l 0.0612,3.73304 -0.29033,0.31327 c -0.85322,0.92064 -2.86075,0.68464 -3.35125,-0.39396 -0.12153,-0.26723 -0.23359,-0.50639 -0.24901,-0.53144 -0.0154,-0.025 -0.24017,0.16045 -0.49943,0.41224 -0.90707,0.88093 -2.98702,1.31492 -4.46307,0.93123 z m 4.03945,-2.39148 c 0.60243,-0.30733 0.87963,-0.84724 0.87963,-1.71324 0,-0.31849 -0.0222,-0.57906 -0.0492,-0.57906 -0.0271,0 -0.20836,0.0825 -0.40277,0.18338 -0.19442,0.10087 -0.74574,0.24956 -1.22515,0.33042 -0.48076,0.0811 -1.01638,0.26085 -1.19435,0.40084 -0.42593,0.33504 -0.42983,0.90634 -0.009,1.32711 0.40396,0.40397 1.26557,0.42572 2.00098,0.0505 z m 8.16244,2.35734 c -0.87511,-0.23504 -1.43595,-0.60747 -1.88666,-1.25285 -0.31875,-0.45641 -0.3493,-0.60256 -0.3493,-1.67094 0,-1.08383 0.0264,-1.20543 0.3557,-1.63713 0.72714,-0.95333 1.83154,-1.3569 4.58551,-1.67563 1.73243,-0.20051 2.11405,-0.34234 2.23823,-0.83184 0.1334,-0.52591 -0.20971,-0.94751 -0.91344,-1.12239 -0.85622,-0.21278 -1.57357,-0.0322 -2.67671,0.67349 -0.76135,0.48712 -0.98281,0.56781 -1.55832,0.56781 -0.57255,0 -0.70966,-0.0493 -0.93566,-0.33665 -0.17873,-0.22722 -0.26481,-0.52342 -0.26481,-0.91119 0,-0.50617 0.0646,-0.6387 0.54302,-1.11374 1.22257,-1.21395 4.15813,-1.64128 6.96611,-1.01403 1.40266,0.31332 2.23683,0.90102 2.63633,1.85739 0.25281,0.60521 0.32009,7.45059 0.0777,7.90353 -0.24686,0.46126 -1.20671,0.81392 -1.9694,0.72359 -0.75801,-0.0898 -1.18798,-0.37214 -1.5562,-1.02201 l -0.26584,-0.46914 -0.24508,0.27081 c -0.94329,1.04232 -3.08282,1.51708 -4.78118,1.06092 z m 4.00735,-2.27045 c 0.69246,-0.28932 0.97562,-0.76331 0.97562,-1.6331 v -0.75266 l -0.35137,0.17966 c -0.19324,0.0988 -0.7776,0.2508 -1.29856,0.33776 -1.48989,0.24871 -1.99631,1.0026 -1.15117,1.71373 0.45138,0.37982 1.14575,0.43863 1.82548,0.15461 z m 8.38546,2.29412 c -1.57734,-0.43572 -2.42688,-1.48193 -2.42688,-2.98875 0,-2.00692 1.55786,-2.98377 5.23852,-3.28483 1.24808,-0.10209 1.83217,-0.30321 2.04716,-0.70491 0.35564,-0.66453 -0.3946,-1.31551 -1.51422,-1.31387 -0.76106,8.5e-4 -1.22803,0.1879 -2.3217,0.92868 -0.45567,0.30864 -0.7112,0.38955 -1.23159,0.38998 -0.83588,8.4e-4 -1.18745,-0.26536 -1.28198,-0.97016 -0.27269,-2.03307 3.23068,-3.21665 7.30488,-2.46789 0.82881,0.15232 1.28193,0.33484 1.9493,0.78519 0.98193,0.66262 1.01221,0.80407 1.08202,5.0557 0.0593,3.61242 0.0524,3.75539 -0.19675,4.07214 -0.80125,1.01863 -2.85557,0.83417 -3.37263,-0.30284 -0.12154,-0.26723 -0.23618,-0.50898 -0.25476,-0.5372 -0.0186,-0.0282 -0.18665,0.10157 -0.37349,0.2884 -1.05251,1.0525 -3.02581,1.49845 -4.64788,1.05036 z m 4.07915,-2.38312 c 0.2595,-0.14584 0.54486,-0.38214 0.63414,-0.5251 0.21183,-0.33921 0.34371,-1.76509 0.16325,-1.76509 -0.0733,0 -0.16526,0.0517 -0.20433,0.11492 -0.0736,0.11916 -0.87737,0.32317 -1.84214,0.46762 -0.70005,0.10481 -1.04058,0.43379 -1.04058,1.00529 0,0.89875 1.25516,1.28378 2.28966,0.70236 z m 9.16175,2.37924 c -1.91863,-0.55192 -3.0932,-2.27042 -3.23517,-4.73332 -0.15223,-2.64084 1.0643,-5.01391 2.87784,-5.61375 1.59521,-0.52762 2.87605,-0.31775 3.81968,0.62589 0.30043,0.30042 0.55217,0.53941 0.55944,0.53109 0.008,-0.009 0.0252,-0.90631 0.0397,-1.99554 0.0281,-2.09485 0.11455,-2.46036 0.70998,-2.99921 0.20489,-0.18543 0.50236,-0.2623 1.13106,-0.29229 0.99053,-0.0473 1.3556,0.10181 1.77553,0.72494 l 0.29131,0.43228 v 6.15899 6.15898 l -0.29164,0.43414 c -0.80411,1.197 -2.69754,0.86625 -3.20236,-0.5594 -0.1051,-0.29682 -0.19564,-0.45187 -0.2012,-0.34455 -0.017,0.328 -0.74189,1.01765 -1.35464,1.28869 -0.74797,0.33087 -2.10906,0.41621 -2.91956,0.18306 z m 3.36974,-3.12832 c 0.53491,-0.37266 0.70254,-0.86306 0.70148,-2.05219 -8.5e-4,-0.79302 -0.0616,-1.19748 -0.22562,-1.49912 -0.60245,-1.10778 -2.20305,-1.02882 -2.79834,0.13805 -0.30641,0.60062 -0.36544,1.79876 -0.12424,2.52185 0.37207,1.11545 1.52318,1.53482 2.44672,0.89141 z m 7.46121,3.13145 c -0.21812,-0.0949 -0.53435,-0.36579 -0.70273,-0.60189 -0.30513,-0.42781 -0.30631,-0.44289 -0.34484,-4.42037 -0.0362,-3.73742 -0.0227,-4.02716 0.2124,-4.55865 0.31323,-0.70811 0.79048,-0.97137 1.78632,-0.98539 0.90264,-0.0127 1.46231,0.24493 1.77502,0.8171 0.19958,0.3652 0.22999,0.87223 0.2624,4.37391 0.0362,3.91158 0.033,3.96785 -0.25554,4.52632 -0.18145,0.35119 -0.46091,0.65383 -0.73738,0.79855 -0.52134,0.27291 -1.43173,0.29591 -1.99565,0.0504 z m 8.07979,-0.0115 c -1.0227,-0.2592 -2.16436,-0.89046 -2.71729,-1.5025 -1.68748,-1.86784 -1.71132,-5.52356 -0.0484,-7.41756 0.93809,-1.06843 2.47894,-1.64113 4.42013,-1.64288 3.8005,-0.003 5.80285,1.83471 5.80285,5.32694 0,2.6086 -1.10325,4.2555 -3.38586,5.05424 -1.01599,0.35553 -3.03094,0.44548 -4.07147,0.18176 z m 2.62024,-2.78548 c 0.11997,-0.0749 0.35179,-0.36947 0.51513,-0.65454 0.40867,-0.71325 0.43216,-2.67809 0.0412,-3.44873 -0.34682,-0.68371 -0.84881,-1.02893 -1.47243,-1.01257 -1.04469,0.0274 -1.54223,0.76271 -1.63053,2.40978 -0.0875,1.63192 0.31142,2.61389 1.16301,2.863 0.43972,0.12862 1.03431,0.0612 1.38359,-0.15694 z M 124.63273,142.957 c -0.43855,-0.23799 -0.61011,-0.55566 -0.61011,-1.12971 0,-0.41129 0.11488,-0.55322 1.29656,-1.60182 0.71311,-0.6328 1.48437,-1.21252 1.71392,-1.28828 0.55311,-0.18255 1.24453,0.0985 1.51124,0.61427 0.33638,0.65047 0.0974,1.11879 -1.08945,2.13536 -1.72803,1.48005 -2.11471,1.65409 -2.82216,1.27018 z m 12.09008,-0.23525 c -0.77119,-0.77119 -0.58917,-1.23614 1.01661,-2.59684 1.41823,-1.20178 1.91848,-1.427 2.50077,-1.12589 0.56773,0.29358 0.82157,0.74192 0.72164,1.27458 -0.0665,0.35425 -0.31331,0.6376 -1.26007,1.44637 -0.64757,0.55319 -1.31958,1.10263 -1.49333,1.22099 -0.50592,0.34464 -0.99375,0.27266 -1.48562,-0.21921 z m 12.49896,0.17834 c -0.53139,-0.32399 -0.72098,-0.79214 -0.54128,-1.33662 0.1479,-0.44817 2.26377,-2.30852 2.95411,-2.59737 0.80574,-0.33714 1.6466,0.23457 1.64742,1.12011 3.9e-4,0.39679 -0.11807,0.56258 -0.9902,1.38607 -1.13573,1.07239 -2.00276,1.6841 -2.38604,1.6834 -0.14607,-2.5e-4 -0.45387,-0.11527 -0.68401,-0.25559 z m 12.33606,0.0569 c -0.43228,-0.23459 -0.61011,-0.55499 -0.61011,-1.09924 0,-0.3507 0.13149,-0.54404 0.78893,-1.16001 1.92892,-1.80723 2.62122,-2.12269 3.39467,-1.54685 0.47398,0.35289 0.62669,0.81363 0.42837,1.29243 -0.1389,0.33534 -1.8525,1.92514 -2.69194,2.49745 -0.38479,0.26236 -0.84585,0.26807 -1.30992,0.0162 z m 21.4808,-0.3464 c -1.14099,-0.76222 -1.14099,-2.363 0,-3.12523 0.90983,-0.60782 2.23237,-0.25163 2.72791,0.73467 0.84329,1.67845 -1.1626,3.43626 -2.72791,2.39056 z M 47.417488,136.01653 c -1.132343,-0.29257 -2.205521,-1.15553 -2.764489,-2.22297 -0.439083,-0.83851 -0.403055,-2.34771 0.07845,-3.28649 1.121988,-2.18752 4.213902,-4.72737 7.885212,-6.47732 2.321776,-1.10669 3.451084,-2.02515 4.13241,-3.36085 0.427792,-0.83867 2.277845,-5.24369 2.222544,-5.29194 -0.02587,-0.0226 -0.622,-0.20122 -1.324726,-0.39698 -2.762191,-0.7695 -4.991109,-1.79332 -5.762145,-2.64676 -0.587122,-0.64988 -1.286716,-2.11786 -1.461951,-3.06766 -0.319464,-1.73154 0.463675,-3.37787 1.974087,-4.14997 0.850148,-0.43459 1.919278,-0.45066 4.483397,-0.0674 1.880138,0.28101 4.809112,0.56883 4.896762,0.48118 0.02445,-0.0244 -0.183729,-0.3331 -0.462611,-0.68592 -1.827627,-2.31212 -1.883214,-5.393311 -0.144206,-7.993345 0.733042,-1.095986 1.637876,-1.939795 2.66555,-2.485766 3.47442,-1.845862 8.68511,-0.578072 10.333236,2.51413 0.883416,1.65745 1.048854,4.223431 0.378522,5.870911 -0.178704,0.4392 -0.307621,0.79855 -0.286483,0.79855 0.02114,0 0.658462,-0.20747 1.416271,-0.46105 2.351374,-0.78682 4.094823,-0.65073 5.276729,0.4119 0.860448,0.77362 1.20032,1.60392 1.140366,2.78589 -0.06698,1.3208 -0.521344,2.17162 -1.885507,3.53075 -1.272177,1.26748 -2.238085,1.92479 -4.564166,3.10592 l -1.678499,0.85231 -0.92275,2.01024 c -2.305091,5.02168 -2.818429,6.98877 -2.026852,7.76678 0.165813,0.16297 1.278908,0.79668 2.473544,1.40823 2.36672,1.21157 4.12399,2.21469 5.091904,2.90666 2.179719,1.55831 2.682222,5.1227 0.964372,6.84054 -0.813021,0.81303 -1.527366,1.09935 -2.734296,1.09594 -0.890596,-0.003 -1.268808,-0.087 -2.938675,-0.65675 -3.641833,-1.24253 -6.481262,-1.63419 -11.11586,-1.53332 -4.264658,0.0928 -5.96497,0.38616 -9.851551,1.69961 -2.061228,0.69657 -2.225026,0.73124 -3.628027,0.76778 -0.808135,0.021 -1.645388,-0.007 -1.860559,-0.0628 z m 4.352045,-3.3218 c 7.596255,-2.64326 15.687414,-2.71217 23.1761,-0.19737 1.198735,0.40254 1.825485,0.55231 2.078678,0.49669 1.120699,-0.24615 0.933185,-2.12877 -0.294978,-2.96165 -0.905251,-0.61389 -3.366316,-1.98632 -5.28345,-2.94635 -2.018679,-1.01088 -2.734685,-1.60835 -3.233689,-2.69831 -0.8537,-1.86474 -0.378945,-3.97573 2.149598,-9.55816 1.360555,-3.00378 1.550571,-3.2193 3.827667,-4.34139 3.187738,-1.57082 5.114187,-3.23881 5.114187,-4.42805 0,-0.817 -1.058279,-0.84677 -3.297697,-0.0928 -1.438921,0.48446 -3.922433,1.12777 -6.157172,1.59491 -4.838392,1.01141 -8.237588,1.0898 -13.351808,0.30795 -2.348325,-0.35901 -2.84463,-0.367 -3.076745,-0.0496 -0.397611,0.54377 -0.09038,1.90094 0.591432,2.61261 0.160845,0.1679 0.642105,0.46289 1.06946,0.65553 1.035261,0.46667 3.722995,1.32327 4.993371,1.5914 2.129152,0.44939 2.491485,0.64673 2.491485,1.35697 0,0.19103 -0.492991,1.48822 -1.095534,2.88264 -0.602545,1.39442 -1.352834,3.13355 -1.667313,3.86475 -0.314476,0.73119 -0.766287,1.62237 -1.004022,1.98041 -1.00267,1.51004 -2.622724,2.7401 -5.209949,3.95576 -2.116526,0.99451 -4.100504,2.40003 -5.491857,3.89064 -0.791104,0.84754 -1.061586,1.40978 -0.904681,1.88049 0.336237,1.00872 2.043612,1.0844 4.576917,0.20289 z m 16.43472,-28.45481 c 1.855744,-0.35202 2.938108,-1.0096 3.53237,-2.14604 0.30122,-0.57604 0.341973,-0.79906 0.341339,-1.86794 -6.26e-4,-1.009371 -0.0508,-1.316771 -0.298045,-1.825231 -0.387638,-0.797136 -1.228415,-1.431185 -2.349316,-1.771646 -1.271237,-0.386129 -3.187212,-0.298316 -4.144334,0.189929 -0.8969,0.457534 -1.647393,1.254658 -2.124988,2.257027 -0.513012,1.076711 -0.562996,2.438711 -0.120117,3.272981 0.602721,1.13538 1.372887,1.71287 2.608087,1.95562 0.858946,0.1688 1.395754,0.15521 2.555004,-0.0647 z m 79.793537,28.05065 c -3.76026,-0.58642 -6.58849,-2.50235 -8.0081,-5.4249 -0.27306,-0.56218 -0.5963,-1.45337 -0.71829,-1.98041 -0.12199,-0.52705 -0.23309,-0.97594 -0.24688,-0.99755 -0.0138,-0.0216 -0.33321,0.15658 -0.70982,0.39598 -0.78725,0.50041 -2.05829,1.02851 -3.13443,1.3023 -0.61139,0.15554 -3.10817,0.44382 -3.88097,0.44809 -0.15309,8.3e-4 -0.23086,0.26326 -0.34425,1.16155 -0.24387,1.9321 -1.0742,3.32885 -2.47801,4.16847 -0.939,0.5616 -1.97478,0.80396 -3.43593,0.80396 -1.89624,0 -3.10498,-0.43647 -4.27611,-1.54407 l -0.65711,-0.62147 -0.76668,0.74557 c -0.99577,0.96835 -1.83585,1.30136 -3.49577,1.38572 -1.72388,0.0876 -2.90664,-0.25696 -4.36411,-1.27139 -0.17278,-0.12026 -0.29399,-0.075 -0.66031,0.24665 -0.83319,0.73156 -1.73026,0.9825 -3.53607,0.98919 -1.84327,0.007 -2.58306,-0.18477 -3.54318,-0.91764 -0.38288,-0.29227 -0.64424,-0.41181 -0.741,-0.33893 -1.16848,0.87993 -2.05941,1.21171 -3.480166,1.296 -1.31892,0.0782 -2.429233,-0.13125 -3.385798,-0.63881 -0.677474,-0.35947 -1.42369,-1.03503 -1.711638,-1.54956 -0.09911,-0.1771 -0.235427,-0.0945 -0.882787,0.53506 -0.867701,0.84382 -1.79498,1.3319 -2.966518,1.56149 -0.952136,0.18659 -2.621859,0.10001 -3.540221,-0.18357 -1.539927,-0.47552 -2.813316,-1.63517 -3.404153,-3.10008 l -0.301132,-0.74663 -0.03976,-8.1133 c -0.02824,-5.7682 0.0026,-8.33489 0.10808,-8.87991 0.208445,-1.08077 0.720267,-2.05741 1.470707,-2.80638 1.128053,-1.12584 2.432211,-1.59768 4.422786,-1.60012 1.940666,-0.003 3.347417,0.54054 4.422437,1.70681 l 0.531363,0.57646 0.802858,-0.80221 c 0.946316,-0.94555 1.746913,-1.29861 3.41569,-1.50626 1.290804,-0.16061 4.014542,-0.0531 4.925512,0.19443 1.80844,0.4914 2.70321,1.42942 3.73719,3.91784 0.12566,0.30244 0.13777,0.30583 0.22773,0.0639 0.8389,-2.25625 2.1116,-3.53252 3.95672,-3.96784 0.9357,-0.22075 4.59911,-0.24895 5.58358,-0.043 0.98019,0.20507 2.07827,0.83103 2.73057,1.55656 l 0.56818,0.63194 0.5418,-0.49751 c 0.69364,-0.63692 1.26134,-0.97503 2.13892,-1.2739 0.63896,-0.21761 1.1491,-0.23932 5.62182,-0.23932 5.22108,0 5.86438,0.054 7.61453,0.63981 1.00881,0.33764 2.26266,1.03053 2.93825,1.62371 0.24414,0.21435 0.45989,0.36771 0.47945,0.34079 0.0196,-0.027 0.25043,-0.34798 0.51305,-0.71345 1.09411,-1.52263 2.62913,-2.2152 4.91756,-2.21875 2.52281,-0.004 4.31624,0.99621 5.28769,2.94874 l 0.45084,0.90614 0.39121,-0.83599 c 0.68299,-1.45952 2.02916,-2.51632 3.67523,-2.88521 0.89169,-0.19983 2.67369,-0.16498 3.56613,0.0697 0.94118,0.24754 1.7215,0.69428 2.52418,1.44509 l 0.61139,0.57188 0.43012,-0.49907 c 0.96245,-1.11675 2.54926,-1.72549 4.48373,-1.72008 2.59209,0.008 4.43297,1.03524 5.34585,2.98522 0.54372,1.16146 0.59538,1.75163 0.59538,6.80258 v 4.78502 l 1.69294,0.002 c 0.97542,8.5e-4 2.06,0.08 2.55905,0.18575 l 0.86612,0.18353 0.44005,-0.47323 c 0.24204,-0.26028 0.44161,-0.5253 0.4435,-0.58894 0.002,-0.0637 -0.14345,-0.30832 -0.32302,-0.54373 -1.29624,-1.69947 -1.76362,-4.56589 -1.14246,-7.00667 0.58238,-2.2884 2.21948,-4.2719 4.41039,-5.34364 2.74456,-1.34257 6.32739,-1.69578 9.87262,-0.97331 3.14755,0.64143 5.47094,2.20637 6.56638,4.42283 0.48418,0.97965 0.48753,0.99716 0.48453,2.52634 -0.003,1.73149 -0.18451,2.31841 -1.03623,3.35782 l -0.44957,0.54864 0.60307,0.79711 c 0.72864,0.9631 1.00137,1.54914 1.33251,2.86328 0.5681,2.25455 0.0596,5.1043 -1.25496,7.03413 -1.33595,1.96111 -3.22884,3.16998 -6.0869,3.88733 -1.513,0.37976 -5.19518,0.47512 -6.95877,0.18023 -1.8899,-0.31601 -3.44528,-0.87694 -4.50602,-1.62504 l -0.34452,-0.24298 -0.83044,0.56854 c -1.39433,0.95459 -1.74396,0.99403 -8.39003,0.94643 -5.63125,-0.0404 -5.68457,-0.0432 -6.44484,-0.34428 -0.42164,-0.16699 -1.04813,-0.50806 -1.3922,-0.75792 -0.63491,-0.46108 -1.51179,-1.65595 -1.66591,-2.27004 -0.0835,-0.33267 -0.0937,-0.32691 -0.7949,0.4479 -1.34533,1.48664 -3.00943,2.4463 -5.28098,3.04543 -1.04579,0.27584 -1.54489,0.32605 -3.57898,0.36003 -1.30005,0.0218 -2.70033,-0.013 -3.11175,-0.0771 z m 5.46768,-2.88606 c 2.54904,-0.48423 4.45954,-1.82688 5.41676,-3.80676 0.70599,-1.46026 0.72392,-1.66305 0.72392,-8.18695 v -6.00512 l -0.31942,-0.56928 c -0.63891,-1.13868 -2.01405,-1.67599 -3.62028,-1.41457 -0.96303,0.15674 -1.53823,0.52458 -1.97073,1.2603 l -0.35023,0.59578 -0.0639,5.87736 c -0.0683,6.29021 -0.0657,6.2652 -0.72627,6.86298 -0.93425,0.84549 -2.9375,0.80631 -3.81849,-0.0747 -0.64524,-0.64524 -0.69375,-1.14519 -0.69375,-7.15083 0,-5.34309 -0.003,-5.40245 -0.28747,-5.96518 -0.38909,-0.76927 -1.12196,-1.25837 -2.09072,-1.3953 -1.68806,-0.23861 -3.02339,0.2934 -3.61004,1.43825 l -0.31501,0.61474 0.0212,6.01025 c 0.0177,5.02081 0.0545,6.13958 0.22371,6.79583 0.92293,3.57964 4.47645,5.61057 9.38036,5.36112 0.59732,-0.0304 1.5425,-0.14195 2.10039,-0.24794 z m 35.20801,0.20854 c 2.51329,-0.211 4.21069,-0.83559 5.51804,-2.03043 2.36506,-2.16152 2.46254,-6.34321 0.19569,-8.39508 -0.86338,-0.78151 -1.96471,-1.28381 -4.99181,-2.27672 -1.35675,-0.44502 -2.60604,-0.88095 -2.77623,-0.96873 -1.28599,-0.66341 -1.3799,-1.78575 -0.1875,-2.24113 1.19435,-0.45612 2.58334,-0.0877 3.89696,1.03356 1.02882,0.87818 1.76357,1.20694 2.69736,1.20694 1.50214,0 2.30742,-0.71513 2.39744,-2.12907 0.0677,-1.06233 -0.20372,-1.78153 -0.95604,-2.53387 -0.75492,-0.75492 -1.88922,-1.37429 -3.30242,-1.80325 -1.06564,-0.32347 -1.31848,-0.34942 -3.44975,-0.35419 -2.62658,-0.006 -3.46032,0.1434 -5.04334,0.90293 -1.27244,0.61052 -2.41396,1.74905 -2.81306,2.80569 -0.89043,2.35752 -0.48925,4.68186 1.0792,6.25241 0.83029,0.83141 1.76922,1.28025 4.54125,2.17083 2.97533,0.95591 3.51693,1.17336 3.96501,1.59194 1.12205,1.04815 -0.40755,2.38589 -2.39641,2.09581 -0.87896,-0.12819 -1.41985,-0.44266 -2.5268,-1.46904 -1.09991,-1.01985 -1.78849,-1.39038 -2.59148,-1.39449 -1.55638,-0.008 -2.57595,1.10209 -2.57916,2.8081 -0.003,1.57964 0.97021,2.92325 2.72446,3.76153 1.38408,0.66139 2.2697,0.85399 4.9376,1.07383 0.10541,0.009 0.85285,-0.0397 1.66099,-0.10757 z m -61.84736,-0.61318 c 0.56063,-0.27908 0.75692,-0.46583 1.01331,-0.96403 0.29139,-0.56624 0.32277,-0.7932 0.37536,-2.71474 l 0.0573,-2.09683 1.67635,-0.006 c 0.92198,-0.003 2.0788,-0.0344 2.57071,-0.0695 4.58328,-0.32674 6.82707,-2.51291 6.83372,-6.65827 0.003,-2.08891 -0.44348,-3.36821 -1.62179,-4.64317 -1.27303,-1.37748 -2.90497,-1.9553 -6.17019,-2.18471 -2.24958,-0.15804 -6.98647,-0.0741 -7.68114,0.13623 -0.76846,0.23259 -1.30802,0.67552 -1.64596,1.35121 l -0.31943,0.63866 -0.0414,7.41057 c -0.0295,5.28667 8.5e-4,7.60512 0.10679,8.08939 0.16151,0.73995 0.67974,1.44036 1.30489,1.76364 0.99243,0.5132 2.4481,0.49154 3.54138,-0.0527 z m 1.4061,-10.7729 c -0.003,-0.0975 -0.006,-0.98227 -0.005,-1.96609 l 0.002,-1.78876 1.698,0.0131 c 1.9183,0.0149 2.59888,0.15658 3.04789,0.63453 0.27109,0.28855 0.3111,0.45136 0.3111,1.26571 0,1.57192 -0.47232,1.85811 -3.22616,1.95482 -1.49656,0.0526 -1.8219,0.0323 -1.82745,-0.11339 z m -37.802788,10.98435 c 0.667593,-0.20002 1.381443,-0.81845 1.664757,-1.44223 0.221664,-0.48804 0.23623,-1.00865 0.23623,-8.44176 0,-7.43182 -0.01459,-7.95325 -0.235871,-8.43273 -0.48891,-1.05931 -1.337532,-1.50023 -2.90322,-1.50842 -0.92396,-0.005 -1.111277,0.0368 -1.724873,0.38292 -0.541397,0.30543 -0.764135,0.53301 -1.043345,1.06594 l -0.354993,0.6776 0.03558,8.05982 0.03558,8.05982 0.293913,0.47269 c 0.303683,0.4884 0.919411,0.94154 1.528578,1.12497 0.523094,0.1575 1.914878,0.147 2.467684,-0.0186 z m 10.019898,-0.0964 c 0.62433,-0.28906 1.13055,-0.8265 1.32419,-1.40588 0.0987,-0.29534 0.14515,-2.07044 0.14515,-5.54728 0,-2.81213 0.0237,-5.08901 0.0527,-5.05974 0.029,0.0293 0.19931,0.6857 0.37842,1.4587 0.80636,3.48011 2.50248,9.70712 2.7278,10.01471 0.41333,0.56424 1.0063,0.7813 2.13503,0.78152 1.31406,2.6e-4 1.96674,-0.29147 2.36621,-1.05766 0.15464,-0.29659 0.8948,-3.01156 1.64481,-6.03329 l 1.36364,-5.49404 v 5.36627 c 0,5.33424 0.002,5.36952 0.29001,5.90915 0.1595,0.29858 0.52902,0.70105 0.82117,0.89438 0.48735,0.32252 0.63283,0.35151 1.76423,0.35151 1.15449,0 1.26306,-0.0229 1.70344,-0.35876 0.2587,-0.19732 0.59921,-0.59979 0.75667,-0.89438 0.2862,-0.53543 0.28631,-0.53826 0.32389,-8.25672 0.0252,-5.16794 -0.008,-7.93305 -0.0999,-8.36209 -0.17606,-0.82089 -0.66029,-1.45161 -1.34806,-1.75584 -0.4533,-0.20051 -0.88306,-0.24263 -2.58527,-0.25336 -1.77583,-0.0112 -2.11617,0.0201 -2.61437,0.2405 -0.70159,0.31034 -1.14531,0.87329 -1.48252,1.88083 -0.39671,1.18535 -2.54098,8.84914 -2.7169,9.71041 l -0.15658,0.76661 -0.2278,-1.10678 c -0.30209,-1.4678 -2.49398,-9.214 -2.81365,-9.9436 -0.29155,-0.6654 -0.65769,-1.08973 -1.19701,-1.38725 -0.3156,-0.17411 -0.77827,-0.21146 -2.61926,-0.21146 -2.065972,0 -2.276303,0.0216 -2.766886,0.28391 -0.645363,0.34512 -1.02191,0.80214 -1.197188,1.45307 -0.08594,0.31914 -0.11948,3.28489 -0.09626,8.51186 l 0.03567,8.02206 0.347927,0.59185 c 0.475889,0.80951 1.145794,1.13372 2.335208,1.13012 0.596521,-0.002 1.064579,-0.0815 1.405449,-0.23933 z m 76.15003,-0.25479 c 0.96725,-0.44641 1.34157,-1.08874 1.34157,-2.30211 0,-1.04661 -0.3974,-1.75779 -1.21854,-2.18071 -0.61448,-0.31647 -0.68833,-0.32333 -3.91572,-0.36399 l -3.28944,-0.0415 -0.0364,-6.34698 c -0.0353,-6.15185 -0.0446,-6.36269 -0.30337,-6.85805 -0.38349,-0.73429 -1.1104,-1.20215 -2.08086,-1.33932 -1.63772,-0.23149 -2.96089,0.27222 -3.5182,1.33932 -0.26253,0.50269 -0.26691,0.64405 -0.26691,8.62437 v 8.1133 l 0.27865,0.44719 c 0.28485,0.45712 0.82089,0.84254 1.42612,1.02538 0.18673,0.0564 2.75435,0.10624 5.7058,0.11075 4.95765,0.008 5.4052,-0.01 5.87736,-0.2277 z"
       id="path302"
       inkscape:label="text" /></g></svg>
