<?xml version="1.0" encoding="UTF-8" standalone="no"?>
<!-- Created with Inkscape (http://www.inkscape.org/) -->

<svg
   version="1.1"
   id="svg2"
   width="720"
   height="720"
   viewBox="0 0 720 720"
   sodipodi:docname="Krokodyl.svg"
   inkscape:version="1.2.1 (9c6d41e410, 2022-07-14)"
   xmlns:inkscape="http://www.inkscape.org/namespaces/inkscape"
   xmlns:sodipodi="http://sodipodi.sourceforge.net/DTD/sodipodi-0.dtd"
   xmlns="http://www.w3.org/2000/svg"
   xmlns:svg="http://www.w3.org/2000/svg">
  <defs
     id="defs6" />
  <sodipodi:namedview
     id="namedview4"
     pagecolor="#ffffff"
     bordercolor="#000000"
     borderopacity="0.25"
     inkscape:showpageshadow="2"
     inkscape:pageopacity="0.0"
     inkscape:pagecheckerboard="0"
     inkscape:deskcolor="#d1d1d1"
     showgrid="false"
     inkscape:zoom="1.6558084"
     inkscape:cx="375.64733"
     inkscape:cy="398.59685"
     inkscape:window-width="1920"
     inkscape:window-height="1001"
     inkscape:window-x="-9"
     inkscape:window-y="1341"
     inkscape:window-maximized="1"
     inkscape:current-layer="g8" />
  <g
     inkscape:groupmode="layer"
     inkscape:label="Image"
     id="g8">
    <path
       style="fill:#ffffff;stroke:#000000;stroke-width:0.25;stroke-opacity:0.975845"
       d="m 142.52857,410.07161 c 4.11838,1.12698 7.64659,-1.30139 11.47476,-1.81181 1.79591,-0.23945 3.62532,0.0787 5.43541,0 8.09527,-0.35197 16.03381,-0.86598 24.15738,-0.60393 10.29755,0.33218 20.47446,0.87567 30.80067,0.60393 6.86069,-0.0694 13.68015,-1.01205 20.53378,-1.20787 6.43934,-0.18398 12.88804,0.22993 19.3259,0 3.02445,-0.10801 6.03458,-0.49592 9.05902,-0.60393 4.62722,-0.16526 9.28577,0.48471 13.8905,0 1.8458,-0.1943 3.58862,-1.02319 5.43541,-1.20787 0.42276,-0.0423 11.91398,0.0384 12.68263,0 2.02063,-0.10103 4.01871,-0.5029 6.03934,-0.60394 11.04359,-0.55218 22.16604,0.40928 33.21641,0 9.86883,-0.36551 19.73067,-0.79694 29.59279,-1.20787 2.41365,-0.10056 4.83917,0.19265 7.24722,0 2.63941,-0.21115 5.21246,-0.98797 7.85115,-1.20786 5.92432,-0.4937 12.16552,0 18.11804,0 13.68918,0 27.37837,0 41.06755,0 9.8066,0 19.8011,-0.54399 29.5928,0 6.84346,0.38019 13.68906,0.86563 20.53378,1.20786 3.82014,0.19101 7.65572,-0.21216 11.47475,0 2.02004,0.11223 4.01931,0.49171 6.03935,0.60394 0.72048,0.04 9.88413,-0.045 10.26689,0 1.64868,0.19396 3.18157,1.02455 4.83147,1.20787 2.00081,0.22231 4.03069,-0.13391 6.03935,0 4.03735,0.26915 8.049,0.84153 12.07869,1.20787 8.51095,0.77372 16.88379,2.00189 25.36526,3.01967 4.02729,0.48328 13.72506,1.35018 17.5141,3.62361 0.97651,0.5859 1.5646,1.65917 2.41574,2.41574 3.29615,2.92991 6.76913,5.68289 9.66295,9.05902 5.47511,6.38762 1.91721,2.87581 6.03935,9.05902 0.71502,1.07253 1.78973,1.89286 2.41574,3.01967 1.15185,2.07333 0.33386,4.45827 1.20787,6.64328 4.10084,10.2521 6.64328,20.30764 6.64328,31.4046 0,2.4844 0.40933,5.39518 0,7.85115 -0.1467,0.88016 -1.72997,4.55868 -1.81181,4.83148 -1.23683,4.12279 0.19599,2.22615 -1.8118,6.64328 -0.48574,1.06862 -1.33506,1.947 -1.8118,3.01967 -0.33711,0.75849 -0.16402,1.71188 -0.60394,2.41574 -1.26341,2.02145 -3.94267,4.17342 -5.43541,6.03934 -0.12576,0.1572 0.18006,0.51391 0,0.60394 -0.7424,0.3712 -1.72511,0.14352 -2.41574,0.60393 -0.60393,0.40263 -0.69462,1.29856 -1.20787,1.81181 -1.02649,1.02649 -2.32518,1.76653 -3.6236,2.41574 -6.3971,3.19854 -10.26256,4.31351 -17.51411,4.83147 -2.008,0.14343 -4.04964,-0.30611 -6.03934,0 -1.64076,0.25243 -3.19073,0.95545 -4.83148,1.20787 -4.90777,0.75504 -10.1457,-0.45024 -15.09837,0 -4.03034,0.3664 -8.02569,0.91837 -12.07869,1.20787 -3.57297,0.25521 -7.28772,0 -10.87082,0 -7.85115,0 -15.7023,0 -23.55345,0 -5.03279,0 -10.06558,0 -15.09837,0 -2.81836,0 -5.6679,-0.41808 -8.45508,0 -2.46254,0.36938 -4.7876,1.42345 -7.24722,1.81181 -1.39193,0.21978 -2.82194,-0.1004 -4.22754,0 -1.41987,0.10141 -2.81836,0.40262 -4.22754,0.60393 -3.01968,0.20131 -6.0355,0.47248 -9.05902,0.60393 -15.62033,0.67915 2.97004,-0.74871 -7.85115,0.60394 -2.33857,0.29232 -4.95363,-0.50969 -7.24722,0 -6.78118,1.50693 0.30306,1.20787 -5.43541,1.20787 -13.29295,0 -26.61627,0.34202 -39.85968,-0.60394 -2.58258,-0.18447 -5.27523,0.28622 -7.85115,0 -1.04109,-0.11567 -7.90082,-0.51294 -9.05902,-1.20787 -0.386,-0.23159 -0.18599,-1.04068 -0.60394,-1.20786 -0.74765,-0.29907 -1.61858,0.11387 -2.41574,0 -2.60574,-0.37225 -5.18044,-1.54474 -7.85115,-1.81181 -3.92113,-0.39211 -8.14602,0 -12.07869,0 -8.68496,0 -16.90077,3.01766 -25.36525,4.83148 -2.58907,0.5548 -5.29272,0.52562 -7.85115,1.20787 -2.89166,0.77111 -5.73062,1.78128 -8.45509,3.01967 -1.06862,0.48574 -1.91651,1.41065 -3.01967,1.8118 -1.15081,0.41848 -2.41574,0.40263 -3.62361,0.60394 -1.40918,0.40262 -2.86679,0.66357 -4.22754,1.20787 -0.67393,0.26957 -1.11658,0.9993 -1.8118,1.20787 -3.51867,1.0556 -7.28472,1.01489 -10.87083,1.8118 -16.44488,3.65442 21.84631,-2.68952 -18.11804,3.01967 -2.42444,0.34635 -4.80661,1.00449 -7.24721,1.20787 -4.61417,0.38452 -9.26033,0 -13.8905,0 -8.07693,0 -16.10577,0.18017 -24.15738,0.60394 -2.02036,0.10633 -4.01899,0.4976 -6.03935,0.60393 -3.0155,0.15871 -6.04978,-0.25077 -9.05902,0 -1.2203,0.1017 -2.40219,0.51669 -3.62361,0.60394 -4.95759,0.35411 -10.12929,0 -15.09836,0 -10.90072,0 -21.75034,0.0749 -32.61247,-0.60394 -1.40644,-0.0879 -2.83252,0.19929 -4.22754,0 -2.46506,-0.35215 -4.88491,-1.02437 -7.24722,-1.8118 -0.27009,-0.09 -0.32476,-0.5481 -0.60393,-0.60394 -0.65364,-0.13072 -2.93219,0.4332 -3.62361,-0.60393 -0.22334,-0.335 0.2847,-0.92317 0,-1.20787 -0.45015,-0.45015 -1.26592,-0.2764 -1.8118,-0.60393 -2.52562,-1.51537 -0.0578,-0.82718 -1.81181,-3.01968 -0.45343,-0.56678 -1.34713,-0.65026 -1.8118,-1.20787 -0.57636,-0.69162 -0.7612,-1.63406 -1.20787,-2.41573 -0.17513,-1.5006 -1.75254,-1.91435 -2.41574,-3.01968 -1.62453,-2.70755 0.18311,-0.86896 -0.60393,-3.62361 -0.67929,-2.37749 -2.1323,-4.69626 -2.41574,-7.24721 -0.34883,-3.13944 0.51923,-6.54755 0,-9.66295 -0.074,-0.44403 -0.54028,-0.76225 -0.60394,-1.20787 -0.22776,-1.59431 0.44244,-3.28295 0,-4.83148 -0.24733,-0.86565 -0.92317,-1.56165 -1.20787,-2.41574 -0.77303,-2.31911 0,-7.68984 0,-10.26689 0,-6.24066 0,-12.48131 0,-18.72197 0,-2.84743 -0.14298,-5.08547 -0.60393,-7.85115 -0.63284,-3.79703 0,-8.20736 0,-12.07869 0,-1.68072 -0.32331,-3.81887 0,-5.43541 0.0558,-0.27917 0.5139,-0.33385 0.60393,-0.60394 0.68643,-2.05929 0.27729,-4.1212 1.81181,-6.03935 2.93367,-3.66709 -0.0409,1.57116 1.8118,-1.20786 0.7342,-1.1013 0.52739,-1.88554 1.20787,-3.01968 0.21456,-0.3576 2.30468,-2.57543 2.41574,-3.01967 0.14647,-0.5859 -0.31072,-1.29394 0,-1.8118 0.37344,-0.62241 1.29856,-0.69463 1.8118,-1.20787 0.70375,-0.70375 1.75328,-5.37689 1.81181,-5.43542 0.3183,-0.3183 0.88956,-0.28563 1.20787,-0.60393 2.35699,-2.357 -0.1398,-0.32434 0.60393,-1.8118 0.25464,-0.50929 1.02781,-0.6677 1.20787,-1.20787 0.19098,-0.57295 -0.42705,-1.38476 0,-1.81181 0.3183,-0.3183 1.20787,-0.15379 1.20787,-0.60393 0,-1.0841 -0.80525,-2.01312 -1.20787,-3.01967 z"
       id="path911" />
    <path
       id="path297"
       style="display:inline;fill:#000000"
       d="m 361.55078,137.24805 c -183.6688,-0.13832 -334.283166,0.0867 -334.693358,0.5 -0.410208,0.41331 -0.08749,7.27711 0.716797,15.25195 0.804272,7.97484 2.366176,23.72516 3.470703,35 1.104526,11.27484 2.674839,27.25016 3.490234,35.5 5.683319,57.50136 8.022901,81.62645 9.453125,97.5 0.619446,6.87484 1.312045,13.42942 1.541016,14.56641 0.287848,1.42918 3.69784,3.84069 11.048828,7.8125 5.847416,3.15926 10.908511,5.46844 11.246094,5.13086 0.337568,-0.33758 -1.332094,-21.85416 -3.710938,-47.8125 C 61.734454,274.73877 59.176665,246.74984 58.431641,238.5 57.686601,230.25016 56.349801,215.62484 55.460938,206 52.213595,170.83708 51.433263,160.90074 51.878906,160.45508 52.129169,160.20482 191.60212,160 361.8125,160 h 309.47852 l -0.61914,6.75 c -0.74538,8.13179 -3.15269,35.2052 -4.60157,51.75 -0.57797,6.59984 -1.74328,18.97516 -2.58789,27.5 C 662.17093,259.23724 654,348.52818 654,349.62109 c 0,1.07801 2.62865,-0.0949 10.65625,-4.75781 4.8642,-2.82538 9.41808,-5.66523 10.11914,-6.31055 1.18771,-1.09312 2.94015,-16.12302 7.70117,-66.05273 1.40618,-14.74649 3.08083,-32.03837 5.9961,-61.90234 0.81055,-8.30334 1.92873,-19.37282 2.48632,-24.59766 1.2653,-11.85651 4.21088,-42.64391 4.4004,-46 L 695.5,137.5 Z m 9.69922,57.94531 c -3.40815,-0.24659 -4.25,0.0177 -4.25,1.3418 0,0.90812 0.9,1.88812 2,2.17578 1.71535,0.44858 2,1.3636 2,6.43164 v 5.9082 l -2.95117,-1.52539 c -3.9765,-2.05633 -8.89642,-1.91669 -12.62891,0.35938 C 352.1797,211.86059 349,217.33363 349,220.93359 c 0,3.92342 2.84789,9.00362 6.18945,11.04102 3.63087,2.21367 8.20837,2.58493 12.36719,1.00391 1.59894,-0.60791 3.14293,-0.65803 3.81445,-0.125 1.94193,1.54128 8.0662,0.8316 8.41407,-0.97461 0.18293,-0.94986 -0.52695,-1.84022 -1.71289,-2.15039 -1.91652,-0.50118 -2.0368,-1.42236 -2.29688,-17.37891 L 375.5,195.5 Z m -52.82031,0.8418 c -1.56833,0.23312 -3.75809,2.20578 -5.36914,5.07226 -2.03803,3.62618 -2.09928,4.04545 -0.53711,3.73828 2.01302,-0.39581 8.12436,-7.52993 7.22265,-8.43164 -0.33991,-0.33991 -0.79363,-0.45661 -1.3164,-0.3789 z M 403.57031,198 C 400.77575,198 400,198.39877 400,199.83398 c 0,1.00834 0.32097,2.15302 0.71289,2.54493 0.39191,0.39197 1.85441,0.58056 3.25,0.41797 1.75541,-0.20471 2.63635,-0.99031 2.85742,-2.54688 0.28018,-1.97279 -0.12023,-2.25 -3.25,-2.25 z m -122.19922,10.08594 c -1.04261,-0.0951 -2.54073,0.35642 -4.36718,1.36718 -1.6734,0.92613 -2.88967,1.05702 -3.68555,0.39649 -1.53184,-1.27131 -7.55309,-0.69163 -8.0332,0.77344 -0.20235,0.61747 0.55149,1.36271 1.67382,1.65625 C 268.80386,212.76174 269,213.59924 269,221 c 0,7.34608 -0.20544,8.24165 -2,8.71094 -2.22304,0.58134 -2.69092,2.84377 -0.75,3.62695 2.4978,1.00788 10.64787,0.63488 11.36133,-0.51953 0.42613,-0.68949 -0.17378,-1.77957 -1.44141,-2.62109 C 274.34885,228.98812 274,227.80146 274,222.83203 c 0,-4.95563 0.40152,-6.32339 2.45508,-8.37695 1.35,-1.35 3.375,-2.45508 4.5,-2.45508 1.37878,0 2.04492,-0.65185 2.04492,-2 0,-1.17757 -0.58629,-1.81894 -1.62891,-1.91406 z m 30.31641,0.0449 c -6.1892,0.56542 -11.6875,6.021 -11.6875,13.15627 0,3.98352 3.47414,9.63466 7.0293,11.43359 3.29911,1.66945 7.84682,1.59194 11.26562,-0.1914 2.45091,-1.27856 2.86478,-1.28004 3.35742,0.006 0.36016,0.93855 1.95951,1.46484 4.45508,1.46484 3.22634,0 3.89258,-0.34249 3.89258,-2 0,-1.1 -0.43419,-2 -0.96484,-2 -0.53065,0 -1.46321,-0.93033 -2.07227,-2.06836 C 325.41036,225.0286 326.74339,213 328.61719,213 329.37811,213 330,212.1 330,211 c 0,-1.66167 -0.6671,-2 -3.94141,-2 -2.16738,0 -4.19545,0.41257 -4.50781,0.91797 -0.32139,0.52004 -1.89321,0.25847 -3.62109,-0.60352 -2.03882,-1.01709 -4.17907,-1.37196 -6.24219,-1.18359 z m 129.74023,0.002 c -3.60674,0.0767 -6.12107,1.36131 -9.08593,4.32617 -2.80965,2.80965 -3.3418,4.06576 -3.3418,7.89454 0,6.07405 1.458,8.93818 5.8457,11.48242 4.24812,2.46322 8.86136,2.73071 13.51758,0.78515 11.7539,-4.911 9.66327,-22.29461 -2.9082,-24.17968 -1.50229,-0.22529 -2.82505,-0.33418 -4.02735,-0.3086 z M 402.5,209 c -3.45083,0 -4.5,0.37168 -4.5,1.59375 0,0.87649 0.9,1.82953 2,2.11719 1.79936,0.47055 2,1.36405 2,8.90625 0,7.71654 -0.15905,8.38281 -2,8.38281 -1.85813,0 -2.72462,1.94335 -1.43945,3.22852 0.30856,0.30856 3.11512,0.49541 6.23633,0.41601 4.36179,-0.11095 5.74811,-0.51989 5.98828,-1.76562 0.18411,-0.95496 -0.52934,-1.84061 -1.73633,-2.15625 C 407.15494,229.2274 407,228.42574 407,219.09375 V 209 Z m 39.51953,3 c 3.58143,0 7.9811,3.22753 8.83985,6.48438 1.08624,4.12012 0.41287,6.10794 -3.05665,9.02734 -1.62618,1.36848 -3.70859,2.46068 -4.6289,2.42578 C 438.13964,229.7468 434,225.57911 434,220.70117 434,217.25464 438.84293,212 442.01953,212 Z m -79.74805,0.125 c 1.79291,-0.0545 3.63641,0.76869 5.65235,2.46484 2.4127,2.03015 3.07239,3.37922 3.06055,6.25 -0.0175,4.17744 -0.51229,5.11154 -3.95704,7.46875 -2.93894,2.01135 -4.70495,2.0757 -7.91796,0.29493 -5.51226,-3.05521 -6.51704,-9.34837 -2.18555,-13.67969 1.81262,-1.81262 3.5549,-2.74436 5.34765,-2.79883 z m -50.51367,0.21289 c 0.92233,-0.16442 1.92166,-0.13681 2.98438,0.12695 7.57584,1.88039 9.88846,10.14321 4.18164,14.94532 -3.67318,3.09061 -5.39436,3.2093 -9.57813,0.6582 -6.6706,-4.06756 -4.044,-14.57952 2.41211,-15.73047 z m 246.87305,29.88867 c -0.84896,-0.11045 -2.13827,-0.0198 -3.86328,0.20899 -2.87753,0.38172 -5.28065,0.77726 -5.33985,0.8789 -3.01682,5.1833 -6.26588,12.13645 -5.92773,12.6836 1.22669,1.98466 5.65058,-0.3262 10.79102,-5.63867 5.47444,-5.65798 6.88671,-7.80147 4.33984,-8.13282 z m -308.05078,17.37696 c -1.33636,0.0722 -2.67835,0.22742 -4.01758,0.46875 -15.50944,2.7945 -24.75836,13.21622 -24.72266,27.85742 0.0307,12.58915 6.50662,21.91396 18.61328,26.80078 1.86076,0.75107 6.75756,1.12921 12.57813,0.97265 8.26984,-0.22226 10.13759,-0.6114 14.11328,-2.9414 16.37776,-9.59803 19.67635,-28.99638 7.4043,-43.53125 -4.75632,-5.6334 -12.09453,-9.05393 -19.98633,-9.59766 -1.31532,-0.0906 -2.64606,-0.10135 -3.98242,-0.0293 z m 150.26562,0.041 c -6.61413,-0.0106 -8.54315,0.4256 -14.19336,3.20703 C 375.93838,268.12628 371,276.01045 371,287.8457 c 0,7.41382 1.59866,12.44906 5.62695,17.73047 2.70512,3.54659 9.33927,8.26921 13.30664,9.47266 5.24326,1.59041 19.33246,1.01395 23.70313,-0.97071 15.06926,-6.84273 21.36024,-23.12795 14.51953,-37.58789 -5.26664,-11.13253 -14.49728,-16.8252 -27.31055,-16.8457 z M 111,260.9375 v 4.83008 c 0,2.65746 0.42941,5.26339 0.95508,5.78906 C 112.94063,272.54219 103.69856,284 101.91797,284 101.41353,284 101,281.33206 101,278.07031 c 0,-5.38859 0.20552,-5.95964 2.25,-6.25 1.96215,-0.27867 2.28822,-0.99486 2.55273,-5.59961 l 0.30469,-5.28125 L 93.30273,261.2207 80.5,261.5 v 4.98047 c 0,4.6413 0.170493,4.9824 2.5,5 l 2.5,0.0195 0.275391,16.18164 0.273437,16.18164 -2.773437,0.31836 c -2.594074,0.29806 -2.795528,0.6596 -3.078125,5.56836 L 79.894531,315 H 92.94727 106 v -5.5 c 0,-5.19984 -0.13636,-5.5 -2.5,-5.5 -2.38889,0 -2.5,-0.26683 -2.5,-6 0,-3.3 0.37304,-6 0.83008,-6 0.45703,0 3.21943,2.50184 6.13867,5.56055 3.96948,4.15897 5.02151,5.84958 4.16992,6.70117 -0.62629,0.62629 -1.13867,3.2975 -1.13867,5.9375 V 315 h 13 13 v -5.5 c 0,-5.38334 -0.0604,-5.5 -2.85742,-5.5 -2.30056,0 -4.24982,-1.54175 -10,-7.91016 C 120.21421,291.7394 117,287.68272 117,287.07422 c 0,-1.6466 12.06544,-14.0451 15.30469,-15.72656 2.492,-1.29352 2.77081,-1.92493 2.5,-5.65235 L 134.5,261.5 122.75,261.21875 Z m 435,0 -12.25,0.28125 -12.25,0.28125 -0.32812,2.87109 c -0.49364,4.31951 0.65897,7.90839 2.33398,7.26563 0.94288,-0.36182 3.41042,2.21998 7.31641,7.6582 C 540.38414,292.60814 542,295.58999 542,299.91406 c 0,3.56947 -0.26709,3.98384 -2.75,4.26953 -2.56493,0.29513 -2.77081,0.66972 -3.05273,5.56641 L 535.89453,315 H 549.5 563.10547 l -0.30274,-5.25 c -0.28192,-4.89669 -0.4878,-5.27128 -3.05273,-5.56641 -2.52599,-0.29065 -2.75,-0.66762 -2.75,-4.6289 0,-3.72407 1.04009,-5.84392 7.61328,-15.52539 5.55036,-8.17473 8.40694,-11.48967 10.54883,-12.23633 2.74983,-0.9586 2.91957,-1.31995 2.63867,-5.6582 L 577.5,261.5 h -12 -12 l -0.31836,4.46289 c -0.23337,3.27636 0.12592,4.78829 1.34766,5.68164 1.52304,1.11368 1.42104,1.64775 -1.1836,6.28516 -1.56561,2.78732 -3.2957,5.06836 -3.8457,5.06836 -0.55,0 -2.30394,-2.32073 -3.89648,-5.15625 -2.63391,-4.68946 -2.74697,-5.26477 -1.25,-6.35938 1.1209,-0.81974 1.64648,-2.69184 1.64648,-5.87304 z m -248,0.002 v 5.03125 c 0,4.67544 0.51961,5.52793 3.1543,5.17969 2.30274,-0.30437 2.88296,3.55433 2.62304,17.44141 L 303.5,303.41211 301,303.99609 c -2.22055,0.51921 -2.53332,1.17044 -2.80273,5.82422 l -0.30469,5.24024 12.80469,-0.28125 L 323.5,314.5 v -5 c 0,-4.42274 -0.25927,-5.0359 -2.24805,-5.31836 -1.35307,-0.19218 -2.47653,-1.22599 -2.82031,-2.5957 -0.83029,-3.30814 -0.10045,-10.10769 1.06836,-9.95508 0.55,0.0718 3.21814,2.67 5.92773,5.77344 3.7781,4.32679 4.65242,5.91594 3.75,6.81836 C 328.53064,304.86991 328,307.55922 328,310.19922 V 315 h 13.5 13.5 v -5.03125 c 0,-3.15306 -0.46665,-5.17469 -1.25,-5.41602 -0.6875,-0.2118 -2.375,-0.67635 -3.75,-1.03125 -2.5085,-0.6473 -15.5,-14.19702 -15.5,-16.16601 0,-1.75081 12.83943,-15.04925 15.25,-15.79492 1.93517,-0.59861 2.25,-1.38649 2.25,-5.62891 V 261 h -12 -12 v 5 c 0,2.75 0.45,5 1,5 2.05905,0 0.85857,2.37351 -3.75,7.41602 -2.6125,2.85833 -5.1992,5.39699 -5.74805,5.64062 -1.27129,0.5643 -1.72974,-8.82634 -0.53515,-10.96094 0.48632,-0.86901 1.70546,-1.58389 2.70898,-1.58789 1.52182,-0.006 1.82422,-0.83748 1.82422,-5.00781 v -5 l -12.75,-0.2793 z m 322,0.002 -13.25,0.27929 -13.25,0.2793 -0.32812,2.87109 c -0.55842,4.88634 0.59918,7.62891 3.2207,7.62891 2.34568,0 2.35676,0.0584 2.82422,14.75 0.25817,8.11234 0.26768,15.3125 0.0195,16 -0.2477,0.6875 -1.51854,1.25 -2.82422,1.25 -2.64168,0 -3.80035,2.7277 -3.24023,7.62891 l 0.32815,2.871 23,0.5 c 12.64984,0.27498 23.3375,0.36137 23.75,0.19141 0.4125,-0.16996 0.75,-5.03217 0.75,-10.80469 v -10.4961 l -4.70508,0.30469 c -4.66538,0.3022 -4.71817,0.34501 -6.17578,5.05469 l -1.4707,4.75 H 621.32422 614 V 288.125 272.25 l 3,-0.59961 c 2.85846,-0.57169 3,-0.83871 3,-5.6543 z M 152.89453,261 l 0.30274,5.25 c 0.24058,4.17863 0.63322,5.19582 1.91992,4.98633 3.38728,-0.55152 3.94556,2.10404 3.66015,17.39844 L 158.5,303.5 l -2.75,0.31641 c -2.62377,0.3019 -2.75,0.56584 -2.75,5.75 V 315 h 12.5 12.5 v -5.5 c 0,-4.83333 -0.24242,-5.5 -2,-5.5 -1.77778,0 -2,-0.66683 -2,-6 v -6 h 3.54492 c 2.43098,0 4.31702,0.77209 6,2.45508 2.24089,2.24088 2.45508,3.23417 2.45508,11.41601 0,4.94111 0.43781,9.11115 0.97656,9.29493 0.53744,0.18335 5.06102,0.1891 10.05078,0.0117 l 9.07227,-0.32226 -0.30078,-5.17774 c -0.25545,-4.41241 -0.61437,-5.22272 -2.43555,-5.48242 -1.88274,-0.26849 -2.18748,-1.08269 -2.55469,-6.84961 -0.27248,-4.2791 -0.91782,-6.84851 -1.86328,-7.41797 -3.96815,-2.39 -4.51273,-3.05397 -3.00195,-3.65234 8.35632,-3.30972 9.07984,-17.68085 1.1582,-22.99609 C 193.84124,261.09172 192.87968,261 173.30078,261 Z M 447,261 v 4.78125 c 0,4.42407 0.22989,4.86653 3.08789,5.94531 l 3.08984,1.16602 -0.33984,15.25976 -0.33789,15.25977 -2.5,0.58398 c -2.12246,0.49598 -2.54669,1.23673 -2.8125,4.90821 -0.1722,2.37835 -0.11756,4.83636 0.12109,5.46093 0.66681,1.74512 40.38265,0.58922 43.69141,-1.27148 5.51414,-3.101 8.815,-6.33329 11.57812,-11.33984 2.58092,-4.67629 2.8937,-6.18917 2.8418,-13.75391 -0.0659,-9.60885 -1.8302,-14.1899 -7.58203,-19.69336 -6.77713,-6.48431 -10.14137,-7.26066 -31.58789,-7.28516 z m 24.60156,10.21094 c 1.23482,0.006 2.89376,0.37196 5.11914,0.83398 7.11039,1.47611 11.87218,6.05975 12.8125,12.33008 1.21144,8.07827 -1.72455,15.12186 -7.5625,18.14062 C 480.39138,303.33232 476.60114,304 473.54883,304 H 468 v -15.89258 c 0,-13.68277 -0.10275,-16.91511 3.60156,-16.89648 z M 174.5,271.5 l 4.4375,0.26367 c 2.44029,0.14527 5.25279,1.00378 6.25,1.90625 2.47229,2.23738 2.27914,5.88978 -0.41016,7.77344 C 183.55497,282.29954 180.60843,283 178.22852,283 h -4.32813 l 0.29883,-5.75 z m 75.76562,1.65234 c 4.81234,-0.60233 9.33714,1.39866 13.11524,5.88868 C 265.55277,281.62203 266,283.15173 266,288 c 0,4.84827 -0.44723,6.37797 -2.61914,8.95898 -1.44051,1.71196 -3.89399,3.77093 -5.45117,4.57618 -6.85728,3.54588 -15.8554,0.14838 -19.11328,-7.2168 -3.56456,-8.05811 -0.86353,-16.17031 6.55664,-19.69141 1.65074,-0.78333 3.28861,-1.27383 4.89257,-1.47461 z m 151.30469,0.10938 C 410.22469,273.89846 415,279.13943 415,288 c 0,6.43947 -2.26804,10.55813 -7.21094,13.0957 -7.55183,3.87726 -16.48352,0.99091 -19.84375,-6.41015 -2.39657,-5.27862 -2.39444,-8.10129 0.0176,-13.41407 2.66699,-5.87494 7.10636,-8.48807 13.60742,-8.00976 z" />
    <path
       id="path427"
       style="display:inline;fill:#009366;fill-opacity:1"
       d="m 49.267578,313.80469 c -0.32628,-9e-4 -0.677593,-0.0589 -0.974609,0.0762 -0.208768,0.0949 0.459591,0.0939 0.685547,0.0547 0.183445,-0.0318 0.359809,-0.0943 0.544922,-0.12305 -0.03214,-7.2e-4 -0.242388,-0.008 -0.25586,-0.008 z M 261.8457,348.57617 c -1.28798,-0.20973 -2.55931,0.58865 -5.81445,3.11914 -2.69208,2.09288 -9.0882,6.69951 -14.21289,10.23828 -5.12481,3.53889 -14.64846,10.2559 -21.16211,14.92579 -11.37232,8.15305 -11.93949,8.43135 -14.26953,7.01757 -2.52513,-1.53216 -11.80155,-8.56341 -33.15039,-25.12695 -6.91162,-5.36238 -13.1898,-9.75 -13.94922,-9.75 -1.17071,0 -9.07869,6.7363 -37.86328,32.25 -2.32691,2.0625 -4.65964,3.75 -5.1836,3.75 -0.52396,0 -7.42918,-3.52279 -15.3457,-7.82812 C 56.365413,352.95477 48.972627,349 48.234375,349 c -0.446258,0 -0.488161,3.2625 -0.0918,7.25 0.396409,3.9875 1.219082,13.10012 1.828125,20.25 0.609056,7.14988 1.565824,16.51609 2.125,20.8125 0.559187,4.29641 1.65346,14.87153 2.431641,23.5 1.864436,20.67287 4.337056,45.9316 4.863281,49.6875 0.231181,1.65 0.712873,7.05 1.070313,12 0.357429,4.95 1.081398,12.15 1.609374,16 0.527988,3.85 1.614943,14.42512 2.416016,23.5 0.801073,9.07488 2.146338,23.25012 2.990234,31.5 2.418132,23.63954 4.417967,42.97732 4.472657,43.25 0.0918,0.45771 3.469462,0.24395 12.050781,-0.76172 17.736293,-2.07859 44.845463,-5.14452 53.500003,-6.05078 4.95,-0.51833 16.65012,-1.85001 26,-2.95898 32.56488,-3.86285 42.11688,-4.96585 60.5,-6.98633 10.17488,-1.11831 22.55,-2.52298 27.5,-3.1211 11.58403,-1.39961 14.04611,-1.67417 25.5,-2.8457 20.16016,-2.06205 46.56765,-5.07469 48,-5.47656 0.825,-0.23146 4.875,-0.72153 9,-1.08789 7.80349,-0.69308 13.68986,-1.33196 35.5,-3.85352 34.43679,-3.98124 50.4884,-5.79601 67.5,-7.63086 10.17488,-1.09745 23.90012,-2.65043 30.5,-3.45312 6.59988,-0.80269 18.52512,-2.16426 26.5,-3.02344 7.97488,-0.85918 19.90012,-2.20926 26.5,-3.00195 23.95429,-2.87703 53.19977,-6.1621 76,-8.53711 4.95,-0.51562 14.40012,-1.60087 21,-2.41211 6.59988,-0.81123 18.12596,-2.21395 25.61328,-3.11524 l 13.61328,-1.63867 0.67774,-7.14648 c 4.43511,-46.7913 9.5014,-98.88808 11.53711,-118.64844 4.39076,-42.62158 5.53754,-56 4.80078,-56 -0.28406,0 -7.53514,4.61262 -16.11328,10.25 -30.34596,19.94289 -39.49686,25.75 -40.57422,25.75 -0.59931,0 -11.09439,-7.93762 -23.32227,-17.63867 -12.22789,-9.70106 -22.76261,-18.05439 -23.41015,-18.5625 -0.79619,-0.62463 -7.43562,3.06283 -20.5,11.38281 C 539.19505,366.94946 530.05,372.84167 529.5,373.27734 526.49701,375.65614 510.88105,385 509.9082,385 c -0.62949,0 -2.6052,-1.2375 -4.39062,-2.75 -1.78542,-1.5125 -4.70722,-3.875 -6.49219,-5.25 -1.78497,-1.375 -4.92798,-3.85 -6.98633,-5.5 -2.05835,-1.65 -5.47726,-4.35 -7.59765,-6 -2.12051,-1.65 -7.4752,-5.94306 -11.89844,-9.54102 -4.42336,-3.59784 -8.5546,-6.8568 -9.17969,-7.24023 -0.63867,-0.39176 -7.20962,3.64079 -15,9.20508 -27.19265,19.42211 -31.59743,22.6047 -34.35742,24.82617 -1.53749,1.2375 -3.31507,2.25 -3.95117,2.25 -0.6361,0 -4.62109,-2.60655 -8.85547,-5.79297 C 385.93659,367.72208 367.44353,353.60538 364.67383,351.32617 363.11914,350.0468 361.15131,349 360.30078,349 c -0.85052,0 -6.96825,4.38762 -13.59375,9.75 -6.6255,5.36238 -15.68292,12.66781 -20.12695,16.23438 -4.44415,3.56645 -8.95332,7.27907 -10.01953,8.25 -2.00755,1.82803 -5.14392,2.35999 -5.72657,0.9707 -0.18333,-0.43714 -10.2341,-7.96059 -22.33398,-16.71875 -12.09988,-8.75816 -22.225,-16.20745 -22.5,-16.55469 -0.275,-0.34724 -1.529,-1.17517 -2.78711,-1.83789 -0.50708,-0.26711 -0.93786,-0.44767 -1.36719,-0.51758 z m 207.52344,71.63672 c 2.21125,0.18344 4.1306,0.59793 6.375,1.29297 14.09465,4.36485 23.74276,11.8591 29.59961,22.99414 3.05481,5.80763 3.15644,6.40065 3.14844,18.5 -0.007,11.34539 -0.24765,13.01131 -2.59571,18.02539 -3.0102,6.42833 -10.47908,14.47976 -16.90039,18.2207 -2.4732,1.44096 -8.0675,3.55068 -12.43359,4.6875 -19.64121,5.11416 -37.52324,-0.57594 -49.64062,-15.79492 -10.84208,-13.61699 -10.65846,-37.34636 0.39257,-50.63867 9.51331,-11.44272 18.90286,-16.20184 33.92969,-17.19727 3.41059,-0.22593 5.91375,-0.27372 8.125,-0.0898 z M 223.75,421.95117 c 2.2312,0.0477 2.25,0.17431 2.25,15.04883 v 15 h -7.8418 -7.84375 l -2.44922,-6.25 -2.44921,-6.25 H 194.45898 183.5 v 5.5 5.5 l 6.97266,0.30078 c 4.01799,0.17332 7.29504,0.80889 7.73437,1.5 0.41928,0.65958 0.76935,4.892 0.77735,9.40625 l 0.0156,8.20899 -7.75,0.29101 -7.75,0.29297 -0.29297,7.75 L 182.916,486 H 188.45703 194 v 9 9 h -21.53906 -21.53906 l 0.28906,-8.75 0.28906,-8.75 3.74609,-0.31055 c 2.89337,-0.23954 3.87241,-0.81272 4.30079,-2.51953 0.30494,-1.21539 0.41927,-11.65053 0.2539,-23.18945 L 159.5,439.5 l -3,-0.1582 c -1.65,-0.087 -3.5625,-0.1995 -4.25,-0.25 -1.77807,-0.13071 -1.77807,-17.0928 0,-17.0918 0.6875,4e-4 16.55024,-0.02 35.25,-0.0469 18.69976,-0.0268 35.0125,-0.0285 36.25,-0.002 z m 5.25,0.008 20.70117,0.27149 20.69922,0.26953 2.21289,6 c 2.81743,7.63972 8.987,22.43428 9.61914,23.06641 0.2652,0.2652 1.482,-2.34242 2.70313,-5.79297 1.22114,-3.45067 2.81301,-7.62344 3.53906,-9.27344 0.72605,-1.65 2.12371,-5.5875 3.10547,-8.75 l 1.78515,-5.75 h 20.85743 20.85742 l -0.28906,8.25 -0.29102,8.25 -3.49219,0.33203 c -1.9202,0.18225 -3.82548,0.85725 -4.23437,1.5 -0.40888,0.64276 -0.74982,11.18059 -0.75782,23.41797 L 326,486 h 4.53906 4.53906 l -0.28906,8.75 -0.28906,8.75 -19.75,0.27148 -19.75,0.27149 -0.125,-7.02149 c -0.0688,-3.86151 -0.196,-7.58398 -0.2832,-8.27148 -0.23832,-1.88005 1.4946,-2.71738 5.6582,-2.73438 L 304,486 v -18 c 0,-16.71415 -0.79348,-21.66571 -2.52344,-15.75 -0.75487,2.5814 -5.05246,13.80474 -6.98828,18.25 -0.71854,1.65 -2.44278,5.925 -3.83203,9.5 l -2.52539,6.5 -5.9082,0.29297 -5.90821,0.29492 -4.09765,-10.29492 C 269.96235,471.13147 266.7085,462.7875 264.98633,458.25 263.26416,453.7125 261.66276,450 261.42773,450 261.19271,450 261,458.07511 261,467.94336 v 17.94141 l 4.25,0.30859 4.25,0.30664 0.28906,8.75 0.28906,8.75 h -19.87304 c -10.92963,0 -20.17242,-0.29935 -20.53906,-0.66602 -0.83351,-0.83336 -0.88081,-13.60931 -0.0586,-15.75195 C 230.01776,486.5127 231.48077,486 234.125,486 h 3.91211 L 237.76758,462.75 237.5,439.5 234.45508,439.4355 C 229.45172,439.32968 229,438.54146 229,429.91992 Z m 311.77539,0.40625 c 5.41733,-0.0682 10.85978,0.69291 14.38672,2.3086 15.14939,6.93992 18.68428,26.24192 6.3418,34.6289 l -3.48829,2.3711 3.66407,2.41406 c 5.83588,3.84281 7.67337,7.09509 8.13867,14.40234 0.6465,10.15302 -0.25415,12.90259 -6.15039,18.78907 -4.39604,4.38855 -6.28727,5.49968 -11.86328,6.9707 -11.10503,2.92962 -20.16692,2.07241 -28.26563,-2.67383 -5.94185,-3.4821 -10.10705,-9.28396 -11.66601,-16.25 -1.79876,-8.03758 -1.24807,-8.5 10.10547,-8.5 8.99734,0 9.50943,0.11453 10.36328,2.33594 2.5722,6.6921 2.7406,6.83789 7.96679,6.83789 5.73471,0 7.61026,-1.65237 7.66016,-6.75 0.0433,-4.4256 -2.79187,-6.96672 -8.64648,-7.75195 -7.71391,-1.03458 -7.44253,-0.70259 -7.11719,-8.68555 l 0.29492,-7.2168 6.3457,-1.14453 c 6.85328,-1.23606 8.12305,-2.32288 8.12305,-6.95117 0,-4.21146 -1.08982,-5.48389 -5.28125,-6.16406 -4.67333,-0.75838 -8.33764,1.53218 -9.47461,5.91992 L 531.37305,450.5 H 522.43555 513.5 l -0.30859,-3.17773 c -0.80672,-8.32411 5.10133,-18.1886 13.34765,-22.28711 3.42685,-1.70321 8.81911,-2.60174 14.23633,-2.66993 z M 378.25,424 H 393 407 v 31.5 31.5 h 3.98047 c 4.71445,0 5.30195,1.28043 4.82617,10.54102 L 415.5,503.5 l -18.5625,0.27148 c -10.20896,0.14926 -18.87158,-0.0376 -19.25,-0.41601 C 377.30908,502.97704 377,499.37253 377,495.3457 v -7.32226 l 4,-0.63867 4,-0.64063 v -23.3125 -23.31055 L 381.25,439.81055 377.5,439.5 v -7.75 c 0,-4.2625 0.3375,-7.75 0.75,-7.75 z m 85.12695,17.25977 c -1.48018,0.0448 -2.89661,0.41669 -5.07617,1.14062 -9.52381,3.16334 -14.64322,10.65443 -14.52344,21.25195 0.11084,9.80777 5.26341,17.0318 14.14063,19.82813 11.4798,3.61614 23.5268,-3.17233 26.10937,-14.71289 2.86795,-12.81521 -3.42003,-23.86403 -15.18945,-26.6875 -2.43562,-0.5843 -3.98075,-0.8651 -5.46094,-0.82031 z" />
  </g>
</svg>
