<?xml version="1.0" encoding="UTF-8" standalone="no"?>
<!-- Created with Inkscape (http://www.inkscape.org/) -->

<svg
   version="1.1"
   id="svg2"
   width="225"
   height="225"
   viewBox="0 0 225 225"
   sodipodi:docname="RadioHey.svg"
   inkscape:version="1.2.1 (9c6d41e410, 2022-07-14)"
   xmlns:inkscape="http://www.inkscape.org/namespaces/inkscape"
   xmlns:sodipodi="http://sodipodi.sourceforge.net/DTD/sodipodi-0.dtd"
   xmlns="http://www.w3.org/2000/svg"
   xmlns:svg="http://www.w3.org/2000/svg">
  <defs
     id="defs6" />
  <sodipodi:namedview
     id="namedview4"
     pagecolor="#ffffff"
     bordercolor="#000000"
     borderopacity="0.25"
     inkscape:showpageshadow="2"
     inkscape:pageopacity="0.0"
     inkscape:pagecheckerboard="0"
     inkscape:deskcolor="#d1d1d1"
     showgrid="false"
     inkscape:zoom="3.7466667"
     inkscape:cx="59.519573"
     inkscape:cy="111.29893"
     inkscape:window-width="1920"
     inkscape:window-height="1001"
     inkscape:window-x="-9"
     inkscape:window-y="1341"
     inkscape:window-maximized="1"
     inkscape:current-layer="g8" />
  <g
     inkscape:groupmode="layer"
     inkscape:label="Image"
     id="g8">
    <path
       style="display:none;fill:#000000"
       d="m 101.5,206.95793 c -26.454644,-4.11079 -49.185983,-19.92369 -61.891333,-43.05428 -4.452861,-8.10661 -8.435428,-19.57831 -9.274054,-26.71371 -0.47879,-4.07376 -1.445109,-6.32989 -4.0429,-9.43924 -4.59676,-5.50197 -6.203447,-8.82759 -6.971289,-14.42961 -0.478653,-3.49215 -1.506169,-5.5735 -3.965748,-8.03308 C 9.9308931,99.864226 8.5625238,96.384353 8.5295364,87.931129 8.5037175,81.31488 8.8473891,79.836794 11.260111,76.187291 15.632501,69.573576 23.490575,65.464149 34.330969,64.122247 L 39.357721,63.5 46.607478,52 c 7.416519,-11.764529 10.823749,-18.441037 11.825867,-23.172928 1.26432,-5.969982 8.856457,-11.839874 15.284536,-11.817303 7.213522,0.02533 18.352867,8.482891 19.78986,15.025476 0.458195,2.086147 1.513373,2.954113 4.781715,3.933332 2.306584,0.691068 5.085184,1.880848 6.174664,2.643955 3.18612,2.231644 14.37279,1.746578 22.75498,-0.986681 10.38045,-3.384849 16.25737,-3.965196 22.75954,-2.24751 3.77635,0.997606 6.05006,1.141482 7.31772,0.463051 2.31411,-1.238472 11.40169,-1.272385 14.67197,-0.05475 1.88015,0.70004 3.66734,0.360705 7.5,-1.424031 5.79806,-2.69995 14.70026,-3.156198 19.81379,-1.015479 4.8189,2.01738 10.37883,8.77206 12.16144,14.774785 1.97141,6.63845 1.98419,17.163192 0.0344,28.343998 -2.04078,11.702736 -4.76835,19.527957 -9.95765,28.567935 -4.1637,7.25333 -4.30526,7.77641 -3.8018,14.04838 1.09309,13.61761 -2.79569,30.66013 -10.21986,44.78835 -10.19261,19.39657 -31.08343,35.6328 -52.93735,41.14261 -9.35698,2.35908 -24.61792,3.25677 -33.06132,1.94474 z m 32.09339,-3.98477 c 29.22833,-7.46318 51.62892,-29.8476 59.51614,-59.47316 1.57173,-5.90365 2.16672,-11.27555 2.27058,-20.5 0.1311,-11.64326 0.32452,-12.80843 2.82203,-17 8.39384,-14.087362 12.19294,-27.878661 12.25845,-44.5 0.0449,-11.397692 -1.21578,-16.012644 -5.80083,-21.234726 C 198.66063,33.432636 189.64584,32.086751 180,36.583632 c -4.89549,2.282271 -5.89624,2.43373 -9.10505,1.378009 -2.14412,-0.705429 -5.58871,-0.922031 -8.5,-0.534494 -5.85111,0.77887 -8.71067,0.777341 -17.73631,-0.0095 -5.6733,-0.494579 -8.25933,-0.154309 -15.14639,1.992965 -10.07036,3.139779 -21.78196,3.542549 -26.81191,0.92208 -1.76019,-0.917011 -4.525969,-1.942975 -6.146182,-2.279919 -2.353983,-0.489542 -3.559464,-1.810396 -6,-6.574246 -4.593969,-8.967281 -12.978557,-13.580713 -20.77141,-11.429002 -4.098039,1.131523 -8.499534,5.739658 -9.339083,9.777531 -0.933935,4.49183 -4.301583,11.084491 -12.143812,23.773279 l -7.500394,12.135697 -6.14973,0.631557 C 26.316125,67.22344 16.695281,71.992241 13.470124,76.865781 8.098413,84.982985 9.6022011,96.276243 17.019178,103.51873 19.20863,105.65667 21,108.35789 21,109.52145 c 0,4.79442 3.179289,12.40065 6.995367,16.73595 C 30.327742,128.90711 32,131.82437 32,133.24349 c 0,4.2058 3.921148,17.99016 6.972538,24.51118 12.034826,25.71922 36.000081,43.3409 64.220322,47.22128 8.2592,1.13567 21.53439,0.2611 30.40053,-2.00279 z M 96.365317,198.56897 C 81.762964,195.24532 69.825408,188.68277 58.949492,178 47.864544,167.11191 39.598034,151.84575 37.423493,138.24692 L 36.744384,134 l 5.877808,-0.007 c 4.071361,-0.005 6.756383,-0.58582 8.736511,-1.8913 3.298542,-2.17468 6.625126,-6.83416 6.634708,-9.29309 0.0114,-2.9263 2.069441,-3.12299 4.845757,-0.46311 1.472156,1.41042 4.683929,3.62587 7.137273,4.92323 3.679396,1.94571 4.596927,3.01486 5.238875,6.10458 1.209105,5.81946 2.537856,7.62628 5.608426,7.62628 1.514356,0 4.36112,0.81968 6.326142,1.8215 3.456062,1.762 3.646247,1.762 5.822226,0 C 94.493101,141.58988 96.878683,141 100.33863,141 h 5.11706 l -3.85208,-3.17521 c -6.354715,-5.23809 -8.378944,-13.64006 -5.148763,-21.37097 1.7525,-4.19432 3.264098,-4.90922 7.122703,-3.36863 1.60735,0.64175 5.597,1.44762 8.86589,1.79081 l 5.94344,0.624 1.71424,5.78458 c 0.94284,3.18151 2.88079,7.31399 4.30656,9.18327 1.42578,1.86929 2.59232,3.84612 2.59232,4.39295 0,0.54683 -1.4625,2.14687 -3.25,3.55563 l -3.25,2.56139 3.38398,0.0111 c 1.86119,0.006 5.10941,0.52804 7.21827,1.15987 2.95921,0.8866 4.17138,0.86902 5.31131,-0.077 0.81237,-0.6742 3.63915,-1.13487 6.28173,-1.02371 2.64259,0.11116 5.47971,-0.0274 6.30471,-0.30791 0.825,-0.28052 4.42341,-1.26952 7.99646,-2.19779 8.42714,-2.18936 16.23876,-6.40763 24.52856,-13.24546 8.62021,-7.11034 9.22905,-6.59096 7.68644,6.55706 -3.66152,31.20786 -23.867,55.72137 -53.71146,65.16335 -8.9797,2.84093 -29.83707,3.66793 -39.134683,1.55169 z m 39.309073,-4.40648 c 12.70662,-4.25711 20.54689,-9.18153 30.42596,-19.11032 6.81466,-6.84898 9.46314,-10.39899 12.75584,-17.09791 C 183.54338,148.41829 187,136.05594 187,128.82853 v -4.85154 l -5.56151,4.52991 c -10.6078,8.64017 -26.53206,14.98301 -36.78729,14.65285 -2.91074,-0.0937 -5.9328,0.48424 -7.56085,1.44595 -2.48768,1.46951 -3.10287,1.46936 -7.43615,-0.002 -5.98987,-2.03361 -11.52789,-2.03834 -16.58683,-0.0142 -3.6313,1.45296 -4.16835,1.45296 -6.24274,0 -3.15883,-2.21253 -8.352322,-1.98314 -12.894152,0.56951 -3.21122,1.80481 -4.099664,1.94525 -5.41261,0.8556 -0.863928,-0.717 -4.125422,-1.81538 -7.247764,-2.44085 l -5.676985,-1.13722 -1.941623,-6.06995 c -1.658948,-5.18624 -2.409193,-6.23902 -5.153253,-7.23128 -1.766397,-0.63874 -4.020863,-2.05554 -5.009924,-3.14844 C 61.476692,123.76427 60,123.41228 60,125.15561 c 0,0.63558 -1.185261,2.70957 -2.633912,4.60885 -3.006721,3.94201 -9.345694,7.18134 -14.116088,7.21358 -3.765922,0.0255 -3.871925,0.54442 -1.652491,8.09046 7.127912,24.23477 30.446662,46.01389 54.402491,50.81055 3.025,0.6057 6.4,1.30968 7.5,1.5644 1.1,0.25473 6.78143,0.2934 12.62539,0.0859 8.45156,-0.30004 12.45107,-0.98886 19.549,-3.36689 z M 61.25,171.33772 c -1.832912,-0.7396 -1.543347,-3.88612 1.165571,-12.66554 C 65.837798,147.58098 66.538852,147 76.5,147 c 6.664371,0 8.498319,0.34066 9.845012,1.82874 2.239736,2.47488 2.080964,5.36 -0.473692,8.60772 -1.361635,1.73104 -1.78237,3.05249 -1.167611,3.66725 0.614759,0.61476 2.517279,-1.30272 5.279814,-5.32132 C 95.419066,147.87542 96.525559,147 101.08414,147 c 4.19876,0 4.87939,1.00082 4.98615,7.33179 0.13263,7.86606 1.36518,8.48689 3.41413,1.71968 2.29261,-7.57198 4.20354,-9.05147 11.69103,-9.05147 7.40435,0 10.38557,1.4357 12.14593,5.84924 l 1.42631,3.57603 0.68283,-3.10894 c 0.91357,-4.15945 3.72032,-6.54321 7.23105,-6.14129 2.62104,0.30007 2.83255,0.64057 2.76166,4.44581 l -0.0768,4.12085 2.43463,-2.89339 c 6.64215,-7.89376 19.44385,-8.63848 22.92723,-1.33376 1.36752,2.86772 1.43714,4.05654 0.43371,7.40571 -3.09204,10.3203 -14.48447,16.05675 -23.07052,11.61673 -3.17882,-1.64384 -4.03654,-3.27053 -4.14902,-7.86878 -0.0715,-2.92304 -0.21332,-2.78128 -1.83254,1.83179 -3.08034,8.77576 -10.73257,10.35181 -10.47969,2.15839 l 0.11027,-3.57283 -1.94857,2.4772 c -1.07171,1.36246 -3.18846,3.11837 -4.70389,3.90203 -3.9614,2.04853 -12.40726,2.96122 -15.95566,1.72424 -2.15532,-0.75135 -3.87226,-0.7285 -6.01433,0.08 -2.49052,0.94006 -3.315868,0.84381 -4.876731,-0.56875 -2.399859,-2.17185 -5.262576,-2.15625 -9.117349,0.0497 -2.406047,1.37688 -3.450012,1.50627 -4.89633,0.60688 -1.245129,-0.77428 -2.405221,-0.82583 -3.595407,-0.15977 -0.96643,0.54084 -2.822491,0.71596 -4.12458,0.38916 -1.868047,-0.46885 -2.432853,-1.36808 -2.677564,-4.26293 -0.410922,-4.86109 -2.332607,-5.30028 -3.795572,-0.86745 -1.527483,4.62832 -4.831715,6.46877 -8.764557,4.88183 z M 94.692479,166 c 3.039179,0 4.420735,0.53791 5.480351,2.13377 1.28348,1.93302 1.56351,1.98703 2.97653,0.57401 1.23017,-1.23017 1.46931,-3.21307 1.13168,-9.38377 C 103.73954,149.42728 103.58566,149 100.56293,149 c -2.504411,0 -5.673829,3.58455 -12.990755,14.69228 -3.176224,4.82179 -2.62928,7.64945 0.847773,4.38293 C 89.907431,166.67779 91.956115,166 94.692479,166 Z m -1.688741,-3.18664 C 93.010306,160.50589 96.913548,155 98.542799,155 c 1.231211,0 1.505501,0.92176 1.264699,4.25 -0.288625,3.98915 -0.506973,4.26923 -3.557498,4.56336 -2.17732,0.20993 -3.248766,-0.12012 -3.246262,-1 z m 43.744812,6.36321 C 137.83391,168.48738 144,152.02156 144,149.81241 c 0,-1.62664 -3.95722,-0.76085 -4.94323,1.08151 -1.77096,3.30908 -5.97725,17.42572 -5.44763,18.28268 0.63245,1.02331 1.52781,1.0233 3.13941,-3e-5 z M 162.5,166.98511 c 6.29541,-3.87581 8.74839,-13.29687 4.27749,-16.42841 -5.22422,-3.65919 -14.84839,-0.33381 -18.6596,6.44734 -3.3973,6.04467 -2.41115,10.25957 2.88211,12.31842 2.31594,0.9008 8.17438,-0.28991 11.5,-2.33735 z m -9.83333,-1.65178 c -1.16405,-1.16405 -0.7199,-6.32971 0.79634,-9.26181 2.1611,-4.17909 7.09334,-5.51594 9.52789,-2.58248 1.6484,1.9862 0.54794,7.55546 -2.0423,10.33576 -1.9299,2.07151 -6.82697,2.9635 -8.28193,1.50853 z m 6.15305,-2.6161 c 2.32885,-2.8061 3.12942,-6.51455 1.66815,-7.7273 C 158.5725,153.40032 154,157.95642 154,161.45455 c 0,2.81086 2.90354,3.57153 4.81972,1.26268 z M 67.732135,165 c 1.31006,-3.33509 2.034904,-4 4.360538,-4 3.279921,0 4.378228,1.40305 4.087281,5.22138 C 76.014287,168.39557 76.39909,169 77.948932,169 c 1.089385,0 2.446533,-0.87042 3.015884,-1.93426 1.2423,-2.32126 1.366906,-6.06574 0.201851,-6.06574 -1.75337,0 -0.730861,-2.87754 1.361227,-3.83076 2.801461,-1.27643 3.743818,-4.75467 1.811658,-6.68683 C 82.477563,148.62042 71.07634,148.44985 68.805242,150.25 67.491537,151.29129 62,165.81926 62,168.25341 62,168.66403 62.9362,169 64.080445,169 c 1.498646,0 2.519847,-1.11861 3.65169,-4 z m 3.451443,-8.64914 c 0.39798,-3.33196 2.732704,-4.83967 6.161645,-3.97906 5.356598,1.34442 2.290772,6.6282 -3.845904,6.6282 -2.260119,0 -2.587439,-0.37444 -2.315741,-2.64914 z M 76.25,155.33772 c -0.6875,-0.27741 -1.8125,-0.27741 -2.5,0 -0.6875,0.27741 -0.125,0.50439 1.25,0.50439 1.375,0 1.9375,-0.22698 1.25,-0.50439 z m 47.68834,11.83501 c 5.87808,-3.15245 9.29088,-13.07775 5.56111,-16.17318 -1.82443,-1.51415 -9.4555,-2.47838 -12.85725,-1.6246 -2.04203,0.51252 -2.9302,1.983 -5.05951,8.37676 C 107.85999,168.92997 107.8798,169 114.7656,169 c 3.67419,0 7.00151,-0.66282 9.17274,-1.82727 z M 115,164.17814 c 0,-1.00202 0.7173,-3.92702 1.594,-6.5 1.38633,-4.06866 1.95665,-4.67814 4.37756,-4.67814 1.53095,0 3.32845,0.65657 3.99445,1.45904 1.75854,2.11891 0.34429,7.15172 -2.67765,9.52877 C 119.00579,166.56989 115,166.67449 115,164.17814 Z m 6.75,-3.00901 c 0.6875,-0.85326 1.25,-2.62338 1.25,-3.93358 0,-4.0264 -3.24837,-2.3009 -4.62598,2.45727 -1.09202,3.77173 -1.04715,4.12517 0.45762,3.60473 0.9176,-0.31736 2.23086,-1.27515 2.91836,-2.12842 z m -12.31638,-19.27135 c -3.13161,-1.22635 -3.9576,-1.00141 -1.88578,0.51354 1.06156,0.77623 2.3552,1.14861 2.87476,0.8275 0.51955,-0.3211 0.0745,-0.92457 -0.98898,-1.34104 z m 9.2718,-3.41916 c 6.21523,-2.59689 6.56771,-3.25398 3.73662,-6.96573 -1.37826,-1.80698 -3.27904,-5.6991 -4.22398,-8.64915 L 116.5,117.5 l -6.19029,-0.68286 c -3.40465,-0.37557 -7.13051,-1.18605 -8.27968,-1.80107 -1.87307,-1.00244 -2.252539,-0.72778 -3.664991,2.65269 -1.941443,4.64653 -1.337752,11.52548 1.333543,15.19548 C 101.92658,135.9252 109.37602,140 112.74401,140 c 1.27612,0 3.95876,-0.68462 5.96141,-1.52138 z M 135.5,133.4306 c -7.44108,-3.86212 -12.49419,-13.31756 -11.09706,-20.76492 L 124.99683,109.5 h -9.32145 c -8.49569,0 -9.68971,-0.24371 -13.47865,-2.75112 -2.361633,-1.56285 -5.07937,-4.55867 -6.292217,-6.936051 l -2.134998,-4.18494 -1.348109,2.436055 c -1.769086,3.196766 -5.09256,13.458476 -5.875907,18.142726 -1.357577,8.11801 -10.722819,10.23703 -18.264928,4.13269 -4.888292,-3.95642 -7.273284,-8.78864 -7.316422,-14.82376 l -0.03585,-5.0156 -3.035617,7 c -1.66959,3.85 -3.675006,9.475 -4.456481,12.5 -1.737345,6.72506 -4.239551,9 -9.8991,9 -5.221294,0 -9.819268,-2.90256 -13.983273,-8.82722 -2.539904,-3.61384 -3.020493,-5.24342 -3.020493,-10.24188 0,-4.70273 -0.353002,-6.05628 -1.690149,-6.48067 -3.12826,-0.99287 -7.618448,-6.575903 -8.862618,-11.019643 -3.255007,-11.625741 4.522758,-19.619025 20.545974,-21.115296 3.613512,-0.337435 6.975741,-1.215576 7.618217,-1.989713 5.108497,-6.155361 20.791989,-33.970492 20.828934,-36.940719 0.01447,-1.163328 0.95897,-3.300828 2.098889,-4.75 2.598708,-3.303722 8.816873,-3.609384 13.637083,-0.67035 C 84.550514,29.306398 88,35.622526 88,40.313369 v 3.393046 l 4.75,-0.442325 c 7.148577,-0.665683 11.20099,2.533425 15.89712,12.549694 0.0809,0.172582 3.077,-1.692091 6.65796,-4.143716 8.52319,-5.835201 16.52518,-8.804719 25.39489,-9.423978 5.94729,-0.415224 7.77532,-0.163212 10.50693,1.448477 3.21242,1.895372 3.39255,1.89919 6.30004,0.133561 3.90082,-2.368857 10.17853,-2.317307 14.16979,0.116355 2.6104,1.591687 3.37368,1.699697 4.28149,0.605861 2.44416,-2.945036 11.25852,-5.783976 16.41869,-5.28815 12.75593,1.225684 16.5377,16.514102 10.53496,42.589343 -6.64237,28.853703 -32.87991,53.163673 -57.35604,53.142303 -4.42466,-0.004 -8.17455,-0.58681 -10.05583,-1.56324 z m 27.95568,-5.30729 c 13.0002,-6.46397 23.30892,-16.4794 30.73801,-29.863462 5.20748,-9.381668 8.02643,-20.497542 8.58308,-33.845393 0.40238,-9.648441 0.1956,-11.688488 -1.59504,-15.736521 -2.83723,-6.414032 -7.28374,-8.591273 -13.96155,-6.836292 -2.5961,0.682276 -6.66313,2.621851 -9.03786,4.310166 l -4.31767,3.069665 -2.2304,-2.095352 c -3.50715,-3.294792 -7.89843,-3.711585 -12.70563,-1.205935 l -4.13802,2.156858 -4.21102,-2.038522 c -5.02579,-2.432941 -8.23514,-2.539723 -15.94852,-0.530643 -7.92036,2.062991 -15.96384,6.152664 -21.24662,10.802752 C 108.95863,60.206393 106,60.655883 106,57.432514 106,49.709526 94.090114,41.571714 90,46.5 87.562844,49.436593 86,48.251911 86,43.467881 86,37.57839 84.050688,33.061883 80.059249,29.703309 76.622849,26.811769 72.385673,26.212101 69.790345,28.25 c -0.875553,0.6875 -2.292301,3.725 -3.14833,6.75 -1.292412,4.567077 -6.664879,14.046788 -20.178252,35.6045 -1.024093,1.633722 -2.733494,2.25041 -7.64148,2.75676 -9.544195,0.984661 -13.891855,2.508312 -17.525359,6.141816 C 18.455373,82.344627 18,83.483989 18,87.752117 c 0,5.980445 2.998563,11.067574 7.76786,13.178353 3.11324,1.37784 3.23214,1.64637 3.23214,7.29966 0,3.22805 0.636606,7.08434 1.414681,8.56953 2.34585,4.47775 7.999907,9.23108 11.69324,9.83043 4.866086,0.78965 7.557802,-1.77165 9.405101,-8.94944 1.826139,-7.09556 9.478552,-22.982446 11.328773,-23.519232 1.074257,-0.311663 1.202472,0.911693 0.643044,6.135552 -0.851842,7.95439 0.388998,12.22465 4.783998,16.46379 7.086549,6.83523 13.846806,6.35168 15.801734,-1.13029 C 84.664149,113.35871 85.61538,109.7 86.184417,107.5 87.848101,101.0679 92.757247,91 94.22988,91 c 0.754884,0 1.871948,1.931651 2.521489,4.360211 2.222907,8.311199 11.487871,13.518139 21.748631,12.222809 2.75,-0.34716 5.89177,-0.73286 6.98172,-0.85711 1.82982,-0.20859 1.95695,0.29194 1.65862,6.5303 -0.27709,5.79398 0.0421,7.37945 2.24139,11.1322 3.85164,6.57231 9.07043,8.88803 18.57395,8.24174 6.07793,-0.41334 8.94221,-1.24616 15.5,-4.50684 z M 143,126.11606 c -12.01604,-2.96104 -11.69899,-18.14627 0.60582,-29.015415 8.76886,-7.745751 23.70269,-14.667927 30.03187,-13.920463 4.52153,0.533984 3.75765,2.450351 -2.33825,5.866029 -8.63737,4.839729 -19.60531,13.267719 -21.22923,16.312979 -4.96218,9.30533 15.14039,1.73565 22.97507,-8.651328 4.39402,-5.82545 7.94376,-15.495433 8.68369,-23.655555 l 0.54965,-6.061548 -6.71757,4.504621 C 169.65626,75.454974 168.18749,76 163.42174,76 156.61716,76 154,73.809487 154,68.114192 c 0,-7.971261 8.78887,-19.98957 12.78603,-17.484219 2.3855,1.495186 2.63607,4.682982 0.79323,10.091437 -0.86539,2.539765 -1.33592,4.855261 -1.04564,5.145546 0.29029,0.290286 4.22648,-3.11479 8.74709,-7.566835 C 187.67308,46.095703 192.83587,44.304578 196.32275,51 c 1.51236,2.903975 1.73257,5.032635 1.29314,12.5 -0.75777,12.877181 -2.20779,18.798191 -7.1019,29 -8.55794,17.83908 -25.51954,31.78865 -41.01399,33.73075 -2.2,0.27575 -5.125,0.22414 -6.5,-0.11469 z m 18.45897,-6.49833 c 13.31428,-6.58028 24.80613,-20.081395 30.03222,-35.283126 2.34499,-6.821165 4.96957,-24.079383 4.1352,-27.191547 -0.24227,-0.903681 -0.7159,-2.880557 -1.0525,-4.393057 -0.48552,-2.18169 -1.17637,-2.748638 -3.34294,-2.743411 -3.72453,0.009 -6.81101,2.239669 -14.8651,10.743411 -5.28238,5.577286 -7.50103,7.25 -9.61625,7.25 -3.32198,0 -3.5851,-2.191653 -1.12866,-9.400921 3.26107,-9.570717 -2.75948,-7.218014 -7.53675,2.945205 -2.5156,5.351698 -2.63042,8.194659 -0.4292,10.626975 3.63722,4.019087 14.63464,0.475491 21.70982,-6.995352 5.50419,-5.811993 6.73976,-2.261773 4.1898,12.03873 -1.74063,9.761659 -5.21636,17.378219 -10.59136,23.209403 -7.02946,7.62607 -18.30771,12.87096 -23.87631,11.10355 C 147.55735,111.04212 147,110.03037 147,107.73921 c 0,-3.9341 7.26882,-11.235847 17.5,-17.579274 8.74674,-5.423061 4.79952,-4.96778 -7,0.807396 -15.36215,7.518874 -24.22938,19.853948 -20.06345,27.909978 2.2197,4.29242 4.28345,5.2235 10.73259,4.84207 4.06198,-0.24025 7.82954,-1.40303 13.28983,-4.10165 z M 39.671414,119.95617 C 33.09875,114.78612 32.661479,108.57555 38.110168,97.781758 l 3.062227,-6.066237 -3.336198,0.6452 c -1.834908,0.35486 -3.953584,1.543868 -4.708169,2.64224 -1.954581,2.845082 -4.549338,2.473485 -7.539134,-1.079686 -3.293018,-3.91353 -3.370257,-8.232821 -0.203846,-11.399232 2.765266,-2.765266 7.38757,-4.166453 16.906204,-5.124878 6.790634,-0.683745 6.791494,-0.684227 9.449592,-5.291486 C 53.202932,69.573455 56.851175,63.675 59.848053,59 65.473027,50.225281 73,35.552383 73,33.361914 c 0,-3.862376 5.133918,-1.937412 7.611649,2.853991 1.189924,2.301059 1.490542,4.720498 1.109143,8.926628 C 81.182827,51.075304 79.878584,53.924063 70.683707,69.25 L 66.034054,77 h 6.345381 6.345382 L 85.862409,65.226949 C 89.788084,58.751771 93,52.703329 93,51.785966 c 0,-4.622349 6.219544,-1.898108 8.58353,3.759696 2.05767,4.924703 1.77355,7.468351 -1.57086,14.063417 -1.643035,3.240006 -2.993035,6.003421 -3.000003,6.140921 -0.007,0.1375 1.969573,0.25 4.392313,0.25 4.14346,0 4.55691,-0.259254 6.96414,-4.366888 5.92627,-10.112411 19.02473,-18.852241 31.44169,-20.979174 6.39651,-1.095677 6.41581,-1.091799 8.89218,1.787151 1.86972,2.173682 2.3395,3.596457 1.90494,5.769274 -1.54096,7.704799 -12.52356,17.828345 -23.80281,21.940965 -6.45635,2.354105 -8.51217,5.570191 -5.49152,8.59084 1.43053,1.430529 2.00061,1.409549 6.2984,-0.231793 2.59903,-0.992579 7.34566,-4.213468 10.54807,-7.157532 6.15601,-5.659401 7.54429,-6.286834 8.4852,-3.834883 1.79806,4.685676 -10.54009,17.802397 -20.11575,21.385112 -6.64337,2.485608 -14.44809,2.707518 -18.65796,0.53051 -3.78203,-1.955765 -6.26672,-7.513683 -5.40721,-12.095238 C 103.05817,84.173012 102.93928,84 100.17031,84 c -7.738032,0 -8.773959,0.73704 -12.44864,8.856945 -3.657756,8.082505 -6.411211,16.060215 -6.916998,20.040925 -0.491125,3.86532 -3.228186,4.91637 -6.518637,2.5032 -6.669431,-4.89127 -7.494517,-11.35027 -2.804581,-21.95505 l 2.458716,-5.559594 -4.720085,0.621123 c -10.295704,1.354825 -9.750506,0.969854 -14.257058,10.067087 -2.301784,4.646534 -5.214986,11.705604 -6.473781,15.686804 -2.575883,8.14678 -4.291774,9.25493 -8.817832,5.69473 z m 6.070894,-5.0736 C 47.480458,107.56536 56.381916,89.401156 58.886463,88.060763 61.82792,86.486543 77,85.398681 77,86.761994 c 0,0.582136 -1.349645,3.911334 -2.999211,7.398218 -3.901297,8.246638 -3.923429,12.775618 -0.08343,17.073318 1.604546,1.7958 3.18643,2.99602 3.515297,2.66715 0.328868,-0.32887 1.288323,-3.24849 2.132123,-6.48806 1.5813,-6.07104 9.494898,-23.724686 11.056011,-24.663748 C 91.104355,82.45799 94.65,82.057997 98.5,81.859998 l 7,-0.359998 -0.33255,5.598272 c -0.28513,4.800168 0.0233,6.01195 2.16342,8.5 2.22439,2.58601 3.131,2.901641 8.33255,2.900932 9.89349,-0.0014 22.45088,-7.530239 27.78818,-16.66064 1.87903,-3.21441 1.74887,-3.160996 -3.5,1.436343 C 133.60049,88.83767 127.59581,92 123.38428,92 119.50585,92 118,90.38746 118,86.234259 118,81.805732 119.58902,79 122.09711,79 c 5.87646,0 21.11977,-10.651152 24.44446,-17.080382 2.07358,-4.009867 1.84166,-7.644151 -0.57017,-8.934926 -2.56656,-1.373581 -11.67666,0.818781 -19.16004,4.6109 -5.86738,2.973225 -14.30724,11.12837 -17.28876,16.705528 L 107.54519,78 H 100.7726 C 96.840465,78 94,77.572669 94,76.981104 c 0,-0.560393 1.35,-3.548738 3,-6.640768 3.72204,-6.974942 4.01334,-12.875524 0.805612,-16.318612 l -2.194387,-2.355398 -0.948827,2.916837 c -0.521855,1.60426 -2.89998,5.953837 -5.284722,9.665725 -2.384742,3.711889 -5.254441,8.549389 -6.377109,10.75 L 80.959352,79 H 72.479676 C 65.001252,79 64,78.788842 64,77.211686 c 0,-0.983573 2.755386,-6.271073 6.12308,-11.75 C 79.899437,49.556454 82.003812,40.976657 77.381338,35.86888 75.742603,34.058098 75.575219,34.225999 73.020759,40.242908 71.559723,43.684309 68.414232,49.65 66.03078,53.5 c -2.383452,3.85 -6.719636,10.991711 -9.635966,15.870468 -2.916329,4.878757 -5.435706,8.997513 -5.598615,9.152791 -0.16291,0.155279 -4.511173,0.791647 -9.662808,1.414153 -13.595353,1.642816 -17.983648,4.637543 -15.056106,10.274815 2.342717,4.511134 3.010413,4.89746 4.77859,2.764868 1.725532,-2.081159 11.059729,-4.402555 12.412823,-3.087045 0.422784,0.411041 -0.859716,4.271836 -2.85,8.579545 -4.617161,9.993245 -4.681894,13.631905 -0.322531,18.129625 1.812892,1.87043 3.551399,3.40078 3.863349,3.40078 0.31195,0 1.114207,-2.30284 1.782792,-5.11743 z M 122,72.120582 c 0,-2.183958 6.60847,-9.301421 11.28209,-12.15106 4.32427,-2.636626 8.71791,-2.638065 8.71791,-0.0029 0,2.703015 -6.0512,8.518846 -12.00018,11.533425 C 124.10652,74.486454 122,74.649842 122,72.120582 Z m 13.4722,-7.230314 C 137.41249,63.186669 139,61.431561 139,60.990027 c 0,-1.963494 -4.68199,0.743936 -9.85942,5.701354 l -5.64058,5.400892 4.2222,-2.052276 c 2.3222,-1.128752 5.8097,-3.44613 7.75,-5.149729 z"
       id="path297"
       inkscape:label="border" />
    <path
       style="fill:#009de1;fill-opacity:1;stroke:#000000;stroke-width:0.25;stroke-opacity:0"
       d="M 16.548043,75.934164 25.355872,71.663701 37.5,69.661922 l 5.871886,-4.003559 8.007118,-11.076512 9.741992,-19.617438 3.336299,-7.740214 5.204627,-4.003558 6.405694,-0.533808 7.606761,4.403914 6.405694,8.14057 3.336299,5.071174 16.41459,4.670819 16.54804,-2.268684 17.08185,-3.069395 12.94484,0.800712 19.48399,-0.400356 11.20996,-2.669039 6.80605,-0.533808 7.60677,4.137011 4.80427,8.007117 1.73487,17.749111 -5.60498,23.354092 -4.53737,10.275799 -5.87188,14.41281 0.5338,14.41281 -4.13701,19.48399 -11.07651,20.81851 -9.87544,11.61032 -20.68506,15.08007 -25.35587,6.27224 -26.02313,-1.73488 -24.288257,-9.20818 -17.348754,-15.21352 -7.206406,-10.54271 -9.608541,-17.74911 -2.535587,-12.54448 -1.734875,-7.33986 -6.939502,-9.87545 -1.734876,-10.14234 -5.071174,-5.47153 -5.604982,-7.740218 -0.934164,-10.275801 1.734875,-5.738434 z"
       id="path4951"
       inkscape:label="blueinside" />
    <path
       style="display:inline;fill:#adc805;fill-opacity:1;stroke:#000000;stroke-width:0.25;stroke-opacity:0.975845"
       d="m 59.355449,171.27208 106.820931,-0.28309 6.13372,-10.66322 -1.60421,-11.22941 -11.41813,-4.34078 -10.28577,2.83094 -23.21373,-0.56619 -28.781262,0.0944 -14.532177,0.0944 -14.532176,-1.69856 -7.549183,16.41947 z"
       id="path4116"
       inkscape:label="greenradio" />
    <path
       style="display:inline;fill:#adc805;fill-opacity:1;stroke:#000000;stroke-width:0.25;stroke-opacity:0.975845"
       d="m 72.283425,29.536177 c 0,0 -20.288429,36.613537 -20.571523,37.368455 -0.283095,0.754918 -5.850617,8.398466 -5.850617,8.398466 l -14.626541,1.038012 -7.171724,4.152051 -2.264755,10.191396 8.021007,9.908303 3.585862,18.87296 7.077358,5.37879 5.284428,-1.13238 c 0,0 4.812604,-7.07736 4.812604,-7.54918 0,-0.47182 5.378793,-15.85328 5.378793,-15.85328 l 6.228076,-8.209741 c 0,0 3.208402,3.585862 3.302767,4.718239 0.09436,1.132378 0.18873,9.059022 0.660554,10.663222 0.471824,1.6042 6.51117,10.00267 6.888629,10.56885 0.377459,0.56619 8.021006,0.18873 8.021006,0.18873 l 3.774592,-11.2294 6.133711,-15.09837 3.491497,-4.34078 5.190063,8.304101 11.512508,9.247749 11.60686,-0.47182 10.75759,-0.66056 -1.6042,15.09837 c 0,0 5.0957,8.77592 5.47316,8.87029 0.37745,0.0944 16.04201,1.88729 16.04201,1.88729 0,0 15.004,-8.39846 15.85328,-8.96465 0.84929,-0.56619 15.004,-14.62654 15.004,-14.62654 0,0 8.39847,-14.626545 8.5872,-15.098369 0.18873,-0.471824 5.75625,-13.682893 5.75625,-13.682893 l 1.32111,-23.779926 c 0,0 -3.58586,-7.454818 -3.86896,-7.926642 -0.28309,-0.471824 -7.17172,-1.509836 -7.83228,-1.038012 -0.66055,0.471824 -8.87029,7.454818 -8.87029,7.454818 l -8.3041,-2.264755 c 0,0 -8.11537,-2.547849 -8.77592,-2.35912 -0.66055,0.18873 -6.32244,2.830944 -6.32244,2.830944 l -13.87163,-3.397133 c 0,0 -11.04067,2.830944 -11.60686,3.208403 -0.56619,0.377459 -15.38146,6.982994 -15.38146,6.982994 l -7.36046,7.643548 -3.96332,-10.191397 -7.360451,-6.6999 -8.49283,1.981661 c 0,0 -3.774592,-2.736579 -3.774592,-3.302768 0,-0.566188 -0.849283,-10.285761 -0.849283,-10.285761 l -3.208402,-4.34078 -3.868956,-2.35912 z"
       id="path3370"
       inkscape:label="greenhey" />
    <path
       id="path3117"
       style="display:inline;fill:#009de1;fill-opacity:1;stroke:#000000;stroke-width:0.066726;stroke-opacity:0"
       inkscape:label="blue"
       d="m 73.974609,19.677734 c -3.561004,-0.105908 -6.864746,1.25774 -9.642578,4.054688 -2.2429,2.258332 -3.06769,3.720117 -4.007812,7.095703 -0.814708,2.925289 -3.67551,8.99805 -6.673828,14.166016 -2.604671,4.489461 -12.114297,20.006192 -12.558594,20.492187 -0.209229,0.228868 -1.929475,0.54267 -4.697266,0.857422 -4.921389,0.559656 -7.430111,1.151218 -11.330078,2.673828 -5.904935,2.305384 -10.389012,5.777472 -12.363281,9.572266 -1.517348,2.916531 -2.181381,5.63914 -2.175781,8.916015 0.01094,6.348653 1.915986,10.838433 6.892578,16.248051 2.854887,3.10328 3.482013,4.22303 3.808593,6.79882 0.388697,3.06574 1.197184,5.74871 2.652344,8.80274 1.424157,2.98896 2.182196,4.17292 4.837891,7.55664 2.438395,3.10685 3.199067,4.71175 3.482422,7.33789 0.326292,3.02411 2.123858,10.09373 4.039062,15.88281 6.976882,21.08902 23.895396,39.38106 44.785157,48.41992 8.040324,3.479 16.999253,5.86183 24.574222,6.53516 3.61465,0.32136 7.81821,0.32685 12.24023,0.0195 12.71193,-0.88335 21.69503,-3.26643 32.32031,-8.57617 20.83486,-10.41176 36.24485,-29.32143 42.51953,-52.17578 1.85635,-6.76137 2.22585,-9.91751 2.56055,-21.8457 0.14004,-4.99111 0.38378,-9.85637 0.54102,-10.81055 0.32086,-1.94712 1.1306,-3.81765 3.17773,-7.33984 5.93624,-10.213622 9.58141,-21.355266 10.83203,-33.107427 0.55212,-5.187959 0.56017,-15.794947 0.0156,-19.351562 -0.78483,-5.126349 -2.85566,-9.202761 -6.43555,-12.666016 -2.88344,-2.789485 -6.09858,-4.344769 -10.23242,-4.949219 -3.70055,-0.541091 -8.39293,0.342127 -13.04688,2.455078 -4.50093,2.043494 -6.02491,2.252291 -9.53906,1.310547 -2.39268,-0.641206 -6.29138,-0.761241 -9.74023,-0.300781 -2.84567,0.379927 -9.45393,0.338772 -15.21485,-0.0957 -6.65614,-0.501996 -8.62604,-0.293965 -14.94531,1.582031 -7.98489,2.370464 -14.9005,3.276078 -21.17773,2.771484 -3.49911,-0.281272 -4.32689,-0.491577 -7.78321,-1.966796 -1.46797,-0.626558 -3.54993,-1.38682 -4.62695,-1.691407 -3.11939,-0.882181 -3.73621,-1.531194 -7.03125,-7.388671 -2.588469,-4.601435 -5.505013,-7.540131 -9.425781,-9.496094 -2.265056,-1.129975 -4.494257,-1.723564 -6.63086,-1.78711 z m -0.443359,5.25586 c 3.922978,-0.02792 6.679878,1.074788 9.363281,3.746094 3.214961,3.20046 4.99275,7.285484 5.244141,12.050781 l 0.152344,2.898437 0.695312,-0.177734 c 0.381841,-0.09773 2.495313,-0.185613 4.697266,-0.195313 3.972299,-0.01745 4.017157,-0.01135 5.818359,0.841797 3.007697,1.424609 5.255967,3.967626 7.921877,8.957032 0.8771,1.641543 1.50167,2.532031 1.69726,2.421874 0.17018,-0.09585 2.47094,-1.584209 5.11329,-3.308593 2.64232,-1.72439 5.94527,-3.742728 7.33984,-4.484375 7.37067,-3.919809 15.18303,-5.80326 23.24805,-5.603516 l 3.6289,0.08984 2.77735,1.402344 c 1.5273,0.770683 2.993,1.40039 3.25781,1.40039 0.2648,0 1.43701,-0.491206 2.60351,-1.091797 2.77521,-1.428855 4.4006,-1.835943 7.33399,-1.839843 2.94915,-0.0039 5.00999,0.505312 7.46289,1.84375 2.86119,1.561218 2.82062,1.558641 4.4414,0.11914 3.67969,-3.268074 12.42053,-5.605757 17.4336,-4.664062 8.63368,1.621823 12.91761,10.736642 11.90625,25.33789 -1.53183,22.115393 -8.78662,38.84408 -22.93945,52.89844 -10.19594,10.125 -21.80162,16.17169 -33.24219,17.31836 -4.50958,0.45199 -9.08287,0.20096 -12.17969,-0.66797 -4.75506,-1.3342 -10.10787,-7.00317 -12.14648,-12.86523 -1.26763,-3.64507 -1.39561,-6.61954 -0.47657,-11.04102 l 0.14844,-0.71093 -8.76953,-0.10157 c -7.5245,-0.0872 -8.9473,-0.16856 -10.04297,-0.57031 -2.36558,-0.8674 -4.58395,-2.37794 -6.878905,-4.68555 -1.916347,-1.9269 -2.515071,-2.75389 -3.736328,-5.16211 -0.79993,-1.577402 -1.542137,-2.868607 -1.650391,-2.869141 -0.292311,-0.0018 -1.993582,3.481041 -3.050781,6.248051 -1.208653,3.1634 -3.087547,9.48128 -3.800781,12.77734 -0.687788,3.17846 -1.351073,4.6445 -2.748047,6.08399 -1.451718,1.4959 -3.49244,2.38575 -5.886719,2.5664 -4.242043,0.32007 -7.989203,-1.29812 -11.794922,-5.0957 -3.967652,-3.95915 -5.35355,-7.31593 -5.664062,-13.72266 l -0.171875,-3.55078 -1.589844,3.6836 c -2.170294,5.03264 -3.99234,9.9317 -5.292969,14.22851 -1.375472,4.54408 -2.147676,6.12054 -3.722656,7.59375 -1.603416,1.49982 -3.280071,2.01682 -6.507812,2.00782 -4.276505,-0.0122 -7.558761,-1.55549 -11.070313,-5.20704 -2.289632,-2.38089 -4.004139,-4.76277 -5.007813,-6.95507 -0.72646,-1.5868 -1.136007,-4.696 -1.148437,-8.72461 -0.0097,-3.13052 -0.3794,-3.96979 -2.146484,-4.86524 -4.023641,-2.03894 -7.850033,-7.741349 -8.751953,-13.04297 -1.386254,-8.148611 3.076134,-14.401499 12.384765,-17.347656 2.311521,-0.731591 5.491973,-1.385474 7.982422,-1.642579 2.708321,-0.279599 4.73139,-0.661693 6.419922,-1.210937 1.846367,-0.600587 2.189059,-0.978597 5.519531,-6.121094 6.557905,-10.125891 15.901304,-27.231347 16.894531,-30.929687 1.043237,-3.88455 2.126947,-5.756769 3.955079,-6.828125 1.651299,-0.967726 2.652877,-1.215882 4.976562,-1.232422 z m 26.58789,87.357426 c 0.85233,-0.0711 1.90834,0.14128 3.30664,0.58789 2.89298,0.92399 5.6769,1.4531 10.62695,2.01757 2.40146,0.27385 4.40076,0.53774 4.44336,0.58594 0.0426,0.0482 0.57931,1.76906 1.19336,3.82422 1.45243,4.86116 2.88119,8.079 4.94141,11.13867 1.76403,2.6198 2.54883,3.99547 2.54883,4.4668 0,0.47087 -2.13666,2.65961 -4.22071,4.32227 l -1.95312,1.55664 h 1.55859 c 2.33775,0 5.65599,0.4735 8.49414,1.21093 3.13993,0.81584 3.69578,0.81806 5.19727,0.0234 1.69357,-0.89623 2.35881,-0.99362 7.39648,-1.09375 l 4.47852,-0.0898 5.87305,-1.64063 c 7.48118,-2.09128 9.07465,-2.66487 13.47851,-4.84765 4.33109,-2.14671 8.71814,-5.03074 13.7168,-9.01563 5.86583,-4.6762 7.12377,-5.34302 8.14648,-4.32031 0.49074,0.49074 0.55664,0.87522 0.55664,3.23828 0,5.31896 -1.35651,14.30002 -3.0664,20.29492 -6.0894,21.34957 -19.76371,37.924 -39.41211,47.77344 -7.80402,3.91203 -13.77837,5.72865 -22.37891,6.80469 -3.14984,0.39408 -20.22135,0.77274 -22.28711,0.49414 -0.44039,-0.0594 -1.88195,-0.24151 -3.203122,-0.4043 -1.321172,-0.1628 -4.003839,-0.70772 -5.962891,-1.21094 -9.924909,-2.54935 -19.380353,-7.19993 -27.498047,-13.52343 -5.834964,-4.54531 -12.490825,-11.57499 -16.671875,-17.61133 -4.920598,-7.10409 -9.064699,-15.9033 -11.001953,-23.35938 -0.614602,-2.36547 -1.720703,-8.29548 -1.720703,-9.22461 0,-0.38614 0.477721,-0.43745 4.070312,-0.43945 7.001986,-0.003 9.323054,-0.65196 12.279297,-3.42969 1.984093,-1.86429 4.331682,-5.14071 4.56836,-6.3789 0.07688,-0.40223 0.21738,-1.24737 0.3125,-1.87696 0.366193,-2.42373 2.085046,-2.40566 5.007812,0.0508 2.269453,1.90736 3.632174,2.84946 7.162109,4.94922 3.884795,2.31085 4.451505,3.02566 5.398438,6.80469 0.831985,3.3203 1.50151,4.8633 2.537109,5.85547 0.609459,0.5839 1.199473,0.78412 3.257813,1.09961 2.598592,0.3983 3.947799,0.83548 6.917969,2.24609 0.954179,0.45317 1.975937,0.82445 2.269531,0.82422 0.293592,-2.4e-4 1.243159,-0.48254 2.111328,-1.07226 2.181386,-1.48179 3.871466,-1.90648 8.363283,-2.09961 l 3.8164,-0.16407 -2.2539,-1.88867 c -1.2397,-1.03923 -2.796378,-2.52451 -3.458986,-3.30078 -4.625675,-5.41911 -5.487159,-13.44596 -2.167969,-20.21484 0.949614,-1.93657 1.807968,-2.84442 3.228515,-2.96289 z" />
    <path
       style="fill:#adc805;fill-opacity:1;stroke:#000000;stroke-width:0.25;stroke-opacity:0"
       d="m 71.530249,129.64858 6.939502,0.60053 3.336299,-0.40036 2.535587,-1.13434 3.202847,-2.0685 1.801602,-1.66815 1.534697,-2.53559 0.934164,-2.00178 1.134341,-3.06939 0.06673,-3.40303 0.133452,-1.5347 0.733986,-1.06761 0.33363,-1.66815 -0.200178,-0.73399 0.867438,-0.2669 0.934163,0.93416 1.33452,1.40125 1.534698,1.00089 1.467963,1.20107 15.68061,5.4048 6.53914,13.41192 2.33541,1.00089 2.53559,2.40214 2.46886,1.93505 2.46886,1.40125 2.93595,1.26779 2.40213,0.73399 3.26958,0.66725 5.07117,-0.0667 5.93861,-0.26691 -0.73398,3.93684 -15.34698,0.93416 -14.07918,-0.80071 -12.47776,1.5347 -12.277575,-1.93506 -7.206406,2.80249 -11.209964,-2.13523 c 0,0 -7.006228,-6.27224 -7.006228,-6.80605 0,-0.5338 0.06673,-9.008 0.06673,-9.008 z"
       id="path4118"
       inkscape:label="green lp label" />
    <path
       id="path293"
       style="display:inline;fill:#000000"
       inkscape:label="black"
       d="M 72.642578,25.576172 C 68.916278,25.877318 66,28.386743 66,32.251953 c 0,2.529849 -4.859057,11.875509 -13.015625,25.03125 -2.636657,4.252676 -3.904013,6.300448 -5.322266,8.591797 -0.212705,0.458664 -0.482623,0.895098 -0.804687,1.300781 -0.323204,0.522645 -1.506997,2.430587 -1.59375,2.572266 -0.420381,0.686496 -4.339527,1.734688 -8.710938,2.330078 C 27.841711,73.264599 22.832243,75.377498 19,79.482422 c -2.066002,2.213007 -2.5,3.676235 -2.5,8.425781 0,4.807574 0.476099,6.372027 2.914062,9.568359 1.602956,2.101568 4.086129,4.264368 5.517579,4.804688 2.420983,0.91384 2.601927,1.41413 2.585937,7.18164 -0.01448,5.22307 0.437506,6.85819 2.871094,10.37305 8.164678,11.79213 19.92855,11.23944 22.566406,-1.06055 0.98109,-4.57454 8.960871,-23.193424 9.646484,-22.507812 0.163371,0.163372 -0.192978,2.223886 -0.791015,4.580082 C 59.232629,111.00381 67.682412,123 77.414062,123 82.021463,123 86,119.38555 86,115.20117 c 0,-3.05196 2.495732,-10.85897 5.738281,-17.953123 l 1.94336,-4.251953 2.908203,5.675781 c 2.256754,4.402215 3.919436,6.214195 7.410156,8.083985 3.99069,2.1376 5.48622,2.36664 13.20508,2.02148 l 8.70312,-0.38867 -0.55664,4.06641 c -1.25562,9.16055 4.93607,19.10602 13.26758,21.31054 5.50478,1.45668 8.02198,1.40788 15.28711,-0.30468 C 176.0409,128.24332 197.23679,105.14324 202.5,80.5 c 4.01115,-18.780002 2.70287,-32.627447 -3.58008,-37.914062 -4.64643,-3.909844 -11.7868,-3.64168 -19.02148,0.714843 -5.45735,3.286175 -5.49522,3.293851 -8.43946,1.50586 -3.83024,-2.326189 -10.14665,-2.293825 -14.02343,0.07031 -2.66467,1.624914 -3.31236,1.685767 -4.96875,0.474609 -1.04764,-0.766031 -3.63418,-1.858529 -5.74805,-2.427734 -7.81989,-2.105694 -26.39148,4.66321 -34.74023,12.66211 l -3.52344,3.375 -1.75977,-4.953126 c -1.8132,-5.105057 -6.00731,-9.201574 -10.552732,-10.304687 -2.630184,-0.638319 -7.199448,0.788257 -8.357422,2.609375 -0.415249,0.653069 -0.761131,-1.225735 -0.769531,-4.175781 -0.01943,-6.8069 -2.900451,-12.142025 -8.152344,-15.09375 -1.522773,-0.855849 -3.08873,-1.326627 -4.580078,-1.458985 -0.559242,-0.04963 -1.108284,-0.05104 -1.640625,-0.0078 z m 2.605469,7.623047 c 0.110217,-0.02185 0.226865,-0.02163 0.349609,0.002 C 76.18684,33.312632 76.93696,33.93696 78,35 c 1.546275,1.546275 2,3.332525 2,7.876953 0,7.152248 -1.001688,9.648251 -9.498047,23.652344 L 63.845703,77.5 l 8.3125,0.294922 c 5.238791,0.185448 8.442508,-0.09901 8.666016,-0.769531 0.195049,-0.585146 3.240131,-5.822767 6.765625,-11.636719 C 91.115315,59.574719 94,53.960231 94,52.910156 c 0,-2.726066 2.502499,-2.358596 4.927734,0.72461 3.207816,4.077995 2.735926,9.813835 -1.457031,17.714843 L 93.941406,78 96.720703,77.98828 c 7.789647,-0.03085 10.141237,-1.096825 13.312497,-6.039062 6.67179,-10.396843 19.19873,-18.49744 30.38868,-19.652344 8.18023,-0.844276 10.78341,2.611998 7.15624,9.501953 -3.64552,6.925231 -16.43782,16.333609 -24.18554,17.78711 -3.69671,0.693483 -4.81675,2.827431 -4.2207,8.042968 0.27441,2.403178 0.84083,2.921748 3.47656,3.177735 4.45262,0.432443 8.93675,-1.715164 16.19531,-7.75586 3.46416,-2.882834 6.54315,-4.997846 6.8418,-4.699219 0.95025,0.950258 -3.54031,7.259621 -8.26758,11.617188 -8.13616,7.4997 -19.23939,11.009691 -27.65039,8.740234 -3.89571,-1.05109 -6.10618,-5.834234 -5.51953,-11.939453 l 0.4707,-4.898437 -6.609375,0.658203 C 93.014008,83.036792 91.156393,83.667584 90,85.285156 87.28488,89.083128 81.244966,103.3911 79.882812,109.25 c -0.73522,3.1625 -1.714685,5.75 -2.175781,5.75 -1.972039,0 -4.794872,-2.26846 -6.197265,-4.98047 -2.273196,-4.39574 -1.841794,-8.63953 1.644531,-16.203124 1.734607,-3.763287 2.965082,-7.031034 2.734375,-7.261718 -0.545866,-0.545866 -15.949386,1.365196 -17.191406,2.132812 -1.567629,0.968839 -10.495529,20.43277 -11.839844,25.8125 -0.687143,2.75 -1.498074,5.29144 -1.802734,5.64648 -1.024068,1.19334 -4.790011,-0.96494 -6.931641,-3.97265 C 35.075944,111.89448 35.44843,107.06203 39.5,98.292969 41.424954,94.126651 43,90.51737 43,90.271484 43,89.59133 34.7402,91.105189 32.75,92.150391 31.787523,92.655848 31,93.72953 31,94.535156 31,96.772701 29.370987,96.287603 27.072266,93.365234 25.914537,91.893437 25,89.255531 25,87.388672 c 0,-5.308371 2.879541,-6.526725 21,-8.884766 4.360253,-0.567393 4.627212,-0.809844 8.617188,-7.794922 C 56.88193,66.744145 61.750517,58.549862 65.435547,52.5 c 3.68503,-6.049862 7.213205,-12.912546 7.839844,-15.25 0.703306,-2.623501 1.201145,-3.89783 1.972656,-4.050781 z M 191.27539,49.003906 c 4.09591,-0.0055 5.04166,3.428831 4.4043,15.996094 -1.26468,24.936435 -13.98524,45.57902 -34.28711,55.64062 -4.80557,2.38169 -9.0797,3.70119 -13.19336,4.07422 -5.78447,0.52452 -6.23675,0.40169 -9.14258,-2.5039 -3.76737,-3.76738 -4.11074,-9.40232 -0.96875,-15.89258 4.30815,-8.899258 19.34267,-18.456773 34.24609,-21.769532 4.16514,-0.925803 2.6109,0.66165 -5.18164,5.291016 -14.31132,8.502266 -21.90109,16.347436 -19.09179,19.732426 2.97302,3.58233 13.73105,-0.11603 22.3125,-7.66993 7.50712,-6.608 13.55827,-22.039738 13.60937,-34.707028 L 184,62.890625 178.51953,67.355469 C 168.6895,75.362956 158.42895,77.230644 155.8125,71.488281 153.53695,66.494101 160.3973,52 165.03711,52 c 3.01015,0 3.2309,1.910873 0.97461,8.46875 -3.58966,10.433294 0.74524,9.930576 10.60156,-1.226562 6.47931,-7.334548 10.63199,-10.232882 14.66211,-10.238282 z m -51.86914,9.400391 c -1.11747,0.12868 -2.87589,0.833509 -5.4375,2.134765 C 131.04489,62.024361 122,71.408785 122,72.957031 c 0,1.490066 0.60403,1.344494 6.35547,-1.52539 C 134.47437,68.378285 141,62.340093 141,59.730469 c 0,-1.0063 -0.47628,-1.454852 -1.59375,-1.326172 z M 99.960938,113 c -1.755006,0 -4.191407,6.39401 -4.191407,11 0,7.10171 3.053869,11.94141 9.732419,15.42383 4.04241,2.10777 11.26909,1.98366 15.46289,-0.26563 5.40159,-2.89667 5.69558,-4.16202 2.14258,-9.20898 C 121.38496,127.5024 119.63143,123.475 119.21094,121 l -0.76367,-4.5 -5.97461,-0.66992 c -3.28527,-0.36868 -7.2388,-1.15618 -8.78711,-1.75 C 102.13725,113.48626 100.46101,113 99.960938,113 Z m -40.44336,7.55469 C 59.013855,120.4122 59,121.0183 59,122.23633 c 0,3.51737 -3.946383,8.95863 -8.019531,11.05664 -2.287016,1.17799 -5.134892,1.69221 -8.306641,1.5 L 37.847656,134.5 l 0.671875,4.48242 c 0.837505,5.58266 4.732077,16.05173 8.1875,22.00781 12.095414,20.84902 33.638273,35.19479 57.025389,37.97657 28.55408,3.39615 57.28701,-10.01223 72.78711,-33.9668 7.64018,-11.80749 11.08048,-21.99565 12.16211,-36.02148 0.6531,-8.46926 0.045,-9.55433 -3.27734,-5.85938 -6.12532,6.81198 -22.88624,15.8667 -32.14844,17.36719 -2.33462,0.3782 -4.48781,1.08137 -4.78516,1.5625 -0.30767,0.49779 -1.55716,0.48877 -2.89843,-0.0215 -2.49064,-0.94693 -5.65325,-0.5427 -9.24219,1.18164 -1.52765,0.734 -3.12421,0.70926 -5.39844,-0.084 -4.50105,-1.56915 -17.11567,-1.443 -19.35352,0.19336 -1.52418,1.11467 -2.40716,1.02037 -5.70117,-0.60938 -4.46891,-2.21092 -9.352417,-1.76424 -12.999997,1.18946 -2.19911,1.78076 -2.357283,1.77968 -5.322265,-0.0273 -1.68038,-1.02473 -4.735581,-1.86518 -6.791016,-1.86718 -3.718333,-0.004 -3.746159,-0.0349 -5.5,-6.14453 -1.514536,-5.27593 -2.223695,-6.33586 -5.035156,-7.52344 -1.799728,-0.76021 -5.06232,-2.99811 -7.25,-4.97461 -1.962696,-1.77322 -2.957193,-2.66415 -3.460938,-2.80664 z m 17.806641,27.42773 c 2.271987,0.0584 4.497719,0.37869 6.111328,0.99219 3.80473,1.44659 3.60902,6.51793 -0.337891,8.7832 -2.493982,1.43139 -2.683555,1.82324 -1.357422,2.79297 2.452657,1.79346 0.858996,8.26072 -2.226562,9.03516 -3.385281,0.84967 -4.543701,-0.20836 -4.259766,-3.89258 0.214507,-2.78313 -0.09288,-3.2334 -2.394531,-3.5 -2.194909,-0.25424 -2.954927,0.33681 -4.5,3.5 -1.783158,3.65062 -5.446682,5.59014 -6.707031,3.55078 -0.9637,-1.55934 4.448114,-17.68834 6.541015,-19.49414 1.427624,-1.23177 5.344192,-1.86489 9.13086,-1.76758 z m 23.841801,0.0254 c 0.41385,0.0499 0.83148,0.16108 1.26171,0.32617 1.77445,0.68092 2.80705,7.23783 2.38868,15.16602 -0.30138,5.7112 -0.44867,6.01521 -3.06641,6.31641 -1.964228,0.22602 -2.75,-0.13113 -2.75,-1.25 0,-2.17515 -8.528932,-2.23588 -9.361328,-0.0664 -0.693076,1.80619 -5.638925,2.02539 -5.640625,0.25 -6.46e-4,-0.6875 2.811923,-5.43202 6.25,-10.54297 5.322464,-7.912 8.020976,-10.54856 10.917973,-10.19922 z m 40.79101,0.0352 c 1.06935,-0.0812 2.08406,0.2141 2.52149,0.92187 0.32764,0.53013 -0.88373,5.36786 -2.69141,10.75 -3.0154,8.97813 -3.5141,9.81127 -6.03711,10.10157 -2.32154,0.26712 -2.75,-0.0555 -2.75,-2.07422 0,-2.88302 4.50869,-16.44477 6.10742,-18.3711 0.65631,-0.7908 1.78026,-1.24694 2.84961,-1.32812 z m 18.97656,0.008 c 2.3638,-0.0418 4.61768,0.59444 6.43164,2.02149 4.78929,3.76702 2.53102,13.11905 -4.26367,17.6582 C 158.54271,170.77373 149.92028,170.92028 147,168 c -2.59336,-2.59336 -2.52677,-5.53201 0.25,-11.0332 2.75079,-5.44998 8.48346,-8.82409 13.68359,-8.91602 z m -36.31054,1.08203 c 3.093,0.0471 4.39635,0.47943 5.59961,1.56836 4.27949,3.87309 0.0116,15.04937 -6.83985,17.91211 -1.82557,0.76277 -6.0339,1.38672 -9.35156,1.38672 -5.59742,0 -6.02945,-0.16206 -6.00195,-2.25 0.0163,-1.2375 1.2538,-5.85 2.75,-10.25 l 2.7207,-8 7.37109,-0.29688 c 1.49146,-0.0599 2.72088,-0.086 3.75196,-0.0703 z M 75.570312,153 C 73.607105,153 72,153.41296 72,153.91797 c 0,0.50502 -0.284575,1.66081 -0.632812,2.56836 -0.532618,1.38799 -0.01636,1.59977 3.25,1.33203 3.147638,-0.25802 3.944118,-0.74451 4.203124,-2.56836 0.280181,-1.97279 -0.120297,-2.25 -3.25,-2.25 z m 83.474608,0.19922 c -4.58433,0.46076 -8.66776,8.03341 -5.54492,11.15625 2.2764,2.2764 3.20994,2.08717 6.64062,-1.34375 2.32009,-2.32008 2.91792,-3.71615 2.67383,-6.25 -0.25482,-2.64513 -0.79431,-3.31708 -2.84765,-3.55664 -0.3081,-0.0359 -0.61624,-0.0344 -0.92188,-0.006 z m -38.49414,0.006 c -1.6754,-0.12488 -2.43486,1.51887 -3.90625,6.54492 l -1.53711,5.25 h 2.33594 c 3.29945,0 6.44334,-2.94408 7.17187,-6.7168 0.54024,-2.79655 0.27605,-3.37623 -2.02343,-4.42382 -0.8226,-0.3748 -1.48255,-0.61268 -2.04102,-0.6543 z M 98.632812,155 c -0.201889,0 -1.557826,1.8 -3.013671,4 l -2.648438,4 h 3.015625 C 98.836145,163 99,162.78196 99,159 c 0,-2.2 -0.165275,-4 -0.367188,-4 z" />
  </g>
</svg>
