<?xml version="1.0" encoding="UTF-8" standalone="no"?>
<svg
   width="89.834mm"
   height="89.834mm"
   viewBox="7.786 5.152 82.04739 82.086563"
   version="1.1"
   id="svg8"
   sodipodi:docname="RockZone.svg"
   inkscape:version="1.4.2 (f4327f4, 2025-05-13)"
   xmlns:inkscape="http://www.inkscape.org/namespaces/inkscape"
   xmlns:sodipodi="http://sodipodi.sourceforge.net/DTD/sodipodi-0.dtd"
   xmlns="http://www.w3.org/2000/svg"
   xmlns:svg="http://www.w3.org/2000/svg">
  <defs
     id="defs1" />
  <sodipodi:namedview
     id="namedview1"
     pagecolor="#505050"
     bordercolor="#eeeeee"
     borderopacity="1"
     inkscape:showpageshadow="0"
     inkscape:pageopacity="0"
     inkscape:pagecheckerboard="0"
     inkscape:deskcolor="#505050"
     inkscape:document-units="mm"
     inkscape:zoom="2"
     inkscape:cx="129.5"
     inkscape:cy="149.75"
     inkscape:window-width="1920"
     inkscape:window-height="1009"
     inkscape:window-x="-8"
     inkscape:window-y="-8"
     inkscape:window-maximized="1"
     inkscape:current-layer="svg8" />
  <rect
     style="fill:#ffffff;fill-opacity:1;stroke-width:0.251184"
     id="rect1"
     width="82.086021"
     height="82.085953"
     x="7.7664137"
     y="5.1520004" />
  <g
     id="layer1"
     transform="translate(-45.459479,-53.455572)"
     inkscape:label="layer1">
    <g
       id="g4767"
       transform="matrix(0.26458333,0,0,0.26458333,14.207087,-12.617251)">
      <path
         id="path4749"
         d="m 194.366,427.188 c 0,-11.732 5.333,-84.254 5.333,-51.192 0,54.392 3.199,13.864 3.199,-19.197 0,-22.396 -22.396,101.317 -7.465,26.663 8.532,-44.793 7.465,-34.128 0,7.466 -11.732,60.791 0,6.399 0,-22.396 0,-44.793 -8.532,49.059 -6.399,35.194 l 5.333,-46.926 c 4.266,-34.128 0,76.788 0,54.392 0,-30.929 -8.532,-63.991 20.263,-50.126 20.264,9.599 -43.727,51.192 -2.133,23.463 19.197,-12.798 12.798,-30.928 -10.665,-30.928 -5.333,0 14.931,1.066 17.064,5.333 6.399,13.864 5.333,23.463 -10.665,29.862 -8.532,3.2 -57.591,-2.133 -15.998,-2.133 10.665,0 28.796,-17.064 19.197,-26.663 -34.128,-34.128 6.399,1.066 6.399,17.064 0,5.333 -33.062,10.665 -28.796,12.798 l 21.331,9.599 c 29.862,13.865 15.998,14.931 -6.399,-7.465 l 24.529,24.529 m 25.711,-57.645 c -24.53,-3.199 -35.195,46.926 -13.865,57.591 26.663,12.797 41.594,-31.995 33.062,-49.059 -27.729,-55.458 -65.057,62.925 -11.731,36.261 11.731,-5.333 20.264,-41.594 4.266,-49.059 -39.46,-19.197 -41.594,49.059 -19.197,49.059 9.599,0 11.731,5.333 23.463,-2.133 17.064,-11.731 8.532,-45.859 -10.665,-45.859 -43.727,0 -26.663,73.587 10.665,49.059 41.594,-27.729 -24.53,-68.256 -24.53,-38.395 m 28.881,3.805 c -26.663,-33.062 -47.993,37.328 -20.264,45.859 22.396,7.466 41.594,-34.128 28.796,-46.926 -15.998,-15.998 -39.461,-7.465 -46.926,15.998 -13.865,43.727 65.057,33.062 43.727,-10.665 -17.064,-34.128 -50.125,-1.066 -50.125,22.397 0,14.931 26.663,20.264 36.261,20.264 34.129,0 7.466,-99.186 -25.596,-54.392 -9.599,12.798 -2.133,65.057 21.33,50.125 3.199,-2.133 29.862,-49.059 11.731,-49.059 m 60.819,9.194 c -14.931,-30.929 -38.395,-7.465 -31.996,19.197 3.201,12.798 2.134,21.331 17.065,21.331 7.465,0 9.598,-11.731 9.598,-7.466 0,21.331 -38.394,3.199 -38.394,-19.197 0,-12.798 22.396,-33.062 29.862,-18.13 11.731,24.53 -7.466,-26.663 -17.064,3.2 -2.133,8.532 -9.599,33.062 0,37.327 14.931,7.466 19.197,-1.066 21.33,-12.798 0,-4.266 6.399,27.73 -10.665,17.064 -17.064,-11.731 -30.929,-43.727 -6.398,-59.725 18.13,-11.731 19.196,31.995 19.196,17.064 0,-20.264 -22.396,-3.2 -25.596,3.199 -34.128,57.591 41.594,27.729 31.995,27.729 m -1.471,-32.052 c 0,-37.328 -60.791,41.593 -5.332,41.593 3.199,0 -21.33,-3.2 -21.33,-43.727 0,-10.665 54.392,-13.864 15.997,-13.864 -21.33,0 -17.064,29.862 -17.064,45.859 0,14.931 30.93,19.197 35.195,5.333 10.665,-34.128 -36.262,38.394 -36.262,-26.663 0,-33.062 11.732,-11.731 -4.266,4.266 -15.997,15.998 14.932,30.928 24.529,34.128 5.333,1.066 38.395,-42.661 3.2,-14.932 -19.197,14.932 -28.796,-30.929 -20.264,-39.46 2.133,-2.133 17.063,-7.465 24.529,-4.266 3.199,1.066 2.133,20.264 2.133,18.131 m 14.847,30.818 1.066,-54.392 c 13.864,43.727 13.864,-53.325 7.466,9.599 l -6.399,52.258 c 0,4.267 0,-9.599 0,-10.665 l 5.333,-46.926 m 54.072,-3.256 -45.859,22.396 c -39.461,19.197 -85.321,33.062 -19.197,1.067 l 4.266,-2.133 c 19.197,-8.532 85.32,-17.064 35.195,-1.066 -2.134,0 21.33,-30.929 9.598,-11.731 -21.33,34.128 -42.659,5.333 13.865,33.062 36.261,18.131 -59.725,-22.396 -33.062,-13.865 12.798,4.266 42.66,27.729 51.192,27.729 m -60.301,-59.639 -7.466,53.325 c 0,7.465 9.599,-40.527 3.2,-46.926 -3.2,-3.2 -5.333,108.784 -5.333,19.197 0,-13.865 4.267,-29.862 4.267,-4.267 0,43.727 -14.932,45.86 0,14.932 5.332,-10.665 38.394,-11.731 47.992,-30.929 4.266,-9.599 -28.796,6.399 -34.128,10.665 -20.264,14.931 17.063,8.532 26.662,4.266 19.197,-9.598 -43.727,8.532 -21.33,14.931 55.459,14.931 33.062,51.191 11.731,8.532 -7.465,-14.931 -45.859,-13.864 -1.066,3.2 3.2,1.066 6.399,6.399 9.599,8.532 37.328,24.529 -55.458,-20.264 -22.396,-30.928 25.596,-8.532 31.995,-7.466 2.133,-2.133 -33.062,6.399 12.798,7.466 23.463,-3.2 4.267,-4.266 -27.729,5.333 -33.062,10.666 -1.066,1.066 -6.398,-14.931 -6.398,-19.197 0,-23.463 -10.665,9.598 -10.665,20.264 l 1.066,26.663 c 0,3.199 2.133,9.599 2.133,8.532"
         stroke-miterlimit="2.6131"
         style="fill:none;stroke:#c20e1a;stroke-width:1.3518;stroke-linecap:round;stroke-linejoin:round;stroke-miterlimit:2.6131" />
      <path
         id="path4751"
         d="m 196.5,388.11 c 7.118,2.738 11.498,8.761 16.426,13.688 15.331,15.331 7.666,9.855 -5.475,-1.095 -33.399,-27.376 29.019,31.21 13.141,15.331 -6.023,-6.022 -32.852,-36.136 -14.236,-17.521 9.308,9.308 42.16,31.757 15.878,12.046 -3.833,-2.738 -24.639,-23.544 -15.331,-9.308 2.19,3.285 13.141,19.71 17.521,19.71 m -31.21,16.427 1.643,-65.156 m 109.314,26.925 87.948,-32.108 m -85.156,-0.93 c 9.307,-14.891 18.148,0 22.802,6.98 5.584,8.376 -0.931,-8.376 -6.515,-11.168 -7.911,-3.723 -14.426,0.931 -13.961,0.931 8.842,0 21.871,17.218 21.871,6.05 0,-6.05 -12.099,-18.148 -17.217,-10.703 -8.377,12.564 -19.544,42.346 6.049,42.346 21.871,0 6.98,15.821 -11.168,6.98"
         stroke-miterlimit="2.6131"
         style="fill:none;stroke:#c20e1a;stroke-width:1.3518;stroke-linecap:round;stroke-linejoin:round;stroke-miterlimit:2.6131" />
      <path
         id="path4753"
         d="m 193.964,353.643 c 12.798,0 28.231,0.376 25.22,15.434 -2.259,12.045 -21.456,10.916 -24.844,17.692 -2.259,4.517 13.174,-4.894 15.057,-8.281 2.635,-4.518 7.152,-22.585 -3.011,-22.585 -46.3,0 25.973,-8.281 11.669,16.939 -3.011,5.27 -18.068,17.315 -13.551,23.714 1.506,2.259 30.114,22.585 16.186,19.198 -6.399,-1.506 -24.091,-16.562 -26.726,-22.209"
         stroke-miterlimit="2.6131"
         style="fill:none;stroke:#c20e1a;stroke-width:1.3517;stroke-linecap:round;stroke-linejoin:round;stroke-miterlimit:2.6131" />
      <path
         id="path4755"
         d="m 270.263,427.62 c -23.721,-11.861 -30.19,23.721 -18.329,31.268 20.485,14.018 38.815,-9.703 22.642,-25.877 -12.938,-12.938 -31.268,-3.234 -31.268,16.174 0,15.094 36.659,20.486 36.659,-1.078 0,-22.643 -28.033,-35.582 -35.581,-10.783 -22.642,67.928 85.179,-14.016 17.251,-14.016 -52.832,0 21.564,84.1 21.564,21.564 0,-37.738 -65.771,-7.549 -29.111,17.25 15.095,9.705 33.424,-1.078 33.424,-18.328 0,-25.877 -40.972,-24.799 -40.972,7.547 0,19.408 43.128,29.111 43.128,0 0,-61.458 -71.162,-8.625 -40.972,10.781 37.737,24.799 62.536,-34.502 17.251,-34.502 -29.111,0 -12.938,37.736 16.173,37.736 12.938,0 5.391,-37.736 -14.017,-37.736 -37.737,0 -10.782,42.051 19.408,32.346 17.251,-5.391 -8.625,-28.033 -21.564,-26.955 -3.234,0 -14.016,3.234 -14.016,5.391 v 8.627 m 46.945,18.853 5.391,-40.971 c 4.312,-29.112 -2.156,37.736 -2.156,6.469 0,-34.503 2.156,72.24 2.156,29.111 v -17.252 c 0,-7.547 0,22.643 0,6.469 0,-56.066 45.285,38.816 34.503,4.314 -2.156,-7.549 -2.156,-40.972 -2.156,-30.191 0,10.783 1.078,39.895 1.078,12.939 0,-31.268 3.234,36.658 0,2.156 -3.234,-36.659 1.078,28.033 1.078,7.547 0,-45.284 15.095,-7.547 6.469,10.783 0,1.078 -1.078,2.156 -1.078,-8.625 0,-3.236 -1.078,-25.879 0,-12.939 3.235,32.346 0,-30.19 0,-5.391 v 12.938 c 0,35.582 -17.251,-6.469 -26.955,-16.172 -12.938,-12.939 3.234,16.172 8.626,21.564 18.329,18.328 -51.754,-35.582 2.156,-4.314 50.676,29.111 -14.017,-12.938 -14.017,-2.156 0,19.408 -8.626,6.471 -11.86,-6.469 -1.078,-4.312 -5.391,31.268 6.469,-5.391 2.156,-6.471 29.112,34.502 36.659,19.406 m 15.649,-25.321 c 0,32.346 66.85,40.971 32.347,40.971 H 367.36 c -8.626,0 -8.626,-19.406 -3.234,-21.562 42.05,-20.486 -3.235,26.955 -3.235,-16.174 0,-6.469 48.52,-1.078 16.174,-1.078 -16.174,0 -14.017,1.078 -10.782,17.252 5.391,31.268 -2.156,-24.799 -2.156,-16.174 l 1.078,17.252 c 2.156,29.111 -4.313,0 -3.235,-14.018 1.079,-14.016 23.721,-9.704 23.721,-9.704 -74.396,0 90.569,4.313 0,4.313 -3.234,0 12.938,-1.078 2.156,0 36.659,0 -6.469,-3.234 -16.173,-3.234 -6.469,0 -10.782,15.094 -10.782,21.564 0,4.312 -6.469,1.078 23.721,1.078 h 7.548 c 16.173,0 -32.347,-1.078 -26.955,17.25 1.078,5.393 8.625,6.471 14.017,6.471 40.972,0 -24.799,-3.236 28.033,-3.236 9.704,0 -127.229,-3.234 -32.347,-3.234 h 32.347 M 188.319,424.882 c 59.301,0 53.91,8.625 17.251,30.189 -30.189,18.33 49.598,5.391 23.721,6.469 l -40.972,2.156 c -2.157,0 80.865,-36.658 33.424,-36.658 -61.458,0 3.234,-2.156 -20.486,-2.156 -8.626,0 -19.408,3.234 -3.235,3.234 38.815,0 36.659,-5.391 18.33,22.643 -7.547,10.781 -20.486,5.391 -28.033,12.938 0,0 -8.626,1.078 4.312,1.078 l 32.346,-1.078 c -65.771,0 10.782,-11.859 10.782,-34.502"
         stroke-miterlimit="2.6131"
         style="fill:none;stroke:#f1c914;stroke-width:1.3519;stroke-linecap:round;stroke-linejoin:round;stroke-miterlimit:2.6131" />
      <path
         id="path4757"
         d="m 190.101,427.79 c 29.337,0 53.693,3.32 11.071,3.32 -14.946,0 -17.16,0.555 3.321,0.555 11.071,0 40.962,-7.75 18.267,6.088 l -33.212,19.373 c -13.285,8.305 24.356,4.43 31.552,3.322 18.82,-2.768 -53.693,7.195 -22.695,-6.09 8.303,-3.32 15.499,-6.088 22.142,-12.178 2.214,-1.66 9.41,-6.643 9.963,-8.303 0,-1.107 4.982,-7.195 4.982,-6.643 m 66.682,40.779 1.255,-42.035 c 0.313,-10.351 8.47,-3.449 11.92,3.766 4.078,8.154 13.175,13.488 19.448,20.703 10.352,11.92 4.078,-16.939 4.705,-24.781 1.883,-24.781 5.02,28.859 6.273,39.211 0.628,5.332 -12.86,-14.43 -16.625,-18.195 -3.45,-3.449 -24.781,-14.742 -24.781,-13.174 -0.94,6.9 5.333,31.369 0,36.701 -4.077,4.078 -6.9,-21.018 -6.9,-22.898 0,-13.176 2.195,-25.722 17.88,-21.332 8.47,2.197 10.352,15.686 16.625,21.959 14.743,14.742 12.233,-10.039 12.233,-20.703 0,-17.88 1.568,2.51 1.568,10.979 0,9.41 5.02,0 1.569,-3.451 m 15.204,-15.514 1.882,32.932 c 1.411,24.934 -9.409,-59.747 -2.353,-15.055 0.471,3.293 -0.94,22.58 2.353,22.58 7.997,0 56.924,-2.822 29.638,-2.822 -5.175,0 -30.579,6.115 -30.579,-3.293 0,-16.936 28.697,-2.352 28.697,-10.82 0,-5.174 -30.108,5.646 -32.461,-10.35 -1.881,-12.702 11.762,-8.467 21.171,-8.467 6.115,0 40.928,-4.706 20.229,-4.706 -14.113,0 -35.754,-3.293 -35.754,12.702 0,10.82 12.231,9.41 19.759,9.41 1.411,0 -1.882,2.822 -2.352,2.822 -3.764,0.941 -14.584,0.941 -15.525,4.234 -2.352,7.527 6.587,8.467 11.291,8.467 39.047,0 -0.941,2.822 -19.759,2.822 -31.049,0 -0.471,-2.822 14.584,-2.822"
         stroke-miterlimit="2.6131"
         style="fill:none;stroke:#f1c914;stroke-width:1.3519;stroke-linecap:round;stroke-linejoin:round;stroke-miterlimit:2.6131" />
      <path
         id="path4759"
         d="m 351.263,473.938 c -0.772,6.572 -13.393,22.908 -5.495,27.873 11.566,7.27 12.192,-16.748 10.245,-20.877 -3.299,-6.992 -10.245,0 -11.792,2.9 -6.186,11.018 0.193,17.203 9.278,18.17 9.665,0.967 7.152,-15.658 5.026,-20.684 -3.286,-7.926 -12.564,5.799 -12.564,10.053 0,2.512 -0.501,8.119 2.513,9.471 8.38,3.762 12.378,-7.48 9.463,-13.531 -2.041,-4.236 2.532,-12.912 -6.177,-10.438 -8.302,2.357 -8.119,13.918 -4.833,20.49 1.547,3.092 7.557,6.02 10.825,3.865 5.237,-3.451 2.374,-12.371 2.374,-17.783"
         stroke-miterlimit="2.6131"
         style="fill:none;stroke:#f1c914;stroke-width:1.3519;stroke-linecap:round;stroke-linejoin:round;stroke-miterlimit:2.6131" />
      <path
         id="path4761"
         d="m 320.024,486.374 c 4.512,-1.277 8.283,-5.916 12.214,-7.91 8.34,-4.377 -2.693,36.053 0.961,20.02 l 4.099,-18.176 c 1.218,-5.344 -11.098,5.621 -16.294,5.074 -1.515,-0.158 8.261,-5.699 10.756,-6.531 9.57,-3.59 6.624,18.207 3.754,24.691 -3.748,8.582 2.059,-17.514 0.713,-21.377 -0.171,-0.455 -10.413,3.285 -12.088,4.641 -1.197,0.969 11.072,-13.721 13.397,-10.85 0.969,1.195 -2.379,16.385 0.069,3.51 l -2.186,12.465"
         stroke-miterlimit="2.6131"
         style="fill:none;stroke:#f1c914;stroke-width:1.3519;stroke-linecap:round;stroke-linejoin:round;stroke-miterlimit:2.6131" />
      <path
         id="path4763"
         d="m 379.127,478.052 -10.477,0.762 c -2.857,0.189 22.286,-0.381 12.763,-1.334 -9.334,-0.762 -14.096,-0.57 -14.096,8.762 0,6.287 20.953,-4.951 16.762,10.096 -1.714,5.906 -9.904,4.191 -15.238,5.334 -1.523,0.191 12.19,2.285 12.19,-6.096 0,-7.809 -10.477,-4.189 -12.19,-7.619 -4.762,-9.715 0.952,11.238 1.143,1.523 l 0.19,-8.381 c 0.117,-5.145 12.183,1.242 16.953,-1.143 l 0.381,-0.189 c 2.215,-1.107 -17.521,-1.904 -18.096,0.189 -3.235,11.811 5.524,3.047 11.048,7.43 4.191,3.238 0.762,10.857 -3.429,10.857 h -4.381 c -0.952,0 -9.144,-1.143 -6.096,1.904 1.524,1.523 9.339,0.207 11.43,-0.381 4.004,-1.127 -13.312,-1.836 -11.048,-1.523 l 11.048,1.523 m 11.429,-2.095 c -1.523,1.715 -2.286,3.43 -2.857,5.715 -1.143,4.191 4.381,-0.762 4.381,-5.523 0,-4 -1.904,0.762 -2.285,2.477 -1.144,4.57 2.476,-1.715 2.476,-5.334 0,-1.525 -4.381,4.57 -4.762,5.334"
         stroke-miterlimit="2.6131"
         style="fill:none;stroke:#f1c914;stroke-width:1.3519;stroke-linecap:round;stroke-linejoin:round;stroke-miterlimit:2.6131" />
      <path
         id="path4765"
         d="m 405.574,477.026 c -4.412,-1.289 -9.761,-0.059 -9.664,5.756 0.544,14.525 22.247,1.713 13.448,-5.049 -4.427,-3.289 -11.017,-1.225 -12.521,3.922 -2.149,7.355 8.299,11.207 11.627,4.596 2.37,-4.695 -0.371,-8.289 -5.19,-7.502 -5.24,0.861 -12.967,8.182 -4.672,11.205 7.063,2.463 10.488,1.668 12.744,-6.053 0.752,-2.574 -0.503,-3.74 -2.418,-4.697 -5.14,-2.898 -1.938,-1.564 -0.476,0.26 2.297,3.064 3.751,6.283 2.623,10.145 -1.559,5.332 -3.473,17.344 -11.276,11.271 -7.176,-5.488 5.323,2.953 6.882,-2.379 l 3.223,-11.031 c 0,0 1.619,10.85 -3.401,14.371 -1.532,1.148 -10.143,-2.166 -11.053,-3.828 -2.343,-4.275 3.523,0.232 5.125,0.898 6.403,2.67 14.269,-5.807 11.782,-12.32 -0.804,-2.031 -9.28,-9.896 -10.463,-5.852"
         stroke-miterlimit="2.6131"
         style="fill:none;stroke:#f1c914;stroke-width:1.3519;stroke-linecap:round;stroke-linejoin:round;stroke-miterlimit:2.6131" />
    </g>
  </g>
</svg>
