<?xml version="1.0" encoding="UTF-8" standalone="no"?>
<svg
   enable-background="new 0 0 500 500"
   viewBox="0 0 500 500"
   version="1.1"
   id="svg92"
   sodipodi:docname="RockRadio.svg"
   xml:space="preserve"
   inkscape:version="1.2.1 (9c6d41e410, 2022-07-14)"
   xmlns:inkscape="http://www.inkscape.org/namespaces/inkscape"
   xmlns:sodipodi="http://sodipodi.sourceforge.net/DTD/sodipodi-0.dtd"
   xmlns="http://www.w3.org/2000/svg"
   xmlns:svg="http://www.w3.org/2000/svg"><defs
     id="defs96" /><sodipodi:namedview
     id="namedview94"
     pagecolor="#ffffff"
     bordercolor="#000000"
     borderopacity="0.25"
     inkscape:showpageshadow="2"
     inkscape:pageopacity="0.0"
     inkscape:pagecheckerboard="0"
     inkscape:deskcolor="#d1d1d1"
     showgrid="false"
     inkscape:zoom="1.192182"
     inkscape:cx="88.073798"
     inkscape:cy="275.54517"
     inkscape:window-width="1920"
     inkscape:window-height="1001"
     inkscape:window-x="-9"
     inkscape:window-y="1341"
     inkscape:window-maximized="1"
     inkscape:current-layer="svg92" /><style
     type="text/css"
     id="style325">
	.st0{fill:#1D1D1D;}
	.st1{fill:#FFFFFF;}
	.st2{fill:#D3A82B;}
	.st3{fill:#B63323;}
</style><g
     id="g343"
     transform="matrix(1.3549495,0,0,1.3549495,4.6514943,126.78868)">
	<path
   class="st0"
   d="M 347.4,96 304,65.7 c 0.3,0.2 0.6,0.4 0.8,0.6 l -8.9,-7.4 c 4,3.3 5.2,8.9 3,13.6 l 22.6,-48.9 c 2.3,-4.9 0.8,-10.7 -3.5,-13.9 -4.3,-3.2 -10.3,-3.1 -14.4,0.4 l -42.7,36.2 c 4,-3.4 9.7,-3.7 14,-0.7 l -21.7,-15 c -3.7,-2.6 -8.6,-2.7 -12.5,-0.4 -3.9,2.3 -6,6.7 -5.5,11.2 l 0.6,4.7 c -0.1,-0.6 -0.1,-1.3 -0.1,-1.9 0,0.2 0,0.3 0,0.3 0,0 0.1,-0.2 0.2,-0.3 0.3,-0.3 0.6,-0.5 0.8,-0.6 -0.8,0.3 -3.4,0.2 -4.9,0.1 -1.1,-0.1 -2.3,-0.1 -3.4,-0.1 -2.4,0 -5.2,0.1 -7.1,0.2 1.3,0 2.6,0.1 3.9,0.5 -1.3,-0.4 -2.7,-0.6 -4.1,-0.6 h -19.9 c -5.1,0 -9.7,2.8 -12.1,7.2 0,-0.1 -7.2,13.2 -7.2,13.2 2.5,-4.6 7.9,-6.9 13,-5.6 5.1,1.4 8.7,6 8.6,11.3 l 0.2,-12.2 c 0.1,-3.6 -1.4,-7.2 -3.9,-9.8 0,0 -0.1,-0.1 -0.1,-0.1 -2.6,-2.6 -6.1,-4.1 -9.8,-4.1 h -17.7 c -3.6,0 -7.1,1.5 -9.7,4 -2,2 -3.4,4.6 -3.9,7.3 0.7,-4.2 3.7,-7.6 7.8,-8.9 4,-1.3 8.5,-0.3 11.5,2.6 -1.4,-1.4 -3.1,-2.4 -5.1,-3.1 -5.3,-1.8 -11.1,-2.8 -16.7,-2.8 -10.8,0 -20.9,4.2 -28.4,11.7 -4.1,4.1 -7.3,9.2 -9.2,14.6 1.6,-4.6 6,-7.6 10.9,-7.6 4.9,0 9.2,3.1 10.8,7.7 C 138.1,63 134.4,57.5 129.6,53.2 122,46.4 111.8,42.6 100.9,42.6 90,42.6 79.7,46.4 72.1,53.2 69,56 66.3,59.3 64.3,63 c 2.2,-4 6.5,-6.3 11,-5.9 l -2,-0.2 c 4.8,0.4 8.8,3.7 10.1,8.3 C 81.6,58.9 77.9,53.6 72.7,49.9 66.7,45.6 59.1,43.4 50,43.4 H 28 c -3.6,0 -7.2,1.5 -9.7,4 -2.5,2.5 -4,6.1 -4,9.7 V 107 c 0,3.6 1.5,7.2 4.1,9.7 0,0 -0.1,-0.1 -0.1,-0.1 2.6,2.6 6.1,4.1 9.8,4.1 h 23.2 c -6.4,0 -11.5,-5.1 -11.5,-11.5 v 34.5 c 0,6.3 5.1,11.5 11.5,11.5 H 71 c 6.4,0 11.5,-5.1 11.5,-11.5 v -6.8 c 0,5.3 -3.7,9.9 -8.9,11.2 -5.2,1.2 -10.6,-1.3 -12.9,-6.1 l 3.3,7 c 1.9,3.9 5.9,6.4 10.3,6.4 h 33.5 c 5.3,0 10,-3.7 11.2,-8.8 l 1.2,-5.3 c -1.2,5.2 -5.9,8.8 -11.2,8.8 h 8.2 c -5.2,0 -9.8,-3.5 -11.1,-8.5 l 1.4,5.3 c 1.3,5 5.9,8.5 11.1,8.5 h 40.1 c 4,0 7.7,-2.1 9.8,-5.5 2.1,-3.4 2.3,-7.6 0.5,-11.2 1.7,3.4 1.6,7.5 -0.3,10.9 -1.9,3.3 -5.4,5.5 -9.3,5.7 8.8,-0.5 16.5,-3.7 22.3,-9.3 3.4,-3.2 6.1,-7.2 7.9,-11.7 -2,5.1 -7.4,8.1 -12.8,7.1 -5.4,-1 -9.4,-5.8 -9.4,-11.3 v 13.8 c 0,6.3 5.1,11.5 11.5,11.5 h 20 c 6.4,0 11.5,-5.1 11.5,-11.5 v -14.1 c 0,5.5 -3.9,10.2 -9.3,11.3 -5.4,1 -10.8,-1.9 -12.9,-7 2,5 5.1,9.3 9.1,12.8 6.7,5.9 15.9,9.2 25.7,9.2 0.9,0 1.8,0 2.8,-0.1 -4.8,0.3 -9.2,-2.4 -11.2,-6.7 l 0.1,0.1 c 1.9,4.2 6.1,6.8 10.7,6.7 1.7,0 17.1,-0.5 27,-3.8 13.9,-4.6 18.3,-18.2 18.7,-19.7 0.3,-0.9 0.4,-1.8 0.5,-2.7 v -0.2 c -0.1,1.5 -0.4,2.9 -1,4.3 l 15.5,-33.5 c -2.1,4.6 -7.1,7.3 -12.2,6.5 l 65.2,9.8 c 5.3,0.8 10.4,-2.1 12.4,-7.1 1.9,-5 0.2,-10.7 -4.1,-13.7"
   id="path327" />
	<path
   class="st1"
   d="m 221.1,104.3 c 0,0 -14.6,-21.6 -16.3,-24.1 1.6,-2.5 14.7,-22.7 14.7,-22.7 0.3,-0.4 0.4,-0.9 0.4,-1.3 0,-0.4 -0.1,-0.8 -0.3,-1.2 -0.4,-0.8 -1.3,-1.3 -2.2,-1.3 h -19.7 c -0.9,0 -1.8,0.5 -2.2,1.3 0,0 -4.1,7.6 -6.7,12.2 0.1,-5.5 0.2,-11 0.2,-11 0,-0.7 -0.3,-1.3 -0.7,-1.8 -0.5,-0.5 -1.1,-0.7 -1.8,-0.7 h -17.6 c -1,0 -1.8,0.5 -2.2,1.3 -4.1,-1.4 -8.5,-2.1 -12.8,-2.1 -12.3,0 -22.5,7.4 -26.6,18.1 C 123.2,60 112.6,52.8 99,52.8 86.9,52.8 77.2,58.5 72.3,67.5 70,58.7 62,53.6 49.9,53.6 H 28.1 c -1.4,0 -2.5,1.1 -2.5,2.5 v 49.5 c 0,1.4 1.1,2.5 2.5,2.5 h 46.7 c 0.9,0 1.8,-0.5 2.2,-1.3 0.2,-0.4 0.3,-0.8 0.3,-1.2 0,-0.5 -0.1,-1 -0.4,-1.4 l -4.7,-7 c 0,0 1.2,-0.8 1.9,0.1 5.3,7.1 14.1,11.5 24.9,11.5 13.6,0 24.1,-6.8 28.2,-17.5 4,10.4 13.9,17.5 25.9,17.5 2.9,0 9.9,-0.5 13.6,-2 0.4,0.8 1.2,1.3 2.2,1.3 l 7.5,5.5 10.1,-5.5 c 0.7,0 1.3,-0.3 1.8,-0.7 0.5,-0.5 0.7,-1.1 0.7,-1.8 0,0 -0.1,-3.2 -0.2,-8.7 2,-0.3 7.1,10 7.1,10 0.4,0.8 2.6,4.5 3.5,4.5 l 19.7,-3.2 c 0.9,0 1.8,-0.5 2.2,-1.3 0.2,-0.4 0.3,-0.8 0.3,-1.2 -0.1,-0.5 -0.2,-1 -0.5,-1.4"
   id="path329" />
	<path
   class="st2"
   d="M 280,71.4 304,28 266.7,61.3 250.2,48.9 l 3.1,23.3 -17.2,14 19.2,2.1 3.8,29.6 12.6,-27.9 50.2,7.6 z m -5.3,24.5 -17.8,38.4 -5,-41.8 -24,-3.7 21.5,-18.1 -3.6,-30.4 21.7,15 42.6,-36.2 -23,49.8 52.7,36.7 z"
   id="path331" />
	<path
   class="st3"
   d="m 221.9,125.6 c -3.3,0 -5.4,-2.2 -5.4,-5.6 0,-2.8 1.7,-5.7 5.4,-5.7 3.7,0 5.4,2.9 5.4,5.7 0,3.4 -2.1,5.6 -5.4,5.6 m -68.4,-0.1 v -11.1 c 3.5,0.4 5,2.1 5,5.9 0,3 -1.7,4.8 -5,5.2 z m 32.9,-40.6 c 0.4,2 2,3.9 3,5.8 l 3.1,5.4 h -6.3 L 186,84.9 Z M 89,131.3 85.2,125.6 c -0.1,-0.2 -0.3,-0.4 -0.4,-0.6 4.5,-2.4 6.5,-6 6.5,-11.8 0,-3.1 -0.6,-5.9 -1.8,-8.2 2.6,0.8 5.4,1.3 8.3,1.4 z M 45.7,78.1 v -8.4 h 1.4 c 3.1,0 5.8,0.5 5.8,4.3 0,3.7 -3,4.1 -5.9,4.1 H 45.7 Z M 99,71.6 c 5.7,0 9.3,4.4 9.3,9.7 0,5.6 -3.8,9.5 -9.3,9.5 -5.5,0 -9.3,-3.9 -9.3,-9.5 0,-5.3 3.6,-9.7 9.3,-9.7 z m 122.9,23.8 c -3.2,0 -6.2,0.5 -9,1.3 L 201.7,80.2 217.3,56.1 H 197.6 L 188.9,72 c -1,1.8 -2.1,3.6 -2.5,5.6 H 186 l 0.4,-21.5 h -17.6 v 44.2 c -0.9,-0.5 -1.8,-1 -2.7,-1.4 l 0.4,-13 c -2.9,2.8 -6.2,4.6 -10.3,4.6 -5.4,0 -10.1,-4.2 -10.1,-9.7 0,-5.4 4.4,-9.7 9.8,-9.7 4.1,0 7.7,2.3 10.6,5 L 166,57.4 c -3.8,-1.3 -8,-2 -12.1,-2 -14.6,0 -26,11.6 -26,26 0,5.9 2,11.3 5.3,15.5 v 30.8 L 121.9,96.1 c 3,-4 4.7,-9.1 4.7,-15.1 0,-15.6 -12.4,-25.7 -27.5,-25.7 -15.1,0 -27.5,10.1 -27.5,25.7 0,6.2 1.9,11.5 5.1,15.6 C 75,96.3 73.1,96.1 71.2,96.1 H 68.5 L 64,89.6 c -1,-1.5 -2.1,-2.2 -3,-3 V 86.2 C 67.7,84 70.6,80.8 70.6,73.3 70.6,60.8 61.1,56.1 49.9,56.1 H 28 v 49.5 H 45.7 V 89.8 H 46 l 4,8.1 v 42.9 c 0,1.4 1.1,2.5 2.5,2.5 h 15 c 1.4,0 2.5,-1.1 2.5,-2.5 v -3.4 c 1,2 2.3,4.5 2.3,4.5 0.4,0.8 1.3,1.4 2.2,1.4 h 30 c 1.2,0 2.2,-0.8 2.4,-1.9 0,0 0.4,-1.8 0.8,-3.3 h 7.7 c 0.4,1.6 0.9,3.4 0.9,3.4 0.3,1.1 1.3,1.9 2.4,1.9 h 16.2 c 0.1,0 0.2,0 0.2,0 0.1,0 0.2,0 0.3,0 h 19.5 c 10.1,0 18,-4.9 21.6,-12.7 v 10.2 c 0,1.4 1.1,2.5 2.5,2.5 h 16.5 c 1.4,0 2.5,-1.1 2.5,-2.5 v -10.6 c 3.9,8.4 12.6,13.7 23.7,13.7 15.2,0 25.9,-9.9 25.9,-24.1 0.2,-14.2 -10.7,-24.5 -25.7,-24.5 z"
   id="path333" />
	<path
   class="st1"
   d="m 108.6,125.5 2.8,-12.9 h 0.6 c 0.3,1.8 0.6,3.6 1,5.4 l 1.8,7.4 h -6.2 z m -40,-8.2 h -1.1 v -7.2 h 1.2 c 2.6,0 4.9,0.4 4.9,3.6 0.1,3.2 -2.4,3.6 -5,3.6 z m 34.5,-18.7 -13.3,38.3 -6.6,-9.8 c -0.8,-1.2 -1.8,-1.9 -2.6,-2.5 v -0.3 c 5.7,-1.9 8.2,-4.6 8.2,-11 0,-10.6 -8.1,-14.6 -17.6,-14.6 H 52.6 v 42.1 h 15 v -13.5 h 0.3 l 6.7,13.5 h 30 l 1.2,-5.2 h 11.6 l 1.4,5.2 H 135 L 120,98.6 Z"
   id="path335" />
	<path
   class="st1"
   d="m 151.9,128.1 h -1 v -16.3 h 1 c 5.6,0 9,2.5 9,8.4 0.1,5.5 -3.9,7.9 -9,7.9 m -0.6,-29.5 h -15.6 v 42.1 h 19.5 c 12.4,0 21.2,-7.9 21.2,-20.5 -0.1,-15.4 -10.9,-21.6 -25.1,-21.6 z"
   id="path337" />
	<rect
   x="179.2"
   y="98.599998"
   class="st1"
   width="16.5"
   height="42.099998"
   id="rect339" />
	<path
   class="st1"
   d="m 221.9,128.1 c -4.7,0 -7.9,-3.3 -7.9,-8.1 0,-4.5 3,-8.2 7.9,-8.2 4.9,0 7.9,3.7 7.9,8.2 0,4.8 -3.2,8.1 -7.9,8.1 m 0,-30.2 c -12.8,0 -23.4,8.6 -23.4,21.8 0,13.5 10.5,21.6 23.4,21.6 12.9,0 23.4,-8.1 23.4,-21.6 0,-13.2 -10.5,-21.8 -23.4,-21.8 z"
   id="path341" />
</g></svg>
