<?xml version="1.0" encoding="UTF-8" standalone="no"?>
<svg
   width="16"
   height="16"
   fill="white"
   class="bi bi-broadcast"
   viewBox="0 0 16 16"
   version="1.1"
   id="svg12"
   sodipodi:docname="favicon_white.svg"
   inkscape:version="1.2.1 (9c6d41e410, 2022-07-14)"
   xmlns:inkscape="http://www.inkscape.org/namespaces/inkscape"
   xmlns:sodipodi="http://sodipodi.sourceforge.net/DTD/sodipodi-0.dtd"
   xmlns="http://www.w3.org/2000/svg"
   xmlns:svg="http://www.w3.org/2000/svg">
  <defs
     id="defs16" />
  <sodipodi:namedview
     id="namedview14"
     pagecolor="#ffffff"
     bordercolor="#000000"
     borderopacity="0.25"
     inkscape:showpageshadow="2"
     inkscape:pageopacity="0.0"
     inkscape:pagecheckerboard="0"
     inkscape:deskcolor="#d1d1d1"
     showgrid="false"
     inkscape:zoom="52.6875"
     inkscape:cx="4.8208778"
     inkscape:cy="8.0189798"
     inkscape:window-width="1920"
     inkscape:window-height="1001"
     inkscape:window-x="-9"
     inkscape:window-y="1341"
     inkscape:window-maximized="1"
     inkscape:current-layer="svg12" />
  <path
     d="m 3.2423963,3.0661904 a 6.7010692,6.9770928 0 0 0 0,9.8676026 0.4786478,0.49836377 0 0 1 -0.676808,0.704686 7.6583648,7.9738204 0 0 1 0,-11.276975 0.4786478,0.49836377 0 0 1 0.676808,0.7046864 z m 2.0313813,2.1150559 a 3.8291824,3.9869102 0 0 0 0,5.6374907 0.47925243,0.49899331 0 1 1 -0.6777653,0.705683 4.786478,4.9836377 0 0 1 0,-7.0488568 0.47925243,0.49899331 0 0 1 0.6777653,0.7056831 z M 10.688241,4.4755632 a 0.4786478,0.49836377 0 0 1 0.677766,0 4.786478,4.9836377 0 0 1 0,7.0488568 0.47925265,0.49899354 0 1 1 -0.677766,-0.705683 3.8291824,3.9869102 0 0 0 0,-5.6374907 0.4786478,0.49836377 0 0 1 0,-0.7056831 z m 2.031382,-2.1130624 a 0.4786478,0.49836377 0 0 1 0.676808,0 7.6583648,7.9738204 0 0 1 0,11.2759782 0.4786478,0.49836377 0 0 1 -0.676808,-0.704686 6.7010692,6.9770928 0 0 0 0,-9.8676026 0.4786478,0.49836377 0 0 1 0,-0.7046864 z m -2.8240218,5.637491 a 1.9145914,1.9934561 0 1 1 -3.8291829,0 1.9145915,1.9934554 0 0 1 3.8291829,0 z"
     id="path10"
     style="fill:#ffffff;stroke-width:0.976813" />
  <path
     d="m 3.2331554,3.0592228 a 6.7010692,6.9770928 0 0 0 0,9.8675962 0.4786478,0.49836377 0 0 1 -0.676808,0.704686 7.6583648,7.9738204 0 0 1 0,-11.2769686 0.4786478,0.49836377 0 0 1 0.676808,0.7046864 z m 2.0313813,2.1150559 a 3.8291824,3.9869102 0 0 0 0,5.6374843 0.47925243,0.49899331 0 1 1 -0.6777653,0.705683 4.786478,4.9836377 0 0 1 0,-7.0488504 0.47925243,0.49899331 0 0 1 0.6777653,0.7056831 z M 10.679006,4.4685956 a 0.4786478,0.49836377 0 0 1 0.677766,0 4.786478,4.9836377 0 0 1 0,7.0488504 0.47925265,0.49899354 0 1 1 -0.677766,-0.705683 3.8291824,3.9869102 0 0 0 0,-5.6374843 0.4786478,0.49836377 0 0 1 0,-0.7056831 z m 2.031382,-2.1130624 a 0.4786478,0.49836377 0 0 1 0.676808,0 7.6583648,7.9738204 0 0 1 0,11.2759718 0.4786478,0.49836377 0 0 1 -0.676808,-0.704686 6.7010692,6.9770928 0 0 0 0,-9.8675962 0.4786478,0.49836377 0 0 1 0,-0.7046864 z m -2.8240272,5.637491 a 1.9145917,1.9934574 0 1 1 -3.8291834,0 1.9145917,1.9934556 0 0 1 3.8291834,0 z"
     id="path10-3"
     style="fill:#000000;stroke-width:0.25;opacity:1;fill-opacity:0;stroke:#000000;stroke-opacity:0.9758454;stroke-dasharray:none" />
</svg>
