<?xml version="1.0" encoding="UTF-8" standalone="no" ?>
<!DOCTYPE svg PUBLIC "-//W3C//DTD SVG 1.1//EN" "http://www.w3.org/Graphics/SVG/1.1/DTD/svg11.dtd">
<svg xmlns="http://www.w3.org/2000/svg" xmlns:xlink="http://www.w3.org/1999/xlink" version="1.1" width="1080" height="1080" viewBox="0 0 1080 1080" xml:space="preserve">
<desc>Created with Fabric.js 5.2.4</desc>
<defs>
</defs>
<g transform="matrix(1 0 0 1 540 540)" id="10c37fcd-9049-4b35-a8fe-30844151cb2e"  >
</g>
<g transform="matrix(1 0 0 1 540 540)" id="cca7d89e-f165-468c-bc3e-a38b6a5525b4"  >
<rect style="stroke: none; stroke-width: 1; stroke-dasharray: none; stroke-linecap: butt; stroke-dashoffset: 0; stroke-linejoin: miter; stroke-miterlimit: 4; fill: rgb(255,255,255); fill-rule: nonzero; opacity: 1; visibility: hidden;" vector-effect="non-scaling-stroke"  x="-540" y="-540" rx="0" ry="0" width="1080" height="1080" />
</g>
<g transform="matrix(61.88 0 0 61.88 540 540)"  >
<path style="stroke: rgb(0,0,0); stroke-width: 17; stroke-dasharray: none; stroke-linecap: butt; stroke-dashoffset: 0; stroke-linejoin: miter; stroke-miterlimit: 4; fill: rgb(255,255,255); fill-rule: nonzero; opacity: 1;" vector-effect="non-scaling-stroke"  transform=" translate(-8, -8)" d="M 3.05 3.05 C 1.7370908605764348 4.36277517593774 0.9994949237270667 6.143360812936371 0.9994949237270667 7.999999999999999 C 0.9994949237270667 9.856639187063628 1.7370908605764344 11.637224824062258 3.05 12.95 C 3.239486104754057 13.146189443482154 3.2367761869485587 13.458042388510561 3.0439092877295604 13.65090928772956 C 2.8510423885105625 13.843776186948558 2.5391894434821545 13.846486104754057 2.3430000000000004 13.657 C 0.8426198091972896 12.156697123671993 -0.00029150477064110447 10.121803345664077 -0.00029150477064110447 8 C -0.00029150477064110447 5.878196654335923 0.8426198091972881 3.843302876328007 2.342999999999998 2.343 C 2.539189443482156 2.153513895245956 2.851042388510553 2.1562238130514597 3.0439092877295466 2.349090712270453 C 3.23677618694854 2.541957611489446 3.239486104754044 2.8538105565178435 3.05 3.05 z M 5.172 5.172 C 3.610472246668549 6.733999405943256 3.6104722466685484 9.266000594056745 5.172 10.828 C 5.367508801440101 11.0235088014401 5.367508801440101 11.3404911985599 5.172 11.536 C 4.9764911985598985 11.7315088014401 4.659508801440101 11.7315088014401 4.464 11.536 C 3.5260329470578866 10.598280237611919 2.999067750411581 9.326310878029005 2.999067750411581 8 C 2.999067750411581 6.673689121970994 3.5260329470578857 5.401719762388082 4.463999999999999 4.464 C 4.659508801440101 4.268491198559898 4.9764911985598985 4.268491198559898 5.172 4.4639999999999995 C 5.367508801440101 4.659508801440101 5.367508801440101 4.9764911985598985 5.172 5.172 z M 10.828 4.4639999999999995 C 10.921804263010166 4.369958299312365 11.049172739141758 4.317106216314581 11.181999999999999 4.317106216314581 C 11.314827260858241 4.317106216314581 11.442195736989833 4.369958299312365 11.536 4.4639999999999995 C 12.473967052942113 5.4017197623880815 13.000932249588418 6.673689121970992 13.000932249588418 7.999999999999998 C 13.000932249588418 9.326310878029005 12.473967052942115 10.598280237611917 11.536000000000001 11.535999999999998 C 11.3404911985599 11.7315088014401 11.0235088014401 11.7315088014401 10.828 11.536 C 10.632491198559899 11.3404911985599 10.632491198559899 11.0235088014401 10.828 10.828 C 12.38952775333145 9.266000594056743 12.389527753331452 6.733999405943256 10.828 5.172 C 10.733958299312365 5.078195736989833 10.68110621631458 4.950827260858241 10.68110621631458 4.818 C 10.68110621631458 4.685172739141758 10.733958299312365 4.5578042630101665 10.828 4.4639999999999995 z M 12.95 2.3439999999999994 C 13.145249925742906 2.1488090308335677 13.461750074257093 2.1488090308335672 13.657 2.343999999999999 C 16.780722030930715 5.468113277212813 16.780722030930715 10.532886722787183 13.657000000000002 13.656999999999998 C 13.460810556517847 13.846486104754069 13.148957611489429 13.843776186948576 12.956090712270427 13.650909287729572 C 12.763223813051424 13.45804238851057 12.76051389524593 13.146189443482152 12.95 12.95 C 14.262909139423567 11.63722482406226 15.000505076272933 9.856639187063628 15.000505076272933 7.999999999999998 C 15.000505076272933 6.143360812936368 14.262909139423565 4.3627751759377364 12.95 3.049999999999997 C 12.754809030833568 2.854750074257092 12.754809030833568 2.5382499257429063 12.95 2.342999999999999 z M 10 8 C 10 9.104569499661586 9.104569499661586 10 8 10 C 6.8954305003384135 10 6 9.104569499661586 6 8 C 6 6.8954305003384135 6.8954305003384135 6 8 6 C 9.104569499661586 6 10 6.895430500338413 10 7.999999999999999 z" stroke-linecap="round" />
</g>
</svg>